<?xml version="1.0" encoding="utf-8"?>
<svg xmlns="http://www.w3.org/2000/svg" xmlns:xlink="http://www.w3.org/1999/xlink" width="600" height="400" viewBox="0 0 2400 1600">
<defs>
  <clipPath id="clip060">
    <rect x="0" y="0" width="2400" height="1600"/>
  </clipPath>
</defs>
<path clip-path="url(#clip060)" d="
M0 1600 L2400 1600 L2400 0 L0 0  Z
  " fill="#ffffff" fill-rule="evenodd" fill-opacity="1"/>
<defs>
  <clipPath id="clip061">
    <rect x="480" y="0" width="1681" height="1600"/>
  </clipPath>
</defs>
<path clip-path="url(#clip060)" d="
M210.376 1423.18 L2352.76 1423.18 L2352.76 47.2441 L210.376 47.2441  Z
  " fill="#ffffff" fill-rule="evenodd" fill-opacity="1"/>
<defs>
  <clipPath id="clip062">
    <rect x="210" y="47" width="2143" height="1377"/>
  </clipPath>
</defs>
<polyline clip-path="url(#clip062)" style="stroke:#000000; stroke-linecap:butt; stroke-linejoin:round; stroke-width:2; stroke-opacity:0.1; fill:none" points="
  271.009,1423.18 271.009,47.2441 
  "/>
<polyline clip-path="url(#clip062)" style="stroke:#000000; stroke-linecap:butt; stroke-linejoin:round; stroke-width:2; stroke-opacity:0.1; fill:none" points="
  692.074,1423.18 692.074,47.2441 
  "/>
<polyline clip-path="url(#clip062)" style="stroke:#000000; stroke-linecap:butt; stroke-linejoin:round; stroke-width:2; stroke-opacity:0.1; fill:none" points="
  1113.14,1423.18 1113.14,47.2441 
  "/>
<polyline clip-path="url(#clip062)" style="stroke:#000000; stroke-linecap:butt; stroke-linejoin:round; stroke-width:2; stroke-opacity:0.1; fill:none" points="
  1534.2,1423.18 1534.2,47.2441 
  "/>
<polyline clip-path="url(#clip062)" style="stroke:#000000; stroke-linecap:butt; stroke-linejoin:round; stroke-width:2; stroke-opacity:0.1; fill:none" points="
  1955.27,1423.18 1955.27,47.2441 
  "/>
<polyline clip-path="url(#clip060)" style="stroke:#000000; stroke-linecap:butt; stroke-linejoin:round; stroke-width:4; stroke-opacity:1; fill:none" points="
  210.376,1423.18 2352.76,1423.18 
  "/>
<polyline clip-path="url(#clip060)" style="stroke:#000000; stroke-linecap:butt; stroke-linejoin:round; stroke-width:4; stroke-opacity:1; fill:none" points="
  271.009,1423.18 271.009,1404.28 
  "/>
<polyline clip-path="url(#clip060)" style="stroke:#000000; stroke-linecap:butt; stroke-linejoin:round; stroke-width:4; stroke-opacity:1; fill:none" points="
  692.074,1423.18 692.074,1404.28 
  "/>
<polyline clip-path="url(#clip060)" style="stroke:#000000; stroke-linecap:butt; stroke-linejoin:round; stroke-width:4; stroke-opacity:1; fill:none" points="
  1113.14,1423.18 1113.14,1404.28 
  "/>
<polyline clip-path="url(#clip060)" style="stroke:#000000; stroke-linecap:butt; stroke-linejoin:round; stroke-width:4; stroke-opacity:1; fill:none" points="
  1534.2,1423.18 1534.2,1404.28 
  "/>
<polyline clip-path="url(#clip060)" style="stroke:#000000; stroke-linecap:butt; stroke-linejoin:round; stroke-width:4; stroke-opacity:1; fill:none" points="
  1955.27,1423.18 1955.27,1404.28 
  "/>
<path clip-path="url(#clip060)" d="M248.393 1454.1 Q244.782 1454.1 242.954 1457.66 Q241.148 1461.2 241.148 1468.33 Q241.148 1475.44 242.954 1479.01 Q244.782 1482.55 248.393 1482.55 Q252.028 1482.55 253.833 1479.01 Q255.662 1475.44 255.662 1468.33 Q255.662 1461.2 253.833 1457.66 Q252.028 1454.1 248.393 1454.1 M248.393 1450.39 Q254.204 1450.39 257.259 1455 Q260.338 1459.58 260.338 1468.33 Q260.338 1477.06 257.259 1481.67 Q254.204 1486.25 248.393 1486.25 Q242.583 1486.25 239.505 1481.67 Q236.449 1477.06 236.449 1468.33 Q236.449 1459.58 239.505 1455 Q242.583 1450.39 248.393 1450.39 Z" fill="#000000" fill-rule="evenodd" fill-opacity="1" /><path clip-path="url(#clip060)" d="M268.555 1479.7 L273.44 1479.7 L273.44 1485.58 L268.555 1485.58 L268.555 1479.7 Z" fill="#000000" fill-rule="evenodd" fill-opacity="1" /><path clip-path="url(#clip060)" d="M293.625 1454.1 Q290.014 1454.1 288.185 1457.66 Q286.379 1461.2 286.379 1468.33 Q286.379 1475.44 288.185 1479.01 Q290.014 1482.55 293.625 1482.55 Q297.259 1482.55 299.064 1479.01 Q300.893 1475.44 300.893 1468.33 Q300.893 1461.2 299.064 1457.66 Q297.259 1454.1 293.625 1454.1 M293.625 1450.39 Q299.435 1450.39 302.49 1455 Q305.569 1459.58 305.569 1468.33 Q305.569 1477.06 302.49 1481.67 Q299.435 1486.25 293.625 1486.25 Q287.814 1486.25 284.736 1481.67 Q281.68 1477.06 281.68 1468.33 Q281.68 1459.58 284.736 1455 Q287.814 1450.39 293.625 1450.39 Z" fill="#000000" fill-rule="evenodd" fill-opacity="1" /><path clip-path="url(#clip060)" d="M663.811 1481.64 L680.13 1481.64 L680.13 1485.58 L658.186 1485.58 L658.186 1481.64 Q660.848 1478.89 665.431 1474.26 Q670.037 1469.61 671.218 1468.27 Q673.463 1465.74 674.343 1464.01 Q675.246 1462.25 675.246 1460.56 Q675.246 1457.8 673.301 1456.07 Q671.38 1454.33 668.278 1454.33 Q666.079 1454.33 663.625 1455.09 Q661.195 1455.86 658.417 1457.41 L658.417 1452.69 Q661.241 1451.55 663.695 1450.97 Q666.149 1450.39 668.186 1450.39 Q673.556 1450.39 676.75 1453.08 Q679.945 1455.77 679.945 1460.26 Q679.945 1462.39 679.135 1464.31 Q678.348 1466.2 676.241 1468.8 Q675.662 1469.47 672.561 1472.69 Q669.459 1475.88 663.811 1481.64 Z" fill="#000000" fill-rule="evenodd" fill-opacity="1" /><path clip-path="url(#clip060)" d="M689.945 1479.7 L694.829 1479.7 L694.829 1485.58 L689.945 1485.58 L689.945 1479.7 Z" fill="#000000" fill-rule="evenodd" fill-opacity="1" /><path clip-path="url(#clip060)" d="M705.06 1451.02 L723.417 1451.02 L723.417 1454.96 L709.343 1454.96 L709.343 1463.43 Q710.361 1463.08 711.38 1462.92 Q712.398 1462.73 713.417 1462.73 Q719.204 1462.73 722.583 1465.9 Q725.963 1469.08 725.963 1474.49 Q725.963 1480.07 722.491 1483.17 Q719.019 1486.25 712.699 1486.25 Q710.523 1486.25 708.255 1485.88 Q706.009 1485.51 703.602 1484.77 L703.602 1480.07 Q705.685 1481.2 707.908 1481.76 Q710.13 1482.32 712.607 1482.32 Q716.611 1482.32 718.949 1480.21 Q721.287 1478.1 721.287 1474.49 Q721.287 1470.88 718.949 1468.77 Q716.611 1466.67 712.607 1466.67 Q710.732 1466.67 708.857 1467.08 Q707.005 1467.5 705.06 1468.38 L705.06 1451.02 Z" fill="#000000" fill-rule="evenodd" fill-opacity="1" /><path clip-path="url(#clip060)" d="M1080.3 1451.02 L1098.66 1451.02 L1098.66 1454.96 L1084.59 1454.96 L1084.59 1463.43 Q1085.61 1463.08 1086.62 1462.92 Q1087.64 1462.73 1088.66 1462.73 Q1094.45 1462.73 1097.83 1465.9 Q1101.21 1469.08 1101.21 1474.49 Q1101.21 1480.07 1097.73 1483.17 Q1094.26 1486.25 1087.94 1486.25 Q1085.77 1486.25 1083.5 1485.88 Q1081.25 1485.51 1078.85 1484.77 L1078.85 1480.07 Q1080.93 1481.2 1083.15 1481.76 Q1085.37 1482.32 1087.85 1482.32 Q1091.86 1482.32 1094.19 1480.21 Q1096.53 1478.1 1096.53 1474.49 Q1096.53 1470.88 1094.19 1468.77 Q1091.86 1466.67 1087.85 1466.67 Q1085.98 1466.67 1084.1 1467.08 Q1082.25 1467.5 1080.3 1468.38 L1080.3 1451.02 Z" fill="#000000" fill-rule="evenodd" fill-opacity="1" /><path clip-path="url(#clip060)" d="M1110.42 1479.7 L1115.3 1479.7 L1115.3 1485.58 L1110.42 1485.58 L1110.42 1479.7 Z" fill="#000000" fill-rule="evenodd" fill-opacity="1" /><path clip-path="url(#clip060)" d="M1135.49 1454.1 Q1131.88 1454.1 1130.05 1457.66 Q1128.24 1461.2 1128.24 1468.33 Q1128.24 1475.44 1130.05 1479.01 Q1131.88 1482.55 1135.49 1482.55 Q1139.12 1482.55 1140.93 1479.01 Q1142.76 1475.44 1142.76 1468.33 Q1142.76 1461.2 1140.93 1457.66 Q1139.12 1454.1 1135.49 1454.1 M1135.49 1450.39 Q1141.3 1450.39 1144.35 1455 Q1147.43 1459.58 1147.43 1468.33 Q1147.43 1477.06 1144.35 1481.67 Q1141.3 1486.25 1135.49 1486.25 Q1129.68 1486.25 1126.6 1481.67 Q1123.54 1477.06 1123.54 1468.33 Q1123.54 1459.58 1126.6 1455 Q1129.68 1450.39 1135.49 1450.39 Z" fill="#000000" fill-rule="evenodd" fill-opacity="1" /><path clip-path="url(#clip060)" d="M1500.52 1451.02 L1522.75 1451.02 L1522.75 1453.01 L1510.2 1485.58 L1505.32 1485.58 L1517.12 1454.96 L1500.52 1454.96 L1500.52 1451.02 Z" fill="#000000" fill-rule="evenodd" fill-opacity="1" /><path clip-path="url(#clip060)" d="M1531.87 1479.7 L1536.75 1479.7 L1536.75 1485.58 L1531.87 1485.58 L1531.87 1479.7 Z" fill="#000000" fill-rule="evenodd" fill-opacity="1" /><path clip-path="url(#clip060)" d="M1546.98 1451.02 L1565.34 1451.02 L1565.34 1454.96 L1551.27 1454.96 L1551.27 1463.43 Q1552.28 1463.08 1553.3 1462.92 Q1554.32 1462.73 1555.34 1462.73 Q1561.13 1462.73 1564.51 1465.9 Q1567.89 1469.08 1567.89 1474.49 Q1567.89 1480.07 1564.41 1483.17 Q1560.94 1486.25 1554.62 1486.25 Q1552.45 1486.25 1550.18 1485.88 Q1547.93 1485.51 1545.52 1484.77 L1545.52 1480.07 Q1547.61 1481.2 1549.83 1481.76 Q1552.05 1482.32 1554.53 1482.32 Q1558.53 1482.32 1560.87 1480.21 Q1563.21 1478.1 1563.21 1474.49 Q1563.21 1470.88 1560.87 1468.77 Q1558.53 1466.67 1554.53 1466.67 Q1552.65 1466.67 1550.78 1467.08 Q1548.93 1467.5 1546.98 1468.38 L1546.98 1451.02 Z" fill="#000000" fill-rule="evenodd" fill-opacity="1" /><path clip-path="url(#clip060)" d="M1907.34 1481.64 L1914.98 1481.64 L1914.98 1455.28 L1906.67 1456.95 L1906.67 1452.69 L1914.93 1451.02 L1919.61 1451.02 L1919.61 1481.64 L1927.25 1481.64 L1927.25 1485.58 L1907.34 1485.58 L1907.34 1481.64 Z" fill="#000000" fill-rule="evenodd" fill-opacity="1" /><path clip-path="url(#clip060)" d="M1946.69 1454.1 Q1943.08 1454.1 1941.25 1457.66 Q1939.45 1461.2 1939.45 1468.33 Q1939.45 1475.44 1941.25 1479.01 Q1943.08 1482.55 1946.69 1482.55 Q1950.33 1482.55 1952.13 1479.01 Q1953.96 1475.44 1953.96 1468.33 Q1953.96 1461.2 1952.13 1457.66 Q1950.33 1454.1 1946.69 1454.1 M1946.69 1450.39 Q1952.5 1450.39 1955.56 1455 Q1958.64 1459.58 1958.64 1468.33 Q1958.64 1477.06 1955.56 1481.67 Q1952.5 1486.25 1946.69 1486.25 Q1940.88 1486.25 1937.81 1481.67 Q1934.75 1477.06 1934.75 1468.33 Q1934.75 1459.58 1937.81 1455 Q1940.88 1450.39 1946.69 1450.39 Z" fill="#000000" fill-rule="evenodd" fill-opacity="1" /><path clip-path="url(#clip060)" d="M1966.86 1479.7 L1971.74 1479.7 L1971.74 1485.58 L1966.86 1485.58 L1966.86 1479.7 Z" fill="#000000" fill-rule="evenodd" fill-opacity="1" /><path clip-path="url(#clip060)" d="M1991.93 1454.1 Q1988.31 1454.1 1986.49 1457.66 Q1984.68 1461.2 1984.68 1468.33 Q1984.68 1475.44 1986.49 1479.01 Q1988.31 1482.55 1991.93 1482.55 Q1995.56 1482.55 1997.36 1479.01 Q1999.19 1475.44 1999.19 1468.33 Q1999.19 1461.2 1997.36 1457.66 Q1995.56 1454.1 1991.93 1454.1 M1991.93 1450.39 Q1997.74 1450.39 2000.79 1455 Q2003.87 1459.58 2003.87 1468.33 Q2003.87 1477.06 2000.79 1481.67 Q1997.74 1486.25 1991.93 1486.25 Q1986.11 1486.25 1983.04 1481.67 Q1979.98 1477.06 1979.98 1468.33 Q1979.98 1459.58 1983.04 1455 Q1986.11 1450.39 1991.93 1450.39 Z" fill="#000000" fill-rule="evenodd" fill-opacity="1" /><path clip-path="url(#clip060)" d="M1113.26 1532.4 L1100.37 1549.74 L1113.92 1568.04 L1107.02 1568.04 L1096.64 1554.04 L1086.27 1568.04 L1079.36 1568.04 L1093.2 1549.39 L1080.54 1532.4 L1087.44 1532.4 L1096.9 1545.1 L1106.35 1532.4 L1113.26 1532.4 Z" fill="#000000" fill-rule="evenodd" fill-opacity="1" /><path clip-path="url(#clip060)" d="M1119.24 1547.58 L1136.4 1547.58 L1136.4 1552.8 L1119.24 1552.8 L1119.24 1547.58 Z" fill="#000000" fill-rule="evenodd" fill-opacity="1" /><path clip-path="url(#clip060)" d="M1171.38 1533.76 L1171.38 1539.24 Q1168.89 1537.87 1166.38 1537.2 Q1163.9 1536.5 1161.35 1536.5 Q1155.65 1536.5 1152.5 1540.13 Q1149.35 1543.73 1149.35 1550.25 Q1149.35 1556.78 1152.5 1560.4 Q1155.65 1564 1161.35 1564 Q1163.9 1564 1166.38 1563.33 Q1168.89 1562.63 1171.38 1561.26 L1171.38 1566.68 Q1168.92 1567.82 1166.28 1568.39 Q1163.67 1568.97 1160.71 1568.97 Q1152.66 1568.97 1147.92 1563.91 Q1143.18 1558.85 1143.18 1550.25 Q1143.18 1541.53 1147.95 1536.53 Q1152.76 1531.54 1161.09 1531.54 Q1163.8 1531.54 1166.38 1532.11 Q1168.96 1532.65 1171.38 1533.76 Z" fill="#000000" fill-rule="evenodd" fill-opacity="1" /><path clip-path="url(#clip060)" d="M1195.37 1536.5 Q1190.66 1536.5 1187.93 1540.19 Q1185.19 1543.85 1185.19 1550.25 Q1185.19 1556.65 1187.89 1560.34 Q1190.63 1564 1195.37 1564 Q1200.05 1564 1202.79 1560.31 Q1205.53 1556.62 1205.53 1550.25 Q1205.53 1543.92 1202.79 1540.23 Q1200.05 1536.5 1195.37 1536.5 M1195.37 1531.54 Q1203.01 1531.54 1207.37 1536.5 Q1211.73 1541.47 1211.73 1550.25 Q1211.73 1559 1207.37 1564 Q1203.01 1568.97 1195.37 1568.97 Q1187.7 1568.97 1183.34 1564 Q1179.01 1559 1179.01 1550.25 Q1179.01 1541.47 1183.34 1536.5 Q1187.7 1531.54 1195.37 1531.54 Z" fill="#000000" fill-rule="evenodd" fill-opacity="1" /><path clip-path="url(#clip060)" d="M1235.26 1536.5 Q1230.54 1536.5 1227.81 1540.19 Q1225.07 1543.85 1225.07 1550.25 Q1225.07 1556.65 1227.78 1560.34 Q1230.51 1564 1235.26 1564 Q1239.93 1564 1242.67 1560.31 Q1245.41 1556.62 1245.41 1550.25 Q1245.41 1543.92 1242.67 1540.23 Q1239.93 1536.5 1235.26 1536.5 M1235.26 1531.54 Q1242.89 1531.54 1247.25 1536.5 Q1251.62 1541.47 1251.62 1550.25 Q1251.62 1559 1247.25 1564 Q1242.89 1568.97 1235.26 1568.97 Q1227.58 1568.97 1223.22 1564 Q1218.9 1559 1218.9 1550.25 Q1218.9 1541.47 1223.22 1536.5 Q1227.58 1531.54 1235.26 1531.54 Z" fill="#000000" fill-rule="evenodd" fill-opacity="1" /><path clip-path="url(#clip060)" d="M1281.98 1537.87 Q1280.99 1537.3 1279.82 1537.04 Q1278.67 1536.76 1277.27 1536.76 Q1272.3 1536.76 1269.63 1540 Q1266.99 1543.22 1266.99 1549.27 L1266.99 1568.04 L1261.1 1568.04 L1261.1 1532.4 L1266.99 1532.4 L1266.99 1537.93 Q1268.83 1534.69 1271.79 1533.13 Q1274.75 1531.54 1278.99 1531.54 Q1279.59 1531.54 1280.32 1531.63 Q1281.06 1531.7 1281.95 1531.85 L1281.98 1537.87 Z" fill="#000000" fill-rule="evenodd" fill-opacity="1" /><path clip-path="url(#clip060)" d="M1310.43 1537.81 L1310.43 1518.52 L1316.29 1518.52 L1316.29 1568.04 L1310.43 1568.04 L1310.43 1562.7 Q1308.59 1565.88 1305.76 1567.44 Q1302.95 1568.97 1299.01 1568.97 Q1292.55 1568.97 1288.47 1563.81 Q1284.43 1558.65 1284.43 1550.25 Q1284.43 1541.85 1288.47 1536.69 Q1292.55 1531.54 1299.01 1531.54 Q1302.95 1531.54 1305.76 1533.1 Q1308.59 1534.62 1310.43 1537.81 M1290.48 1550.25 Q1290.48 1556.71 1293.12 1560.4 Q1295.79 1564.07 1300.44 1564.07 Q1305.09 1564.07 1307.76 1560.4 Q1310.43 1556.71 1310.43 1550.25 Q1310.43 1543.79 1307.76 1540.13 Q1305.09 1536.44 1300.44 1536.44 Q1295.79 1536.44 1293.12 1540.13 Q1290.48 1543.79 1290.48 1550.25 Z" fill="#000000" fill-rule="evenodd" fill-opacity="1" /><path clip-path="url(#clip060)" d="M1328.35 1532.4 L1334.21 1532.4 L1334.21 1568.04 L1328.35 1568.04 L1328.35 1532.4 M1328.35 1518.52 L1334.21 1518.52 L1334.21 1525.93 L1328.35 1525.93 L1328.35 1518.52 Z" fill="#000000" fill-rule="evenodd" fill-opacity="1" /><path clip-path="url(#clip060)" d="M1376.1 1546.53 L1376.1 1568.04 L1370.24 1568.04 L1370.24 1546.72 Q1370.24 1541.66 1368.27 1539.14 Q1366.29 1536.63 1362.35 1536.63 Q1357.6 1536.63 1354.87 1539.65 Q1352.13 1542.68 1352.13 1547.9 L1352.13 1568.04 L1346.24 1568.04 L1346.24 1532.4 L1352.13 1532.4 L1352.13 1537.93 Q1354.23 1534.72 1357.06 1533.13 Q1359.93 1531.54 1363.65 1531.54 Q1369.79 1531.54 1372.95 1535.36 Q1376.1 1539.14 1376.1 1546.53 Z" fill="#000000" fill-rule="evenodd" fill-opacity="1" /><path clip-path="url(#clip060)" d="M1403.98 1550.12 Q1396.88 1550.12 1394.14 1551.75 Q1391.41 1553.37 1391.41 1557.29 Q1391.41 1560.4 1393.44 1562.25 Q1395.51 1564.07 1399.04 1564.07 Q1403.91 1564.07 1406.84 1560.63 Q1409.8 1557.16 1409.8 1551.43 L1409.8 1550.12 L1403.98 1550.12 M1415.66 1547.71 L1415.66 1568.04 L1409.8 1568.04 L1409.8 1562.63 Q1407.8 1565.88 1404.81 1567.44 Q1401.81 1568.97 1397.49 1568.97 Q1392.01 1568.97 1388.76 1565.91 Q1385.55 1562.82 1385.55 1557.67 Q1385.55 1551.65 1389.56 1548.6 Q1393.6 1545.54 1401.59 1545.54 L1409.8 1545.54 L1409.8 1544.97 Q1409.8 1540.93 1407.13 1538.73 Q1404.49 1536.5 1399.68 1536.5 Q1396.63 1536.5 1393.73 1537.23 Q1390.83 1537.97 1388.16 1539.43 L1388.16 1534.02 Q1391.37 1532.78 1394.4 1532.17 Q1397.42 1531.54 1400.29 1531.54 Q1408.02 1531.54 1411.84 1535.55 Q1415.66 1539.56 1415.66 1547.71 Z" fill="#000000" fill-rule="evenodd" fill-opacity="1" /><path clip-path="url(#clip060)" d="M1433.52 1522.27 L1433.52 1532.4 L1445.58 1532.4 L1445.58 1536.95 L1433.52 1536.95 L1433.52 1556.3 Q1433.52 1560.66 1434.69 1561.9 Q1435.9 1563.14 1439.56 1563.14 L1445.58 1563.14 L1445.58 1568.04 L1439.56 1568.04 Q1432.78 1568.04 1430.2 1565.53 Q1427.63 1562.98 1427.63 1556.3 L1427.63 1536.95 L1423.33 1536.95 L1423.33 1532.4 L1427.63 1532.4 L1427.63 1522.27 L1433.52 1522.27 Z" fill="#000000" fill-rule="evenodd" fill-opacity="1" /><path clip-path="url(#clip060)" d="M1483.77 1548.76 L1483.77 1551.62 L1456.85 1551.62 Q1457.23 1557.67 1460.47 1560.85 Q1463.75 1564 1469.58 1564 Q1472.95 1564 1476.1 1563.17 Q1479.28 1562.35 1482.4 1560.69 L1482.4 1566.23 Q1479.25 1567.57 1475.94 1568.27 Q1472.63 1568.97 1469.23 1568.97 Q1460.7 1568.97 1455.7 1564 Q1450.73 1559.04 1450.73 1550.57 Q1450.73 1541.82 1455.45 1536.69 Q1460.19 1531.54 1468.21 1531.54 Q1475.4 1531.54 1479.57 1536.18 Q1483.77 1540.8 1483.77 1548.76 M1477.92 1547.04 Q1477.85 1542.23 1475.21 1539.37 Q1472.6 1536.5 1468.27 1536.5 Q1463.37 1536.5 1460.41 1539.27 Q1457.48 1542.04 1457.04 1547.07 L1477.92 1547.04 Z" fill="#000000" fill-rule="evenodd" fill-opacity="1" /><polyline clip-path="url(#clip062)" style="stroke:#000000; stroke-linecap:butt; stroke-linejoin:round; stroke-width:2; stroke-opacity:0.1; fill:none" points="
  210.376,1324.7 2352.76,1324.7 
  "/>
<polyline clip-path="url(#clip062)" style="stroke:#000000; stroke-linecap:butt; stroke-linejoin:round; stroke-width:2; stroke-opacity:0.1; fill:none" points="
  210.376,987.851 2352.76,987.851 
  "/>
<polyline clip-path="url(#clip062)" style="stroke:#000000; stroke-linecap:butt; stroke-linejoin:round; stroke-width:2; stroke-opacity:0.1; fill:none" points="
  210.376,650.999 2352.76,650.999 
  "/>
<polyline clip-path="url(#clip062)" style="stroke:#000000; stroke-linecap:butt; stroke-linejoin:round; stroke-width:2; stroke-opacity:0.1; fill:none" points="
  210.376,314.147 2352.76,314.147 
  "/>
<polyline clip-path="url(#clip060)" style="stroke:#000000; stroke-linecap:butt; stroke-linejoin:round; stroke-width:4; stroke-opacity:1; fill:none" points="
  210.376,1423.18 210.376,47.2441 
  "/>
<polyline clip-path="url(#clip060)" style="stroke:#000000; stroke-linecap:butt; stroke-linejoin:round; stroke-width:4; stroke-opacity:1; fill:none" points="
  210.376,1324.7 229.273,1324.7 
  "/>
<polyline clip-path="url(#clip060)" style="stroke:#000000; stroke-linecap:butt; stroke-linejoin:round; stroke-width:4; stroke-opacity:1; fill:none" points="
  210.376,987.851 229.273,987.851 
  "/>
<polyline clip-path="url(#clip060)" style="stroke:#000000; stroke-linecap:butt; stroke-linejoin:round; stroke-width:4; stroke-opacity:1; fill:none" points="
  210.376,650.999 229.273,650.999 
  "/>
<polyline clip-path="url(#clip060)" style="stroke:#000000; stroke-linecap:butt; stroke-linejoin:round; stroke-width:4; stroke-opacity:1; fill:none" points="
  210.376,314.147 229.273,314.147 
  "/>
<path clip-path="url(#clip060)" d="M114.26 1325.15 L143.936 1325.15 L143.936 1329.09 L114.26 1329.09 L114.26 1325.15 Z" fill="#000000" fill-rule="evenodd" fill-opacity="1" /><path clip-path="url(#clip060)" d="M158.056 1338.05 L174.376 1338.05 L174.376 1341.98 L152.431 1341.98 L152.431 1338.05 Q155.093 1335.29 159.677 1330.66 Q164.283 1326.01 165.464 1324.67 Q167.709 1322.15 168.589 1320.41 Q169.491 1318.65 169.491 1316.96 Q169.491 1314.21 167.547 1312.47 Q165.626 1310.73 162.524 1310.73 Q160.325 1310.73 157.871 1311.5 Q155.44 1312.26 152.663 1313.81 L152.663 1309.09 Q155.487 1307.96 157.94 1307.38 Q160.394 1306.8 162.431 1306.8 Q167.802 1306.8 170.996 1309.48 Q174.19 1312.17 174.19 1316.66 Q174.19 1318.79 173.38 1320.71 Q172.593 1322.61 170.487 1325.2 Q169.908 1325.87 166.806 1329.09 Q163.704 1332.28 158.056 1338.05 Z" fill="#000000" fill-rule="evenodd" fill-opacity="1" /><path clip-path="url(#clip060)" d="M162.431 973.65 Q158.82 973.65 156.991 977.215 Q155.186 980.756 155.186 987.886 Q155.186 994.992 156.991 998.557 Q158.82 1002.1 162.431 1002.1 Q166.065 1002.1 167.871 998.557 Q169.7 994.992 169.7 987.886 Q169.7 980.756 167.871 977.215 Q166.065 973.65 162.431 973.65 M162.431 969.946 Q168.241 969.946 171.297 974.553 Q174.376 979.136 174.376 987.886 Q174.376 996.613 171.297 1001.22 Q168.241 1005.8 162.431 1005.8 Q156.621 1005.8 153.542 1001.22 Q150.487 996.613 150.487 987.886 Q150.487 979.136 153.542 974.553 Q156.621 969.946 162.431 969.946 Z" fill="#000000" fill-rule="evenodd" fill-opacity="1" /><path clip-path="url(#clip060)" d="M158.056 664.344 L174.376 664.344 L174.376 668.279 L152.431 668.279 L152.431 664.344 Q155.093 661.589 159.677 656.96 Q164.283 652.307 165.464 650.964 Q167.709 648.441 168.589 646.705 Q169.491 644.946 169.491 643.256 Q169.491 640.501 167.547 638.765 Q165.626 637.029 162.524 637.029 Q160.325 637.029 157.871 637.793 Q155.44 638.557 152.663 640.108 L152.663 635.386 Q155.487 634.251 157.94 633.673 Q160.394 633.094 162.431 633.094 Q167.802 633.094 170.996 635.779 Q174.19 638.464 174.19 642.955 Q174.19 645.085 173.38 647.006 Q172.593 648.904 170.487 651.497 Q169.908 652.168 166.806 655.385 Q163.704 658.58 158.056 664.344 Z" fill="#000000" fill-rule="evenodd" fill-opacity="1" /><path clip-path="url(#clip060)" d="M164.792 300.941 L152.987 319.39 L164.792 319.39 L164.792 300.941 M163.565 296.867 L169.445 296.867 L169.445 319.39 L174.376 319.39 L174.376 323.279 L169.445 323.279 L169.445 331.427 L164.792 331.427 L164.792 323.279 L149.191 323.279 L149.191 318.765 L163.565 296.867 Z" fill="#000000" fill-rule="evenodd" fill-opacity="1" /><path clip-path="url(#clip060)" d="M67.3143 917.78 Q73.68 920.263 75.6216 922.618 Q77.5631 924.974 77.5631 928.92 L77.5631 933.599 L72.6615 933.599 L72.6615 930.162 Q72.6615 927.743 71.5157 926.406 Q70.3699 925.069 66.1048 923.446 L63.4312 922.396 L28.3562 936.814 L28.3562 930.607 L56.238 919.467 L28.3562 908.327 L28.3562 902.121 L67.3143 917.78 Z" fill="#000000" fill-rule="evenodd" fill-opacity="1" /><path clip-path="url(#clip060)" d="M43.5384 898.142 L43.5384 880.987 L48.7583 880.987 L48.7583 898.142 L43.5384 898.142 Z" fill="#000000" fill-rule="evenodd" fill-opacity="1" /><path clip-path="url(#clip060)" d="M29.7248 846.007 L35.1993 846.007 Q33.8307 848.49 33.1623 851.004 Q32.4621 853.487 32.4621 856.033 Q32.4621 861.73 36.0905 864.881 Q39.6872 868.032 46.212 868.032 Q52.7369 868.032 56.3653 864.881 Q59.9619 861.73 59.9619 856.033 Q59.9619 853.487 59.2935 851.004 Q58.5933 848.49 57.2247 846.007 L62.6355 846.007 Q63.7814 848.458 64.3543 851.1 Q64.9272 853.71 64.9272 856.67 Q64.9272 864.722 59.8664 869.465 Q54.8057 874.207 46.212 874.207 Q37.491 874.207 32.4939 869.433 Q27.4968 864.627 27.4968 856.288 Q27.4968 853.582 28.0697 851.004 Q28.6108 848.426 29.7248 846.007 Z" fill="#000000" fill-rule="evenodd" fill-opacity="1" /><path clip-path="url(#clip060)" d="M32.4621 822.008 Q32.4621 826.719 36.1542 829.456 Q39.8145 832.194 46.212 832.194 Q52.6095 832.194 56.3017 829.488 Q59.9619 826.751 59.9619 822.008 Q59.9619 817.33 56.2698 814.592 Q52.5777 811.855 46.212 811.855 Q39.8781 811.855 36.186 814.592 Q32.4621 817.33 32.4621 822.008 M27.4968 822.008 Q27.4968 814.37 32.4621 810.009 Q37.4273 805.649 46.212 805.649 Q54.9649 805.649 59.9619 810.009 Q64.9272 814.37 64.9272 822.008 Q64.9272 829.679 59.9619 834.04 Q54.9649 838.368 46.212 838.368 Q37.4273 838.368 32.4621 834.04 Q27.4968 829.679 27.4968 822.008 Z" fill="#000000" fill-rule="evenodd" fill-opacity="1" /><path clip-path="url(#clip060)" d="M32.4621 782.127 Q32.4621 786.838 36.1542 789.575 Q39.8145 792.312 46.212 792.312 Q52.6095 792.312 56.3017 789.607 Q59.9619 786.87 59.9619 782.127 Q59.9619 777.448 56.2698 774.711 Q52.5777 771.974 46.212 771.974 Q39.8781 771.974 36.186 774.711 Q32.4621 777.448 32.4621 782.127 M27.4968 782.127 Q27.4968 774.488 32.4621 770.128 Q37.4273 765.767 46.212 765.767 Q54.9649 765.767 59.9619 770.128 Q64.9272 774.488 64.9272 782.127 Q64.9272 789.798 59.9619 794.158 Q54.9649 798.487 46.212 798.487 Q37.4273 798.487 32.4621 794.158 Q27.4968 789.798 27.4968 782.127 Z" fill="#000000" fill-rule="evenodd" fill-opacity="1" /><path clip-path="url(#clip060)" d="M33.8307 735.403 Q33.2578 736.39 33.0032 737.567 Q32.7167 738.713 32.7167 740.114 Q32.7167 745.079 35.9632 747.752 Q39.1779 750.394 45.2253 750.394 L64.0042 750.394 L64.0042 756.282 L28.3562 756.282 L28.3562 750.394 L33.8944 750.394 Q30.6479 748.548 29.0883 745.588 Q27.4968 742.628 27.4968 738.395 Q27.4968 737.79 27.5923 737.058 Q27.656 736.326 27.8151 735.435 L33.8307 735.403 Z" fill="#000000" fill-rule="evenodd" fill-opacity="1" /><path clip-path="url(#clip060)" d="M33.7671 706.948 L14.479 706.948 L14.479 701.092 L64.0042 701.092 L64.0042 706.948 L58.657 706.948 Q61.8398 708.794 63.3994 711.627 Q64.9272 714.428 64.9272 718.375 Q64.9272 724.836 59.771 728.91 Q54.6147 732.952 46.212 732.952 Q37.8093 732.952 32.6531 728.91 Q27.4968 724.836 27.4968 718.375 Q27.4968 714.428 29.0564 711.627 Q30.5842 708.794 33.7671 706.948 M46.212 726.905 Q52.6732 726.905 56.3653 724.263 Q60.0256 721.589 60.0256 716.942 Q60.0256 712.295 56.3653 709.622 Q52.6732 706.948 46.212 706.948 Q39.7508 706.948 36.0905 709.622 Q32.3984 712.295 32.3984 716.942 Q32.3984 721.589 36.0905 724.263 Q39.7508 726.905 46.212 726.905 Z" fill="#000000" fill-rule="evenodd" fill-opacity="1" /><path clip-path="url(#clip060)" d="M28.3562 689.029 L28.3562 683.172 L64.0042 683.172 L64.0042 689.029 L28.3562 689.029 M14.479 689.029 L14.479 683.172 L21.895 683.172 L21.895 689.029 L14.479 689.029 Z" fill="#000000" fill-rule="evenodd" fill-opacity="1" /><path clip-path="url(#clip060)" d="M42.4881 641.286 L64.0042 641.286 L64.0042 647.142 L42.679 647.142 Q37.6183 647.142 35.1038 649.116 Q32.5894 651.089 32.5894 655.036 Q32.5894 659.778 35.6131 662.516 Q38.6368 665.253 43.8567 665.253 L64.0042 665.253 L64.0042 671.141 L28.3562 671.141 L28.3562 665.253 L33.8944 665.253 Q30.6797 663.152 29.0883 660.319 Q27.4968 657.455 27.4968 653.731 Q27.4968 647.588 31.3163 644.437 Q35.1038 641.286 42.4881 641.286 Z" fill="#000000" fill-rule="evenodd" fill-opacity="1" /><path clip-path="url(#clip060)" d="M46.0847 613.404 Q46.0847 620.502 47.7079 623.239 Q49.3312 625.976 53.2461 625.976 Q56.3653 625.976 58.2114 623.939 Q60.0256 621.871 60.0256 618.338 Q60.0256 613.468 56.5881 610.54 Q53.1188 607.58 47.3897 607.58 L46.0847 607.58 L46.0847 613.404 M43.6657 601.723 L64.0042 601.723 L64.0042 607.58 L58.5933 607.58 Q61.8398 609.585 63.3994 612.577 Q64.9272 615.569 64.9272 619.897 Q64.9272 625.372 61.8716 628.618 Q58.7843 631.833 53.6281 631.833 Q47.6125 631.833 44.5569 627.822 Q41.5014 623.78 41.5014 615.791 L41.5014 607.58 L40.9285 607.58 Q36.8862 607.58 34.6901 610.253 Q32.4621 612.895 32.4621 617.701 Q32.4621 620.757 33.1941 623.653 Q33.9262 626.549 35.3903 629.223 L29.9795 629.223 Q28.7381 626.008 28.1334 622.985 Q27.4968 619.961 27.4968 617.096 Q27.4968 609.362 31.5072 605.543 Q35.5176 601.723 43.6657 601.723 Z" fill="#000000" fill-rule="evenodd" fill-opacity="1" /><path clip-path="url(#clip060)" d="M18.2347 583.867 L28.3562 583.867 L28.3562 571.804 L32.9077 571.804 L32.9077 583.867 L52.2594 583.867 Q56.6199 583.867 57.8613 582.69 Q59.1026 581.48 59.1026 577.82 L59.1026 571.804 L64.0042 571.804 L64.0042 577.82 Q64.0042 584.599 61.4897 587.177 Q58.9434 589.756 52.2594 589.756 L32.9077 589.756 L32.9077 594.052 L28.3562 594.052 L28.3562 589.756 L18.2347 589.756 L18.2347 583.867 Z" fill="#000000" fill-rule="evenodd" fill-opacity="1" /><path clip-path="url(#clip060)" d="M44.7161 533.61 L47.5806 533.61 L47.5806 560.537 Q53.6281 560.155 56.8109 556.909 Q59.9619 553.63 59.9619 547.806 Q59.9619 544.432 59.1344 541.281 Q58.3069 538.098 56.6518 534.979 L62.1899 534.979 Q63.5267 538.13 64.227 541.44 Q64.9272 544.75 64.9272 548.156 Q64.9272 556.686 59.9619 561.683 Q54.9967 566.648 46.5303 566.648 Q37.7774 566.648 32.6531 561.937 Q27.4968 557.195 27.4968 549.174 Q27.4968 541.981 32.1438 537.811 Q36.7589 533.61 44.7161 533.61 M42.9973 539.466 Q38.1912 539.53 35.3266 542.172 Q32.4621 544.782 32.4621 549.111 Q32.4621 554.012 35.2312 556.972 Q38.0002 559.9 43.0292 560.346 L42.9973 539.466 Z" fill="#000000" fill-rule="evenodd" fill-opacity="1" /><polyline clip-path="url(#clip062)" style="stroke:#0000ff; stroke-linecap:butt; stroke-linejoin:round; stroke-width:4; stroke-opacity:1; fill:none" points="
  271.009,987.851 944.713,987.851 
  "/>
<polyline clip-path="url(#clip062)" style="stroke:#0000ff; stroke-linecap:butt; stroke-linejoin:round; stroke-width:4; stroke-opacity:1; fill:none" points="
  271.009,987.851 944.713,482.573 
  "/>
<polyline clip-path="url(#clip062)" style="stroke:#0000ff; stroke-linecap:butt; stroke-linejoin:round; stroke-width:4; stroke-opacity:1; fill:none" points="
  944.713,987.851 944.713,482.573 
  "/>
<polyline clip-path="url(#clip062)" style="stroke:#0000ff; stroke-linecap:butt; stroke-linejoin:round; stroke-width:4; stroke-opacity:1; fill:none" points="
  944.713,987.851 1618.42,987.851 
  "/>
<polyline clip-path="url(#clip062)" style="stroke:#0000ff; stroke-linecap:butt; stroke-linejoin:round; stroke-width:4; stroke-opacity:1; fill:none" points="
  944.713,482.573 1618.42,987.851 
  "/>
<polyline clip-path="url(#clip062)" style="stroke:#0000ff; stroke-linecap:butt; stroke-linejoin:round; stroke-width:4; stroke-opacity:1; fill:none" points="
  944.713,482.573 1618.42,482.573 
  "/>
<polyline clip-path="url(#clip062)" style="stroke:#0000ff; stroke-linecap:butt; stroke-linejoin:round; stroke-width:4; stroke-opacity:1; fill:none" points="
  1618.42,987.851 1618.42,482.573 
  "/>
<polyline clip-path="url(#clip062)" style="stroke:#0000ff; stroke-linecap:butt; stroke-linejoin:round; stroke-width:4; stroke-opacity:1; fill:none" points="
  1618.42,987.851 2292.12,987.851 
  "/>
<polyline clip-path="url(#clip062)" style="stroke:#0000ff; stroke-linecap:butt; stroke-linejoin:round; stroke-width:4; stroke-opacity:1; fill:none" points="
  1618.42,482.573 2292.12,987.851 
  "/>
<circle clip-path="url(#clip062)" cx="271.009" cy="987.851" r="14" fill="#ffffff" fill-rule="evenodd" fill-opacity="1" stroke="#000000" stroke-opacity="1" stroke-width="3.2"/>
<circle clip-path="url(#clip062)" cx="944.713" cy="987.851" r="14" fill="#ffffff" fill-rule="evenodd" fill-opacity="1" stroke="#000000" stroke-opacity="1" stroke-width="3.2"/>
<circle clip-path="url(#clip062)" cx="944.713" cy="482.573" r="14" fill="#ffffff" fill-rule="evenodd" fill-opacity="1" stroke="#000000" stroke-opacity="1" stroke-width="3.2"/>
<circle clip-path="url(#clip062)" cx="1618.42" cy="987.851" r="14" fill="#ffffff" fill-rule="evenodd" fill-opacity="1" stroke="#000000" stroke-opacity="1" stroke-width="3.2"/>
<circle clip-path="url(#clip062)" cx="1618.42" cy="482.573" r="14" fill="#ffffff" fill-rule="evenodd" fill-opacity="1" stroke="#000000" stroke-opacity="1" stroke-width="3.2"/>
<circle clip-path="url(#clip062)" cx="2292.12" cy="987.851" r="14" fill="#ffffff" fill-rule="evenodd" fill-opacity="1" stroke="#000000" stroke-opacity="1" stroke-width="3.2"/>
<path clip-path="url(#clip060)" d="M603.052 994.524 L606.872 994.524 L606.872 981.341 L602.717 982.174 L602.717 980.044 L606.849 979.211 L609.186 979.211 L609.186 994.524 L613.006 994.524 L613.006 996.491 L603.052 996.491 L603.052 994.524 Z" fill="#ff0000" fill-rule="evenodd" fill-opacity="1" /><path clip-path="url(#clip060)" d="M605.188 741.884 L613.347 741.884 L613.347 743.852 L602.375 743.852 L602.375 741.884 Q603.706 740.507 605.998 738.192 Q608.301 735.866 608.891 735.195 Q610.014 733.933 610.454 733.065 Q610.905 732.185 610.905 731.34 Q610.905 729.963 609.933 729.095 Q608.972 728.227 607.421 728.227 Q606.322 728.227 605.095 728.609 Q603.88 728.991 602.491 729.766 L602.491 727.405 Q603.903 726.838 605.13 726.549 Q606.357 726.259 607.375 726.259 Q610.06 726.259 611.658 727.602 Q613.255 728.945 613.255 731.19 Q613.255 732.255 612.85 733.215 Q612.456 734.165 611.403 735.461 Q611.114 735.796 609.563 737.405 Q608.012 739.002 605.188 741.884 Z" fill="#ff0000" fill-rule="evenodd" fill-opacity="1" /><path clip-path="url(#clip060)" d="M946.837 734.535 Q948.516 734.894 949.453 736.028 Q950.402 737.162 950.402 738.829 Q950.402 741.387 948.643 742.787 Q946.884 744.188 943.643 744.188 Q942.555 744.188 941.398 743.968 Q940.252 743.759 939.025 743.331 L939.025 741.074 Q939.997 741.641 941.154 741.931 Q942.312 742.22 943.573 742.22 Q945.773 742.22 946.918 741.352 Q948.076 740.484 948.076 738.829 Q948.076 737.301 946.999 736.445 Q945.935 735.577 944.025 735.577 L942.011 735.577 L942.011 733.655 L944.117 733.655 Q945.842 733.655 946.756 732.972 Q947.671 732.278 947.671 730.982 Q947.671 729.651 946.722 728.945 Q945.784 728.227 944.025 728.227 Q943.064 728.227 941.965 728.435 Q940.865 728.644 939.546 729.084 L939.546 727 Q940.877 726.63 942.034 726.445 Q943.203 726.259 944.233 726.259 Q946.895 726.259 948.446 727.475 Q949.997 728.678 949.997 730.739 Q949.997 732.174 949.175 733.169 Q948.354 734.153 946.837 734.535 Z" fill="#ff0000" fill-rule="evenodd" fill-opacity="1" /><path clip-path="url(#clip060)" d="M1283.07 981.248 L1277.17 990.473 L1283.07 990.473 L1283.07 981.248 M1282.46 979.211 L1285.4 979.211 L1285.4 990.473 L1287.86 990.473 L1287.86 992.417 L1285.4 992.417 L1285.4 996.491 L1283.07 996.491 L1283.07 992.417 L1275.27 992.417 L1275.27 990.16 L1282.46 979.211 Z" fill="#ff0000" fill-rule="evenodd" fill-opacity="1" /><path clip-path="url(#clip060)" d="M1276.7 726.572 L1285.88 726.572 L1285.88 728.54 L1278.85 728.54 L1278.85 732.776 Q1279.36 732.602 1279.86 732.521 Q1280.37 732.428 1280.88 732.428 Q1283.78 732.428 1285.47 734.014 Q1287.16 735.6 1287.16 738.308 Q1287.16 741.097 1285.42 742.648 Q1283.68 744.188 1280.52 744.188 Q1279.44 744.188 1278.3 744.002 Q1277.18 743.817 1275.98 743.447 L1275.98 741.097 Q1277.02 741.664 1278.13 741.942 Q1279.24 742.22 1280.48 742.22 Q1282.48 742.22 1283.65 741.167 Q1284.82 740.114 1284.82 738.308 Q1284.82 736.502 1283.65 735.449 Q1282.48 734.396 1280.48 734.396 Q1279.54 734.396 1278.6 734.604 Q1277.68 734.813 1276.7 735.252 L1276.7 726.572 Z" fill="#ff0000" fill-rule="evenodd" fill-opacity="1" /><path clip-path="url(#clip060)" d="M1281.77 481.641 Q1280.19 481.641 1279.27 482.717 Q1278.35 483.794 1278.35 485.669 Q1278.35 487.532 1279.27 488.62 Q1280.19 489.697 1281.77 489.697 Q1283.34 489.697 1284.26 488.62 Q1285.18 487.532 1285.18 485.669 Q1285.18 483.794 1284.26 482.717 Q1283.34 481.641 1281.77 481.641 M1286.41 474.315 L1286.41 476.444 Q1285.53 476.028 1284.63 475.808 Q1283.74 475.588 1282.86 475.588 Q1280.54 475.588 1279.31 477.15 Q1278.1 478.713 1277.93 481.873 Q1278.61 480.866 1279.64 480.333 Q1280.67 479.789 1281.91 479.789 Q1284.51 479.789 1286.02 481.375 Q1287.53 482.949 1287.53 485.669 Q1287.53 488.331 1285.96 489.94 Q1284.38 491.548 1281.77 491.548 Q1278.77 491.548 1277.18 489.257 Q1275.6 486.954 1275.6 482.59 Q1275.6 478.493 1277.54 476.062 Q1279.49 473.62 1282.76 473.62 Q1283.64 473.62 1284.53 473.794 Q1285.44 473.968 1286.41 474.315 Z" fill="#ff0000" fill-rule="evenodd" fill-opacity="1" /><path clip-path="url(#clip060)" d="M1612.86 726.572 L1623.97 726.572 L1623.97 727.567 L1617.7 743.852 L1615.26 743.852 L1621.16 728.54 L1612.86 728.54 L1612.86 726.572 Z" fill="#ff0000" fill-rule="evenodd" fill-opacity="1" /><path clip-path="url(#clip060)" d="M1955.27 988.285 Q1953.6 988.285 1952.64 989.176 Q1951.69 990.068 1951.69 991.63 Q1951.69 993.193 1952.64 994.084 Q1953.6 994.975 1955.27 994.975 Q1956.94 994.975 1957.9 994.084 Q1958.86 993.181 1958.86 991.63 Q1958.86 990.068 1957.9 989.176 Q1956.95 988.285 1955.27 988.285 M1952.93 987.29 Q1951.43 986.919 1950.58 985.889 Q1949.75 984.859 1949.75 983.378 Q1949.75 981.306 1951.22 980.102 Q1952.7 978.899 1955.27 978.899 Q1957.85 978.899 1959.32 980.102 Q1960.79 981.306 1960.79 983.378 Q1960.79 984.859 1959.95 985.889 Q1959.11 986.919 1957.62 987.29 Q1959.31 987.683 1960.25 988.829 Q1961.2 989.975 1961.2 991.63 Q1961.2 994.142 1959.66 995.484 Q1958.13 996.827 1955.27 996.827 Q1952.41 996.827 1950.87 995.484 Q1949.34 994.142 1949.34 991.63 Q1949.34 989.975 1950.29 988.829 Q1951.24 987.683 1952.93 987.29 M1952.08 983.598 Q1952.08 984.94 1952.91 985.693 Q1953.75 986.445 1955.27 986.445 Q1956.77 986.445 1957.62 985.693 Q1958.48 984.94 1958.48 983.598 Q1958.48 982.255 1957.62 981.503 Q1956.77 980.751 1955.27 980.751 Q1953.75 980.751 1952.91 981.503 Q1952.08 982.255 1952.08 983.598 Z" fill="#ff0000" fill-rule="evenodd" fill-opacity="1" /><path clip-path="url(#clip060)" d="M1950.42 743.493 L1950.42 741.364 Q1951.3 741.78 1952.2 742 Q1953.11 742.22 1953.97 742.22 Q1956.29 742.22 1957.5 740.669 Q1958.73 739.107 1958.9 735.935 Q1958.23 736.931 1957.2 737.463 Q1956.17 737.996 1954.92 737.996 Q1952.33 737.996 1950.81 736.433 Q1949.31 734.859 1949.31 732.139 Q1949.31 729.477 1950.88 727.868 Q1952.46 726.259 1955.07 726.259 Q1958.07 726.259 1959.65 728.563 Q1961.23 730.854 1961.23 735.229 Q1961.23 739.315 1959.29 741.757 Q1957.35 744.188 1954.08 744.188 Q1953.2 744.188 1952.3 744.014 Q1951.39 743.84 1950.42 743.493 M1955.07 736.167 Q1956.65 736.167 1957.56 735.09 Q1958.49 734.014 1958.49 732.139 Q1958.49 730.276 1957.56 729.199 Q1956.65 728.111 1955.07 728.111 Q1953.5 728.111 1952.57 729.199 Q1951.66 730.276 1951.66 732.139 Q1951.66 734.014 1952.57 735.09 Q1953.5 736.167 1955.07 736.167 Z" fill="#ff0000" fill-rule="evenodd" fill-opacity="1" /><path clip-path="url(#clip060)" d="M266.2 994.524 L270.019 994.524 L270.019 981.341 L265.864 982.174 L265.864 980.044 L269.996 979.211 L272.334 979.211 L272.334 994.524 L276.154 994.524 L276.154 996.491 L266.2 996.491 L266.2 994.524 Z" fill="#000000" fill-rule="evenodd" fill-opacity="1" /><path clip-path="url(#clip060)" d="M942.04 994.524 L950.2 994.524 L950.2 996.491 L939.227 996.491 L939.227 994.524 Q940.558 993.146 942.85 990.831 Q945.153 988.505 945.744 987.834 Q946.866 986.572 947.306 985.704 Q947.757 984.825 947.757 983.98 Q947.757 982.602 946.785 981.734 Q945.825 980.866 944.274 980.866 Q943.174 980.866 941.947 981.248 Q940.732 981.63 939.343 982.406 L939.343 980.044 Q940.755 979.477 941.982 979.188 Q943.209 978.899 944.227 978.899 Q946.913 978.899 948.51 980.241 Q950.107 981.584 950.107 983.829 Q950.107 984.894 949.702 985.855 Q949.308 986.804 948.255 988.1 Q947.966 988.436 946.415 990.044 Q944.864 991.642 942.04 994.524 Z" fill="#000000" fill-rule="evenodd" fill-opacity="1" /><path clip-path="url(#clip060)" d="M946.837 481.896 Q948.516 482.254 949.453 483.389 Q950.402 484.523 950.402 486.19 Q950.402 488.748 948.643 490.148 Q946.884 491.548 943.643 491.548 Q942.555 491.548 941.398 491.329 Q940.252 491.12 939.025 490.692 L939.025 488.435 Q939.997 489.002 941.154 489.291 Q942.312 489.581 943.573 489.581 Q945.773 489.581 946.918 488.713 Q948.076 487.845 948.076 486.19 Q948.076 484.662 946.999 483.805 Q945.935 482.937 944.025 482.937 L942.011 482.937 L942.011 481.016 L944.117 481.016 Q945.842 481.016 946.756 480.333 Q947.671 479.639 947.671 478.342 Q947.671 477.011 946.722 476.305 Q945.784 475.588 944.025 475.588 Q943.064 475.588 941.965 475.796 Q940.865 476.005 939.546 476.444 L939.546 474.361 Q940.877 473.991 942.034 473.805 Q943.203 473.62 944.233 473.62 Q946.895 473.62 948.446 474.836 Q949.997 476.039 949.997 478.099 Q949.997 479.535 949.175 480.53 Q948.354 481.514 946.837 481.896 Z" fill="#000000" fill-rule="evenodd" fill-opacity="1" /><path clip-path="url(#clip060)" d="M1619.92 981.248 L1614.02 990.473 L1619.92 990.473 L1619.92 981.248 M1619.31 979.211 L1622.25 979.211 L1622.25 990.473 L1624.71 990.473 L1624.71 992.417 L1622.25 992.417 L1622.25 996.491 L1619.92 996.491 L1619.92 992.417 L1612.12 992.417 L1612.12 990.16 L1619.31 979.211 Z" fill="#000000" fill-rule="evenodd" fill-opacity="1" /><path clip-path="url(#clip060)" d="M1613.56 473.933 L1622.74 473.933 L1622.74 475.9 L1615.7 475.9 L1615.7 480.136 Q1616.21 479.963 1616.72 479.882 Q1617.23 479.789 1617.74 479.789 Q1620.63 479.789 1622.32 481.375 Q1624.01 482.961 1624.01 485.669 Q1624.01 488.458 1622.27 490.009 Q1620.54 491.548 1617.38 491.548 Q1616.29 491.548 1615.15 491.363 Q1614.03 491.178 1612.83 490.808 L1612.83 488.458 Q1613.87 489.025 1614.98 489.303 Q1616.09 489.581 1617.33 489.581 Q1619.33 489.581 1620.5 488.528 Q1621.67 487.474 1621.67 485.669 Q1621.67 483.863 1620.5 482.81 Q1619.33 481.757 1617.33 481.757 Q1616.39 481.757 1615.46 481.965 Q1614.53 482.173 1613.56 482.613 L1613.56 473.933 Z" fill="#000000" fill-rule="evenodd" fill-opacity="1" /><path clip-path="url(#clip060)" d="M2292.33 986.919 Q2290.75 986.919 2289.83 987.996 Q2288.91 989.072 2288.91 990.947 Q2288.91 992.811 2289.83 993.899 Q2290.75 994.975 2292.33 994.975 Q2293.9 994.975 2294.81 993.899 Q2295.74 992.811 2295.74 990.947 Q2295.74 989.072 2294.81 987.996 Q2293.9 986.919 2292.33 986.919 M2296.97 979.593 L2296.97 981.723 Q2296.09 981.306 2295.18 981.086 Q2294.29 980.866 2293.41 980.866 Q2291.1 980.866 2289.87 982.429 Q2288.66 983.991 2288.48 987.151 Q2289.17 986.144 2290.2 985.612 Q2291.23 985.068 2292.46 985.068 Q2295.07 985.068 2296.57 986.653 Q2298.09 988.227 2298.09 990.947 Q2298.09 993.609 2296.51 995.218 Q2294.94 996.827 2292.33 996.827 Q2289.33 996.827 2287.74 994.535 Q2286.16 992.232 2286.16 987.869 Q2286.16 983.771 2288.1 981.341 Q2290.04 978.899 2293.32 978.899 Q2294.2 978.899 2295.09 979.072 Q2295.99 979.246 2296.97 979.593 Z" fill="#000000" fill-rule="evenodd" fill-opacity="1" /></svg>
