<?xml version="1.0" encoding="utf-8"?>
<svg xmlns="http://www.w3.org/2000/svg" xmlns:xlink="http://www.w3.org/1999/xlink" width="600" height="400" viewBox="0 0 2400 1600">
<defs>
  <clipPath id="clip640">
    <rect x="0" y="0" width="2400" height="1600"/>
  </clipPath>
</defs>
<path clip-path="url(#clip640)" d="
M0 1600 L2400 1600 L2400 0 L0 0  Z
  " fill="#ffffff" fill-rule="evenodd" fill-opacity="1"/>
<defs>
  <clipPath id="clip641">
    <rect x="480" y="0" width="1681" height="1600"/>
  </clipPath>
</defs>
<path clip-path="url(#clip640)" d="
M272.297 1423.18 L2352.76 1423.18 L2352.76 47.2441 L272.297 47.2441  Z
  " fill="#ffffff" fill-rule="evenodd" fill-opacity="1"/>
<defs>
  <clipPath id="clip642">
    <rect x="272" y="47" width="2081" height="1377"/>
  </clipPath>
</defs>
<polyline clip-path="url(#clip642)" style="stroke:#000000; stroke-linecap:butt; stroke-linejoin:round; stroke-width:2; stroke-opacity:0.1; fill:none" points="
  331.177,1423.18 331.177,47.2441 
  "/>
<polyline clip-path="url(#clip642)" style="stroke:#000000; stroke-linecap:butt; stroke-linejoin:round; stroke-width:2; stroke-opacity:0.1; fill:none" points="
  821.852,1423.18 821.852,47.2441 
  "/>
<polyline clip-path="url(#clip642)" style="stroke:#000000; stroke-linecap:butt; stroke-linejoin:round; stroke-width:2; stroke-opacity:0.1; fill:none" points="
  1312.53,1423.18 1312.53,47.2441 
  "/>
<polyline clip-path="url(#clip642)" style="stroke:#000000; stroke-linecap:butt; stroke-linejoin:round; stroke-width:2; stroke-opacity:0.1; fill:none" points="
  1803.2,1423.18 1803.2,47.2441 
  "/>
<polyline clip-path="url(#clip642)" style="stroke:#000000; stroke-linecap:butt; stroke-linejoin:round; stroke-width:2; stroke-opacity:0.1; fill:none" points="
  2293.87,1423.18 2293.87,47.2441 
  "/>
<polyline clip-path="url(#clip640)" style="stroke:#000000; stroke-linecap:butt; stroke-linejoin:round; stroke-width:4; stroke-opacity:1; fill:none" points="
  272.297,1423.18 2352.76,1423.18 
  "/>
<polyline clip-path="url(#clip640)" style="stroke:#000000; stroke-linecap:butt; stroke-linejoin:round; stroke-width:4; stroke-opacity:1; fill:none" points="
  331.177,1423.18 331.177,1404.28 
  "/>
<polyline clip-path="url(#clip640)" style="stroke:#000000; stroke-linecap:butt; stroke-linejoin:round; stroke-width:4; stroke-opacity:1; fill:none" points="
  821.852,1423.18 821.852,1404.28 
  "/>
<polyline clip-path="url(#clip640)" style="stroke:#000000; stroke-linecap:butt; stroke-linejoin:round; stroke-width:4; stroke-opacity:1; fill:none" points="
  1312.53,1423.18 1312.53,1404.28 
  "/>
<polyline clip-path="url(#clip640)" style="stroke:#000000; stroke-linecap:butt; stroke-linejoin:round; stroke-width:4; stroke-opacity:1; fill:none" points="
  1803.2,1423.18 1803.2,1404.28 
  "/>
<polyline clip-path="url(#clip640)" style="stroke:#000000; stroke-linecap:butt; stroke-linejoin:round; stroke-width:4; stroke-opacity:1; fill:none" points="
  2293.87,1423.18 2293.87,1404.28 
  "/>
<path clip-path="url(#clip640)" d="M331.177 1454.1 Q327.566 1454.1 325.738 1457.66 Q323.932 1461.2 323.932 1468.33 Q323.932 1475.44 325.738 1479.01 Q327.566 1482.55 331.177 1482.55 Q334.812 1482.55 336.617 1479.01 Q338.446 1475.44 338.446 1468.33 Q338.446 1461.2 336.617 1457.66 Q334.812 1454.1 331.177 1454.1 M331.177 1450.39 Q336.988 1450.39 340.043 1455 Q343.122 1459.58 343.122 1468.33 Q343.122 1477.06 340.043 1481.67 Q336.988 1486.25 331.177 1486.25 Q325.367 1486.25 322.289 1481.67 Q319.233 1477.06 319.233 1468.33 Q319.233 1459.58 322.289 1455 Q325.367 1450.39 331.177 1450.39 Z" fill="#000000" fill-rule="evenodd" fill-opacity="1" /><path clip-path="url(#clip640)" d="M785.544 1481.64 L801.864 1481.64 L801.864 1485.58 L779.919 1485.58 L779.919 1481.64 Q782.581 1478.89 787.165 1474.26 Q791.771 1469.61 792.952 1468.27 Q795.197 1465.74 796.077 1464.01 Q796.979 1462.25 796.979 1460.56 Q796.979 1457.8 795.035 1456.07 Q793.114 1454.33 790.012 1454.33 Q787.813 1454.33 785.359 1455.09 Q782.928 1455.86 780.151 1457.41 L780.151 1452.69 Q782.975 1451.55 785.428 1450.97 Q787.882 1450.39 789.919 1450.39 Q795.289 1450.39 798.484 1453.08 Q801.678 1455.77 801.678 1460.26 Q801.678 1462.39 800.868 1464.31 Q800.081 1466.2 797.975 1468.8 Q797.396 1469.47 794.294 1472.69 Q791.192 1475.88 785.544 1481.64 Z" fill="#000000" fill-rule="evenodd" fill-opacity="1" /><path clip-path="url(#clip640)" d="M821.678 1454.1 Q818.067 1454.1 816.238 1457.66 Q814.433 1461.2 814.433 1468.33 Q814.433 1475.44 816.238 1479.01 Q818.067 1482.55 821.678 1482.55 Q825.312 1482.55 827.118 1479.01 Q828.947 1475.44 828.947 1468.33 Q828.947 1461.2 827.118 1457.66 Q825.312 1454.1 821.678 1454.1 M821.678 1450.39 Q827.488 1450.39 830.544 1455 Q833.623 1459.58 833.623 1468.33 Q833.623 1477.06 830.544 1481.67 Q827.488 1486.25 821.678 1486.25 Q815.868 1486.25 812.789 1481.67 Q809.734 1477.06 809.734 1468.33 Q809.734 1459.58 812.789 1455 Q815.868 1450.39 821.678 1450.39 Z" fill="#000000" fill-rule="evenodd" fill-opacity="1" /><path clip-path="url(#clip640)" d="M851.84 1454.1 Q848.229 1454.1 846.4 1457.66 Q844.595 1461.2 844.595 1468.33 Q844.595 1475.44 846.4 1479.01 Q848.229 1482.55 851.84 1482.55 Q855.474 1482.55 857.28 1479.01 Q859.109 1475.44 859.109 1468.33 Q859.109 1461.2 857.28 1457.66 Q855.474 1454.1 851.84 1454.1 M851.84 1450.39 Q857.65 1450.39 860.706 1455 Q863.784 1459.58 863.784 1468.33 Q863.784 1477.06 860.706 1481.67 Q857.65 1486.25 851.84 1486.25 Q846.03 1486.25 842.951 1481.67 Q839.896 1477.06 839.896 1468.33 Q839.896 1459.58 842.951 1455 Q846.03 1450.39 851.84 1450.39 Z" fill="#000000" fill-rule="evenodd" fill-opacity="1" /><path clip-path="url(#clip640)" d="M1285.62 1455.09 L1273.81 1473.54 L1285.62 1473.54 L1285.62 1455.09 M1284.39 1451.02 L1290.27 1451.02 L1290.27 1473.54 L1295.2 1473.54 L1295.2 1477.43 L1290.27 1477.43 L1290.27 1485.58 L1285.62 1485.58 L1285.62 1477.43 L1270.01 1477.43 L1270.01 1472.92 L1284.39 1451.02 Z" fill="#000000" fill-rule="evenodd" fill-opacity="1" /><path clip-path="url(#clip640)" d="M1312.93 1454.1 Q1309.32 1454.1 1307.49 1457.66 Q1305.69 1461.2 1305.69 1468.33 Q1305.69 1475.44 1307.49 1479.01 Q1309.32 1482.55 1312.93 1482.55 Q1316.57 1482.55 1318.37 1479.01 Q1320.2 1475.44 1320.2 1468.33 Q1320.2 1461.2 1318.37 1457.66 Q1316.57 1454.1 1312.93 1454.1 M1312.93 1450.39 Q1318.74 1450.39 1321.8 1455 Q1324.88 1459.58 1324.88 1468.33 Q1324.88 1477.06 1321.8 1481.67 Q1318.74 1486.25 1312.93 1486.25 Q1307.12 1486.25 1304.04 1481.67 Q1300.99 1477.06 1300.99 1468.33 Q1300.99 1459.58 1304.04 1455 Q1307.12 1450.39 1312.93 1450.39 Z" fill="#000000" fill-rule="evenodd" fill-opacity="1" /><path clip-path="url(#clip640)" d="M1343.09 1454.1 Q1339.48 1454.1 1337.65 1457.66 Q1335.85 1461.2 1335.85 1468.33 Q1335.85 1475.44 1337.65 1479.01 Q1339.48 1482.55 1343.09 1482.55 Q1346.73 1482.55 1348.53 1479.01 Q1350.36 1475.44 1350.36 1468.33 Q1350.36 1461.2 1348.53 1457.66 Q1346.73 1454.1 1343.09 1454.1 M1343.09 1450.39 Q1348.9 1450.39 1351.96 1455 Q1355.04 1459.58 1355.04 1468.33 Q1355.04 1477.06 1351.96 1481.67 Q1348.9 1486.25 1343.09 1486.25 Q1337.28 1486.25 1334.2 1481.67 Q1331.15 1477.06 1331.15 1468.33 Q1331.15 1459.58 1334.2 1455 Q1337.28 1450.39 1343.09 1450.39 Z" fill="#000000" fill-rule="evenodd" fill-opacity="1" /><path clip-path="url(#clip640)" d="M1773.52 1466.44 Q1770.38 1466.44 1768.52 1468.59 Q1766.7 1470.74 1766.7 1474.49 Q1766.7 1478.22 1768.52 1480.39 Q1770.38 1482.55 1773.52 1482.55 Q1776.67 1482.55 1778.5 1480.39 Q1780.35 1478.22 1780.35 1474.49 Q1780.35 1470.74 1778.5 1468.59 Q1776.67 1466.44 1773.52 1466.44 M1782.81 1451.78 L1782.81 1456.04 Q1781.05 1455.21 1779.24 1454.77 Q1777.46 1454.33 1775.7 1454.33 Q1771.07 1454.33 1768.62 1457.45 Q1766.19 1460.58 1765.84 1466.9 Q1767.21 1464.89 1769.27 1463.82 Q1771.33 1462.73 1773.8 1462.73 Q1779.01 1462.73 1782.02 1465.9 Q1785.05 1469.05 1785.05 1474.49 Q1785.05 1479.82 1781.9 1483.03 Q1778.76 1486.25 1773.52 1486.25 Q1767.53 1486.25 1764.36 1481.67 Q1761.19 1477.06 1761.19 1468.33 Q1761.19 1460.14 1765.08 1455.28 Q1768.96 1450.39 1775.52 1450.39 Q1777.27 1450.39 1779.06 1450.74 Q1780.86 1451.09 1782.81 1451.78 Z" fill="#000000" fill-rule="evenodd" fill-opacity="1" /><path clip-path="url(#clip640)" d="M1803.11 1454.1 Q1799.5 1454.1 1797.67 1457.66 Q1795.86 1461.2 1795.86 1468.33 Q1795.86 1475.44 1797.67 1479.01 Q1799.5 1482.55 1803.11 1482.55 Q1806.74 1482.55 1808.55 1479.01 Q1810.38 1475.44 1810.38 1468.33 Q1810.38 1461.2 1808.55 1457.66 Q1806.74 1454.1 1803.11 1454.1 M1803.11 1450.39 Q1808.92 1450.39 1811.97 1455 Q1815.05 1459.58 1815.05 1468.33 Q1815.05 1477.06 1811.97 1481.67 Q1808.92 1486.25 1803.11 1486.25 Q1797.3 1486.25 1794.22 1481.67 Q1791.16 1477.06 1791.16 1468.33 Q1791.16 1459.58 1794.22 1455 Q1797.3 1450.39 1803.11 1450.39 Z" fill="#000000" fill-rule="evenodd" fill-opacity="1" /><path clip-path="url(#clip640)" d="M1833.27 1454.1 Q1829.66 1454.1 1827.83 1457.66 Q1826.02 1461.2 1826.02 1468.33 Q1826.02 1475.44 1827.83 1479.01 Q1829.66 1482.55 1833.27 1482.55 Q1836.9 1482.55 1838.71 1479.01 Q1840.54 1475.44 1840.54 1468.33 Q1840.54 1461.2 1838.71 1457.66 Q1836.9 1454.1 1833.27 1454.1 M1833.27 1450.39 Q1839.08 1450.39 1842.14 1455 Q1845.21 1459.58 1845.21 1468.33 Q1845.21 1477.06 1842.14 1481.67 Q1839.08 1486.25 1833.27 1486.25 Q1827.46 1486.25 1824.38 1481.67 Q1821.33 1477.06 1821.33 1468.33 Q1821.33 1459.58 1824.38 1455 Q1827.46 1450.39 1833.27 1450.39 Z" fill="#000000" fill-rule="evenodd" fill-opacity="1" /><path clip-path="url(#clip640)" d="M2263.67 1469.17 Q2260.33 1469.17 2258.41 1470.95 Q2256.51 1472.73 2256.51 1475.86 Q2256.51 1478.98 2258.41 1480.77 Q2260.33 1482.55 2263.67 1482.55 Q2267 1482.55 2268.92 1480.77 Q2270.84 1478.96 2270.84 1475.86 Q2270.84 1472.73 2268.92 1470.95 Q2267.02 1469.17 2263.67 1469.17 M2258.99 1467.18 Q2255.98 1466.44 2254.29 1464.38 Q2252.63 1462.32 2252.63 1459.35 Q2252.63 1455.21 2255.57 1452.8 Q2258.53 1450.39 2263.67 1450.39 Q2268.83 1450.39 2271.77 1452.8 Q2274.71 1455.21 2274.71 1459.35 Q2274.71 1462.32 2273.02 1464.38 Q2271.35 1466.44 2268.37 1467.18 Q2271.75 1467.96 2273.62 1470.26 Q2275.52 1472.55 2275.52 1475.86 Q2275.52 1480.88 2272.44 1483.57 Q2269.38 1486.25 2263.67 1486.25 Q2257.95 1486.25 2254.87 1483.57 Q2251.82 1480.88 2251.82 1475.86 Q2251.82 1472.55 2253.71 1470.26 Q2255.61 1467.96 2258.99 1467.18 M2257.28 1459.79 Q2257.28 1462.48 2258.94 1463.98 Q2260.63 1465.49 2263.67 1465.49 Q2266.68 1465.49 2268.37 1463.98 Q2270.08 1462.48 2270.08 1459.79 Q2270.08 1457.11 2268.37 1455.6 Q2266.68 1454.1 2263.67 1454.1 Q2260.63 1454.1 2258.94 1455.6 Q2257.28 1457.11 2257.28 1459.79 Z" fill="#000000" fill-rule="evenodd" fill-opacity="1" /><path clip-path="url(#clip640)" d="M2293.83 1454.1 Q2290.22 1454.1 2288.39 1457.66 Q2286.58 1461.2 2286.58 1468.33 Q2286.58 1475.44 2288.39 1479.01 Q2290.22 1482.55 2293.83 1482.55 Q2297.46 1482.55 2299.27 1479.01 Q2301.1 1475.44 2301.1 1468.33 Q2301.1 1461.2 2299.27 1457.66 Q2297.46 1454.1 2293.83 1454.1 M2293.83 1450.39 Q2299.64 1450.39 2302.69 1455 Q2305.77 1459.58 2305.77 1468.33 Q2305.77 1477.06 2302.69 1481.67 Q2299.64 1486.25 2293.83 1486.25 Q2288.02 1486.25 2284.94 1481.67 Q2281.88 1477.06 2281.88 1468.33 Q2281.88 1459.58 2284.94 1455 Q2288.02 1450.39 2293.83 1450.39 Z" fill="#000000" fill-rule="evenodd" fill-opacity="1" /><path clip-path="url(#clip640)" d="M2323.99 1454.1 Q2320.38 1454.1 2318.55 1457.66 Q2316.75 1461.2 2316.75 1468.33 Q2316.75 1475.44 2318.55 1479.01 Q2320.38 1482.55 2323.99 1482.55 Q2327.62 1482.55 2329.43 1479.01 Q2331.26 1475.44 2331.26 1468.33 Q2331.26 1461.2 2329.43 1457.66 Q2327.62 1454.1 2323.99 1454.1 M2323.99 1450.39 Q2329.8 1450.39 2332.86 1455 Q2335.93 1459.58 2335.93 1468.33 Q2335.93 1477.06 2332.86 1481.67 Q2329.8 1486.25 2323.99 1486.25 Q2318.18 1486.25 2315.1 1481.67 Q2312.05 1477.06 2312.05 1468.33 Q2312.05 1459.58 2315.1 1455 Q2318.18 1450.39 2323.99 1450.39 Z" fill="#000000" fill-rule="evenodd" fill-opacity="1" /><path clip-path="url(#clip640)" d="M1144.22 1532.4 L1131.33 1549.74 L1144.89 1568.04 L1137.98 1568.04 L1127.6 1554.04 L1117.23 1568.04 L1110.32 1568.04 L1124.16 1549.39 L1111.5 1532.4 L1118.4 1532.4 L1127.86 1545.1 L1137.31 1532.4 L1144.22 1532.4 Z" fill="#000000" fill-rule="evenodd" fill-opacity="1" /><path clip-path="url(#clip640)" d="M1150.2 1547.58 L1167.36 1547.58 L1167.36 1552.8 L1150.2 1552.8 L1150.2 1547.58 Z" fill="#000000" fill-rule="evenodd" fill-opacity="1" /><path clip-path="url(#clip640)" d="M1202.34 1533.76 L1202.34 1539.24 Q1199.85 1537.87 1197.34 1537.2 Q1194.86 1536.5 1192.31 1536.5 Q1186.61 1536.5 1183.46 1540.13 Q1180.31 1543.73 1180.31 1550.25 Q1180.31 1556.78 1183.46 1560.4 Q1186.61 1564 1192.31 1564 Q1194.86 1564 1197.34 1563.33 Q1199.85 1562.63 1202.34 1561.26 L1202.34 1566.68 Q1199.89 1567.82 1197.24 1568.39 Q1194.63 1568.97 1191.67 1568.97 Q1183.62 1568.97 1178.88 1563.91 Q1174.14 1558.85 1174.14 1550.25 Q1174.14 1541.53 1178.91 1536.53 Q1183.72 1531.54 1192.06 1531.54 Q1194.76 1531.54 1197.34 1532.11 Q1199.92 1532.65 1202.34 1533.76 Z" fill="#000000" fill-rule="evenodd" fill-opacity="1" /><path clip-path="url(#clip640)" d="M1226.33 1536.5 Q1221.62 1536.5 1218.89 1540.19 Q1216.15 1543.85 1216.15 1550.25 Q1216.15 1556.65 1218.85 1560.34 Q1221.59 1564 1226.33 1564 Q1231.01 1564 1233.75 1560.31 Q1236.49 1556.62 1236.49 1550.25 Q1236.49 1543.92 1233.75 1540.23 Q1231.01 1536.5 1226.33 1536.5 M1226.33 1531.54 Q1233.97 1531.54 1238.33 1536.5 Q1242.69 1541.47 1242.69 1550.25 Q1242.69 1559 1238.33 1564 Q1233.97 1568.97 1226.33 1568.97 Q1218.66 1568.97 1214.3 1564 Q1209.97 1559 1209.97 1550.25 Q1209.97 1541.47 1214.3 1536.5 Q1218.66 1531.54 1226.33 1531.54 Z" fill="#000000" fill-rule="evenodd" fill-opacity="1" /><path clip-path="url(#clip640)" d="M1266.22 1536.5 Q1261.51 1536.5 1258.77 1540.19 Q1256.03 1543.85 1256.03 1550.25 Q1256.03 1556.65 1258.74 1560.34 Q1261.47 1564 1266.22 1564 Q1270.89 1564 1273.63 1560.31 Q1276.37 1556.62 1276.37 1550.25 Q1276.37 1543.92 1273.63 1540.23 Q1270.89 1536.5 1266.22 1536.5 M1266.22 1531.54 Q1273.85 1531.54 1278.22 1536.5 Q1282.58 1541.47 1282.58 1550.25 Q1282.58 1559 1278.22 1564 Q1273.85 1568.97 1266.22 1568.97 Q1258.55 1568.97 1254.18 1564 Q1249.86 1559 1249.86 1550.25 Q1249.86 1541.47 1254.18 1536.5 Q1258.55 1531.54 1266.22 1531.54 Z" fill="#000000" fill-rule="evenodd" fill-opacity="1" /><path clip-path="url(#clip640)" d="M1312.94 1537.87 Q1311.95 1537.3 1310.78 1537.04 Q1309.63 1536.76 1308.23 1536.76 Q1303.26 1536.76 1300.59 1540 Q1297.95 1543.22 1297.95 1549.27 L1297.95 1568.04 L1292.06 1568.04 L1292.06 1532.4 L1297.95 1532.4 L1297.95 1537.93 Q1299.79 1534.69 1302.75 1533.13 Q1305.71 1531.54 1309.95 1531.54 Q1310.55 1531.54 1311.28 1531.63 Q1312.02 1531.7 1312.91 1531.85 L1312.94 1537.87 Z" fill="#000000" fill-rule="evenodd" fill-opacity="1" /><path clip-path="url(#clip640)" d="M1341.39 1537.81 L1341.39 1518.52 L1347.25 1518.52 L1347.25 1568.04 L1341.39 1568.04 L1341.39 1562.7 Q1339.55 1565.88 1336.72 1567.44 Q1333.91 1568.97 1329.97 1568.97 Q1323.51 1568.97 1319.43 1563.81 Q1315.39 1558.65 1315.39 1550.25 Q1315.39 1541.85 1319.43 1536.69 Q1323.51 1531.54 1329.97 1531.54 Q1333.91 1531.54 1336.72 1533.1 Q1339.55 1534.62 1341.39 1537.81 M1321.44 1550.25 Q1321.44 1556.71 1324.08 1560.4 Q1326.75 1564.07 1331.4 1564.07 Q1336.05 1564.07 1338.72 1560.4 Q1341.39 1556.71 1341.39 1550.25 Q1341.39 1543.79 1338.72 1540.13 Q1336.05 1536.44 1331.4 1536.44 Q1326.75 1536.44 1324.08 1540.13 Q1321.44 1543.79 1321.44 1550.25 Z" fill="#000000" fill-rule="evenodd" fill-opacity="1" /><path clip-path="url(#clip640)" d="M1359.31 1532.4 L1365.17 1532.4 L1365.17 1568.04 L1359.31 1568.04 L1359.31 1532.4 M1359.31 1518.52 L1365.17 1518.52 L1365.17 1525.93 L1359.31 1525.93 L1359.31 1518.52 Z" fill="#000000" fill-rule="evenodd" fill-opacity="1" /><path clip-path="url(#clip640)" d="M1407.06 1546.53 L1407.06 1568.04 L1401.2 1568.04 L1401.2 1546.72 Q1401.2 1541.66 1399.23 1539.14 Q1397.25 1536.63 1393.31 1536.63 Q1388.56 1536.63 1385.83 1539.65 Q1383.09 1542.68 1383.09 1547.9 L1383.09 1568.04 L1377.2 1568.04 L1377.2 1532.4 L1383.09 1532.4 L1383.09 1537.93 Q1385.19 1534.72 1388.02 1533.13 Q1390.89 1531.54 1394.61 1531.54 Q1400.75 1531.54 1403.91 1535.36 Q1407.06 1539.14 1407.06 1546.53 Z" fill="#000000" fill-rule="evenodd" fill-opacity="1" /><path clip-path="url(#clip640)" d="M1434.94 1550.12 Q1427.84 1550.12 1425.1 1551.75 Q1422.37 1553.37 1422.37 1557.29 Q1422.37 1560.4 1424.4 1562.25 Q1426.47 1564.07 1430.01 1564.07 Q1434.88 1564.07 1437.8 1560.63 Q1440.76 1557.16 1440.76 1551.43 L1440.76 1550.12 L1434.94 1550.12 M1446.62 1547.71 L1446.62 1568.04 L1440.76 1568.04 L1440.76 1562.63 Q1438.76 1565.88 1435.77 1567.44 Q1432.77 1568.97 1428.45 1568.97 Q1422.97 1568.97 1419.72 1565.91 Q1416.51 1562.82 1416.51 1557.67 Q1416.51 1551.65 1420.52 1548.6 Q1424.56 1545.54 1432.55 1545.54 L1440.76 1545.54 L1440.76 1544.97 Q1440.76 1540.93 1438.09 1538.73 Q1435.45 1536.5 1430.64 1536.5 Q1427.59 1536.5 1424.69 1537.23 Q1421.79 1537.97 1419.12 1539.43 L1419.12 1534.02 Q1422.33 1532.78 1425.36 1532.17 Q1428.38 1531.54 1431.25 1531.54 Q1438.98 1531.54 1442.8 1535.55 Q1446.62 1539.56 1446.62 1547.71 Z" fill="#000000" fill-rule="evenodd" fill-opacity="1" /><path clip-path="url(#clip640)" d="M1464.48 1522.27 L1464.48 1532.4 L1476.54 1532.4 L1476.54 1536.95 L1464.48 1536.95 L1464.48 1556.3 Q1464.48 1560.66 1465.65 1561.9 Q1466.86 1563.14 1470.52 1563.14 L1476.54 1563.14 L1476.54 1568.04 L1470.52 1568.04 Q1463.74 1568.04 1461.17 1565.53 Q1458.59 1562.98 1458.59 1556.3 L1458.59 1536.95 L1454.29 1536.95 L1454.29 1532.4 L1458.59 1532.4 L1458.59 1522.27 L1464.48 1522.27 Z" fill="#000000" fill-rule="evenodd" fill-opacity="1" /><path clip-path="url(#clip640)" d="M1514.73 1548.76 L1514.73 1551.62 L1487.81 1551.62 Q1488.19 1557.67 1491.43 1560.85 Q1494.71 1564 1500.54 1564 Q1503.91 1564 1507.06 1563.17 Q1510.25 1562.35 1513.36 1560.69 L1513.36 1566.23 Q1510.21 1567.57 1506.9 1568.27 Q1503.59 1568.97 1500.19 1568.97 Q1491.66 1568.97 1486.66 1564 Q1481.69 1559.04 1481.69 1550.57 Q1481.69 1541.82 1486.41 1536.69 Q1491.15 1531.54 1499.17 1531.54 Q1506.36 1531.54 1510.53 1536.18 Q1514.73 1540.8 1514.73 1548.76 M1508.88 1547.04 Q1508.81 1542.23 1506.17 1539.37 Q1503.56 1536.5 1499.23 1536.5 Q1494.33 1536.5 1491.37 1539.27 Q1488.44 1542.04 1488 1547.07 L1508.88 1547.04 Z" fill="#000000" fill-rule="evenodd" fill-opacity="1" /><polyline clip-path="url(#clip642)" style="stroke:#000000; stroke-linecap:butt; stroke-linejoin:round; stroke-width:2; stroke-opacity:0.1; fill:none" points="
  272.297,1348.55 2352.76,1348.55 
  "/>
<polyline clip-path="url(#clip642)" style="stroke:#000000; stroke-linecap:butt; stroke-linejoin:round; stroke-width:2; stroke-opacity:0.1; fill:none" points="
  272.297,1103.22 2352.76,1103.22 
  "/>
<polyline clip-path="url(#clip642)" style="stroke:#000000; stroke-linecap:butt; stroke-linejoin:round; stroke-width:2; stroke-opacity:0.1; fill:none" points="
  272.297,857.881 2352.76,857.881 
  "/>
<polyline clip-path="url(#clip642)" style="stroke:#000000; stroke-linecap:butt; stroke-linejoin:round; stroke-width:2; stroke-opacity:0.1; fill:none" points="
  272.297,612.543 2352.76,612.543 
  "/>
<polyline clip-path="url(#clip642)" style="stroke:#000000; stroke-linecap:butt; stroke-linejoin:round; stroke-width:2; stroke-opacity:0.1; fill:none" points="
  272.297,367.206 2352.76,367.206 
  "/>
<polyline clip-path="url(#clip642)" style="stroke:#000000; stroke-linecap:butt; stroke-linejoin:round; stroke-width:2; stroke-opacity:0.1; fill:none" points="
  272.297,121.869 2352.76,121.869 
  "/>
<polyline clip-path="url(#clip640)" style="stroke:#000000; stroke-linecap:butt; stroke-linejoin:round; stroke-width:4; stroke-opacity:1; fill:none" points="
  272.297,1423.18 272.297,47.2441 
  "/>
<polyline clip-path="url(#clip640)" style="stroke:#000000; stroke-linecap:butt; stroke-linejoin:round; stroke-width:4; stroke-opacity:1; fill:none" points="
  272.297,1348.55 291.194,1348.55 
  "/>
<polyline clip-path="url(#clip640)" style="stroke:#000000; stroke-linecap:butt; stroke-linejoin:round; stroke-width:4; stroke-opacity:1; fill:none" points="
  272.297,1103.22 291.194,1103.22 
  "/>
<polyline clip-path="url(#clip640)" style="stroke:#000000; stroke-linecap:butt; stroke-linejoin:round; stroke-width:4; stroke-opacity:1; fill:none" points="
  272.297,857.881 291.194,857.881 
  "/>
<polyline clip-path="url(#clip640)" style="stroke:#000000; stroke-linecap:butt; stroke-linejoin:round; stroke-width:4; stroke-opacity:1; fill:none" points="
  272.297,612.543 291.194,612.543 
  "/>
<polyline clip-path="url(#clip640)" style="stroke:#000000; stroke-linecap:butt; stroke-linejoin:round; stroke-width:4; stroke-opacity:1; fill:none" points="
  272.297,367.206 291.194,367.206 
  "/>
<polyline clip-path="url(#clip640)" style="stroke:#000000; stroke-linecap:butt; stroke-linejoin:round; stroke-width:4; stroke-opacity:1; fill:none" points="
  272.297,121.869 291.194,121.869 
  "/>
<path clip-path="url(#clip640)" d="M114.26 1349.01 L143.936 1349.01 L143.936 1352.94 L114.26 1352.94 L114.26 1349.01 Z" fill="#000000" fill-rule="evenodd" fill-opacity="1" /><path clip-path="url(#clip640)" d="M154.839 1361.9 L162.477 1361.9 L162.477 1335.53 L154.167 1337.2 L154.167 1332.94 L162.431 1331.27 L167.107 1331.27 L167.107 1361.9 L174.746 1361.9 L174.746 1365.83 L154.839 1365.83 L154.839 1361.9 Z" fill="#000000" fill-rule="evenodd" fill-opacity="1" /><path clip-path="url(#clip640)" d="M194.19 1334.35 Q190.579 1334.35 188.75 1337.92 Q186.945 1341.46 186.945 1348.59 Q186.945 1355.7 188.75 1359.26 Q190.579 1362.8 194.19 1362.8 Q197.825 1362.8 199.63 1359.26 Q201.459 1355.7 201.459 1348.59 Q201.459 1341.46 199.63 1337.92 Q197.825 1334.35 194.19 1334.35 M194.19 1330.65 Q200 1330.65 203.056 1335.26 Q206.135 1339.84 206.135 1348.59 Q206.135 1357.32 203.056 1361.92 Q200 1366.51 194.19 1366.51 Q188.38 1366.51 185.301 1361.92 Q182.246 1357.32 182.246 1348.59 Q182.246 1339.84 185.301 1335.26 Q188.38 1330.65 194.19 1330.65 Z" fill="#000000" fill-rule="evenodd" fill-opacity="1" /><path clip-path="url(#clip640)" d="M224.352 1334.35 Q220.741 1334.35 218.912 1337.92 Q217.107 1341.46 217.107 1348.59 Q217.107 1355.7 218.912 1359.26 Q220.741 1362.8 224.352 1362.8 Q227.986 1362.8 229.792 1359.26 Q231.621 1355.7 231.621 1348.59 Q231.621 1341.46 229.792 1337.92 Q227.986 1334.35 224.352 1334.35 M224.352 1330.65 Q230.162 1330.65 233.218 1335.26 Q236.297 1339.84 236.297 1348.59 Q236.297 1357.32 233.218 1361.92 Q230.162 1366.51 224.352 1366.51 Q218.542 1366.51 215.463 1361.92 Q212.408 1357.32 212.408 1348.59 Q212.408 1339.84 215.463 1335.26 Q218.542 1330.65 224.352 1330.65 Z" fill="#000000" fill-rule="evenodd" fill-opacity="1" /><path clip-path="url(#clip640)" d="M224.352 1089.02 Q220.741 1089.02 218.912 1092.58 Q217.107 1096.12 217.107 1103.25 Q217.107 1110.36 218.912 1113.92 Q220.741 1117.47 224.352 1117.47 Q227.986 1117.47 229.792 1113.92 Q231.621 1110.36 231.621 1103.25 Q231.621 1096.12 229.792 1092.58 Q227.986 1089.02 224.352 1089.02 M224.352 1085.31 Q230.162 1085.31 233.218 1089.92 Q236.297 1094.5 236.297 1103.25 Q236.297 1111.98 233.218 1116.59 Q230.162 1121.17 224.352 1121.17 Q218.542 1121.17 215.463 1116.59 Q212.408 1111.98 212.408 1103.25 Q212.408 1094.5 215.463 1089.92 Q218.542 1085.31 224.352 1085.31 Z" fill="#000000" fill-rule="evenodd" fill-opacity="1" /><path clip-path="url(#clip640)" d="M154.839 871.225 L162.477 871.225 L162.477 844.86 L154.167 846.526 L154.167 842.267 L162.431 840.601 L167.107 840.601 L167.107 871.225 L174.746 871.225 L174.746 875.161 L154.839 875.161 L154.839 871.225 Z" fill="#000000" fill-rule="evenodd" fill-opacity="1" /><path clip-path="url(#clip640)" d="M194.19 843.679 Q190.579 843.679 188.75 847.244 Q186.945 850.786 186.945 857.915 Q186.945 865.022 188.75 868.587 Q190.579 872.128 194.19 872.128 Q197.825 872.128 199.63 868.587 Q201.459 865.022 201.459 857.915 Q201.459 850.786 199.63 847.244 Q197.825 843.679 194.19 843.679 M194.19 839.976 Q200 839.976 203.056 844.582 Q206.135 849.165 206.135 857.915 Q206.135 866.642 203.056 871.249 Q200 875.832 194.19 875.832 Q188.38 875.832 185.301 871.249 Q182.246 866.642 182.246 857.915 Q182.246 849.165 185.301 844.582 Q188.38 839.976 194.19 839.976 Z" fill="#000000" fill-rule="evenodd" fill-opacity="1" /><path clip-path="url(#clip640)" d="M224.352 843.679 Q220.741 843.679 218.912 847.244 Q217.107 850.786 217.107 857.915 Q217.107 865.022 218.912 868.587 Q220.741 872.128 224.352 872.128 Q227.986 872.128 229.792 868.587 Q231.621 865.022 231.621 857.915 Q231.621 850.786 229.792 847.244 Q227.986 843.679 224.352 843.679 M224.352 839.976 Q230.162 839.976 233.218 844.582 Q236.297 849.165 236.297 857.915 Q236.297 866.642 233.218 871.249 Q230.162 875.832 224.352 875.832 Q218.542 875.832 215.463 871.249 Q212.408 866.642 212.408 857.915 Q212.408 849.165 215.463 844.582 Q218.542 839.976 224.352 839.976 Z" fill="#000000" fill-rule="evenodd" fill-opacity="1" /><path clip-path="url(#clip640)" d="M158.056 625.888 L174.376 625.888 L174.376 629.823 L152.431 629.823 L152.431 625.888 Q155.093 623.134 159.677 618.504 Q164.283 613.851 165.464 612.509 Q167.709 609.986 168.589 608.249 Q169.491 606.49 169.491 604.8 Q169.491 602.046 167.547 600.31 Q165.626 598.574 162.524 598.574 Q160.325 598.574 157.871 599.337 Q155.44 600.101 152.663 601.652 L152.663 596.93 Q155.487 595.796 157.94 595.217 Q160.394 594.638 162.431 594.638 Q167.802 594.638 170.996 597.324 Q174.19 600.009 174.19 604.499 Q174.19 606.629 173.38 608.55 Q172.593 610.448 170.487 613.041 Q169.908 613.712 166.806 616.93 Q163.704 620.124 158.056 625.888 Z" fill="#000000" fill-rule="evenodd" fill-opacity="1" /><path clip-path="url(#clip640)" d="M194.19 598.342 Q190.579 598.342 188.75 601.907 Q186.945 605.449 186.945 612.578 Q186.945 619.685 188.75 623.249 Q190.579 626.791 194.19 626.791 Q197.825 626.791 199.63 623.249 Q201.459 619.685 201.459 612.578 Q201.459 605.449 199.63 601.907 Q197.825 598.342 194.19 598.342 M194.19 594.638 Q200 594.638 203.056 599.245 Q206.135 603.828 206.135 612.578 Q206.135 621.305 203.056 625.911 Q200 630.495 194.19 630.495 Q188.38 630.495 185.301 625.911 Q182.246 621.305 182.246 612.578 Q182.246 603.828 185.301 599.245 Q188.38 594.638 194.19 594.638 Z" fill="#000000" fill-rule="evenodd" fill-opacity="1" /><path clip-path="url(#clip640)" d="M224.352 598.342 Q220.741 598.342 218.912 601.907 Q217.107 605.449 217.107 612.578 Q217.107 619.685 218.912 623.249 Q220.741 626.791 224.352 626.791 Q227.986 626.791 229.792 623.249 Q231.621 619.685 231.621 612.578 Q231.621 605.449 229.792 601.907 Q227.986 598.342 224.352 598.342 M224.352 594.638 Q230.162 594.638 233.218 599.245 Q236.297 603.828 236.297 612.578 Q236.297 621.305 233.218 625.911 Q230.162 630.495 224.352 630.495 Q218.542 630.495 215.463 625.911 Q212.408 621.305 212.408 612.578 Q212.408 603.828 215.463 599.245 Q218.542 594.638 224.352 594.638 Z" fill="#000000" fill-rule="evenodd" fill-opacity="1" /><path clip-path="url(#clip640)" d="M168.195 365.852 Q171.552 366.57 173.427 368.838 Q175.325 371.107 175.325 374.44 Q175.325 379.556 171.806 382.357 Q168.288 385.157 161.806 385.157 Q159.63 385.157 157.315 384.718 Q155.024 384.301 152.57 383.445 L152.57 378.931 Q154.515 380.065 156.829 380.644 Q159.144 381.222 161.667 381.222 Q166.065 381.222 168.357 379.486 Q170.672 377.75 170.672 374.44 Q170.672 371.384 168.519 369.671 Q166.39 367.935 162.57 367.935 L158.542 367.935 L158.542 364.093 L162.755 364.093 Q166.204 364.093 168.033 362.727 Q169.862 361.338 169.862 358.746 Q169.862 356.084 167.964 354.672 Q166.089 353.236 162.57 353.236 Q160.649 353.236 158.45 353.653 Q156.251 354.07 153.612 354.949 L153.612 350.783 Q156.274 350.042 158.589 349.672 Q160.927 349.301 162.987 349.301 Q168.311 349.301 171.413 351.732 Q174.514 354.139 174.514 358.259 Q174.514 361.13 172.871 363.121 Q171.227 365.088 168.195 365.852 Z" fill="#000000" fill-rule="evenodd" fill-opacity="1" /><path clip-path="url(#clip640)" d="M194.19 353.005 Q190.579 353.005 188.75 356.57 Q186.945 360.111 186.945 367.241 Q186.945 374.347 188.75 377.912 Q190.579 381.454 194.19 381.454 Q197.825 381.454 199.63 377.912 Q201.459 374.347 201.459 367.241 Q201.459 360.111 199.63 356.57 Q197.825 353.005 194.19 353.005 M194.19 349.301 Q200 349.301 203.056 353.908 Q206.135 358.491 206.135 367.241 Q206.135 375.968 203.056 380.574 Q200 385.157 194.19 385.157 Q188.38 385.157 185.301 380.574 Q182.246 375.968 182.246 367.241 Q182.246 358.491 185.301 353.908 Q188.38 349.301 194.19 349.301 Z" fill="#000000" fill-rule="evenodd" fill-opacity="1" /><path clip-path="url(#clip640)" d="M224.352 353.005 Q220.741 353.005 218.912 356.57 Q217.107 360.111 217.107 367.241 Q217.107 374.347 218.912 377.912 Q220.741 381.454 224.352 381.454 Q227.986 381.454 229.792 377.912 Q231.621 374.347 231.621 367.241 Q231.621 360.111 229.792 356.57 Q227.986 353.005 224.352 353.005 M224.352 349.301 Q230.162 349.301 233.218 353.908 Q236.297 358.491 236.297 367.241 Q236.297 375.968 233.218 380.574 Q230.162 385.157 224.352 385.157 Q218.542 385.157 215.463 380.574 Q212.408 375.968 212.408 367.241 Q212.408 358.491 215.463 353.908 Q218.542 349.301 224.352 349.301 Z" fill="#000000" fill-rule="evenodd" fill-opacity="1" /><path clip-path="url(#clip640)" d="M166.876 108.663 L155.07 127.112 L166.876 127.112 L166.876 108.663 M165.649 104.589 L171.528 104.589 L171.528 127.112 L176.459 127.112 L176.459 131.001 L171.528 131.001 L171.528 139.149 L166.876 139.149 L166.876 131.001 L151.274 131.001 L151.274 126.487 L165.649 104.589 Z" fill="#000000" fill-rule="evenodd" fill-opacity="1" /><path clip-path="url(#clip640)" d="M194.19 107.668 Q190.579 107.668 188.75 111.232 Q186.945 114.774 186.945 121.904 Q186.945 129.01 188.75 132.575 Q190.579 136.117 194.19 136.117 Q197.825 136.117 199.63 132.575 Q201.459 129.01 201.459 121.904 Q201.459 114.774 199.63 111.232 Q197.825 107.668 194.19 107.668 M194.19 103.964 Q200 103.964 203.056 108.57 Q206.135 113.154 206.135 121.904 Q206.135 130.631 203.056 135.237 Q200 139.82 194.19 139.82 Q188.38 139.82 185.301 135.237 Q182.246 130.631 182.246 121.904 Q182.246 113.154 185.301 108.57 Q188.38 103.964 194.19 103.964 Z" fill="#000000" fill-rule="evenodd" fill-opacity="1" /><path clip-path="url(#clip640)" d="M224.352 107.668 Q220.741 107.668 218.912 111.232 Q217.107 114.774 217.107 121.904 Q217.107 129.01 218.912 132.575 Q220.741 136.117 224.352 136.117 Q227.986 136.117 229.792 132.575 Q231.621 129.01 231.621 121.904 Q231.621 114.774 229.792 111.232 Q227.986 107.668 224.352 107.668 M224.352 103.964 Q230.162 103.964 233.218 108.57 Q236.297 113.154 236.297 121.904 Q236.297 130.631 233.218 135.237 Q230.162 139.82 224.352 139.82 Q218.542 139.82 215.463 135.237 Q212.408 130.631 212.408 121.904 Q212.408 113.154 215.463 108.57 Q218.542 103.964 224.352 103.964 Z" fill="#000000" fill-rule="evenodd" fill-opacity="1" /><path clip-path="url(#clip640)" d="M67.3143 917.78 Q73.68 920.263 75.6216 922.618 Q77.5631 924.974 77.5631 928.92 L77.5631 933.599 L72.6615 933.599 L72.6615 930.162 Q72.6615 927.743 71.5157 926.406 Q70.3699 925.069 66.1048 923.446 L63.4312 922.396 L28.3562 936.814 L28.3562 930.607 L56.238 919.467 L28.3562 908.327 L28.3562 902.121 L67.3143 917.78 Z" fill="#000000" fill-rule="evenodd" fill-opacity="1" /><path clip-path="url(#clip640)" d="M43.5384 898.142 L43.5384 880.987 L48.7583 880.987 L48.7583 898.142 L43.5384 898.142 Z" fill="#000000" fill-rule="evenodd" fill-opacity="1" /><path clip-path="url(#clip640)" d="M29.7248 846.007 L35.1993 846.007 Q33.8307 848.49 33.1623 851.004 Q32.4621 853.487 32.4621 856.033 Q32.4621 861.73 36.0905 864.881 Q39.6872 868.032 46.212 868.032 Q52.7369 868.032 56.3653 864.881 Q59.9619 861.73 59.9619 856.033 Q59.9619 853.487 59.2935 851.004 Q58.5933 848.49 57.2247 846.007 L62.6355 846.007 Q63.7814 848.458 64.3543 851.1 Q64.9272 853.71 64.9272 856.67 Q64.9272 864.722 59.8664 869.465 Q54.8057 874.207 46.212 874.207 Q37.491 874.207 32.4939 869.433 Q27.4968 864.627 27.4968 856.288 Q27.4968 853.582 28.0697 851.004 Q28.6108 848.426 29.7248 846.007 Z" fill="#000000" fill-rule="evenodd" fill-opacity="1" /><path clip-path="url(#clip640)" d="M32.4621 822.008 Q32.4621 826.719 36.1542 829.456 Q39.8145 832.194 46.212 832.194 Q52.6095 832.194 56.3017 829.488 Q59.9619 826.751 59.9619 822.008 Q59.9619 817.33 56.2698 814.592 Q52.5777 811.855 46.212 811.855 Q39.8781 811.855 36.186 814.592 Q32.4621 817.33 32.4621 822.008 M27.4968 822.008 Q27.4968 814.37 32.4621 810.009 Q37.4273 805.649 46.212 805.649 Q54.9649 805.649 59.9619 810.009 Q64.9272 814.37 64.9272 822.008 Q64.9272 829.679 59.9619 834.04 Q54.9649 838.368 46.212 838.368 Q37.4273 838.368 32.4621 834.04 Q27.4968 829.679 27.4968 822.008 Z" fill="#000000" fill-rule="evenodd" fill-opacity="1" /><path clip-path="url(#clip640)" d="M32.4621 782.127 Q32.4621 786.838 36.1542 789.575 Q39.8145 792.312 46.212 792.312 Q52.6095 792.312 56.3017 789.607 Q59.9619 786.87 59.9619 782.127 Q59.9619 777.448 56.2698 774.711 Q52.5777 771.974 46.212 771.974 Q39.8781 771.974 36.186 774.711 Q32.4621 777.448 32.4621 782.127 M27.4968 782.127 Q27.4968 774.488 32.4621 770.128 Q37.4273 765.767 46.212 765.767 Q54.9649 765.767 59.9619 770.128 Q64.9272 774.488 64.9272 782.127 Q64.9272 789.798 59.9619 794.158 Q54.9649 798.487 46.212 798.487 Q37.4273 798.487 32.4621 794.158 Q27.4968 789.798 27.4968 782.127 Z" fill="#000000" fill-rule="evenodd" fill-opacity="1" /><path clip-path="url(#clip640)" d="M33.8307 735.403 Q33.2578 736.39 33.0032 737.567 Q32.7167 738.713 32.7167 740.114 Q32.7167 745.079 35.9632 747.752 Q39.1779 750.394 45.2253 750.394 L64.0042 750.394 L64.0042 756.282 L28.3562 756.282 L28.3562 750.394 L33.8944 750.394 Q30.6479 748.548 29.0883 745.588 Q27.4968 742.628 27.4968 738.395 Q27.4968 737.79 27.5923 737.058 Q27.656 736.326 27.8151 735.435 L33.8307 735.403 Z" fill="#000000" fill-rule="evenodd" fill-opacity="1" /><path clip-path="url(#clip640)" d="M33.7671 706.948 L14.479 706.948 L14.479 701.092 L64.0042 701.092 L64.0042 706.948 L58.657 706.948 Q61.8398 708.794 63.3994 711.627 Q64.9272 714.428 64.9272 718.375 Q64.9272 724.836 59.771 728.91 Q54.6147 732.952 46.212 732.952 Q37.8093 732.952 32.6531 728.91 Q27.4968 724.836 27.4968 718.375 Q27.4968 714.428 29.0564 711.627 Q30.5842 708.794 33.7671 706.948 M46.212 726.905 Q52.6732 726.905 56.3653 724.263 Q60.0256 721.589 60.0256 716.942 Q60.0256 712.295 56.3653 709.622 Q52.6732 706.948 46.212 706.948 Q39.7508 706.948 36.0905 709.622 Q32.3984 712.295 32.3984 716.942 Q32.3984 721.589 36.0905 724.263 Q39.7508 726.905 46.212 726.905 Z" fill="#000000" fill-rule="evenodd" fill-opacity="1" /><path clip-path="url(#clip640)" d="M28.3562 689.029 L28.3562 683.172 L64.0042 683.172 L64.0042 689.029 L28.3562 689.029 M14.479 689.029 L14.479 683.172 L21.895 683.172 L21.895 689.029 L14.479 689.029 Z" fill="#000000" fill-rule="evenodd" fill-opacity="1" /><path clip-path="url(#clip640)" d="M42.4881 641.286 L64.0042 641.286 L64.0042 647.142 L42.679 647.142 Q37.6183 647.142 35.1038 649.116 Q32.5894 651.089 32.5894 655.036 Q32.5894 659.778 35.6131 662.516 Q38.6368 665.253 43.8567 665.253 L64.0042 665.253 L64.0042 671.141 L28.3562 671.141 L28.3562 665.253 L33.8944 665.253 Q30.6797 663.152 29.0883 660.319 Q27.4968 657.455 27.4968 653.731 Q27.4968 647.588 31.3163 644.437 Q35.1038 641.286 42.4881 641.286 Z" fill="#000000" fill-rule="evenodd" fill-opacity="1" /><path clip-path="url(#clip640)" d="M46.0847 613.404 Q46.0847 620.502 47.7079 623.239 Q49.3312 625.976 53.2461 625.976 Q56.3653 625.976 58.2114 623.939 Q60.0256 621.871 60.0256 618.338 Q60.0256 613.468 56.5881 610.54 Q53.1188 607.58 47.3897 607.58 L46.0847 607.58 L46.0847 613.404 M43.6657 601.723 L64.0042 601.723 L64.0042 607.58 L58.5933 607.58 Q61.8398 609.585 63.3994 612.577 Q64.9272 615.569 64.9272 619.897 Q64.9272 625.372 61.8716 628.618 Q58.7843 631.833 53.6281 631.833 Q47.6125 631.833 44.5569 627.822 Q41.5014 623.78 41.5014 615.791 L41.5014 607.58 L40.9285 607.58 Q36.8862 607.58 34.6901 610.253 Q32.4621 612.895 32.4621 617.701 Q32.4621 620.757 33.1941 623.653 Q33.9262 626.549 35.3903 629.223 L29.9795 629.223 Q28.7381 626.008 28.1334 622.985 Q27.4968 619.961 27.4968 617.096 Q27.4968 609.362 31.5072 605.543 Q35.5176 601.723 43.6657 601.723 Z" fill="#000000" fill-rule="evenodd" fill-opacity="1" /><path clip-path="url(#clip640)" d="M18.2347 583.867 L28.3562 583.867 L28.3562 571.804 L32.9077 571.804 L32.9077 583.867 L52.2594 583.867 Q56.6199 583.867 57.8613 582.69 Q59.1026 581.48 59.1026 577.82 L59.1026 571.804 L64.0042 571.804 L64.0042 577.82 Q64.0042 584.599 61.4897 587.177 Q58.9434 589.756 52.2594 589.756 L32.9077 589.756 L32.9077 594.052 L28.3562 594.052 L28.3562 589.756 L18.2347 589.756 L18.2347 583.867 Z" fill="#000000" fill-rule="evenodd" fill-opacity="1" /><path clip-path="url(#clip640)" d="M44.7161 533.61 L47.5806 533.61 L47.5806 560.537 Q53.6281 560.155 56.8109 556.909 Q59.9619 553.63 59.9619 547.806 Q59.9619 544.432 59.1344 541.281 Q58.3069 538.098 56.6518 534.979 L62.1899 534.979 Q63.5267 538.13 64.227 541.44 Q64.9272 544.75 64.9272 548.156 Q64.9272 556.686 59.9619 561.683 Q54.9967 566.648 46.5303 566.648 Q37.7774 566.648 32.6531 561.937 Q27.4968 557.195 27.4968 549.174 Q27.4968 541.981 32.1438 537.811 Q36.7589 533.61 44.7161 533.61 M42.9973 539.466 Q38.1912 539.53 35.3266 542.172 Q32.4621 544.782 32.4621 549.111 Q32.4621 554.012 35.2312 556.972 Q38.0002 559.9 43.0292 560.346 L42.9973 539.466 Z" fill="#000000" fill-rule="evenodd" fill-opacity="1" /><polyline clip-path="url(#clip642)" style="stroke:#0000ff; stroke-linecap:butt; stroke-linejoin:round; stroke-width:4; stroke-opacity:1; fill:none" points="
  331.177,1103.22 1312.53,367.206 
  "/>
<polyline clip-path="url(#clip642)" style="stroke:#0000ff; stroke-linecap:butt; stroke-linejoin:round; stroke-width:4; stroke-opacity:1; fill:none" points="
  331.177,1103.22 1312.53,1103.22 
  "/>
<polyline clip-path="url(#clip642)" style="stroke:#0000ff; stroke-linecap:butt; stroke-linejoin:round; stroke-width:4; stroke-opacity:1; fill:none" points="
  1312.53,367.206 2293.87,1103.22 
  "/>
<polyline clip-path="url(#clip642)" style="stroke:#0000ff; stroke-linecap:butt; stroke-linejoin:round; stroke-width:4; stroke-opacity:1; fill:none" points="
  1312.53,1103.22 2293.87,1103.22 
  "/>
<polyline clip-path="url(#clip642)" style="stroke:#0000ff; stroke-linecap:butt; stroke-linejoin:round; stroke-width:4; stroke-opacity:1; fill:none" points="
  1312.53,367.206 1312.53,1103.22 
  "/>
<circle clip-path="url(#clip642)" cx="331.177" cy="1103.22" r="14" fill="#ffffff" fill-rule="evenodd" fill-opacity="1" stroke="#000000" stroke-opacity="1" stroke-width="3.2"/>
<circle clip-path="url(#clip642)" cx="2293.87" cy="1103.22" r="14" fill="#ffffff" fill-rule="evenodd" fill-opacity="1" stroke="#000000" stroke-opacity="1" stroke-width="3.2"/>
<circle clip-path="url(#clip642)" cx="1312.53" cy="367.206" r="14" fill="#ffffff" fill-rule="evenodd" fill-opacity="1" stroke="#000000" stroke-opacity="1" stroke-width="3.2"/>
<circle clip-path="url(#clip642)" cx="1312.53" cy="1103.22" r="14" fill="#ffffff" fill-rule="evenodd" fill-opacity="1" stroke="#000000" stroke-opacity="1" stroke-width="3.2"/>
<path clip-path="url(#clip640)" d="M817.043 741.884 L820.862 741.884 L820.862 728.702 L816.707 729.535 L816.707 727.405 L820.839 726.572 L823.177 726.572 L823.177 741.884 L826.996 741.884 L826.996 743.852 L817.043 743.852 L817.043 741.884 Z" fill="#ff0000" fill-rule="evenodd" fill-opacity="1" /><path clip-path="url(#clip640)" d="M819.178 1109.89 L827.338 1109.89 L827.338 1111.86 L816.366 1111.86 L816.366 1109.89 Q817.697 1108.51 819.988 1106.2 Q822.292 1103.87 822.882 1103.2 Q824.005 1101.94 824.444 1101.07 Q824.896 1100.19 824.896 1099.35 Q824.896 1097.97 823.924 1097.1 Q822.963 1096.23 821.412 1096.23 Q820.313 1096.23 819.086 1096.61 Q817.87 1097 816.482 1097.77 L816.482 1095.41 Q817.894 1094.84 819.12 1094.55 Q820.347 1094.27 821.366 1094.27 Q824.051 1094.27 825.648 1095.61 Q827.245 1096.95 827.245 1099.2 Q827.245 1100.26 826.84 1101.22 Q826.447 1102.17 825.393 1103.47 Q825.104 1103.8 823.553 1105.41 Q822.002 1107.01 819.178 1109.89 Z" fill="#ff0000" fill-rule="evenodd" fill-opacity="1" /><path clip-path="url(#clip640)" d="M1805.32 734.535 Q1807 734.894 1807.94 736.028 Q1808.89 737.162 1808.89 738.829 Q1808.89 741.387 1807.13 742.787 Q1805.37 744.188 1802.13 744.188 Q1801.04 744.188 1799.88 743.968 Q1798.74 743.759 1797.51 743.331 L1797.51 741.074 Q1798.48 741.641 1799.64 741.931 Q1800.8 742.22 1802.06 742.22 Q1804.26 742.22 1805.41 741.352 Q1806.56 740.484 1806.56 738.829 Q1806.56 737.301 1805.49 736.445 Q1804.42 735.577 1802.51 735.577 L1800.5 735.577 L1800.5 733.655 L1802.6 733.655 Q1804.33 733.655 1805.24 732.972 Q1806.16 732.278 1806.16 730.982 Q1806.16 729.651 1805.21 728.945 Q1804.27 728.227 1802.51 728.227 Q1801.55 728.227 1800.45 728.435 Q1799.35 728.644 1798.03 729.084 L1798.03 727 Q1799.36 726.63 1800.52 726.445 Q1801.69 726.259 1802.72 726.259 Q1805.38 726.259 1806.93 727.475 Q1808.48 728.678 1808.48 730.739 Q1808.48 732.174 1807.66 733.169 Q1806.84 734.153 1805.32 734.535 Z" fill="#ff0000" fill-rule="evenodd" fill-opacity="1" /><path clip-path="url(#clip640)" d="M1804.71 1096.61 L1798.8 1105.84 L1804.71 1105.84 L1804.71 1096.61 M1804.09 1094.58 L1807.03 1094.58 L1807.03 1105.84 L1809.5 1105.84 L1809.5 1107.78 L1807.03 1107.78 L1807.03 1111.86 L1804.71 1111.86 L1804.71 1107.78 L1796.9 1107.78 L1796.9 1105.53 L1804.09 1094.58 Z" fill="#ff0000" fill-rule="evenodd" fill-opacity="1" /><path clip-path="url(#clip640)" d="M1307.67 726.572 L1316.84 726.572 L1316.84 728.54 L1309.81 728.54 L1309.81 732.776 Q1310.32 732.602 1310.82 732.521 Q1311.33 732.428 1311.84 732.428 Q1314.74 732.428 1316.43 734.014 Q1318.12 735.6 1318.12 738.308 Q1318.12 741.097 1316.38 742.648 Q1314.64 744.188 1311.48 744.188 Q1310.4 744.188 1309.26 744.002 Q1308.14 743.817 1306.94 743.447 L1306.94 741.097 Q1307.98 741.664 1309.09 741.942 Q1310.2 742.22 1311.44 742.22 Q1313.44 742.22 1314.61 741.167 Q1315.78 740.114 1315.78 738.308 Q1315.78 736.502 1314.61 735.449 Q1313.44 734.396 1311.44 734.396 Q1310.5 734.396 1309.56 734.604 Q1308.64 734.813 1307.67 735.252 L1307.67 726.572 Z" fill="#ff0000" fill-rule="evenodd" fill-opacity="1" /><path clip-path="url(#clip640)" d="M326.368 1109.89 L330.188 1109.89 L330.188 1096.71 L326.033 1097.54 L326.033 1095.41 L330.165 1094.58 L332.503 1094.58 L332.503 1109.89 L336.322 1109.89 L336.322 1111.86 L326.368 1111.86 L326.368 1109.89 Z" fill="#000000" fill-rule="evenodd" fill-opacity="1" /><path clip-path="url(#clip640)" d="M2291.2 1109.89 L2299.36 1109.89 L2299.36 1111.86 L2288.39 1111.86 L2288.39 1109.89 Q2289.72 1108.51 2292.01 1106.2 Q2294.31 1103.87 2294.91 1103.2 Q2296.03 1101.94 2296.47 1101.07 Q2296.92 1100.19 2296.92 1099.35 Q2296.92 1097.97 2295.95 1097.1 Q2294.99 1096.23 2293.44 1096.23 Q2292.34 1096.23 2291.11 1096.61 Q2289.89 1097 2288.5 1097.77 L2288.5 1095.41 Q2289.92 1094.84 2291.14 1094.55 Q2292.37 1094.27 2293.39 1094.27 Q2296.07 1094.27 2297.67 1095.61 Q2299.27 1096.95 2299.27 1099.2 Q2299.27 1100.26 2298.86 1101.22 Q2298.47 1102.17 2297.42 1103.47 Q2297.13 1103.8 2295.58 1105.41 Q2294.03 1107.01 2291.2 1109.89 Z" fill="#000000" fill-rule="evenodd" fill-opacity="1" /><path clip-path="url(#clip640)" d="M1314.65 366.529 Q1316.33 366.888 1317.27 368.022 Q1318.21 369.156 1318.21 370.823 Q1318.21 373.381 1316.46 374.781 Q1314.7 376.182 1311.46 376.182 Q1310.37 376.182 1309.21 375.962 Q1308.06 375.754 1306.84 375.325 L1306.84 373.068 Q1307.81 373.636 1308.97 373.925 Q1310.12 374.214 1311.39 374.214 Q1313.59 374.214 1314.73 373.346 Q1315.89 372.478 1315.89 370.823 Q1315.89 369.295 1314.81 368.439 Q1313.75 367.571 1311.84 367.571 L1309.82 367.571 L1309.82 365.649 L1311.93 365.649 Q1313.65 365.649 1314.57 364.967 Q1315.48 364.272 1315.48 362.976 Q1315.48 361.645 1314.53 360.939 Q1313.6 360.221 1311.84 360.221 Q1310.88 360.221 1309.78 360.43 Q1308.68 360.638 1307.36 361.078 L1307.36 358.994 Q1308.69 358.624 1309.85 358.439 Q1311.02 358.254 1312.05 358.254 Q1314.71 358.254 1316.26 359.469 Q1317.81 360.673 1317.81 362.733 Q1317.81 364.168 1316.99 365.163 Q1316.17 366.147 1314.65 366.529 Z" fill="#000000" fill-rule="evenodd" fill-opacity="1" /><path clip-path="url(#clip640)" d="M1314.03 1096.61 L1308.13 1105.84 L1314.03 1105.84 L1314.03 1096.61 M1313.42 1094.58 L1316.36 1094.58 L1316.36 1105.84 L1318.82 1105.84 L1318.82 1107.78 L1316.36 1107.78 L1316.36 1111.86 L1314.03 1111.86 L1314.03 1107.78 L1306.23 1107.78 L1306.23 1105.53 L1313.42 1094.58 Z" fill="#000000" fill-rule="evenodd" fill-opacity="1" /></svg>
