<?xml version="1.0" encoding="utf-8"?>
<svg xmlns="http://www.w3.org/2000/svg" xmlns:xlink="http://www.w3.org/1999/xlink" width="600" height="400" viewBox="0 0 2400 1600">
<defs>
  <clipPath id="clip750">
    <rect x="0" y="0" width="2400" height="1600"/>
  </clipPath>
</defs>
<path clip-path="url(#clip750)" d="
M0 1600 L2400 1600 L2400 0 L0 0  Z
  " fill="#ffffff" fill-rule="evenodd" fill-opacity="1"/>
<defs>
  <clipPath id="clip751">
    <rect x="480" y="0" width="1681" height="1600"/>
  </clipPath>
</defs>
<defs>
  <clipPath id="clip752">
    <rect x="265" y="47" width="2088" height="1377"/>
  </clipPath>
</defs>
<path clip-path="url(#clip752)" d="
M265.445 1341.9 L265.445 291.086 L1029.45 47.2441 L2352.76 128.525 L2352.76 1179.34 L1588.75 1423.18 L265.445 1341.9  Z
  " fill="#ffffff" fill-rule="evenodd" fill-opacity="1"/>
<polyline clip-path="url(#clip752)" style="stroke:#000000; stroke-linecap:butt; stroke-linejoin:round; stroke-width:2; stroke-opacity:0.1; fill:none" points="
  412.763,1350.95 1176.77,1107.11 
  "/>
<polyline clip-path="url(#clip752)" style="stroke:#000000; stroke-linecap:butt; stroke-linejoin:round; stroke-width:2; stroke-opacity:0.1; fill:none" points="
  1176.77,1107.11 1176.77,56.2928 
  "/>
<polyline clip-path="url(#clip752)" style="stroke:#000000; stroke-linecap:butt; stroke-linejoin:round; stroke-width:2; stroke-opacity:0.1; fill:none" points="
  687.074,1367.8 1451.08,1123.95 
  "/>
<polyline clip-path="url(#clip752)" style="stroke:#000000; stroke-linecap:butt; stroke-linejoin:round; stroke-width:2; stroke-opacity:0.1; fill:none" points="
  1451.08,1123.95 1451.08,73.1417 
  "/>
<polyline clip-path="url(#clip752)" style="stroke:#000000; stroke-linecap:butt; stroke-linejoin:round; stroke-width:2; stroke-opacity:0.1; fill:none" points="
  961.385,1384.65 1725.39,1140.8 
  "/>
<polyline clip-path="url(#clip752)" style="stroke:#000000; stroke-linecap:butt; stroke-linejoin:round; stroke-width:2; stroke-opacity:0.1; fill:none" points="
  1725.39,1140.8 1725.39,89.9905 
  "/>
<polyline clip-path="url(#clip752)" style="stroke:#000000; stroke-linecap:butt; stroke-linejoin:round; stroke-width:2; stroke-opacity:0.1; fill:none" points="
  1235.7,1401.49 1999.7,1157.65 
  "/>
<polyline clip-path="url(#clip752)" style="stroke:#000000; stroke-linecap:butt; stroke-linejoin:round; stroke-width:2; stroke-opacity:0.1; fill:none" points="
  1999.7,1157.65 1999.7,106.839 
  "/>
<polyline clip-path="url(#clip752)" style="stroke:#000000; stroke-linecap:butt; stroke-linejoin:round; stroke-width:2; stroke-opacity:0.1; fill:none" points="
  1510.01,1418.34 2274.02,1174.5 
  "/>
<polyline clip-path="url(#clip752)" style="stroke:#000000; stroke-linecap:butt; stroke-linejoin:round; stroke-width:2; stroke-opacity:0.1; fill:none" points="
  2274.02,1174.5 2274.02,123.688 
  "/>
<polyline clip-path="url(#clip750)" style="stroke:#000000; stroke-linecap:butt; stroke-linejoin:round; stroke-width:4; stroke-opacity:1; fill:none" points="
  265.445,1341.9 1588.75,1423.18 
  "/>
<polyline clip-path="url(#clip750)" style="stroke:#000000; stroke-linecap:butt; stroke-linejoin:round; stroke-width:4; stroke-opacity:1; fill:none" points="
  412.763,1350.95 421.931,1348.02 
  "/>
<polyline clip-path="url(#clip750)" style="stroke:#000000; stroke-linecap:butt; stroke-linejoin:round; stroke-width:4; stroke-opacity:1; fill:none" points="
  687.074,1367.8 696.242,1364.87 
  "/>
<polyline clip-path="url(#clip750)" style="stroke:#000000; stroke-linecap:butt; stroke-linejoin:round; stroke-width:4; stroke-opacity:1; fill:none" points="
  961.385,1384.65 970.553,1381.72 
  "/>
<polyline clip-path="url(#clip750)" style="stroke:#000000; stroke-linecap:butt; stroke-linejoin:round; stroke-width:4; stroke-opacity:1; fill:none" points="
  1235.7,1401.49 1244.86,1398.57 
  "/>
<polyline clip-path="url(#clip750)" style="stroke:#000000; stroke-linecap:butt; stroke-linejoin:round; stroke-width:4; stroke-opacity:1; fill:none" points="
  1510.01,1418.34 1519.17,1415.42 
  "/>
<path clip-path="url(#clip750)" d="M399.053 1365.49 Q395.442 1365.49 393.613 1369.06 Q391.808 1372.6 391.808 1379.73 Q391.808 1386.83 393.613 1390.4 Q395.442 1393.94 399.053 1393.94 Q402.687 1393.94 404.493 1390.4 Q406.322 1386.83 406.322 1379.73 Q406.322 1372.6 404.493 1369.06 Q402.687 1365.49 399.053 1365.49 M399.053 1361.79 Q404.863 1361.79 407.919 1366.4 Q410.997 1370.98 410.997 1379.73 Q410.997 1388.46 407.919 1393.06 Q404.863 1397.64 399.053 1397.64 Q393.243 1397.64 390.164 1393.06 Q387.109 1388.46 387.109 1379.73 Q387.109 1370.98 390.164 1366.4 Q393.243 1361.79 399.053 1361.79 Z" fill="#000000" fill-rule="evenodd" fill-opacity="1" /><path clip-path="url(#clip750)" d="M576.906 1409.89 L593.225 1409.89 L593.225 1413.82 L571.281 1413.82 L571.281 1409.89 Q573.943 1407.13 578.526 1402.5 Q583.133 1397.85 584.313 1396.51 Q586.559 1393.98 587.438 1392.25 Q588.341 1390.49 588.341 1388.8 Q588.341 1386.04 586.397 1384.31 Q584.475 1382.57 581.374 1382.57 Q579.175 1382.57 576.721 1383.34 Q574.29 1384.1 571.513 1385.65 L571.513 1380.93 Q574.337 1379.79 576.79 1379.22 Q579.244 1378.64 581.281 1378.64 Q586.651 1378.64 589.846 1381.32 Q593.04 1384.01 593.04 1388.5 Q593.04 1390.63 592.23 1392.55 Q591.443 1394.45 589.337 1397.04 Q588.758 1397.71 585.656 1400.93 Q582.554 1404.12 576.906 1409.89 Z" fill="#000000" fill-rule="evenodd" fill-opacity="1" /><path clip-path="url(#clip750)" d="M613.04 1382.34 Q609.429 1382.34 607.6 1385.91 Q605.795 1389.45 605.795 1396.58 Q605.795 1403.68 607.6 1407.25 Q609.429 1410.79 613.04 1410.79 Q616.674 1410.79 618.48 1407.25 Q620.309 1403.68 620.309 1396.58 Q620.309 1389.45 618.48 1385.91 Q616.674 1382.34 613.04 1382.34 M613.04 1378.64 Q618.85 1378.64 621.906 1383.24 Q624.985 1387.83 624.985 1396.58 Q624.985 1405.3 621.906 1409.91 Q618.85 1414.49 613.04 1414.49 Q607.23 1414.49 604.151 1409.91 Q601.096 1405.3 601.096 1396.58 Q601.096 1387.83 604.151 1383.24 Q607.23 1378.64 613.04 1378.64 Z" fill="#000000" fill-rule="evenodd" fill-opacity="1" /><path clip-path="url(#clip750)" d="M643.202 1382.34 Q639.591 1382.34 637.762 1385.91 Q635.957 1389.45 635.957 1396.58 Q635.957 1403.68 637.762 1407.25 Q639.591 1410.79 643.202 1410.79 Q646.836 1410.79 648.642 1407.25 Q650.47 1403.68 650.47 1396.58 Q650.47 1389.45 648.642 1385.91 Q646.836 1382.34 643.202 1382.34 M643.202 1378.64 Q649.012 1378.64 652.068 1383.24 Q655.146 1387.83 655.146 1396.58 Q655.146 1405.3 652.068 1409.91 Q649.012 1414.49 643.202 1414.49 Q637.392 1414.49 634.313 1409.91 Q631.258 1405.3 631.258 1396.58 Q631.258 1387.83 634.313 1383.24 Q637.392 1378.64 643.202 1378.64 Z" fill="#000000" fill-rule="evenodd" fill-opacity="1" /><path clip-path="url(#clip750)" d="M673.364 1382.34 Q669.753 1382.34 667.924 1385.91 Q666.119 1389.45 666.119 1396.58 Q666.119 1403.68 667.924 1407.25 Q669.753 1410.79 673.364 1410.79 Q676.998 1410.79 678.804 1407.25 Q680.632 1403.68 680.632 1396.58 Q680.632 1389.45 678.804 1385.91 Q676.998 1382.34 673.364 1382.34 M673.364 1378.64 Q679.174 1378.64 682.23 1383.24 Q685.308 1387.83 685.308 1396.58 Q685.308 1405.3 682.23 1409.91 Q679.174 1414.49 673.364 1414.49 Q667.554 1414.49 664.475 1409.91 Q661.42 1405.3 661.42 1396.58 Q661.42 1387.83 664.475 1383.24 Q667.554 1378.64 673.364 1378.64 Z" fill="#000000" fill-rule="evenodd" fill-opacity="1" /><path clip-path="url(#clip750)" d="M860.036 1400.19 L848.231 1418.63 L860.036 1418.63 L860.036 1400.19 M858.809 1396.11 L864.689 1396.11 L864.689 1418.63 L869.62 1418.63 L869.62 1422.52 L864.689 1422.52 L864.689 1430.67 L860.036 1430.67 L860.036 1422.52 L844.434 1422.52 L844.434 1418.01 L858.809 1396.11 Z" fill="#000000" fill-rule="evenodd" fill-opacity="1" /><path clip-path="url(#clip750)" d="M887.351 1399.19 Q883.74 1399.19 881.911 1402.75 Q880.106 1406.3 880.106 1413.43 Q880.106 1420.53 881.911 1424.1 Q883.74 1427.64 887.351 1427.64 Q890.985 1427.64 892.791 1424.1 Q894.619 1420.53 894.619 1413.43 Q894.619 1406.3 892.791 1402.75 Q890.985 1399.19 887.351 1399.19 M887.351 1395.49 Q893.161 1395.49 896.217 1400.09 Q899.295 1404.68 899.295 1413.43 Q899.295 1422.15 896.217 1426.76 Q893.161 1431.34 887.351 1431.34 Q881.541 1431.34 878.462 1426.76 Q875.407 1422.15 875.407 1413.43 Q875.407 1404.68 878.462 1400.09 Q881.541 1395.49 887.351 1395.49 Z" fill="#000000" fill-rule="evenodd" fill-opacity="1" /><path clip-path="url(#clip750)" d="M917.513 1399.19 Q913.902 1399.19 912.073 1402.75 Q910.267 1406.3 910.267 1413.43 Q910.267 1420.53 912.073 1424.1 Q913.902 1427.64 917.513 1427.64 Q921.147 1427.64 922.953 1424.1 Q924.781 1420.53 924.781 1413.43 Q924.781 1406.3 922.953 1402.75 Q921.147 1399.19 917.513 1399.19 M917.513 1395.49 Q923.323 1395.49 926.378 1400.09 Q929.457 1404.68 929.457 1413.43 Q929.457 1422.15 926.378 1426.76 Q923.323 1431.34 917.513 1431.34 Q911.703 1431.34 908.624 1426.76 Q905.568 1422.15 905.568 1413.43 Q905.568 1404.68 908.624 1400.09 Q911.703 1395.49 917.513 1395.49 Z" fill="#000000" fill-rule="evenodd" fill-opacity="1" /><path clip-path="url(#clip750)" d="M947.675 1399.19 Q944.064 1399.19 942.235 1402.75 Q940.429 1406.3 940.429 1413.43 Q940.429 1420.53 942.235 1424.1 Q944.064 1427.64 947.675 1427.64 Q951.309 1427.64 953.114 1424.1 Q954.943 1420.53 954.943 1413.43 Q954.943 1406.3 953.114 1402.75 Q951.309 1399.19 947.675 1399.19 M947.675 1395.49 Q953.485 1395.49 956.54 1400.09 Q959.619 1404.68 959.619 1413.43 Q959.619 1422.15 956.54 1426.76 Q953.485 1431.34 947.675 1431.34 Q941.865 1431.34 938.786 1426.76 Q935.73 1422.15 935.73 1413.43 Q935.73 1404.68 938.786 1400.09 Q941.865 1395.49 947.675 1395.49 Z" fill="#000000" fill-rule="evenodd" fill-opacity="1" /><path clip-path="url(#clip750)" d="M1132.08 1428.38 Q1128.93 1428.38 1127.08 1430.53 Q1125.25 1432.68 1125.25 1436.43 Q1125.25 1440.16 1127.08 1442.34 Q1128.93 1444.49 1132.08 1444.49 Q1135.23 1444.49 1137.06 1442.34 Q1138.91 1440.16 1138.91 1436.43 Q1138.91 1432.68 1137.06 1430.53 Q1135.23 1428.38 1132.08 1428.38 M1141.36 1413.72 L1141.36 1417.98 Q1139.6 1417.15 1137.8 1416.71 Q1136.01 1416.27 1134.25 1416.27 Q1129.62 1416.27 1127.17 1419.4 Q1124.74 1422.52 1124.39 1428.84 Q1125.76 1426.83 1127.82 1425.76 Q1129.88 1424.67 1132.36 1424.67 Q1137.56 1424.67 1140.57 1427.84 Q1143.61 1430.99 1143.61 1436.43 Q1143.61 1441.76 1140.46 1444.97 Q1137.31 1448.19 1132.08 1448.19 Q1126.08 1448.19 1122.91 1443.61 Q1119.74 1439 1119.74 1430.28 Q1119.74 1422.08 1123.63 1417.22 Q1127.52 1412.34 1134.07 1412.34 Q1135.83 1412.34 1137.61 1412.68 Q1139.42 1413.03 1141.36 1413.72 Z" fill="#000000" fill-rule="evenodd" fill-opacity="1" /><path clip-path="url(#clip750)" d="M1161.66 1416.04 Q1158.05 1416.04 1156.22 1419.6 Q1154.42 1423.15 1154.42 1430.28 Q1154.42 1437.38 1156.22 1440.95 Q1158.05 1444.49 1161.66 1444.49 Q1165.3 1444.49 1167.1 1440.95 Q1168.93 1437.38 1168.93 1430.28 Q1168.93 1423.15 1167.1 1419.6 Q1165.3 1416.04 1161.66 1416.04 M1161.66 1412.34 Q1167.47 1412.34 1170.53 1416.94 Q1173.61 1421.53 1173.61 1430.28 Q1173.61 1439 1170.53 1443.61 Q1167.47 1448.19 1161.66 1448.19 Q1155.85 1448.19 1152.77 1443.61 Q1149.72 1439 1149.72 1430.28 Q1149.72 1421.53 1152.77 1416.94 Q1155.85 1412.34 1161.66 1412.34 Z" fill="#000000" fill-rule="evenodd" fill-opacity="1" /><path clip-path="url(#clip750)" d="M1191.82 1416.04 Q1188.21 1416.04 1186.38 1419.6 Q1184.58 1423.15 1184.58 1430.28 Q1184.58 1437.38 1186.38 1440.95 Q1188.21 1444.49 1191.82 1444.49 Q1195.46 1444.49 1197.26 1440.95 Q1199.09 1437.38 1199.09 1430.28 Q1199.09 1423.15 1197.26 1419.6 Q1195.46 1416.04 1191.82 1416.04 M1191.82 1412.34 Q1197.63 1412.34 1200.69 1416.94 Q1203.77 1421.53 1203.77 1430.28 Q1203.77 1439 1200.69 1443.61 Q1197.63 1448.19 1191.82 1448.19 Q1186.01 1448.19 1182.93 1443.61 Q1179.88 1439 1179.88 1430.28 Q1179.88 1421.53 1182.93 1416.94 Q1186.01 1412.34 1191.82 1412.34 Z" fill="#000000" fill-rule="evenodd" fill-opacity="1" /><path clip-path="url(#clip750)" d="M1221.99 1416.04 Q1218.37 1416.04 1216.55 1419.6 Q1214.74 1423.15 1214.74 1430.28 Q1214.74 1437.38 1216.55 1440.95 Q1218.37 1444.49 1221.99 1444.49 Q1225.62 1444.49 1227.43 1440.95 Q1229.25 1437.38 1229.25 1430.28 Q1229.25 1423.15 1227.43 1419.6 Q1225.62 1416.04 1221.99 1416.04 M1221.99 1412.34 Q1227.8 1412.34 1230.85 1416.94 Q1233.93 1421.53 1233.93 1430.28 Q1233.93 1439 1230.85 1443.61 Q1227.8 1448.19 1221.99 1448.19 Q1216.18 1448.19 1213.1 1443.61 Q1210.04 1439 1210.04 1430.28 Q1210.04 1421.53 1213.1 1416.94 Q1216.18 1412.34 1221.99 1412.34 Z" fill="#000000" fill-rule="evenodd" fill-opacity="1" /><path clip-path="url(#clip750)" d="M1405.81 1447.96 Q1402.48 1447.96 1400.56 1449.74 Q1398.66 1451.52 1398.66 1454.65 Q1398.66 1457.77 1400.56 1459.55 Q1402.48 1461.34 1405.81 1461.34 Q1409.14 1461.34 1411.07 1459.55 Q1412.99 1457.75 1412.99 1454.65 Q1412.99 1451.52 1411.07 1449.74 Q1409.17 1447.96 1405.81 1447.96 M1401.13 1445.97 Q1398.13 1445.23 1396.44 1443.17 Q1394.77 1441.11 1394.77 1438.14 Q1394.77 1434 1397.71 1431.59 Q1400.67 1429.18 1405.81 1429.18 Q1410.97 1429.18 1413.91 1431.59 Q1416.85 1434 1416.85 1438.14 Q1416.85 1441.11 1415.16 1443.17 Q1413.5 1445.23 1410.51 1445.97 Q1413.89 1446.75 1415.76 1449.05 Q1417.66 1451.34 1417.66 1454.65 Q1417.66 1459.67 1414.58 1462.36 Q1411.53 1465.04 1405.81 1465.04 Q1400.09 1465.04 1397.01 1462.36 Q1393.96 1459.67 1393.96 1454.65 Q1393.96 1451.34 1395.86 1449.05 Q1397.76 1446.75 1401.13 1445.97 M1399.42 1438.58 Q1399.42 1441.27 1401.09 1442.77 Q1402.78 1444.28 1405.81 1444.28 Q1408.82 1444.28 1410.51 1442.77 Q1412.22 1441.27 1412.22 1438.58 Q1412.22 1435.9 1410.51 1434.39 Q1408.82 1432.89 1405.81 1432.89 Q1402.78 1432.89 1401.09 1434.39 Q1399.42 1435.9 1399.42 1438.58 Z" fill="#000000" fill-rule="evenodd" fill-opacity="1" /><path clip-path="url(#clip750)" d="M1435.97 1432.89 Q1432.36 1432.89 1430.53 1436.45 Q1428.73 1439.99 1428.73 1447.12 Q1428.73 1454.23 1430.53 1457.8 Q1432.36 1461.34 1435.97 1461.34 Q1439.61 1461.34 1441.41 1457.8 Q1443.24 1454.23 1443.24 1447.12 Q1443.24 1439.99 1441.41 1436.45 Q1439.61 1432.89 1435.97 1432.89 M1435.97 1429.18 Q1441.78 1429.18 1444.84 1433.79 Q1447.92 1438.37 1447.92 1447.12 Q1447.92 1455.85 1444.84 1460.46 Q1441.78 1465.04 1435.97 1465.04 Q1430.16 1465.04 1427.08 1460.46 Q1424.03 1455.85 1424.03 1447.12 Q1424.03 1438.37 1427.08 1433.79 Q1430.16 1429.18 1435.97 1429.18 Z" fill="#000000" fill-rule="evenodd" fill-opacity="1" /><path clip-path="url(#clip750)" d="M1466.13 1432.89 Q1462.52 1432.89 1460.69 1436.45 Q1458.89 1439.99 1458.89 1447.12 Q1458.89 1454.23 1460.69 1457.8 Q1462.52 1461.34 1466.13 1461.34 Q1469.77 1461.34 1471.57 1457.8 Q1473.4 1454.23 1473.4 1447.12 Q1473.4 1439.99 1471.57 1436.45 Q1469.77 1432.89 1466.13 1432.89 M1466.13 1429.18 Q1471.94 1429.18 1475 1433.79 Q1478.08 1438.37 1478.08 1447.12 Q1478.08 1455.85 1475 1460.46 Q1471.94 1465.04 1466.13 1465.04 Q1460.32 1465.04 1457.25 1460.46 Q1454.19 1455.85 1454.19 1447.12 Q1454.19 1438.37 1457.25 1433.79 Q1460.32 1429.18 1466.13 1429.18 Z" fill="#000000" fill-rule="evenodd" fill-opacity="1" /><path clip-path="url(#clip750)" d="M1496.3 1432.89 Q1492.69 1432.89 1490.86 1436.45 Q1489.05 1439.99 1489.05 1447.12 Q1489.05 1454.23 1490.86 1457.8 Q1492.69 1461.34 1496.3 1461.34 Q1499.93 1461.34 1501.74 1457.8 Q1503.56 1454.23 1503.56 1447.12 Q1503.56 1439.99 1501.74 1436.45 Q1499.93 1432.89 1496.3 1432.89 M1496.3 1429.18 Q1502.11 1429.18 1505.16 1433.79 Q1508.24 1438.37 1508.24 1447.12 Q1508.24 1455.85 1505.16 1460.46 Q1502.11 1465.04 1496.3 1465.04 Q1490.49 1465.04 1487.41 1460.46 Q1484.35 1455.85 1484.35 1447.12 Q1484.35 1438.37 1487.41 1433.79 Q1490.49 1429.18 1496.3 1429.18 Z" fill="#000000" fill-rule="evenodd" fill-opacity="1" /><path clip-path="url(#clip750)" d="M635.667 1527.04 L622.776 1544.38 L636.335 1562.68 L629.428 1562.68 L619.052 1548.68 L608.676 1562.68 L601.769 1562.68 L615.615 1544.03 L602.947 1527.04 L609.854 1527.04 L619.307 1539.74 L628.76 1527.04 L635.667 1527.04 Z" fill="#000000" fill-rule="evenodd" fill-opacity="1" /><path clip-path="url(#clip750)" d="M641.65 1542.22 L658.806 1542.22 L658.806 1547.44 L641.65 1547.44 L641.65 1542.22 Z" fill="#000000" fill-rule="evenodd" fill-opacity="1" /><path clip-path="url(#clip750)" d="M693.785 1528.4 L693.785 1533.88 Q691.303 1532.51 688.788 1531.84 Q686.306 1531.14 683.759 1531.14 Q678.062 1531.14 674.911 1534.77 Q671.76 1538.37 671.76 1544.89 Q671.76 1551.42 674.911 1555.04 Q678.062 1558.64 683.759 1558.64 Q686.306 1558.64 688.788 1557.97 Q691.303 1557.27 693.785 1555.9 L693.785 1561.31 Q691.335 1562.46 688.693 1563.03 Q686.083 1563.61 683.123 1563.61 Q675.07 1563.61 670.328 1558.55 Q665.585 1553.49 665.585 1544.89 Q665.585 1536.17 670.36 1531.17 Q675.166 1526.18 683.505 1526.18 Q686.21 1526.18 688.788 1526.75 Q691.367 1527.29 693.785 1528.4 Z" fill="#000000" fill-rule="evenodd" fill-opacity="1" /><path clip-path="url(#clip750)" d="M717.784 1531.14 Q713.074 1531.14 710.336 1534.83 Q707.599 1538.49 707.599 1544.89 Q707.599 1551.29 710.304 1554.98 Q713.042 1558.64 717.784 1558.64 Q722.463 1558.64 725.2 1554.95 Q727.937 1551.26 727.937 1544.89 Q727.937 1538.56 725.2 1534.87 Q722.463 1531.14 717.784 1531.14 M717.784 1526.18 Q725.423 1526.18 729.784 1531.14 Q734.144 1536.11 734.144 1544.89 Q734.144 1553.64 729.784 1558.64 Q725.423 1563.61 717.784 1563.61 Q710.114 1563.61 705.753 1558.64 Q701.424 1553.64 701.424 1544.89 Q701.424 1536.11 705.753 1531.14 Q710.114 1526.18 717.784 1526.18 Z" fill="#000000" fill-rule="evenodd" fill-opacity="1" /><path clip-path="url(#clip750)" d="M757.665 1531.14 Q752.955 1531.14 750.217 1534.83 Q747.48 1538.49 747.48 1544.89 Q747.48 1551.29 750.186 1554.98 Q752.923 1558.64 757.665 1558.64 Q762.344 1558.64 765.081 1554.95 Q767.819 1551.26 767.819 1544.89 Q767.819 1538.56 765.081 1534.87 Q762.344 1531.14 757.665 1531.14 M757.665 1526.18 Q765.304 1526.18 769.665 1531.14 Q774.025 1536.11 774.025 1544.89 Q774.025 1553.64 769.665 1558.64 Q765.304 1563.61 757.665 1563.61 Q749.995 1563.61 745.634 1558.64 Q741.305 1553.64 741.305 1544.89 Q741.305 1536.11 745.634 1531.14 Q749.995 1526.18 757.665 1526.18 Z" fill="#000000" fill-rule="evenodd" fill-opacity="1" /><path clip-path="url(#clip750)" d="M804.39 1532.51 Q803.403 1531.94 802.225 1531.68 Q801.079 1531.4 799.679 1531.4 Q794.714 1531.4 792.04 1534.64 Q789.398 1537.86 789.398 1543.9 L789.398 1562.68 L783.51 1562.68 L783.51 1527.04 L789.398 1527.04 L789.398 1532.57 Q791.244 1529.33 794.204 1527.77 Q797.165 1526.18 801.398 1526.18 Q802.002 1526.18 802.735 1526.27 Q803.467 1526.34 804.358 1526.49 L804.39 1532.51 Z" fill="#000000" fill-rule="evenodd" fill-opacity="1" /><path clip-path="url(#clip750)" d="M832.844 1532.45 L832.844 1513.16 L838.701 1513.16 L838.701 1562.68 L832.844 1562.68 L832.844 1557.34 Q830.998 1560.52 828.166 1562.08 Q825.365 1563.61 821.418 1563.61 Q814.957 1563.61 810.883 1558.45 Q806.84 1553.29 806.84 1544.89 Q806.84 1536.49 810.883 1531.33 Q814.957 1526.18 821.418 1526.18 Q825.365 1526.18 828.166 1527.74 Q830.998 1529.26 832.844 1532.45 M812.888 1544.89 Q812.888 1551.35 815.53 1555.04 Q818.203 1558.7 822.85 1558.7 Q827.497 1558.7 830.171 1555.04 Q832.844 1551.35 832.844 1544.89 Q832.844 1538.43 830.171 1534.77 Q827.497 1531.08 822.85 1531.08 Q818.203 1531.08 815.53 1534.77 Q812.888 1538.43 812.888 1544.89 Z" fill="#000000" fill-rule="evenodd" fill-opacity="1" /><path clip-path="url(#clip750)" d="M850.764 1527.04 L856.62 1527.04 L856.62 1562.68 L850.764 1562.68 L850.764 1527.04 M850.764 1513.16 L856.62 1513.16 L856.62 1520.57 L850.764 1520.57 L850.764 1513.16 Z" fill="#000000" fill-rule="evenodd" fill-opacity="1" /><path clip-path="url(#clip750)" d="M898.507 1541.17 L898.507 1562.68 L892.65 1562.68 L892.65 1541.36 Q892.65 1536.3 890.677 1533.78 Q888.703 1531.27 884.757 1531.27 Q880.014 1531.27 877.277 1534.29 Q874.54 1537.32 874.54 1542.54 L874.54 1562.68 L868.651 1562.68 L868.651 1527.04 L874.54 1527.04 L874.54 1532.57 Q876.64 1529.36 879.473 1527.77 Q882.338 1526.18 886.062 1526.18 Q892.205 1526.18 895.356 1530 Q898.507 1533.78 898.507 1541.17 Z" fill="#000000" fill-rule="evenodd" fill-opacity="1" /><path clip-path="url(#clip750)" d="M926.388 1544.76 Q919.291 1544.76 916.553 1546.39 Q913.816 1548.01 913.816 1551.93 Q913.816 1555.04 915.853 1556.89 Q917.922 1558.7 921.455 1558.7 Q926.325 1558.7 929.253 1555.27 Q932.213 1551.8 932.213 1546.07 L932.213 1544.76 L926.388 1544.76 M938.069 1542.35 L938.069 1562.68 L932.213 1562.68 L932.213 1557.27 Q930.208 1560.52 927.216 1562.08 Q924.224 1563.61 919.895 1563.61 Q914.421 1563.61 911.174 1560.55 Q907.96 1557.46 907.96 1552.31 Q907.96 1546.29 911.97 1543.24 Q916.012 1540.18 924.001 1540.18 L932.213 1540.18 L932.213 1539.61 Q932.213 1535.57 929.539 1533.37 Q926.898 1531.14 922.092 1531.14 Q919.036 1531.14 916.14 1531.87 Q913.243 1532.61 910.57 1534.07 L910.57 1528.66 Q913.784 1527.42 916.808 1526.81 Q919.832 1526.18 922.696 1526.18 Q930.431 1526.18 934.25 1530.19 Q938.069 1534.2 938.069 1542.35 Z" fill="#000000" fill-rule="evenodd" fill-opacity="1" /><path clip-path="url(#clip750)" d="M955.925 1516.91 L955.925 1527.04 L967.988 1527.04 L967.988 1531.59 L955.925 1531.59 L955.925 1550.94 Q955.925 1555.3 957.103 1556.54 Q958.312 1557.78 961.973 1557.78 L967.988 1557.78 L967.988 1562.68 L961.973 1562.68 Q955.193 1562.68 952.615 1560.17 Q950.037 1557.62 950.037 1550.94 L950.037 1531.59 L945.74 1531.59 L945.74 1527.04 L950.037 1527.04 L950.037 1516.91 L955.925 1516.91 Z" fill="#000000" fill-rule="evenodd" fill-opacity="1" /><path clip-path="url(#clip750)" d="M1006.18 1543.4 L1006.18 1546.26 L979.256 1546.26 Q979.638 1552.31 982.884 1555.49 Q986.162 1558.64 991.987 1558.64 Q995.361 1558.64 998.512 1557.81 Q1001.69 1556.99 1004.81 1555.33 L1004.81 1560.87 Q1001.66 1562.21 998.353 1562.91 Q995.043 1563.61 991.637 1563.61 Q983.107 1563.61 978.11 1558.64 Q973.145 1553.68 973.145 1545.21 Q973.145 1536.46 977.855 1531.33 Q982.598 1526.18 990.618 1526.18 Q997.812 1526.18 1001.98 1530.82 Q1006.18 1535.44 1006.18 1543.4 M1000.33 1541.68 Q1000.26 1536.87 997.621 1534.01 Q995.011 1531.14 990.682 1531.14 Q985.78 1531.14 982.82 1533.91 Q979.892 1536.68 979.447 1541.71 L1000.33 1541.68 Z" fill="#000000" fill-rule="evenodd" fill-opacity="1" /><polyline clip-path="url(#clip752)" style="stroke:#000000; stroke-linecap:butt; stroke-linejoin:round; stroke-width:2; stroke-opacity:0.1; fill:none" points="
  1610.37,1416.28 287.068,1335 
  "/>
<polyline clip-path="url(#clip752)" style="stroke:#000000; stroke-linecap:butt; stroke-linejoin:round; stroke-width:2; stroke-opacity:0.1; fill:none" points="
  287.068,1335 287.068,284.185 
  "/>
<polyline clip-path="url(#clip752)" style="stroke:#000000; stroke-linecap:butt; stroke-linejoin:round; stroke-width:2; stroke-opacity:0.1; fill:none" points="
  1730.5,1377.94 407.195,1296.66 
  "/>
<polyline clip-path="url(#clip752)" style="stroke:#000000; stroke-linecap:butt; stroke-linejoin:round; stroke-width:2; stroke-opacity:0.1; fill:none" points="
  407.195,1296.66 407.195,245.845 
  "/>
<polyline clip-path="url(#clip752)" style="stroke:#000000; stroke-linecap:butt; stroke-linejoin:round; stroke-width:2; stroke-opacity:0.1; fill:none" points="
  1850.62,1339.6 527.322,1258.32 
  "/>
<polyline clip-path="url(#clip752)" style="stroke:#000000; stroke-linecap:butt; stroke-linejoin:round; stroke-width:2; stroke-opacity:0.1; fill:none" points="
  527.322,1258.32 527.322,207.505 
  "/>
<polyline clip-path="url(#clip752)" style="stroke:#000000; stroke-linecap:butt; stroke-linejoin:round; stroke-width:2; stroke-opacity:0.1; fill:none" points="
  1970.75,1301.26 647.449,1219.98 
  "/>
<polyline clip-path="url(#clip752)" style="stroke:#000000; stroke-linecap:butt; stroke-linejoin:round; stroke-width:2; stroke-opacity:0.1; fill:none" points="
  647.449,1219.98 647.449,169.165 
  "/>
<polyline clip-path="url(#clip752)" style="stroke:#000000; stroke-linecap:butt; stroke-linejoin:round; stroke-width:2; stroke-opacity:0.1; fill:none" points="
  2090.88,1262.92 767.576,1181.64 
  "/>
<polyline clip-path="url(#clip752)" style="stroke:#000000; stroke-linecap:butt; stroke-linejoin:round; stroke-width:2; stroke-opacity:0.1; fill:none" points="
  767.576,1181.64 767.576,130.825 
  "/>
<polyline clip-path="url(#clip752)" style="stroke:#000000; stroke-linecap:butt; stroke-linejoin:round; stroke-width:2; stroke-opacity:0.1; fill:none" points="
  2211.01,1224.58 887.704,1143.3 
  "/>
<polyline clip-path="url(#clip752)" style="stroke:#000000; stroke-linecap:butt; stroke-linejoin:round; stroke-width:2; stroke-opacity:0.1; fill:none" points="
  887.704,1143.3 887.704,92.4852 
  "/>
<polyline clip-path="url(#clip752)" style="stroke:#000000; stroke-linecap:butt; stroke-linejoin:round; stroke-width:2; stroke-opacity:0.1; fill:none" points="
  2331.13,1186.24 1007.83,1104.96 
  "/>
<polyline clip-path="url(#clip752)" style="stroke:#000000; stroke-linecap:butt; stroke-linejoin:round; stroke-width:2; stroke-opacity:0.1; fill:none" points="
  1007.83,1104.96 1007.83,54.1453 
  "/>
<polyline clip-path="url(#clip750)" style="stroke:#000000; stroke-linecap:butt; stroke-linejoin:round; stroke-width:4; stroke-opacity:1; fill:none" points="
  1588.75,1423.18 2352.76,1179.34 
  "/>
<polyline clip-path="url(#clip750)" style="stroke:#000000; stroke-linecap:butt; stroke-linejoin:round; stroke-width:4; stroke-opacity:1; fill:none" points="
  1610.37,1416.28 1594.49,1415.3 
  "/>
<polyline clip-path="url(#clip750)" style="stroke:#000000; stroke-linecap:butt; stroke-linejoin:round; stroke-width:4; stroke-opacity:1; fill:none" points="
  1730.5,1377.94 1714.62,1376.96 
  "/>
<polyline clip-path="url(#clip750)" style="stroke:#000000; stroke-linecap:butt; stroke-linejoin:round; stroke-width:4; stroke-opacity:1; fill:none" points="
  1850.62,1339.6 1834.74,1338.62 
  "/>
<polyline clip-path="url(#clip750)" style="stroke:#000000; stroke-linecap:butt; stroke-linejoin:round; stroke-width:4; stroke-opacity:1; fill:none" points="
  1970.75,1301.26 1954.87,1300.28 
  "/>
<polyline clip-path="url(#clip750)" style="stroke:#000000; stroke-linecap:butt; stroke-linejoin:round; stroke-width:4; stroke-opacity:1; fill:none" points="
  2090.88,1262.92 2075,1261.94 
  "/>
<polyline clip-path="url(#clip750)" style="stroke:#000000; stroke-linecap:butt; stroke-linejoin:round; stroke-width:4; stroke-opacity:1; fill:none" points="
  2211.01,1224.58 2195.13,1223.6 
  "/>
<polyline clip-path="url(#clip750)" style="stroke:#000000; stroke-linecap:butt; stroke-linejoin:round; stroke-width:4; stroke-opacity:1; fill:none" points="
  2331.13,1186.24 2315.25,1185.26 
  "/>
<path clip-path="url(#clip750)" d="M1631.07 1429.51 Q1627.46 1429.51 1625.63 1433.08 Q1623.83 1436.62 1623.83 1443.75 Q1623.83 1450.86 1625.63 1454.42 Q1627.46 1457.96 1631.07 1457.96 Q1634.71 1457.96 1636.51 1454.42 Q1638.34 1450.86 1638.34 1443.75 Q1638.34 1436.62 1636.51 1433.08 Q1634.71 1429.51 1631.07 1429.51 M1631.07 1425.81 Q1636.88 1425.81 1639.94 1430.42 Q1643.02 1435 1643.02 1443.75 Q1643.02 1452.48 1639.94 1457.08 Q1636.88 1461.67 1631.07 1461.67 Q1625.26 1461.67 1622.18 1457.08 Q1619.13 1452.48 1619.13 1443.75 Q1619.13 1435 1622.18 1430.42 Q1625.26 1425.81 1631.07 1425.81 Z" fill="#000000" fill-rule="evenodd" fill-opacity="1" /><path clip-path="url(#clip750)" d="M1739.93 1418.72 L1747.56 1418.72 L1747.56 1392.35 L1739.25 1394.02 L1739.25 1389.76 L1747.52 1388.1 L1752.19 1388.1 L1752.19 1418.72 L1759.83 1418.72 L1759.83 1422.66 L1739.93 1422.66 L1739.93 1418.72 Z" fill="#000000" fill-rule="evenodd" fill-opacity="1" /><path clip-path="url(#clip750)" d="M1779.28 1391.17 Q1775.67 1391.17 1773.84 1394.74 Q1772.03 1398.28 1772.03 1405.41 Q1772.03 1412.52 1773.84 1416.08 Q1775.67 1419.62 1779.28 1419.62 Q1782.91 1419.62 1784.72 1416.08 Q1786.55 1412.52 1786.55 1405.41 Q1786.55 1398.28 1784.72 1394.74 Q1782.91 1391.17 1779.28 1391.17 M1779.28 1387.47 Q1785.09 1387.47 1788.14 1392.08 Q1791.22 1396.66 1791.22 1405.41 Q1791.22 1414.14 1788.14 1418.74 Q1785.09 1423.33 1779.28 1423.33 Q1773.47 1423.33 1770.39 1418.74 Q1767.33 1414.14 1767.33 1405.41 Q1767.33 1396.66 1770.39 1392.08 Q1773.47 1387.47 1779.28 1387.47 Z" fill="#000000" fill-rule="evenodd" fill-opacity="1" /><path clip-path="url(#clip750)" d="M1809.44 1391.17 Q1805.83 1391.17 1804 1394.74 Q1802.19 1398.28 1802.19 1405.41 Q1802.19 1412.52 1804 1416.08 Q1805.83 1419.62 1809.44 1419.62 Q1813.07 1419.62 1814.88 1416.08 Q1816.71 1412.52 1816.71 1405.41 Q1816.71 1398.28 1814.88 1394.74 Q1813.07 1391.17 1809.44 1391.17 M1809.44 1387.47 Q1815.25 1387.47 1818.3 1392.08 Q1821.38 1396.66 1821.38 1405.41 Q1821.38 1414.14 1818.3 1418.74 Q1815.25 1423.33 1809.44 1423.33 Q1803.63 1423.33 1800.55 1418.74 Q1797.49 1414.14 1797.49 1405.41 Q1797.49 1396.66 1800.55 1392.08 Q1803.63 1387.47 1809.44 1387.47 Z" fill="#000000" fill-rule="evenodd" fill-opacity="1" /><path clip-path="url(#clip750)" d="M1839.6 1391.17 Q1835.99 1391.17 1834.16 1394.74 Q1832.36 1398.28 1832.36 1405.41 Q1832.36 1412.52 1834.16 1416.08 Q1835.99 1419.62 1839.6 1419.62 Q1843.23 1419.62 1845.04 1416.08 Q1846.87 1412.52 1846.87 1405.41 Q1846.87 1398.28 1845.04 1394.74 Q1843.23 1391.17 1839.6 1391.17 M1839.6 1387.47 Q1845.41 1387.47 1848.47 1392.08 Q1851.54 1396.66 1851.54 1405.41 Q1851.54 1414.14 1848.47 1418.74 Q1845.41 1423.33 1839.6 1423.33 Q1833.79 1423.33 1830.71 1418.74 Q1827.66 1414.14 1827.66 1405.41 Q1827.66 1396.66 1830.71 1392.08 Q1833.79 1387.47 1839.6 1387.47 Z" fill="#000000" fill-rule="evenodd" fill-opacity="1" /><path clip-path="url(#clip750)" d="M1865.01 1380.38 L1881.33 1380.38 L1881.33 1384.32 L1859.38 1384.32 L1859.38 1380.38 Q1862.04 1377.63 1866.63 1373 Q1871.23 1368.34 1872.41 1367 Q1874.66 1364.48 1875.54 1362.74 Q1876.44 1360.98 1876.44 1359.29 Q1876.44 1356.54 1874.5 1354.8 Q1872.58 1353.07 1869.47 1353.07 Q1867.27 1353.07 1864.82 1353.83 Q1862.39 1354.59 1859.61 1356.14 L1859.61 1351.42 Q1862.44 1350.29 1864.89 1349.71 Q1867.34 1349.13 1869.38 1349.13 Q1874.75 1349.13 1877.95 1351.82 Q1881.14 1354.5 1881.14 1358.99 Q1881.14 1361.12 1880.33 1363.04 Q1879.54 1364.94 1877.44 1367.53 Q1876.86 1368.2 1873.76 1371.42 Q1870.65 1374.62 1865.01 1380.38 Z" fill="#000000" fill-rule="evenodd" fill-opacity="1" /><path clip-path="url(#clip750)" d="M1901.14 1352.83 Q1897.53 1352.83 1895.7 1356.4 Q1893.89 1359.94 1893.89 1367.07 Q1893.89 1374.18 1895.7 1377.74 Q1897.53 1381.28 1901.14 1381.28 Q1904.77 1381.28 1906.58 1377.74 Q1908.41 1374.18 1908.41 1367.07 Q1908.41 1359.94 1906.58 1356.4 Q1904.77 1352.83 1901.14 1352.83 M1901.14 1349.13 Q1906.95 1349.13 1910.01 1353.74 Q1913.08 1358.32 1913.08 1367.07 Q1913.08 1375.8 1910.01 1380.4 Q1906.95 1384.99 1901.14 1384.99 Q1895.33 1384.99 1892.25 1380.4 Q1889.2 1375.8 1889.2 1367.07 Q1889.2 1358.32 1892.25 1353.74 Q1895.33 1349.13 1901.14 1349.13 Z" fill="#000000" fill-rule="evenodd" fill-opacity="1" /><path clip-path="url(#clip750)" d="M1931.3 1352.83 Q1927.69 1352.83 1925.86 1356.4 Q1924.06 1359.94 1924.06 1367.07 Q1924.06 1374.18 1925.86 1377.74 Q1927.69 1381.28 1931.3 1381.28 Q1934.94 1381.28 1936.74 1377.74 Q1938.57 1374.18 1938.57 1367.07 Q1938.57 1359.94 1936.74 1356.4 Q1934.94 1352.83 1931.3 1352.83 M1931.3 1349.13 Q1937.11 1349.13 1940.17 1353.74 Q1943.25 1358.32 1943.25 1367.07 Q1943.25 1375.8 1940.17 1380.4 Q1937.11 1384.99 1931.3 1384.99 Q1925.49 1384.99 1922.41 1380.4 Q1919.36 1375.8 1919.36 1367.07 Q1919.36 1358.32 1922.41 1353.74 Q1925.49 1349.13 1931.3 1349.13 Z" fill="#000000" fill-rule="evenodd" fill-opacity="1" /><path clip-path="url(#clip750)" d="M1961.46 1352.83 Q1957.85 1352.83 1956.02 1356.4 Q1954.22 1359.94 1954.22 1367.07 Q1954.22 1374.18 1956.02 1377.74 Q1957.85 1381.28 1961.46 1381.28 Q1965.1 1381.28 1966.9 1377.74 Q1968.73 1374.18 1968.73 1367.07 Q1968.73 1359.94 1966.9 1356.4 Q1965.1 1352.83 1961.46 1352.83 M1961.46 1349.13 Q1967.27 1349.13 1970.33 1353.74 Q1973.41 1358.32 1973.41 1367.07 Q1973.41 1375.8 1970.33 1380.4 Q1967.27 1384.99 1961.46 1384.99 Q1955.65 1384.99 1952.57 1380.4 Q1949.52 1375.8 1949.52 1367.07 Q1949.52 1358.32 1952.57 1353.74 Q1955.65 1349.13 1961.46 1349.13 Z" fill="#000000" fill-rule="evenodd" fill-opacity="1" /><path clip-path="url(#clip750)" d="M1995.13 1327.34 Q1998.49 1328.06 2000.36 1330.33 Q2002.26 1332.6 2002.26 1335.93 Q2002.26 1341.04 1998.74 1343.85 Q1995.23 1346.65 1988.74 1346.65 Q1986.57 1346.65 1984.25 1346.21 Q1981.96 1345.79 1979.51 1344.93 L1979.51 1340.42 Q1981.45 1341.55 1983.77 1342.13 Q1986.08 1342.71 1988.61 1342.71 Q1993 1342.71 1995.3 1340.98 Q1997.61 1339.24 1997.61 1335.93 Q1997.61 1332.87 1995.46 1331.16 Q1993.33 1329.42 1989.51 1329.42 L1985.48 1329.42 L1985.48 1325.58 L1989.69 1325.58 Q1993.14 1325.58 1994.97 1324.22 Q1996.8 1322.83 1996.8 1320.23 Q1996.8 1317.57 1994.9 1316.16 Q1993.03 1314.73 1989.51 1314.73 Q1987.59 1314.73 1985.39 1315.14 Q1983.19 1315.56 1980.55 1316.44 L1980.55 1312.27 Q1983.21 1311.53 1985.53 1311.16 Q1987.86 1310.79 1989.92 1310.79 Q1995.25 1310.79 1998.35 1313.22 Q2001.45 1315.63 2001.45 1319.75 Q2001.45 1322.62 1999.81 1324.61 Q1998.17 1326.58 1995.13 1327.34 Z" fill="#000000" fill-rule="evenodd" fill-opacity="1" /><path clip-path="url(#clip750)" d="M2021.13 1314.49 Q2017.52 1314.49 2015.69 1318.06 Q2013.88 1321.6 2013.88 1328.73 Q2013.88 1335.84 2015.69 1339.4 Q2017.52 1342.94 2021.13 1342.94 Q2024.76 1342.94 2026.57 1339.4 Q2028.4 1335.84 2028.4 1328.73 Q2028.4 1321.6 2026.57 1318.06 Q2024.76 1314.49 2021.13 1314.49 M2021.13 1310.79 Q2026.94 1310.79 2029.99 1315.4 Q2033.07 1319.98 2033.07 1328.73 Q2033.07 1337.46 2029.99 1342.06 Q2026.94 1346.65 2021.13 1346.65 Q2015.32 1346.65 2012.24 1342.06 Q2009.18 1337.46 2009.18 1328.73 Q2009.18 1319.98 2012.24 1315.4 Q2015.32 1310.79 2021.13 1310.79 Z" fill="#000000" fill-rule="evenodd" fill-opacity="1" /><path clip-path="url(#clip750)" d="M2051.29 1314.49 Q2047.68 1314.49 2045.85 1318.06 Q2044.04 1321.6 2044.04 1328.73 Q2044.04 1335.84 2045.85 1339.4 Q2047.68 1342.94 2051.29 1342.94 Q2054.92 1342.94 2056.73 1339.4 Q2058.56 1335.84 2058.56 1328.73 Q2058.56 1321.6 2056.73 1318.06 Q2054.92 1314.49 2051.29 1314.49 M2051.29 1310.79 Q2057.1 1310.79 2060.16 1315.4 Q2063.23 1319.98 2063.23 1328.73 Q2063.23 1337.46 2060.16 1342.06 Q2057.1 1346.65 2051.29 1346.65 Q2045.48 1346.65 2042.4 1342.06 Q2039.35 1337.46 2039.35 1328.73 Q2039.35 1319.98 2042.4 1315.4 Q2045.48 1310.79 2051.29 1310.79 Z" fill="#000000" fill-rule="evenodd" fill-opacity="1" /><path clip-path="url(#clip750)" d="M2081.45 1314.49 Q2077.84 1314.49 2076.01 1318.06 Q2074.21 1321.6 2074.21 1328.73 Q2074.21 1335.84 2076.01 1339.4 Q2077.84 1342.94 2081.45 1342.94 Q2085.09 1342.94 2086.89 1339.4 Q2088.72 1335.84 2088.72 1328.73 Q2088.72 1321.6 2086.89 1318.06 Q2085.09 1314.49 2081.45 1314.49 M2081.45 1310.79 Q2087.26 1310.79 2090.32 1315.4 Q2093.4 1319.98 2093.4 1328.73 Q2093.4 1337.46 2090.32 1342.06 Q2087.26 1346.65 2081.45 1346.65 Q2075.64 1346.65 2072.56 1342.06 Q2069.51 1337.46 2069.51 1328.73 Q2069.51 1319.98 2072.56 1315.4 Q2075.64 1310.79 2081.45 1310.79 Z" fill="#000000" fill-rule="evenodd" fill-opacity="1" /><path clip-path="url(#clip750)" d="M2115.24 1277.15 L2103.43 1295.6 L2115.24 1295.6 L2115.24 1277.15 M2114.01 1273.08 L2119.89 1273.08 L2119.89 1295.6 L2124.82 1295.6 L2124.82 1299.49 L2119.89 1299.49 L2119.89 1307.64 L2115.24 1307.64 L2115.24 1299.49 L2099.64 1299.49 L2099.64 1294.97 L2114.01 1273.08 Z" fill="#000000" fill-rule="evenodd" fill-opacity="1" /><path clip-path="url(#clip750)" d="M2142.55 1276.15 Q2138.94 1276.15 2137.11 1279.72 Q2135.31 1283.26 2135.31 1290.39 Q2135.31 1297.5 2137.11 1301.06 Q2138.94 1304.6 2142.55 1304.6 Q2146.19 1304.6 2147.99 1301.06 Q2149.82 1297.5 2149.82 1290.39 Q2149.82 1283.26 2147.99 1279.72 Q2146.19 1276.15 2142.55 1276.15 M2142.55 1272.45 Q2148.36 1272.45 2151.42 1277.06 Q2154.5 1281.64 2154.5 1290.39 Q2154.5 1299.12 2151.42 1303.72 Q2148.36 1308.31 2142.55 1308.31 Q2136.74 1308.31 2133.66 1303.72 Q2130.61 1299.12 2130.61 1290.39 Q2130.61 1281.64 2133.66 1277.06 Q2136.74 1272.45 2142.55 1272.45 Z" fill="#000000" fill-rule="evenodd" fill-opacity="1" /><path clip-path="url(#clip750)" d="M2172.71 1276.15 Q2169.1 1276.15 2167.27 1279.72 Q2165.47 1283.26 2165.47 1290.39 Q2165.47 1297.5 2167.27 1301.06 Q2169.1 1304.6 2172.71 1304.6 Q2176.35 1304.6 2178.15 1301.06 Q2179.98 1297.5 2179.98 1290.39 Q2179.98 1283.26 2178.15 1279.72 Q2176.35 1276.15 2172.71 1276.15 M2172.71 1272.45 Q2178.52 1272.45 2181.58 1277.06 Q2184.66 1281.64 2184.66 1290.39 Q2184.66 1299.12 2181.58 1303.72 Q2178.52 1308.31 2172.71 1308.31 Q2166.9 1308.31 2163.82 1303.72 Q2160.77 1299.12 2160.77 1290.39 Q2160.77 1281.64 2163.82 1277.06 Q2166.9 1272.45 2172.71 1272.45 Z" fill="#000000" fill-rule="evenodd" fill-opacity="1" /><path clip-path="url(#clip750)" d="M2202.88 1276.15 Q2199.26 1276.15 2197.44 1279.72 Q2195.63 1283.26 2195.63 1290.39 Q2195.63 1297.5 2197.44 1301.06 Q2199.26 1304.6 2202.88 1304.6 Q2206.51 1304.6 2208.32 1301.06 Q2210.14 1297.5 2210.14 1290.39 Q2210.14 1283.26 2208.32 1279.72 Q2206.51 1276.15 2202.88 1276.15 M2202.88 1272.45 Q2208.69 1272.45 2211.74 1277.06 Q2214.82 1281.64 2214.82 1290.39 Q2214.82 1299.12 2211.74 1303.72 Q2208.69 1308.31 2202.88 1308.31 Q2197.07 1308.31 2193.99 1303.72 Q2190.93 1299.12 2190.93 1290.39 Q2190.93 1281.64 2193.99 1277.06 Q2197.07 1272.45 2202.88 1272.45 Z" fill="#000000" fill-rule="evenodd" fill-opacity="1" /><path clip-path="url(#clip750)" d="M2221.22 1234.74 L2239.58 1234.74 L2239.58 1238.67 L2225.5 1238.67 L2225.5 1247.14 Q2226.52 1246.8 2227.54 1246.63 Q2228.56 1246.45 2229.58 1246.45 Q2235.36 1246.45 2238.74 1249.62 Q2242.12 1252.79 2242.12 1258.21 Q2242.12 1263.79 2238.65 1266.89 Q2235.18 1269.97 2228.86 1269.97 Q2226.68 1269.97 2224.42 1269.6 Q2222.17 1269.23 2219.76 1268.49 L2219.76 1263.79 Q2221.85 1264.92 2224.07 1265.48 Q2226.29 1266.03 2228.77 1266.03 Q2232.77 1266.03 2235.11 1263.93 Q2237.45 1261.82 2237.45 1258.21 Q2237.45 1254.6 2235.11 1252.49 Q2232.77 1250.38 2228.77 1250.38 Q2226.89 1250.38 2225.02 1250.8 Q2223.17 1251.22 2221.22 1252.1 L2221.22 1234.74 Z" fill="#000000" fill-rule="evenodd" fill-opacity="1" /><path clip-path="url(#clip750)" d="M2261.34 1237.81 Q2257.73 1237.81 2255.9 1241.38 Q2254.09 1244.92 2254.09 1252.05 Q2254.09 1259.16 2255.9 1262.72 Q2257.73 1266.26 2261.34 1266.26 Q2264.97 1266.26 2266.78 1262.72 Q2268.6 1259.16 2268.6 1252.05 Q2268.6 1244.92 2266.78 1241.38 Q2264.97 1237.81 2261.34 1237.81 M2261.34 1234.11 Q2267.15 1234.11 2270.2 1238.72 Q2273.28 1243.3 2273.28 1252.05 Q2273.28 1260.78 2270.2 1265.38 Q2267.15 1269.97 2261.34 1269.97 Q2255.53 1269.97 2252.45 1265.38 Q2249.39 1260.78 2249.39 1252.05 Q2249.39 1243.3 2252.45 1238.72 Q2255.53 1234.11 2261.34 1234.11 Z" fill="#000000" fill-rule="evenodd" fill-opacity="1" /><path clip-path="url(#clip750)" d="M2291.5 1237.81 Q2287.89 1237.81 2286.06 1241.38 Q2284.25 1244.92 2284.25 1252.05 Q2284.25 1259.16 2286.06 1262.72 Q2287.89 1266.26 2291.5 1266.26 Q2295.13 1266.26 2296.94 1262.72 Q2298.77 1259.16 2298.77 1252.05 Q2298.77 1244.92 2296.94 1241.38 Q2295.13 1237.81 2291.5 1237.81 M2291.5 1234.11 Q2297.31 1234.11 2300.36 1238.72 Q2303.44 1243.3 2303.44 1252.05 Q2303.44 1260.78 2300.36 1265.38 Q2297.31 1269.97 2291.5 1269.97 Q2285.69 1269.97 2282.61 1265.38 Q2279.55 1260.78 2279.55 1252.05 Q2279.55 1243.3 2282.61 1238.72 Q2285.69 1234.11 2291.5 1234.11 Z" fill="#000000" fill-rule="evenodd" fill-opacity="1" /><path clip-path="url(#clip750)" d="M2321.66 1237.81 Q2318.05 1237.81 2316.22 1241.38 Q2314.41 1244.92 2314.41 1252.05 Q2314.41 1259.16 2316.22 1262.72 Q2318.05 1266.26 2321.66 1266.26 Q2325.29 1266.26 2327.1 1262.72 Q2328.93 1259.16 2328.93 1252.05 Q2328.93 1244.92 2327.1 1241.38 Q2325.29 1237.81 2321.66 1237.81 M2321.66 1234.11 Q2327.47 1234.11 2330.53 1238.72 Q2333.6 1243.3 2333.6 1252.05 Q2333.6 1260.78 2330.53 1265.38 Q2327.47 1269.97 2321.66 1269.97 Q2315.85 1269.97 2312.77 1265.38 Q2309.72 1260.78 2309.72 1252.05 Q2309.72 1243.3 2312.77 1238.72 Q2315.85 1234.11 2321.66 1234.11 Z" fill="#000000" fill-rule="evenodd" fill-opacity="1" /><path clip-path="url(#clip750)" d="M2352.23 1211.81 Q2349.08 1211.81 2347.23 1213.96 Q2345.4 1216.12 2345.4 1219.87 Q2345.4 1223.59 2347.23 1225.77 Q2349.08 1227.92 2352.23 1227.92 Q2355.38 1227.92 2357.2 1225.77 Q2359.06 1223.59 2359.06 1219.87 Q2359.06 1216.12 2357.2 1213.96 Q2355.38 1211.81 2352.23 1211.81 M2361.51 1197.16 L2361.51 1201.42 Q2359.75 1200.59 2357.95 1200.15 Q2356.16 1199.71 2354.4 1199.71 Q2349.77 1199.71 2347.32 1202.83 Q2344.89 1205.96 2344.54 1212.28 Q2345.91 1210.26 2347.97 1209.2 Q2350.03 1208.11 2352.51 1208.11 Q2357.71 1208.11 2360.72 1211.28 Q2363.76 1214.43 2363.76 1219.87 Q2363.76 1225.19 2360.61 1228.41 Q2357.46 1231.63 2352.23 1231.63 Q2346.23 1231.63 2343.06 1227.04 Q2339.89 1222.44 2339.89 1213.71 Q2339.89 1205.52 2343.78 1200.65 Q2347.67 1195.77 2354.22 1195.77 Q2355.98 1195.77 2357.76 1196.12 Q2359.57 1196.46 2361.51 1197.16 Z" fill="#000000" fill-rule="evenodd" fill-opacity="1" /><path clip-path="url(#clip750)" d="M2381.81 1199.47 Q2378.2 1199.47 2376.37 1203.04 Q2374.57 1206.58 2374.57 1213.71 Q2374.57 1220.82 2376.37 1224.38 Q2378.2 1227.92 2381.81 1227.92 Q2385.44 1227.92 2387.25 1224.38 Q2389.08 1220.82 2389.08 1213.71 Q2389.08 1206.58 2387.25 1203.04 Q2385.44 1199.47 2381.81 1199.47 M2381.81 1195.77 Q2387.62 1195.77 2390.68 1200.38 Q2393.76 1204.96 2393.76 1213.71 Q2393.76 1222.44 2390.68 1227.04 Q2387.62 1231.63 2381.81 1231.63 Q2376 1231.63 2372.92 1227.04 Q2369.87 1222.44 2369.87 1213.71 Q2369.87 1204.96 2372.92 1200.38 Q2376 1195.77 2381.81 1195.77 Z" fill="#000000" fill-rule="evenodd" fill-opacity="1" /><path clip-path="url(#clip750)" d="M2411.97 1199.47 Q2408.36 1199.47 2406.53 1203.04 Q2404.73 1206.58 2404.73 1213.71 Q2404.73 1220.82 2406.53 1224.38 Q2408.36 1227.92 2411.97 1227.92 Q2415.61 1227.92 2417.41 1224.38 Q2419.24 1220.82 2419.24 1213.71 Q2419.24 1206.58 2417.41 1203.04 Q2415.61 1199.47 2411.97 1199.47 M2411.97 1195.77 Q2417.78 1195.77 2420.84 1200.38 Q2423.92 1204.96 2423.92 1213.71 Q2423.92 1222.44 2420.84 1227.04 Q2417.78 1231.63 2411.97 1231.63 Q2406.16 1231.63 2403.08 1227.04 Q2400.03 1222.44 2400.03 1213.71 Q2400.03 1204.96 2403.08 1200.38 Q2406.16 1195.77 2411.97 1195.77 Z" fill="#000000" fill-rule="evenodd" fill-opacity="1" /><path clip-path="url(#clip750)" d="M2442.13 1199.47 Q2438.52 1199.47 2436.69 1203.04 Q2434.89 1206.58 2434.89 1213.71 Q2434.89 1220.82 2436.69 1224.38 Q2438.52 1227.92 2442.13 1227.92 Q2445.77 1227.92 2447.57 1224.38 Q2449.4 1220.82 2449.4 1213.71 Q2449.4 1206.58 2447.57 1203.04 Q2445.77 1199.47 2442.13 1199.47 M2442.13 1195.77 Q2447.94 1195.77 2451 1200.38 Q2454.08 1204.96 2454.08 1213.71 Q2454.08 1222.44 2451 1227.04 Q2447.94 1231.63 2442.13 1231.63 Q2436.32 1231.63 2433.25 1227.04 Q2430.19 1222.44 2430.19 1213.71 Q2430.19 1204.96 2433.25 1200.38 Q2436.32 1195.77 2442.13 1195.77 Z" fill="#000000" fill-rule="evenodd" fill-opacity="1" /><path clip-path="url(#clip750)" d="M1911.3 1484.71 Q1908.82 1491.08 1906.47 1493.02 Q1904.11 1494.96 1900.16 1494.96 L1895.48 1494.96 L1895.48 1490.06 L1898.92 1490.06 Q1901.34 1490.06 1902.68 1488.91 Q1904.01 1487.77 1905.64 1483.5 L1906.69 1480.83 L1892.27 1445.75 L1898.48 1445.75 L1909.62 1473.64 L1920.76 1445.75 L1926.96 1445.75 L1911.3 1484.71 Z" fill="#000000" fill-rule="evenodd" fill-opacity="1" /><path clip-path="url(#clip750)" d="M1930.94 1460.94 L1948.1 1460.94 L1948.1 1466.16 L1930.94 1466.16 L1930.94 1460.94 Z" fill="#000000" fill-rule="evenodd" fill-opacity="1" /><path clip-path="url(#clip750)" d="M1983.08 1447.12 L1983.08 1452.6 Q1980.59 1451.23 1978.08 1450.56 Q1975.6 1449.86 1973.05 1449.86 Q1967.35 1449.86 1964.2 1453.49 Q1961.05 1457.09 1961.05 1463.61 Q1961.05 1470.14 1964.2 1473.76 Q1967.35 1477.36 1973.05 1477.36 Q1975.6 1477.36 1978.08 1476.69 Q1980.59 1475.99 1983.08 1474.62 L1983.08 1480.03 Q1980.63 1481.18 1977.98 1481.75 Q1975.37 1482.33 1972.41 1482.33 Q1964.36 1482.33 1959.62 1477.27 Q1954.88 1472.2 1954.88 1463.61 Q1954.88 1454.89 1959.65 1449.89 Q1964.46 1444.9 1972.8 1444.9 Q1975.5 1444.9 1978.08 1445.47 Q1980.66 1446.01 1983.08 1447.12 Z" fill="#000000" fill-rule="evenodd" fill-opacity="1" /><path clip-path="url(#clip750)" d="M2007.08 1449.86 Q2002.36 1449.86 1999.63 1453.55 Q1996.89 1457.21 1996.89 1463.61 Q1996.89 1470.01 1999.6 1473.7 Q2002.33 1477.36 2007.08 1477.36 Q2011.75 1477.36 2014.49 1473.67 Q2017.23 1469.98 2017.23 1463.61 Q2017.23 1457.28 2014.49 1453.58 Q2011.75 1449.86 2007.08 1449.86 M2007.08 1444.9 Q2014.71 1444.9 2019.07 1449.86 Q2023.43 1454.83 2023.43 1463.61 Q2023.43 1472.36 2019.07 1477.36 Q2014.71 1482.33 2007.08 1482.33 Q1999.4 1482.33 1995.04 1477.36 Q1990.72 1472.36 1990.72 1463.61 Q1990.72 1454.83 1995.04 1449.86 Q1999.4 1444.9 2007.08 1444.9 Z" fill="#000000" fill-rule="evenodd" fill-opacity="1" /><path clip-path="url(#clip750)" d="M2046.96 1449.86 Q2042.25 1449.86 2039.51 1453.55 Q2036.77 1457.21 2036.77 1463.61 Q2036.77 1470.01 2039.48 1473.7 Q2042.21 1477.36 2046.96 1477.36 Q2051.63 1477.36 2054.37 1473.67 Q2057.11 1469.98 2057.11 1463.61 Q2057.11 1457.28 2054.37 1453.58 Q2051.63 1449.86 2046.96 1449.86 M2046.96 1444.9 Q2054.6 1444.9 2058.96 1449.86 Q2063.32 1454.83 2063.32 1463.61 Q2063.32 1472.36 2058.96 1477.36 Q2054.6 1482.33 2046.96 1482.33 Q2039.29 1482.33 2034.93 1477.36 Q2030.6 1472.36 2030.6 1463.61 Q2030.6 1454.83 2034.93 1449.86 Q2039.29 1444.9 2046.96 1444.9 Z" fill="#000000" fill-rule="evenodd" fill-opacity="1" /><path clip-path="url(#clip750)" d="M2093.68 1451.23 Q2092.69 1450.66 2091.52 1450.4 Q2090.37 1450.12 2088.97 1450.12 Q2084 1450.12 2081.33 1453.36 Q2078.69 1456.58 2078.69 1462.62 L2078.69 1481.4 L2072.8 1481.4 L2072.8 1445.75 L2078.69 1445.75 L2078.69 1451.29 Q2080.54 1448.05 2083.5 1446.49 Q2086.46 1444.9 2090.69 1444.9 Q2091.29 1444.9 2092.03 1444.99 Q2092.76 1445.05 2093.65 1445.21 L2093.68 1451.23 Z" fill="#000000" fill-rule="evenodd" fill-opacity="1" /><path clip-path="url(#clip750)" d="M2122.14 1451.17 L2122.14 1431.88 L2127.99 1431.88 L2127.99 1481.4 L2122.14 1481.4 L2122.14 1476.06 Q2120.29 1479.24 2117.46 1480.8 Q2114.66 1482.33 2110.71 1482.33 Q2104.25 1482.33 2100.17 1477.17 Q2096.13 1472.01 2096.13 1463.61 Q2096.13 1455.21 2100.17 1450.05 Q2104.25 1444.9 2110.71 1444.9 Q2114.66 1444.9 2117.46 1446.46 Q2120.29 1447.98 2122.14 1451.17 M2102.18 1463.61 Q2102.18 1470.07 2104.82 1473.76 Q2107.49 1477.42 2112.14 1477.42 Q2116.79 1477.42 2119.46 1473.76 Q2122.14 1470.07 2122.14 1463.61 Q2122.14 1457.15 2119.46 1453.49 Q2116.79 1449.8 2112.14 1449.8 Q2107.49 1449.8 2104.82 1453.49 Q2102.18 1457.15 2102.18 1463.61 Z" fill="#000000" fill-rule="evenodd" fill-opacity="1" /><path clip-path="url(#clip750)" d="M2140.05 1445.75 L2145.91 1445.75 L2145.91 1481.4 L2140.05 1481.4 L2140.05 1445.75 M2140.05 1431.88 L2145.91 1431.88 L2145.91 1439.29 L2140.05 1439.29 L2140.05 1431.88 Z" fill="#000000" fill-rule="evenodd" fill-opacity="1" /><path clip-path="url(#clip750)" d="M2187.8 1459.89 L2187.8 1481.4 L2181.94 1481.4 L2181.94 1460.08 Q2181.94 1455.02 2179.97 1452.5 Q2177.99 1449.99 2174.05 1449.99 Q2169.31 1449.99 2166.57 1453.01 Q2163.83 1456.04 2163.83 1461.26 L2163.83 1481.4 L2157.94 1481.4 L2157.94 1445.75 L2163.83 1445.75 L2163.83 1451.29 Q2165.93 1448.08 2168.76 1446.49 Q2171.63 1444.9 2175.35 1444.9 Q2181.5 1444.9 2184.65 1448.71 Q2187.8 1452.5 2187.8 1459.89 Z" fill="#000000" fill-rule="evenodd" fill-opacity="1" /><path clip-path="url(#clip750)" d="M2215.68 1463.48 Q2208.58 1463.48 2205.84 1465.11 Q2203.11 1466.73 2203.11 1470.64 Q2203.11 1473.76 2205.14 1475.61 Q2207.21 1477.42 2210.75 1477.42 Q2215.62 1477.42 2218.54 1473.99 Q2221.5 1470.52 2221.5 1464.79 L2221.5 1463.48 L2215.68 1463.48 M2227.36 1461.06 L2227.36 1481.4 L2221.5 1481.4 L2221.5 1475.99 Q2219.5 1479.24 2216.51 1480.8 Q2213.51 1482.33 2209.19 1482.33 Q2203.71 1482.33 2200.47 1479.27 Q2197.25 1476.18 2197.25 1471.03 Q2197.25 1465.01 2201.26 1461.96 Q2205.3 1458.9 2213.29 1458.9 L2221.5 1458.9 L2221.5 1458.33 Q2221.5 1454.28 2218.83 1452.09 Q2216.19 1449.86 2211.38 1449.86 Q2208.33 1449.86 2205.43 1450.59 Q2202.53 1451.32 2199.86 1452.79 L2199.86 1447.38 Q2203.08 1446.14 2206.1 1445.53 Q2209.12 1444.9 2211.99 1444.9 Q2219.72 1444.9 2223.54 1448.91 Q2227.36 1452.92 2227.36 1461.06 Z" fill="#000000" fill-rule="evenodd" fill-opacity="1" /><path clip-path="url(#clip750)" d="M2245.22 1435.63 L2245.22 1445.75 L2257.28 1445.75 L2257.28 1450.31 L2245.22 1450.31 L2245.22 1469.66 Q2245.22 1474.02 2246.39 1475.26 Q2247.6 1476.5 2251.26 1476.5 L2257.28 1476.5 L2257.28 1481.4 L2251.26 1481.4 Q2244.48 1481.4 2241.91 1478.89 Q2239.33 1476.34 2239.33 1469.66 L2239.33 1450.31 L2235.03 1450.31 L2235.03 1445.75 L2239.33 1445.75 L2239.33 1435.63 L2245.22 1435.63 Z" fill="#000000" fill-rule="evenodd" fill-opacity="1" /><path clip-path="url(#clip750)" d="M2295.47 1462.11 L2295.47 1464.98 L2268.55 1464.98 Q2268.93 1471.03 2272.17 1474.21 Q2275.45 1477.36 2281.28 1477.36 Q2284.65 1477.36 2287.8 1476.53 Q2290.99 1475.71 2294.1 1474.05 L2294.1 1479.59 Q2290.95 1480.93 2287.64 1481.63 Q2284.33 1482.33 2280.93 1482.33 Q2272.4 1482.33 2267.4 1477.36 Q2262.44 1472.4 2262.44 1463.93 Q2262.44 1455.18 2267.15 1450.05 Q2271.89 1444.9 2279.91 1444.9 Q2287.1 1444.9 2291.27 1449.54 Q2295.47 1454.16 2295.47 1462.11 M2289.62 1460.4 Q2289.55 1455.59 2286.91 1452.73 Q2284.3 1449.86 2279.97 1449.86 Q2275.07 1449.86 2272.11 1452.63 Q2269.18 1455.4 2268.74 1460.43 L2289.62 1460.4 Z" fill="#000000" fill-rule="evenodd" fill-opacity="1" /><polyline clip-path="url(#clip752)" style="stroke:#000000; stroke-linecap:butt; stroke-linejoin:round; stroke-width:2; stroke-opacity:0.1; fill:none" points="
  265.445,1312.16 1029.45,1068.32 
  "/>
<polyline clip-path="url(#clip752)" style="stroke:#000000; stroke-linecap:butt; stroke-linejoin:round; stroke-width:2; stroke-opacity:0.1; fill:none" points="
  1029.45,1068.32 2352.76,1149.6 
  "/>
<polyline clip-path="url(#clip752)" style="stroke:#000000; stroke-linecap:butt; stroke-linejoin:round; stroke-width:2; stroke-opacity:0.1; fill:none" points="
  265.445,1146.94 1029.45,903.095 
  "/>
<polyline clip-path="url(#clip752)" style="stroke:#000000; stroke-linecap:butt; stroke-linejoin:round; stroke-width:2; stroke-opacity:0.1; fill:none" points="
  1029.45,903.095 2352.76,984.376 
  "/>
<polyline clip-path="url(#clip752)" style="stroke:#000000; stroke-linecap:butt; stroke-linejoin:round; stroke-width:2; stroke-opacity:0.1; fill:none" points="
  265.445,981.715 1029.45,737.873 
  "/>
<polyline clip-path="url(#clip752)" style="stroke:#000000; stroke-linecap:butt; stroke-linejoin:round; stroke-width:2; stroke-opacity:0.1; fill:none" points="
  1029.45,737.873 2352.76,819.153 
  "/>
<polyline clip-path="url(#clip752)" style="stroke:#000000; stroke-linecap:butt; stroke-linejoin:round; stroke-width:2; stroke-opacity:0.1; fill:none" points="
  265.445,816.493 1029.45,572.651 
  "/>
<polyline clip-path="url(#clip752)" style="stroke:#000000; stroke-linecap:butt; stroke-linejoin:round; stroke-width:2; stroke-opacity:0.1; fill:none" points="
  1029.45,572.651 2352.76,653.931 
  "/>
<polyline clip-path="url(#clip752)" style="stroke:#000000; stroke-linecap:butt; stroke-linejoin:round; stroke-width:2; stroke-opacity:0.1; fill:none" points="
  265.445,651.27 1029.45,407.428 
  "/>
<polyline clip-path="url(#clip752)" style="stroke:#000000; stroke-linecap:butt; stroke-linejoin:round; stroke-width:2; stroke-opacity:0.1; fill:none" points="
  1029.45,407.428 2352.76,488.709 
  "/>
<polyline clip-path="url(#clip752)" style="stroke:#000000; stroke-linecap:butt; stroke-linejoin:round; stroke-width:2; stroke-opacity:0.1; fill:none" points="
  265.445,486.048 1029.45,242.206 
  "/>
<polyline clip-path="url(#clip752)" style="stroke:#000000; stroke-linecap:butt; stroke-linejoin:round; stroke-width:2; stroke-opacity:0.1; fill:none" points="
  1029.45,242.206 2352.76,323.487 
  "/>
<polyline clip-path="url(#clip752)" style="stroke:#000000; stroke-linecap:butt; stroke-linejoin:round; stroke-width:2; stroke-opacity:0.1; fill:none" points="
  265.445,320.826 1029.45,76.9841 
  "/>
<polyline clip-path="url(#clip752)" style="stroke:#000000; stroke-linecap:butt; stroke-linejoin:round; stroke-width:2; stroke-opacity:0.1; fill:none" points="
  1029.45,76.9841 2352.76,158.265 
  "/>
<polyline clip-path="url(#clip750)" style="stroke:#000000; stroke-linecap:butt; stroke-linejoin:round; stroke-width:4; stroke-opacity:1; fill:none" points="
  265.445,1341.9 265.445,291.086 
  "/>
<polyline clip-path="url(#clip750)" style="stroke:#000000; stroke-linecap:butt; stroke-linejoin:round; stroke-width:4; stroke-opacity:1; fill:none" points="
  265.445,1312.16 274.613,1309.23 
  "/>
<polyline clip-path="url(#clip750)" style="stroke:#000000; stroke-linecap:butt; stroke-linejoin:round; stroke-width:4; stroke-opacity:1; fill:none" points="
  265.445,1146.94 274.613,1144.01 
  "/>
<polyline clip-path="url(#clip750)" style="stroke:#000000; stroke-linecap:butt; stroke-linejoin:round; stroke-width:4; stroke-opacity:1; fill:none" points="
  265.445,981.715 274.613,978.789 
  "/>
<polyline clip-path="url(#clip750)" style="stroke:#000000; stroke-linecap:butt; stroke-linejoin:round; stroke-width:4; stroke-opacity:1; fill:none" points="
  265.445,816.493 274.613,813.567 
  "/>
<polyline clip-path="url(#clip750)" style="stroke:#000000; stroke-linecap:butt; stroke-linejoin:round; stroke-width:4; stroke-opacity:1; fill:none" points="
  265.445,651.27 274.613,648.344 
  "/>
<polyline clip-path="url(#clip750)" style="stroke:#000000; stroke-linecap:butt; stroke-linejoin:round; stroke-width:4; stroke-opacity:1; fill:none" points="
  265.445,486.048 274.613,483.122 
  "/>
<polyline clip-path="url(#clip750)" style="stroke:#000000; stroke-linecap:butt; stroke-linejoin:round; stroke-width:4; stroke-opacity:1; fill:none" points="
  265.445,320.826 274.613,317.9 
  "/>
<path clip-path="url(#clip750)" d="M224.7 1297.96 Q221.089 1297.96 219.261 1301.52 Q217.455 1305.06 217.455 1312.19 Q217.455 1319.3 219.261 1322.87 Q221.089 1326.41 224.7 1326.41 Q228.335 1326.41 230.14 1322.87 Q231.969 1319.3 231.969 1312.19 Q231.969 1305.06 230.14 1301.52 Q228.335 1297.96 224.7 1297.96 M224.7 1294.25 Q230.51 1294.25 233.566 1298.86 Q236.645 1303.44 236.645 1312.19 Q236.645 1320.92 233.566 1325.53 Q230.51 1330.11 224.7 1330.11 Q218.89 1330.11 215.812 1325.53 Q212.756 1320.92 212.756 1312.19 Q212.756 1303.44 215.812 1298.86 Q218.89 1294.25 224.7 1294.25 Z" fill="#000000" fill-rule="evenodd" fill-opacity="1" /><path clip-path="url(#clip750)" d="M125.025 1160.28 L132.664 1160.28 L132.664 1133.92 L124.354 1135.58 L124.354 1131.32 L132.618 1129.66 L137.293 1129.66 L137.293 1160.28 L144.932 1160.28 L144.932 1164.22 L125.025 1164.22 L125.025 1160.28 Z" fill="#000000" fill-rule="evenodd" fill-opacity="1" /><path clip-path="url(#clip750)" d="M164.377 1132.74 Q160.766 1132.74 158.937 1136.3 Q157.131 1139.84 157.131 1146.97 Q157.131 1154.08 158.937 1157.64 Q160.766 1161.18 164.377 1161.18 Q168.011 1161.18 169.816 1157.64 Q171.645 1154.08 171.645 1146.97 Q171.645 1139.84 169.816 1136.3 Q168.011 1132.74 164.377 1132.74 M164.377 1129.03 Q170.187 1129.03 173.242 1133.64 Q176.321 1138.22 176.321 1146.97 Q176.321 1155.7 173.242 1160.3 Q170.187 1164.89 164.377 1164.89 Q158.566 1164.89 155.488 1160.3 Q152.432 1155.7 152.432 1146.97 Q152.432 1138.22 155.488 1133.64 Q158.566 1129.03 164.377 1129.03 Z" fill="#000000" fill-rule="evenodd" fill-opacity="1" /><path clip-path="url(#clip750)" d="M194.538 1132.74 Q190.927 1132.74 189.099 1136.3 Q187.293 1139.84 187.293 1146.97 Q187.293 1154.08 189.099 1157.64 Q190.927 1161.18 194.538 1161.18 Q198.173 1161.18 199.978 1157.64 Q201.807 1154.08 201.807 1146.97 Q201.807 1139.84 199.978 1136.3 Q198.173 1132.74 194.538 1132.74 M194.538 1129.03 Q200.349 1129.03 203.404 1133.64 Q206.483 1138.22 206.483 1146.97 Q206.483 1155.7 203.404 1160.3 Q200.349 1164.89 194.538 1164.89 Q188.728 1164.89 185.65 1160.3 Q182.594 1155.7 182.594 1146.97 Q182.594 1138.22 185.65 1133.64 Q188.728 1129.03 194.538 1129.03 Z" fill="#000000" fill-rule="evenodd" fill-opacity="1" /><path clip-path="url(#clip750)" d="M224.7 1132.74 Q221.089 1132.74 219.261 1136.3 Q217.455 1139.84 217.455 1146.97 Q217.455 1154.08 219.261 1157.64 Q221.089 1161.18 224.7 1161.18 Q228.335 1161.18 230.14 1157.64 Q231.969 1154.08 231.969 1146.97 Q231.969 1139.84 230.14 1136.3 Q228.335 1132.74 224.7 1132.74 M224.7 1129.03 Q230.51 1129.03 233.566 1133.64 Q236.645 1138.22 236.645 1146.97 Q236.645 1155.7 233.566 1160.3 Q230.51 1164.89 224.7 1164.89 Q218.89 1164.89 215.812 1160.3 Q212.756 1155.7 212.756 1146.97 Q212.756 1138.22 215.812 1133.64 Q218.89 1129.03 224.7 1129.03 Z" fill="#000000" fill-rule="evenodd" fill-opacity="1" /><path clip-path="url(#clip750)" d="M128.243 995.06 L144.562 995.06 L144.562 998.995 L122.618 998.995 L122.618 995.06 Q125.28 992.305 129.863 987.675 Q134.469 983.023 135.65 981.68 Q137.895 979.157 138.775 977.421 Q139.678 975.662 139.678 973.972 Q139.678 971.217 137.733 969.481 Q135.812 967.745 132.71 967.745 Q130.511 967.745 128.057 968.509 Q125.627 969.273 122.849 970.824 L122.849 966.101 Q125.673 964.967 128.127 964.389 Q130.58 963.81 132.618 963.81 Q137.988 963.81 141.182 966.495 Q144.377 969.18 144.377 973.671 Q144.377 975.8 143.567 977.722 Q142.779 979.62 140.673 982.213 Q140.094 982.884 136.992 986.101 Q133.891 989.296 128.243 995.06 Z" fill="#000000" fill-rule="evenodd" fill-opacity="1" /><path clip-path="url(#clip750)" d="M164.377 967.514 Q160.766 967.514 158.937 971.078 Q157.131 974.62 157.131 981.75 Q157.131 988.856 158.937 992.421 Q160.766 995.962 164.377 995.962 Q168.011 995.962 169.816 992.421 Q171.645 988.856 171.645 981.75 Q171.645 974.62 169.816 971.078 Q168.011 967.514 164.377 967.514 M164.377 963.81 Q170.187 963.81 173.242 968.416 Q176.321 973 176.321 981.75 Q176.321 990.476 173.242 995.083 Q170.187 999.666 164.377 999.666 Q158.566 999.666 155.488 995.083 Q152.432 990.476 152.432 981.75 Q152.432 973 155.488 968.416 Q158.566 963.81 164.377 963.81 Z" fill="#000000" fill-rule="evenodd" fill-opacity="1" /><path clip-path="url(#clip750)" d="M194.538 967.514 Q190.927 967.514 189.099 971.078 Q187.293 974.62 187.293 981.75 Q187.293 988.856 189.099 992.421 Q190.927 995.962 194.538 995.962 Q198.173 995.962 199.978 992.421 Q201.807 988.856 201.807 981.75 Q201.807 974.62 199.978 971.078 Q198.173 967.514 194.538 967.514 M194.538 963.81 Q200.349 963.81 203.404 968.416 Q206.483 973 206.483 981.75 Q206.483 990.476 203.404 995.083 Q200.349 999.666 194.538 999.666 Q188.728 999.666 185.65 995.083 Q182.594 990.476 182.594 981.75 Q182.594 973 185.65 968.416 Q188.728 963.81 194.538 963.81 Z" fill="#000000" fill-rule="evenodd" fill-opacity="1" /><path clip-path="url(#clip750)" d="M224.7 967.514 Q221.089 967.514 219.261 971.078 Q217.455 974.62 217.455 981.75 Q217.455 988.856 219.261 992.421 Q221.089 995.962 224.7 995.962 Q228.335 995.962 230.14 992.421 Q231.969 988.856 231.969 981.75 Q231.969 974.62 230.14 971.078 Q228.335 967.514 224.7 967.514 M224.7 963.81 Q230.51 963.81 233.566 968.416 Q236.645 973 236.645 981.75 Q236.645 990.476 233.566 995.083 Q230.51 999.666 224.7 999.666 Q218.89 999.666 215.812 995.083 Q212.756 990.476 212.756 981.75 Q212.756 973 215.812 968.416 Q218.89 963.81 224.7 963.81 Z" fill="#000000" fill-rule="evenodd" fill-opacity="1" /><path clip-path="url(#clip750)" d="M138.381 815.138 Q141.738 815.856 143.613 818.125 Q145.511 820.393 145.511 823.726 Q145.511 828.842 141.992 831.643 Q138.474 834.444 131.993 834.444 Q129.817 834.444 127.502 834.004 Q125.21 833.587 122.756 832.731 L122.756 828.217 Q124.701 829.351 127.016 829.93 Q129.33 830.509 131.854 830.509 Q136.252 830.509 138.543 828.773 Q140.858 827.037 140.858 823.726 Q140.858 820.671 138.705 818.958 Q136.576 817.222 132.756 817.222 L128.729 817.222 L128.729 813.379 L132.942 813.379 Q136.391 813.379 138.219 812.013 Q140.048 810.625 140.048 808.032 Q140.048 805.37 138.15 803.958 Q136.275 802.523 132.756 802.523 Q130.835 802.523 128.636 802.939 Q126.437 803.356 123.798 804.236 L123.798 800.069 Q126.46 799.328 128.775 798.958 Q131.113 798.588 133.173 798.588 Q138.497 798.588 141.599 801.018 Q144.701 803.426 144.701 807.546 Q144.701 810.416 143.057 812.407 Q141.414 814.375 138.381 815.138 Z" fill="#000000" fill-rule="evenodd" fill-opacity="1" /><path clip-path="url(#clip750)" d="M164.377 802.291 Q160.766 802.291 158.937 805.856 Q157.131 809.398 157.131 816.527 Q157.131 823.634 158.937 827.199 Q160.766 830.74 164.377 830.74 Q168.011 830.74 169.816 827.199 Q171.645 823.634 171.645 816.527 Q171.645 809.398 169.816 805.856 Q168.011 802.291 164.377 802.291 M164.377 798.588 Q170.187 798.588 173.242 803.194 Q176.321 807.777 176.321 816.527 Q176.321 825.254 173.242 829.861 Q170.187 834.444 164.377 834.444 Q158.566 834.444 155.488 829.861 Q152.432 825.254 152.432 816.527 Q152.432 807.777 155.488 803.194 Q158.566 798.588 164.377 798.588 Z" fill="#000000" fill-rule="evenodd" fill-opacity="1" /><path clip-path="url(#clip750)" d="M194.538 802.291 Q190.927 802.291 189.099 805.856 Q187.293 809.398 187.293 816.527 Q187.293 823.634 189.099 827.199 Q190.927 830.74 194.538 830.74 Q198.173 830.74 199.978 827.199 Q201.807 823.634 201.807 816.527 Q201.807 809.398 199.978 805.856 Q198.173 802.291 194.538 802.291 M194.538 798.588 Q200.349 798.588 203.404 803.194 Q206.483 807.777 206.483 816.527 Q206.483 825.254 203.404 829.861 Q200.349 834.444 194.538 834.444 Q188.728 834.444 185.65 829.861 Q182.594 825.254 182.594 816.527 Q182.594 807.777 185.65 803.194 Q188.728 798.588 194.538 798.588 Z" fill="#000000" fill-rule="evenodd" fill-opacity="1" /><path clip-path="url(#clip750)" d="M224.7 802.291 Q221.089 802.291 219.261 805.856 Q217.455 809.398 217.455 816.527 Q217.455 823.634 219.261 827.199 Q221.089 830.74 224.7 830.74 Q228.335 830.74 230.14 827.199 Q231.969 823.634 231.969 816.527 Q231.969 809.398 230.14 805.856 Q228.335 802.291 224.7 802.291 M224.7 798.588 Q230.51 798.588 233.566 803.194 Q236.645 807.777 236.645 816.527 Q236.645 825.254 233.566 829.861 Q230.51 834.444 224.7 834.444 Q218.89 834.444 215.812 829.861 Q212.756 825.254 212.756 816.527 Q212.756 807.777 215.812 803.194 Q218.89 798.588 224.7 798.588 Z" fill="#000000" fill-rule="evenodd" fill-opacity="1" /><path clip-path="url(#clip750)" d="M137.062 638.065 L125.256 656.513 L137.062 656.513 L137.062 638.065 M135.835 633.99 L141.715 633.99 L141.715 656.513 L146.645 656.513 L146.645 660.402 L141.715 660.402 L141.715 668.55 L137.062 668.55 L137.062 660.402 L121.46 660.402 L121.46 655.888 L135.835 633.99 Z" fill="#000000" fill-rule="evenodd" fill-opacity="1" /><path clip-path="url(#clip750)" d="M164.377 637.069 Q160.766 637.069 158.937 640.634 Q157.131 644.176 157.131 651.305 Q157.131 658.412 158.937 661.976 Q160.766 665.518 164.377 665.518 Q168.011 665.518 169.816 661.976 Q171.645 658.412 171.645 651.305 Q171.645 644.176 169.816 640.634 Q168.011 637.069 164.377 637.069 M164.377 633.365 Q170.187 633.365 173.242 637.972 Q176.321 642.555 176.321 651.305 Q176.321 660.032 173.242 664.638 Q170.187 669.222 164.377 669.222 Q158.566 669.222 155.488 664.638 Q152.432 660.032 152.432 651.305 Q152.432 642.555 155.488 637.972 Q158.566 633.365 164.377 633.365 Z" fill="#000000" fill-rule="evenodd" fill-opacity="1" /><path clip-path="url(#clip750)" d="M194.538 637.069 Q190.927 637.069 189.099 640.634 Q187.293 644.176 187.293 651.305 Q187.293 658.412 189.099 661.976 Q190.927 665.518 194.538 665.518 Q198.173 665.518 199.978 661.976 Q201.807 658.412 201.807 651.305 Q201.807 644.176 199.978 640.634 Q198.173 637.069 194.538 637.069 M194.538 633.365 Q200.349 633.365 203.404 637.972 Q206.483 642.555 206.483 651.305 Q206.483 660.032 203.404 664.638 Q200.349 669.222 194.538 669.222 Q188.728 669.222 185.65 664.638 Q182.594 660.032 182.594 651.305 Q182.594 642.555 185.65 637.972 Q188.728 633.365 194.538 633.365 Z" fill="#000000" fill-rule="evenodd" fill-opacity="1" /><path clip-path="url(#clip750)" d="M224.7 637.069 Q221.089 637.069 219.261 640.634 Q217.455 644.176 217.455 651.305 Q217.455 658.412 219.261 661.976 Q221.089 665.518 224.7 665.518 Q228.335 665.518 230.14 661.976 Q231.969 658.412 231.969 651.305 Q231.969 644.176 230.14 640.634 Q228.335 637.069 224.7 637.069 M224.7 633.365 Q230.51 633.365 233.566 637.972 Q236.645 642.555 236.645 651.305 Q236.645 660.032 233.566 664.638 Q230.51 669.222 224.7 669.222 Q218.89 669.222 215.812 664.638 Q212.756 660.032 212.756 651.305 Q212.756 642.555 215.812 637.972 Q218.89 633.365 224.7 633.365 Z" fill="#000000" fill-rule="evenodd" fill-opacity="1" /><path clip-path="url(#clip750)" d="M124.261 468.768 L142.617 468.768 L142.617 472.703 L128.543 472.703 L128.543 481.176 Q129.562 480.828 130.58 480.666 Q131.599 480.481 132.618 480.481 Q138.405 480.481 141.784 483.652 Q145.164 486.824 145.164 492.24 Q145.164 497.819 141.692 500.921 Q138.219 504 131.9 504 Q129.724 504 127.455 503.629 Q125.21 503.259 122.803 502.518 L122.803 497.819 Q124.886 498.953 127.108 499.509 Q129.33 500.064 131.807 500.064 Q135.812 500.064 138.15 497.958 Q140.488 495.851 140.488 492.24 Q140.488 488.629 138.15 486.523 Q135.812 484.416 131.807 484.416 Q129.932 484.416 128.057 484.833 Q126.206 485.25 124.261 486.129 L124.261 468.768 Z" fill="#000000" fill-rule="evenodd" fill-opacity="1" /><path clip-path="url(#clip750)" d="M164.377 471.847 Q160.766 471.847 158.937 475.412 Q157.131 478.953 157.131 486.083 Q157.131 493.189 158.937 496.754 Q160.766 500.296 164.377 500.296 Q168.011 500.296 169.816 496.754 Q171.645 493.189 171.645 486.083 Q171.645 478.953 169.816 475.412 Q168.011 471.847 164.377 471.847 M164.377 468.143 Q170.187 468.143 173.242 472.75 Q176.321 477.333 176.321 486.083 Q176.321 494.81 173.242 499.416 Q170.187 504 164.377 504 Q158.566 504 155.488 499.416 Q152.432 494.81 152.432 486.083 Q152.432 477.333 155.488 472.75 Q158.566 468.143 164.377 468.143 Z" fill="#000000" fill-rule="evenodd" fill-opacity="1" /><path clip-path="url(#clip750)" d="M194.538 471.847 Q190.927 471.847 189.099 475.412 Q187.293 478.953 187.293 486.083 Q187.293 493.189 189.099 496.754 Q190.927 500.296 194.538 500.296 Q198.173 500.296 199.978 496.754 Q201.807 493.189 201.807 486.083 Q201.807 478.953 199.978 475.412 Q198.173 471.847 194.538 471.847 M194.538 468.143 Q200.349 468.143 203.404 472.75 Q206.483 477.333 206.483 486.083 Q206.483 494.81 203.404 499.416 Q200.349 504 194.538 504 Q188.728 504 185.65 499.416 Q182.594 494.81 182.594 486.083 Q182.594 477.333 185.65 472.75 Q188.728 468.143 194.538 468.143 Z" fill="#000000" fill-rule="evenodd" fill-opacity="1" /><path clip-path="url(#clip750)" d="M224.7 471.847 Q221.089 471.847 219.261 475.412 Q217.455 478.953 217.455 486.083 Q217.455 493.189 219.261 496.754 Q221.089 500.296 224.7 500.296 Q228.335 500.296 230.14 496.754 Q231.969 493.189 231.969 486.083 Q231.969 478.953 230.14 475.412 Q228.335 471.847 224.7 471.847 M224.7 468.143 Q230.51 468.143 233.566 472.75 Q236.645 477.333 236.645 486.083 Q236.645 494.81 233.566 499.416 Q230.51 504 224.7 504 Q218.89 504 215.812 499.416 Q212.756 494.81 212.756 486.083 Q212.756 477.333 215.812 472.75 Q218.89 468.143 224.7 468.143 Z" fill="#000000" fill-rule="evenodd" fill-opacity="1" /><path clip-path="url(#clip750)" d="M134.793 318.963 Q131.645 318.963 129.793 321.115 Q127.965 323.268 127.965 327.018 Q127.965 330.745 129.793 332.921 Q131.645 335.074 134.793 335.074 Q137.942 335.074 139.77 332.921 Q141.622 330.745 141.622 327.018 Q141.622 323.268 139.77 321.115 Q137.942 318.963 134.793 318.963 M144.076 304.31 L144.076 308.569 Q142.317 307.736 140.511 307.296 Q138.729 306.856 136.969 306.856 Q132.34 306.856 129.886 309.981 Q127.455 313.106 127.108 319.426 Q128.474 317.412 130.534 316.347 Q132.594 315.259 135.071 315.259 Q140.28 315.259 143.289 318.43 Q146.321 321.578 146.321 327.018 Q146.321 332.342 143.173 335.56 Q140.025 338.777 134.793 338.777 Q128.798 338.777 125.627 334.194 Q122.456 329.588 122.456 320.861 Q122.456 312.666 126.344 307.805 Q130.233 302.921 136.784 302.921 Q138.543 302.921 140.326 303.268 Q142.131 303.616 144.076 304.31 Z" fill="#000000" fill-rule="evenodd" fill-opacity="1" /><path clip-path="url(#clip750)" d="M164.377 306.625 Q160.766 306.625 158.937 310.19 Q157.131 313.731 157.131 320.861 Q157.131 327.967 158.937 331.532 Q160.766 335.074 164.377 335.074 Q168.011 335.074 169.816 331.532 Q171.645 327.967 171.645 320.861 Q171.645 313.731 169.816 310.19 Q168.011 306.625 164.377 306.625 M164.377 302.921 Q170.187 302.921 173.242 307.528 Q176.321 312.111 176.321 320.861 Q176.321 329.588 173.242 334.194 Q170.187 338.777 164.377 338.777 Q158.566 338.777 155.488 334.194 Q152.432 329.588 152.432 320.861 Q152.432 312.111 155.488 307.528 Q158.566 302.921 164.377 302.921 Z" fill="#000000" fill-rule="evenodd" fill-opacity="1" /><path clip-path="url(#clip750)" d="M194.538 306.625 Q190.927 306.625 189.099 310.19 Q187.293 313.731 187.293 320.861 Q187.293 327.967 189.099 331.532 Q190.927 335.074 194.538 335.074 Q198.173 335.074 199.978 331.532 Q201.807 327.967 201.807 320.861 Q201.807 313.731 199.978 310.19 Q198.173 306.625 194.538 306.625 M194.538 302.921 Q200.349 302.921 203.404 307.528 Q206.483 312.111 206.483 320.861 Q206.483 329.588 203.404 334.194 Q200.349 338.777 194.538 338.777 Q188.728 338.777 185.65 334.194 Q182.594 329.588 182.594 320.861 Q182.594 312.111 185.65 307.528 Q188.728 302.921 194.538 302.921 Z" fill="#000000" fill-rule="evenodd" fill-opacity="1" /><path clip-path="url(#clip750)" d="M224.7 306.625 Q221.089 306.625 219.261 310.19 Q217.455 313.731 217.455 320.861 Q217.455 327.967 219.261 331.532 Q221.089 335.074 224.7 335.074 Q228.335 335.074 230.14 331.532 Q231.969 327.967 231.969 320.861 Q231.969 313.731 230.14 310.19 Q228.335 306.625 224.7 306.625 M224.7 302.921 Q230.51 302.921 233.566 307.528 Q236.645 312.111 236.645 320.861 Q236.645 329.588 233.566 334.194 Q230.51 338.777 224.7 338.777 Q218.89 338.777 215.812 334.194 Q212.756 329.588 212.756 320.861 Q212.756 312.111 215.812 307.528 Q218.89 302.921 224.7 302.921 Z" fill="#000000" fill-rule="evenodd" fill-opacity="1" /><path clip-path="url(#clip750)" d="M28.3562 1015.26 L28.3562 987.444 L33.7034 987.444 L59.3254 1009.47 L59.3254 987.444 L64.0042 987.444 L64.0042 1016.06 L58.657 1016.06 L33.035 994.032 L33.035 1015.26 L28.3562 1015.26 Z" fill="#000000" fill-rule="evenodd" fill-opacity="1" /><path clip-path="url(#clip750)" d="M43.5384 981.46 L43.5384 964.304 L48.7583 964.304 L48.7583 981.46 L43.5384 981.46 Z" fill="#000000" fill-rule="evenodd" fill-opacity="1" /><path clip-path="url(#clip750)" d="M29.7248 929.325 L35.1993 929.325 Q33.8307 931.807 33.1623 934.322 Q32.4621 936.804 32.4621 939.351 Q32.4621 945.048 36.0905 948.199 Q39.6872 951.35 46.212 951.35 Q52.7369 951.35 56.3653 948.199 Q59.9619 945.048 59.9619 939.351 Q59.9619 936.804 59.2935 934.322 Q58.5933 931.807 57.2247 929.325 L62.6355 929.325 Q63.7814 931.776 64.3543 934.417 Q64.9272 937.027 64.9272 939.987 Q64.9272 948.04 59.8664 952.782 Q54.8057 957.525 46.212 957.525 Q37.491 957.525 32.4939 952.751 Q27.4968 947.944 27.4968 939.605 Q27.4968 936.9 28.0697 934.322 Q28.6108 931.744 29.7248 929.325 Z" fill="#000000" fill-rule="evenodd" fill-opacity="1" /><path clip-path="url(#clip750)" d="M32.4621 905.326 Q32.4621 910.037 36.1542 912.774 Q39.8145 915.511 46.212 915.511 Q52.6095 915.511 56.3017 912.806 Q59.9619 910.069 59.9619 905.326 Q59.9619 900.647 56.2698 897.91 Q52.5777 895.173 46.212 895.173 Q39.8781 895.173 36.186 897.91 Q32.4621 900.647 32.4621 905.326 M27.4968 905.326 Q27.4968 897.687 32.4621 893.327 Q37.4273 888.966 46.212 888.966 Q54.9649 888.966 59.9619 893.327 Q64.9272 897.687 64.9272 905.326 Q64.9272 912.997 59.9619 917.357 Q54.9649 921.686 46.212 921.686 Q37.4273 921.686 32.4621 917.357 Q27.4968 912.997 27.4968 905.326 Z" fill="#000000" fill-rule="evenodd" fill-opacity="1" /><path clip-path="url(#clip750)" d="M32.4621 865.445 Q32.4621 870.156 36.1542 872.893 Q39.8145 875.63 46.212 875.63 Q52.6095 875.63 56.3017 872.925 Q59.9619 870.187 59.9619 865.445 Q59.9619 860.766 56.2698 858.029 Q52.5777 855.292 46.212 855.292 Q39.8781 855.292 36.186 858.029 Q32.4621 860.766 32.4621 865.445 M27.4968 865.445 Q27.4968 857.806 32.4621 853.446 Q37.4273 849.085 46.212 849.085 Q54.9649 849.085 59.9619 853.446 Q64.9272 857.806 64.9272 865.445 Q64.9272 873.116 59.9619 877.476 Q54.9649 881.805 46.212 881.805 Q37.4273 881.805 32.4621 877.476 Q27.4968 873.116 27.4968 865.445 Z" fill="#000000" fill-rule="evenodd" fill-opacity="1" /><path clip-path="url(#clip750)" d="M33.8307 818.721 Q33.2578 819.707 33.0032 820.885 Q32.7167 822.031 32.7167 823.431 Q32.7167 828.397 35.9632 831.07 Q39.1779 833.712 45.2253 833.712 L64.0042 833.712 L64.0042 839.6 L28.3562 839.6 L28.3562 833.712 L33.8944 833.712 Q30.6479 831.866 29.0883 828.906 Q27.4968 825.946 27.4968 821.713 Q27.4968 821.108 27.5923 820.376 Q27.656 819.644 27.8151 818.752 L33.8307 818.721 Z" fill="#000000" fill-rule="evenodd" fill-opacity="1" /><path clip-path="url(#clip750)" d="M33.7671 790.266 L14.479 790.266 L14.479 784.409 L64.0042 784.409 L64.0042 790.266 L58.657 790.266 Q61.8398 792.112 63.3994 794.945 Q64.9272 797.746 64.9272 801.692 Q64.9272 808.154 59.771 812.228 Q54.6147 816.27 46.212 816.27 Q37.8093 816.27 32.6531 812.228 Q27.4968 808.154 27.4968 801.692 Q27.4968 797.746 29.0564 794.945 Q30.5842 792.112 33.7671 790.266 M46.212 810.222 Q52.6732 810.222 56.3653 807.581 Q60.0256 804.907 60.0256 800.26 Q60.0256 795.613 56.3653 792.94 Q52.6732 790.266 46.212 790.266 Q39.7508 790.266 36.0905 792.94 Q32.3984 795.613 32.3984 800.26 Q32.3984 804.907 36.0905 807.581 Q39.7508 810.222 46.212 810.222 Z" fill="#000000" fill-rule="evenodd" fill-opacity="1" /><path clip-path="url(#clip750)" d="M28.3562 772.346 L28.3562 766.49 L64.0042 766.49 L64.0042 772.346 L28.3562 772.346 M14.479 772.346 L14.479 766.49 L21.895 766.49 L21.895 772.346 L14.479 772.346 Z" fill="#000000" fill-rule="evenodd" fill-opacity="1" /><path clip-path="url(#clip750)" d="M42.4881 724.604 L64.0042 724.604 L64.0042 730.46 L42.679 730.46 Q37.6183 730.46 35.1038 732.433 Q32.5894 734.407 32.5894 738.354 Q32.5894 743.096 35.6131 745.833 Q38.6368 748.571 43.8567 748.571 L64.0042 748.571 L64.0042 754.459 L28.3562 754.459 L28.3562 748.571 L33.8944 748.571 Q30.6797 746.47 29.0883 743.637 Q27.4968 740.773 27.4968 737.049 Q27.4968 730.906 31.3163 727.755 Q35.1038 724.604 42.4881 724.604 Z" fill="#000000" fill-rule="evenodd" fill-opacity="1" /><path clip-path="url(#clip750)" d="M46.0847 696.722 Q46.0847 703.82 47.7079 706.557 Q49.3312 709.294 53.2461 709.294 Q56.3653 709.294 58.2114 707.257 Q60.0256 705.188 60.0256 701.655 Q60.0256 696.786 56.5881 693.857 Q53.1188 690.897 47.3897 690.897 L46.0847 690.897 L46.0847 696.722 M43.6657 685.041 L64.0042 685.041 L64.0042 690.897 L58.5933 690.897 Q61.8398 692.902 63.3994 695.894 Q64.9272 698.886 64.9272 703.215 Q64.9272 708.689 61.8716 711.936 Q58.7843 715.151 53.6281 715.151 Q47.6125 715.151 44.5569 711.14 Q41.5014 707.098 41.5014 699.109 L41.5014 690.897 L40.9285 690.897 Q36.8862 690.897 34.6901 693.571 Q32.4621 696.213 32.4621 701.019 Q32.4621 704.074 33.1941 706.971 Q33.9262 709.867 35.3903 712.541 L29.9795 712.541 Q28.7381 709.326 28.1334 706.302 Q27.4968 703.279 27.4968 700.414 Q27.4968 692.68 31.5072 688.86 Q35.5176 685.041 43.6657 685.041 Z" fill="#000000" fill-rule="evenodd" fill-opacity="1" /><path clip-path="url(#clip750)" d="M18.2347 667.185 L28.3562 667.185 L28.3562 655.122 L32.9077 655.122 L32.9077 667.185 L52.2594 667.185 Q56.6199 667.185 57.8613 666.007 Q59.1026 664.798 59.1026 661.138 L59.1026 655.122 L64.0042 655.122 L64.0042 661.138 Q64.0042 667.917 61.4897 670.495 Q58.9434 673.073 52.2594 673.073 L32.9077 673.073 L32.9077 677.37 L28.3562 677.37 L28.3562 673.073 L18.2347 673.073 L18.2347 667.185 Z" fill="#000000" fill-rule="evenodd" fill-opacity="1" /><path clip-path="url(#clip750)" d="M44.7161 616.928 L47.5806 616.928 L47.5806 643.855 Q53.6281 643.473 56.8109 640.226 Q59.9619 636.948 59.9619 631.123 Q59.9619 627.749 59.1344 624.598 Q58.3069 621.416 56.6518 618.296 L62.1899 618.296 Q63.5267 621.447 64.227 624.758 Q64.9272 628.068 64.9272 631.473 Q64.9272 640.003 59.9619 645.001 Q54.9967 649.966 46.5303 649.966 Q37.7774 649.966 32.6531 645.255 Q27.4968 640.513 27.4968 632.492 Q27.4968 625.299 32.1438 621.129 Q36.7589 616.928 44.7161 616.928 M42.9973 622.784 Q38.1912 622.848 35.3266 625.49 Q32.4621 628.1 32.4621 632.428 Q32.4621 637.33 35.2312 640.29 Q38.0002 643.218 43.0292 643.664 L42.9973 622.784 Z" fill="#000000" fill-rule="evenodd" fill-opacity="1" /><polyline clip-path="url(#clip752)" style="stroke:#0000ff; stroke-linecap:butt; stroke-linejoin:round; stroke-width:4; stroke-opacity:1; fill:none" points="
  1463.75,310.156 1669.48,719.325 
  "/>
<polyline clip-path="url(#clip752)" style="stroke:#0000ff; stroke-linecap:butt; stroke-linejoin:round; stroke-width:4; stroke-opacity:1; fill:none" points="
  1463.75,310.156 1875.21,335.429 
  "/>
<polyline clip-path="url(#clip752)" style="stroke:#0000ff; stroke-linecap:butt; stroke-linejoin:round; stroke-width:4; stroke-opacity:1; fill:none" points="
  1463.75,310.156 434.386,322.974 
  "/>
<polyline clip-path="url(#clip752)" style="stroke:#0000ff; stroke-linecap:butt; stroke-linejoin:round; stroke-width:4; stroke-opacity:1; fill:none" points="
  1463.75,310.156 1463.05,386.157 
  "/>
<polyline clip-path="url(#clip752)" style="stroke:#0000ff; stroke-linecap:butt; stroke-linejoin:round; stroke-width:4; stroke-opacity:1; fill:none" points="
  1669.48,719.325 1875.21,335.429 
  "/>
<polyline clip-path="url(#clip752)" style="stroke:#0000ff; stroke-linecap:butt; stroke-linejoin:round; stroke-width:4; stroke-opacity:1; fill:none" points="
  1669.48,719.325 434.386,322.974 
  "/>
<polyline clip-path="url(#clip752)" style="stroke:#0000ff; stroke-linecap:butt; stroke-linejoin:round; stroke-width:4; stroke-opacity:1; fill:none" points="
  1669.48,719.325 948.719,1345.9 
  "/>
<polyline clip-path="url(#clip752)" style="stroke:#0000ff; stroke-linecap:butt; stroke-linejoin:round; stroke-width:4; stroke-opacity:1; fill:none" points="
  1875.21,335.429 948.719,1345.9 
  "/>
<polyline clip-path="url(#clip752)" style="stroke:#0000ff; stroke-linecap:butt; stroke-linejoin:round; stroke-width:4; stroke-opacity:1; fill:none" points="
  1875.21,335.429 1463.05,386.157 
  "/>
<polyline clip-path="url(#clip752)" style="stroke:#0000ff; stroke-linecap:butt; stroke-linejoin:round; stroke-width:4; stroke-opacity:1; fill:none" points="
  434.386,322.974 948.719,1345.9 
  "/>
<polyline clip-path="url(#clip752)" style="stroke:#0000ff; stroke-linecap:butt; stroke-linejoin:round; stroke-width:4; stroke-opacity:1; fill:none" points="
  434.386,322.974 1463.05,386.157 
  "/>
<polyline clip-path="url(#clip752)" style="stroke:#0000ff; stroke-linecap:butt; stroke-linejoin:round; stroke-width:4; stroke-opacity:1; fill:none" points="
  948.719,1345.9 1463.05,386.157 
  "/>
<circle clip-path="url(#clip752)" cx="1463.75" cy="310.156" r="14" fill="#ffffff" fill-rule="evenodd" fill-opacity="1" stroke="#000000" stroke-opacity="1" stroke-width="3.2"/>
<circle clip-path="url(#clip752)" cx="1669.48" cy="719.325" r="14" fill="#ffffff" fill-rule="evenodd" fill-opacity="1" stroke="#000000" stroke-opacity="1" stroke-width="3.2"/>
<circle clip-path="url(#clip752)" cx="1875.21" cy="335.429" r="14" fill="#ffffff" fill-rule="evenodd" fill-opacity="1" stroke="#000000" stroke-opacity="1" stroke-width="3.2"/>
<circle clip-path="url(#clip752)" cx="434.386" cy="322.974" r="14" fill="#ffffff" fill-rule="evenodd" fill-opacity="1" stroke="#000000" stroke-opacity="1" stroke-width="3.2"/>
<circle clip-path="url(#clip752)" cx="948.719" cy="1345.9" r="14" fill="#ffffff" fill-rule="evenodd" fill-opacity="1" stroke="#000000" stroke-opacity="1" stroke-width="3.2"/>
<circle clip-path="url(#clip752)" cx="1463.05" cy="386.157" r="14" fill="#ffffff" fill-rule="evenodd" fill-opacity="1" stroke="#000000" stroke-opacity="1" stroke-width="3.2"/>
</svg>
