<?xml version="1.0" encoding="utf-8"?>
<svg xmlns="http://www.w3.org/2000/svg" xmlns:xlink="http://www.w3.org/1999/xlink" width="600" height="400" viewBox="0 0 2400 1600">
<defs>
  <clipPath id="clip550">
    <rect x="0" y="0" width="2400" height="1600"/>
  </clipPath>
</defs>
<path clip-path="url(#clip550)" d="
M0 1600 L2400 1600 L2400 0 L0 0  Z
  " fill="#ffffff" fill-rule="evenodd" fill-opacity="1"/>
<defs>
  <clipPath id="clip551">
    <rect x="480" y="0" width="1681" height="1600"/>
  </clipPath>
</defs>
<defs>
  <clipPath id="clip552">
    <rect x="234" y="47" width="2120" height="1377"/>
  </clipPath>
</defs>
<path clip-path="url(#clip552)" d="
M234.125 1341.9 L234.125 291.086 L1009.6 47.2441 L2352.76 128.525 L2352.76 1179.34 L1577.28 1423.18 L234.125 1341.9  Z
  " fill="#ffffff" fill-rule="evenodd" fill-opacity="1"/>
<polyline clip-path="url(#clip552)" style="stroke:#000000; stroke-linecap:butt; stroke-linejoin:round; stroke-width:2; stroke-opacity:0.1; fill:none" points="
  494.238,1357.64 1269.71,1113.8 
  "/>
<polyline clip-path="url(#clip552)" style="stroke:#000000; stroke-linecap:butt; stroke-linejoin:round; stroke-width:2; stroke-opacity:0.1; fill:none" points="
  1269.71,1113.8 1269.71,62.9847 
  "/>
<polyline clip-path="url(#clip552)" style="stroke:#000000; stroke-linecap:butt; stroke-linejoin:round; stroke-width:2; stroke-opacity:0.1; fill:none" points="
  837.127,1378.39 1612.6,1134.55 
  "/>
<polyline clip-path="url(#clip552)" style="stroke:#000000; stroke-linecap:butt; stroke-linejoin:round; stroke-width:2; stroke-opacity:0.1; fill:none" points="
  1612.6,1134.55 1612.6,83.7345 
  "/>
<polyline clip-path="url(#clip552)" style="stroke:#000000; stroke-linecap:butt; stroke-linejoin:round; stroke-width:2; stroke-opacity:0.1; fill:none" points="
  1180.02,1399.14 1955.49,1155.3 
  "/>
<polyline clip-path="url(#clip552)" style="stroke:#000000; stroke-linecap:butt; stroke-linejoin:round; stroke-width:2; stroke-opacity:0.1; fill:none" points="
  1955.49,1155.3 1955.49,104.484 
  "/>
<polyline clip-path="url(#clip552)" style="stroke:#000000; stroke-linecap:butt; stroke-linejoin:round; stroke-width:2; stroke-opacity:0.1; fill:none" points="
  1522.9,1419.89 2298.38,1176.05 
  "/>
<polyline clip-path="url(#clip552)" style="stroke:#000000; stroke-linecap:butt; stroke-linejoin:round; stroke-width:2; stroke-opacity:0.1; fill:none" points="
  2298.38,1176.05 2298.38,125.234 
  "/>
<polyline clip-path="url(#clip550)" style="stroke:#000000; stroke-linecap:butt; stroke-linejoin:round; stroke-width:4; stroke-opacity:1; fill:none" points="
  234.125,1341.9 1577.28,1423.18 
  "/>
<polyline clip-path="url(#clip550)" style="stroke:#000000; stroke-linecap:butt; stroke-linejoin:round; stroke-width:4; stroke-opacity:1; fill:none" points="
  494.238,1357.64 503.544,1354.71 
  "/>
<polyline clip-path="url(#clip550)" style="stroke:#000000; stroke-linecap:butt; stroke-linejoin:round; stroke-width:4; stroke-opacity:1; fill:none" points="
  837.127,1378.39 846.432,1375.46 
  "/>
<polyline clip-path="url(#clip550)" style="stroke:#000000; stroke-linecap:butt; stroke-linejoin:round; stroke-width:4; stroke-opacity:1; fill:none" points="
  1180.02,1399.14 1189.32,1396.21 
  "/>
<polyline clip-path="url(#clip550)" style="stroke:#000000; stroke-linecap:butt; stroke-linejoin:round; stroke-width:4; stroke-opacity:1; fill:none" points="
  1522.9,1419.89 1532.21,1416.96 
  "/>
<path clip-path="url(#clip550)" d="M480.554 1372.19 Q476.943 1372.19 475.114 1375.75 Q473.309 1379.29 473.309 1386.42 Q473.309 1393.53 475.114 1397.09 Q476.943 1400.63 480.554 1400.63 Q484.188 1400.63 485.994 1397.09 Q487.823 1393.53 487.823 1386.42 Q487.823 1379.29 485.994 1375.75 Q484.188 1372.19 480.554 1372.19 M480.554 1368.48 Q486.364 1368.48 489.42 1373.09 Q492.499 1377.67 492.499 1386.42 Q492.499 1395.15 489.42 1399.76 Q486.364 1404.34 480.554 1404.34 Q474.744 1404.34 471.665 1399.76 Q468.61 1395.15 468.61 1386.42 Q468.61 1377.67 471.665 1373.09 Q474.744 1368.48 480.554 1368.48 Z" fill="#000000" fill-rule="evenodd" fill-opacity="1" /><path clip-path="url(#clip550)" d="M783.327 1389.86 L801.684 1389.86 L801.684 1393.79 L787.61 1393.79 L787.61 1402.26 Q788.628 1401.92 789.647 1401.76 Q790.665 1401.57 791.684 1401.57 Q797.471 1401.57 800.85 1404.74 Q804.23 1407.91 804.23 1413.33 Q804.23 1418.91 800.758 1422.01 Q797.285 1425.09 790.966 1425.09 Q788.79 1425.09 786.522 1424.72 Q784.276 1424.35 781.869 1423.61 L781.869 1418.91 Q783.952 1420.04 786.174 1420.6 Q788.397 1421.15 790.873 1421.15 Q794.878 1421.15 797.216 1419.05 Q799.554 1416.94 799.554 1413.33 Q799.554 1409.72 797.216 1407.61 Q794.878 1405.51 790.873 1405.51 Q788.998 1405.51 787.123 1405.92 Q785.272 1406.34 783.327 1407.22 L783.327 1389.86 Z" fill="#000000" fill-rule="evenodd" fill-opacity="1" /><path clip-path="url(#clip550)" d="M823.443 1392.94 Q819.832 1392.94 818.003 1396.5 Q816.197 1400.04 816.197 1407.17 Q816.197 1414.28 818.003 1417.84 Q819.832 1421.38 823.443 1421.38 Q827.077 1421.38 828.882 1417.84 Q830.711 1414.28 830.711 1407.17 Q830.711 1400.04 828.882 1396.5 Q827.077 1392.94 823.443 1392.94 M823.443 1389.23 Q829.253 1389.23 832.308 1393.84 Q835.387 1398.42 835.387 1407.17 Q835.387 1415.9 832.308 1420.5 Q829.253 1425.09 823.443 1425.09 Q817.633 1425.09 814.554 1420.5 Q811.498 1415.9 811.498 1407.17 Q811.498 1398.42 814.554 1393.84 Q817.633 1389.23 823.443 1389.23 Z" fill="#000000" fill-rule="evenodd" fill-opacity="1" /><path clip-path="url(#clip550)" d="M1096.82 1441.23 L1104.46 1441.23 L1104.46 1414.87 L1096.15 1416.53 L1096.15 1412.27 L1104.41 1410.61 L1109.09 1410.61 L1109.09 1441.23 L1116.72 1441.23 L1116.72 1445.17 L1096.82 1445.17 L1096.82 1441.23 Z" fill="#000000" fill-rule="evenodd" fill-opacity="1" /><path clip-path="url(#clip550)" d="M1136.17 1413.69 Q1132.56 1413.69 1130.73 1417.25 Q1128.92 1420.79 1128.92 1427.92 Q1128.92 1435.03 1130.73 1438.59 Q1132.56 1442.13 1136.17 1442.13 Q1139.8 1442.13 1141.61 1438.59 Q1143.44 1435.03 1143.44 1427.92 Q1143.44 1420.79 1141.61 1417.25 Q1139.8 1413.69 1136.17 1413.69 M1136.17 1409.98 Q1141.98 1409.98 1145.03 1414.59 Q1148.11 1419.17 1148.11 1427.92 Q1148.11 1436.65 1145.03 1441.25 Q1141.98 1445.84 1136.17 1445.84 Q1130.36 1445.84 1127.28 1441.25 Q1124.22 1436.65 1124.22 1427.92 Q1124.22 1419.17 1127.28 1414.59 Q1130.36 1409.98 1136.17 1409.98 Z" fill="#000000" fill-rule="evenodd" fill-opacity="1" /><path clip-path="url(#clip550)" d="M1166.33 1413.69 Q1162.72 1413.69 1160.89 1417.25 Q1159.09 1420.79 1159.09 1427.92 Q1159.09 1435.03 1160.89 1438.59 Q1162.72 1442.13 1166.33 1442.13 Q1169.97 1442.13 1171.77 1438.59 Q1173.6 1435.03 1173.6 1427.92 Q1173.6 1420.79 1171.77 1417.25 Q1169.97 1413.69 1166.33 1413.69 M1166.33 1409.98 Q1172.14 1409.98 1175.2 1414.59 Q1178.28 1419.17 1178.28 1427.92 Q1178.28 1436.65 1175.2 1441.25 Q1172.14 1445.84 1166.33 1445.84 Q1160.52 1445.84 1157.44 1441.25 Q1154.39 1436.65 1154.39 1427.92 Q1154.39 1419.17 1157.44 1414.59 Q1160.52 1409.98 1166.33 1409.98 Z" fill="#000000" fill-rule="evenodd" fill-opacity="1" /><path clip-path="url(#clip550)" d="M1439.71 1461.98 L1447.34 1461.98 L1447.34 1435.62 L1439.03 1437.28 L1439.03 1433.02 L1447.3 1431.36 L1451.97 1431.36 L1451.97 1461.98 L1459.61 1461.98 L1459.61 1465.92 L1439.71 1465.92 L1439.71 1461.98 Z" fill="#000000" fill-rule="evenodd" fill-opacity="1" /><path clip-path="url(#clip550)" d="M1469.1 1431.36 L1487.46 1431.36 L1487.46 1435.29 L1473.39 1435.29 L1473.39 1443.76 Q1474.41 1443.42 1475.42 1443.25 Q1476.44 1443.07 1477.46 1443.07 Q1483.25 1443.07 1486.63 1446.24 Q1490.01 1449.41 1490.01 1454.83 Q1490.01 1460.41 1486.53 1463.51 Q1483.06 1466.59 1476.74 1466.59 Q1474.57 1466.59 1472.3 1466.22 Q1470.05 1465.85 1467.65 1465.11 L1467.65 1460.41 Q1469.73 1461.54 1471.95 1462.1 Q1474.17 1462.65 1476.65 1462.65 Q1480.65 1462.65 1482.99 1460.55 Q1485.33 1458.44 1485.33 1454.83 Q1485.33 1451.22 1482.99 1449.11 Q1480.65 1447 1476.65 1447 Q1474.78 1447 1472.9 1447.42 Q1471.05 1447.84 1469.1 1448.72 L1469.1 1431.36 Z" fill="#000000" fill-rule="evenodd" fill-opacity="1" /><path clip-path="url(#clip550)" d="M1509.22 1434.44 Q1505.61 1434.44 1503.78 1438 Q1501.97 1441.54 1501.97 1448.67 Q1501.97 1455.78 1503.78 1459.34 Q1505.61 1462.88 1509.22 1462.88 Q1512.85 1462.88 1514.66 1459.34 Q1516.49 1455.78 1516.49 1448.67 Q1516.49 1441.54 1514.66 1438 Q1512.85 1434.44 1509.22 1434.44 M1509.22 1430.73 Q1515.03 1430.73 1518.09 1435.34 Q1521.16 1439.92 1521.16 1448.67 Q1521.16 1457.4 1518.09 1462 Q1515.03 1466.59 1509.22 1466.59 Q1503.41 1466.59 1500.33 1462 Q1497.28 1457.4 1497.28 1448.67 Q1497.28 1439.92 1500.33 1435.34 Q1503.41 1430.73 1509.22 1430.73 Z" fill="#000000" fill-rule="evenodd" fill-opacity="1" /><path clip-path="url(#clip550)" d="M614.275 1527.04 L601.385 1544.38 L614.944 1562.68 L608.037 1562.68 L597.661 1548.68 L587.285 1562.68 L580.378 1562.68 L594.223 1544.03 L581.555 1527.04 L588.462 1527.04 L597.915 1539.74 L607.368 1527.04 L614.275 1527.04 Z" fill="#000000" fill-rule="evenodd" fill-opacity="1" /><path clip-path="url(#clip550)" d="M620.259 1542.22 L637.414 1542.22 L637.414 1547.44 L620.259 1547.44 L620.259 1542.22 Z" fill="#000000" fill-rule="evenodd" fill-opacity="1" /><path clip-path="url(#clip550)" d="M672.394 1528.4 L672.394 1533.88 Q669.911 1532.51 667.397 1531.84 Q664.914 1531.14 662.368 1531.14 Q656.671 1531.14 653.52 1534.77 Q650.369 1538.37 650.369 1544.89 Q650.369 1551.42 653.52 1555.04 Q656.671 1558.64 662.368 1558.64 Q664.914 1558.64 667.397 1557.97 Q669.911 1557.27 672.394 1555.9 L672.394 1561.31 Q669.943 1562.46 667.301 1563.03 Q664.692 1563.61 661.731 1563.61 Q653.679 1563.61 648.936 1558.55 Q644.194 1553.49 644.194 1544.89 Q644.194 1536.17 648.968 1531.17 Q653.774 1526.18 662.113 1526.18 Q664.819 1526.18 667.397 1526.75 Q669.975 1527.29 672.394 1528.4 Z" fill="#000000" fill-rule="evenodd" fill-opacity="1" /><path clip-path="url(#clip550)" d="M696.393 1531.14 Q691.682 1531.14 688.945 1534.83 Q686.208 1538.49 686.208 1544.89 Q686.208 1551.29 688.913 1554.98 Q691.65 1558.64 696.393 1558.64 Q701.072 1558.64 703.809 1554.95 Q706.546 1551.26 706.546 1544.89 Q706.546 1538.56 703.809 1534.87 Q701.072 1531.14 696.393 1531.14 M696.393 1526.18 Q704.032 1526.18 708.392 1531.14 Q712.753 1536.11 712.753 1544.89 Q712.753 1553.64 708.392 1558.64 Q704.032 1563.61 696.393 1563.61 Q688.722 1563.61 684.362 1558.64 Q680.033 1553.64 680.033 1544.89 Q680.033 1536.11 684.362 1531.14 Q688.722 1526.18 696.393 1526.18 Z" fill="#000000" fill-rule="evenodd" fill-opacity="1" /><path clip-path="url(#clip550)" d="M736.274 1531.14 Q731.563 1531.14 728.826 1534.83 Q726.089 1538.49 726.089 1544.89 Q726.089 1551.29 728.794 1554.98 Q731.531 1558.64 736.274 1558.64 Q740.953 1558.64 743.69 1554.95 Q746.427 1551.26 746.427 1544.89 Q746.427 1538.56 743.69 1534.87 Q740.953 1531.14 736.274 1531.14 M736.274 1526.18 Q743.913 1526.18 748.273 1531.14 Q752.634 1536.11 752.634 1544.89 Q752.634 1553.64 748.273 1558.64 Q743.913 1563.61 736.274 1563.61 Q728.603 1563.61 724.243 1558.64 Q719.914 1553.64 719.914 1544.89 Q719.914 1536.11 724.243 1531.14 Q728.603 1526.18 736.274 1526.18 Z" fill="#000000" fill-rule="evenodd" fill-opacity="1" /><path clip-path="url(#clip550)" d="M782.998 1532.51 Q782.011 1531.94 780.834 1531.68 Q779.688 1531.4 778.288 1531.4 Q773.322 1531.4 770.649 1534.64 Q768.007 1537.86 768.007 1543.9 L768.007 1562.68 L762.119 1562.68 L762.119 1527.04 L768.007 1527.04 L768.007 1532.57 Q769.853 1529.33 772.813 1527.77 Q775.773 1526.18 780.006 1526.18 Q780.611 1526.18 781.343 1526.27 Q782.075 1526.34 782.966 1526.49 L782.998 1532.51 Z" fill="#000000" fill-rule="evenodd" fill-opacity="1" /><path clip-path="url(#clip550)" d="M811.453 1532.45 L811.453 1513.16 L817.309 1513.16 L817.309 1562.68 L811.453 1562.68 L811.453 1557.34 Q809.607 1560.52 806.774 1562.08 Q803.973 1563.61 800.026 1563.61 Q793.565 1563.61 789.491 1558.45 Q785.449 1553.29 785.449 1544.89 Q785.449 1536.49 789.491 1531.33 Q793.565 1526.18 800.026 1526.18 Q803.973 1526.18 806.774 1527.74 Q809.607 1529.26 811.453 1532.45 M791.496 1544.89 Q791.496 1551.35 794.138 1555.04 Q796.812 1558.7 801.459 1558.7 Q806.106 1558.7 808.779 1555.04 Q811.453 1551.35 811.453 1544.89 Q811.453 1538.43 808.779 1534.77 Q806.106 1531.08 801.459 1531.08 Q796.812 1531.08 794.138 1534.77 Q791.496 1538.43 791.496 1544.89 Z" fill="#000000" fill-rule="evenodd" fill-opacity="1" /><path clip-path="url(#clip550)" d="M829.372 1527.04 L835.229 1527.04 L835.229 1562.68 L829.372 1562.68 L829.372 1527.04 M829.372 1513.16 L835.229 1513.16 L835.229 1520.57 L829.372 1520.57 L829.372 1513.16 Z" fill="#000000" fill-rule="evenodd" fill-opacity="1" /><path clip-path="url(#clip550)" d="M877.115 1541.17 L877.115 1562.68 L871.259 1562.68 L871.259 1541.36 Q871.259 1536.3 869.285 1533.78 Q867.312 1531.27 863.365 1531.27 Q858.623 1531.27 855.886 1534.29 Q853.148 1537.32 853.148 1542.54 L853.148 1562.68 L847.26 1562.68 L847.26 1527.04 L853.148 1527.04 L853.148 1532.57 Q855.249 1529.36 858.082 1527.77 Q860.946 1526.18 864.67 1526.18 Q870.813 1526.18 873.964 1530 Q877.115 1533.78 877.115 1541.17 Z" fill="#000000" fill-rule="evenodd" fill-opacity="1" /><path clip-path="url(#clip550)" d="M904.997 1544.76 Q897.899 1544.76 895.162 1546.39 Q892.425 1548.01 892.425 1551.93 Q892.425 1555.04 894.462 1556.89 Q896.531 1558.7 900.064 1558.7 Q904.933 1558.7 907.861 1555.27 Q910.822 1551.8 910.822 1546.07 L910.822 1544.76 L904.997 1544.76 M916.678 1542.35 L916.678 1562.68 L910.822 1562.68 L910.822 1557.27 Q908.816 1560.52 905.824 1562.08 Q902.833 1563.61 898.504 1563.61 Q893.029 1563.61 889.783 1560.55 Q886.568 1557.46 886.568 1552.31 Q886.568 1546.29 890.579 1543.24 Q894.621 1540.18 902.61 1540.18 L910.822 1540.18 L910.822 1539.61 Q910.822 1535.57 908.148 1533.37 Q905.506 1531.14 900.7 1531.14 Q897.645 1531.14 894.748 1531.87 Q891.852 1532.61 889.178 1534.07 L889.178 1528.66 Q892.393 1527.42 895.417 1526.81 Q898.44 1526.18 901.305 1526.18 Q909.039 1526.18 912.859 1530.19 Q916.678 1534.2 916.678 1542.35 Z" fill="#000000" fill-rule="evenodd" fill-opacity="1" /><path clip-path="url(#clip550)" d="M934.534 1516.91 L934.534 1527.04 L946.597 1527.04 L946.597 1531.59 L934.534 1531.59 L934.534 1550.94 Q934.534 1555.3 935.711 1556.54 Q936.921 1557.78 940.581 1557.78 L946.597 1557.78 L946.597 1562.68 L940.581 1562.68 Q933.802 1562.68 931.224 1560.17 Q928.646 1557.62 928.646 1550.94 L928.646 1531.59 L924.349 1531.59 L924.349 1527.04 L928.646 1527.04 L928.646 1516.91 L934.534 1516.91 Z" fill="#000000" fill-rule="evenodd" fill-opacity="1" /><path clip-path="url(#clip550)" d="M984.791 1543.4 L984.791 1546.26 L957.864 1546.26 Q958.246 1552.31 961.493 1555.49 Q964.771 1558.64 970.596 1558.64 Q973.969 1558.64 977.12 1557.81 Q980.303 1556.99 983.422 1555.33 L983.422 1560.87 Q980.271 1562.21 976.961 1562.91 Q973.651 1563.61 970.245 1563.61 Q961.715 1563.61 956.718 1558.64 Q951.753 1553.68 951.753 1545.21 Q951.753 1536.46 956.464 1531.33 Q961.206 1526.18 969.227 1526.18 Q976.42 1526.18 980.59 1530.82 Q984.791 1535.44 984.791 1543.4 M978.935 1541.68 Q978.871 1536.87 976.229 1534.01 Q973.619 1531.14 969.291 1531.14 Q964.389 1531.14 961.429 1533.91 Q958.501 1536.68 958.055 1541.71 L978.935 1541.68 Z" fill="#000000" fill-rule="evenodd" fill-opacity="1" /><polyline clip-path="url(#clip552)" style="stroke:#000000; stroke-linecap:butt; stroke-linejoin:round; stroke-width:2; stroke-opacity:0.1; fill:none" points="
  1599.23,1416.28 256.073,1335 
  "/>
<polyline clip-path="url(#clip552)" style="stroke:#000000; stroke-linecap:butt; stroke-linejoin:round; stroke-width:2; stroke-opacity:0.1; fill:none" points="
  256.073,1335 256.073,284.185 
  "/>
<polyline clip-path="url(#clip552)" style="stroke:#000000; stroke-linecap:butt; stroke-linejoin:round; stroke-width:2; stroke-opacity:0.1; fill:none" points="
  1751.64,1368.35 408.485,1287.07 
  "/>
<polyline clip-path="url(#clip552)" style="stroke:#000000; stroke-linecap:butt; stroke-linejoin:round; stroke-width:2; stroke-opacity:0.1; fill:none" points="
  408.485,1287.07 408.485,236.26 
  "/>
<polyline clip-path="url(#clip552)" style="stroke:#000000; stroke-linecap:butt; stroke-linejoin:round; stroke-width:2; stroke-opacity:0.1; fill:none" points="
  1904.05,1320.43 560.897,1239.15 
  "/>
<polyline clip-path="url(#clip552)" style="stroke:#000000; stroke-linecap:butt; stroke-linejoin:round; stroke-width:2; stroke-opacity:0.1; fill:none" points="
  560.897,1239.15 560.897,188.335 
  "/>
<polyline clip-path="url(#clip552)" style="stroke:#000000; stroke-linecap:butt; stroke-linejoin:round; stroke-width:2; stroke-opacity:0.1; fill:none" points="
  2056.47,1272.5 713.309,1191.22 
  "/>
<polyline clip-path="url(#clip552)" style="stroke:#000000; stroke-linecap:butt; stroke-linejoin:round; stroke-width:2; stroke-opacity:0.1; fill:none" points="
  713.309,1191.22 713.309,140.41 
  "/>
<polyline clip-path="url(#clip552)" style="stroke:#000000; stroke-linecap:butt; stroke-linejoin:round; stroke-width:2; stroke-opacity:0.1; fill:none" points="
  2208.88,1224.58 865.721,1143.3 
  "/>
<polyline clip-path="url(#clip552)" style="stroke:#000000; stroke-linecap:butt; stroke-linejoin:round; stroke-width:2; stroke-opacity:0.1; fill:none" points="
  865.721,1143.3 865.721,92.4852 
  "/>
<polyline clip-path="url(#clip550)" style="stroke:#000000; stroke-linecap:butt; stroke-linejoin:round; stroke-width:4; stroke-opacity:1; fill:none" points="
  1577.28,1423.18 2352.76,1179.34 
  "/>
<polyline clip-path="url(#clip550)" style="stroke:#000000; stroke-linecap:butt; stroke-linejoin:round; stroke-width:4; stroke-opacity:1; fill:none" points="
  1599.23,1416.28 1583.11,1415.3 
  "/>
<polyline clip-path="url(#clip550)" style="stroke:#000000; stroke-linecap:butt; stroke-linejoin:round; stroke-width:4; stroke-opacity:1; fill:none" points="
  1751.64,1368.35 1735.52,1367.38 
  "/>
<polyline clip-path="url(#clip550)" style="stroke:#000000; stroke-linecap:butt; stroke-linejoin:round; stroke-width:4; stroke-opacity:1; fill:none" points="
  1904.05,1320.43 1887.94,1319.45 
  "/>
<polyline clip-path="url(#clip550)" style="stroke:#000000; stroke-linecap:butt; stroke-linejoin:round; stroke-width:4; stroke-opacity:1; fill:none" points="
  2056.47,1272.5 2040.35,1271.53 
  "/>
<polyline clip-path="url(#clip550)" style="stroke:#000000; stroke-linecap:butt; stroke-linejoin:round; stroke-width:4; stroke-opacity:1; fill:none" points="
  2208.88,1224.58 2192.76,1223.6 
  "/>
<path clip-path="url(#clip550)" d="M1619.81 1429.55 Q1616.2 1429.55 1614.37 1433.12 Q1612.57 1436.66 1612.57 1443.79 Q1612.57 1450.89 1614.37 1454.46 Q1616.2 1458 1619.81 1458 Q1623.45 1458 1625.25 1454.46 Q1627.08 1450.89 1627.08 1443.79 Q1627.08 1436.66 1625.25 1433.12 Q1623.45 1429.55 1619.81 1429.55 M1619.81 1425.85 Q1625.62 1425.85 1628.68 1430.45 Q1631.76 1435.04 1631.76 1443.79 Q1631.76 1452.51 1628.68 1457.12 Q1625.62 1461.7 1619.81 1461.7 Q1614 1461.7 1610.93 1457.12 Q1607.87 1452.51 1607.87 1443.79 Q1607.87 1435.04 1610.93 1430.45 Q1614 1425.85 1619.81 1425.85 Z" fill="#000000" fill-rule="evenodd" fill-opacity="1" /><path clip-path="url(#clip550)" d="M1765.91 1409.17 L1782.23 1409.17 L1782.23 1413.11 L1760.28 1413.11 L1760.28 1409.17 Q1762.94 1406.42 1767.53 1401.79 Q1772.13 1397.14 1773.31 1395.79 Q1775.56 1393.27 1776.44 1391.53 Q1777.34 1389.77 1777.34 1388.08 Q1777.34 1385.33 1775.4 1383.59 Q1773.48 1381.86 1770.37 1381.86 Q1768.18 1381.86 1765.72 1382.62 Q1763.29 1383.39 1760.51 1384.94 L1760.51 1380.21 Q1763.34 1379.08 1765.79 1378.5 Q1768.24 1377.92 1770.28 1377.92 Q1775.65 1377.92 1778.85 1380.61 Q1782.04 1383.29 1782.04 1387.78 Q1782.04 1389.91 1781.23 1391.83 Q1780.44 1393.73 1778.34 1396.33 Q1777.76 1397 1774.66 1400.21 Q1771.55 1403.41 1765.91 1409.17 Z" fill="#000000" fill-rule="evenodd" fill-opacity="1" /><path clip-path="url(#clip550)" d="M1792.09 1378.55 L1810.44 1378.55 L1810.44 1382.48 L1796.37 1382.48 L1796.37 1390.95 Q1797.39 1390.61 1798.41 1390.45 Q1799.42 1390.26 1800.44 1390.26 Q1806.23 1390.26 1809.61 1393.43 Q1812.99 1396.6 1812.99 1402.02 Q1812.99 1407.6 1809.52 1410.7 Q1806.05 1413.78 1799.73 1413.78 Q1797.55 1413.78 1795.28 1413.41 Q1793.04 1413.04 1790.63 1412.3 L1790.63 1407.6 Q1792.71 1408.73 1794.93 1409.29 Q1797.16 1409.84 1799.63 1409.84 Q1803.64 1409.84 1805.98 1407.74 Q1808.31 1405.63 1808.31 1402.02 Q1808.31 1398.41 1805.98 1396.3 Q1803.64 1394.2 1799.63 1394.2 Q1797.76 1394.2 1795.88 1394.61 Q1794.03 1395.03 1792.09 1395.91 L1792.09 1378.55 Z" fill="#000000" fill-rule="evenodd" fill-opacity="1" /><path clip-path="url(#clip550)" d="M1914.15 1330.62 L1932.51 1330.62 L1932.51 1334.56 L1918.43 1334.56 L1918.43 1343.03 Q1919.45 1342.68 1920.47 1342.52 Q1921.49 1342.34 1922.51 1342.34 Q1928.3 1342.34 1931.68 1345.51 Q1935.05 1348.68 1935.05 1354.09 Q1935.05 1359.67 1931.58 1362.78 Q1928.11 1365.85 1921.79 1365.85 Q1919.61 1365.85 1917.35 1365.48 Q1915.1 1365.11 1912.69 1364.37 L1912.69 1359.67 Q1914.78 1360.81 1917 1361.36 Q1919.22 1361.92 1921.7 1361.92 Q1925.7 1361.92 1928.04 1359.81 Q1930.38 1357.71 1930.38 1354.09 Q1930.38 1350.48 1928.04 1348.38 Q1925.7 1346.27 1921.7 1346.27 Q1919.82 1346.27 1917.95 1346.69 Q1916.1 1347.1 1914.15 1347.98 L1914.15 1330.62 Z" fill="#000000" fill-rule="evenodd" fill-opacity="1" /><path clip-path="url(#clip550)" d="M1954.27 1333.7 Q1950.66 1333.7 1948.83 1337.27 Q1947.02 1340.81 1947.02 1347.94 Q1947.02 1355.04 1948.83 1358.61 Q1950.66 1362.15 1954.27 1362.15 Q1957.9 1362.15 1959.71 1358.61 Q1961.54 1355.04 1961.54 1347.94 Q1961.54 1340.81 1959.71 1337.27 Q1957.9 1333.7 1954.27 1333.7 M1954.27 1330 Q1960.08 1330 1963.13 1334.6 Q1966.21 1339.19 1966.21 1347.94 Q1966.21 1356.66 1963.13 1361.27 Q1960.08 1365.85 1954.27 1365.85 Q1948.46 1365.85 1945.38 1361.27 Q1942.32 1356.66 1942.32 1347.94 Q1942.32 1339.19 1945.38 1334.6 Q1948.46 1330 1954.27 1330 Z" fill="#000000" fill-rule="evenodd" fill-opacity="1" /><path clip-path="url(#clip550)" d="M2065.11 1282.7 L2087.33 1282.7 L2087.33 1284.69 L2074.78 1317.26 L2069.9 1317.26 L2081.7 1286.63 L2065.11 1286.63 L2065.11 1282.7 Z" fill="#000000" fill-rule="evenodd" fill-opacity="1" /><path clip-path="url(#clip550)" d="M2096.49 1282.7 L2114.85 1282.7 L2114.85 1286.63 L2100.78 1286.63 L2100.78 1295.11 Q2101.8 1294.76 2102.81 1294.6 Q2103.83 1294.41 2104.85 1294.41 Q2110.64 1294.41 2114.02 1297.58 Q2117.4 1300.75 2117.4 1306.17 Q2117.4 1311.75 2113.92 1314.85 Q2110.45 1317.93 2104.13 1317.93 Q2101.96 1317.93 2099.69 1317.56 Q2097.44 1317.19 2095.04 1316.45 L2095.04 1311.75 Q2097.12 1312.88 2099.34 1313.44 Q2101.56 1313.99 2104.04 1313.99 Q2108.05 1313.99 2110.38 1311.89 Q2112.72 1309.78 2112.72 1306.17 Q2112.72 1302.56 2110.38 1300.45 Q2108.05 1298.35 2104.04 1298.35 Q2102.17 1298.35 2100.29 1298.76 Q2098.44 1299.18 2096.49 1300.06 L2096.49 1282.7 Z" fill="#000000" fill-rule="evenodd" fill-opacity="1" /><path clip-path="url(#clip550)" d="M2218.19 1265.4 L2225.83 1265.4 L2225.83 1239.03 L2217.52 1240.7 L2217.52 1236.44 L2225.78 1234.77 L2230.46 1234.77 L2230.46 1265.4 L2238.1 1265.4 L2238.1 1269.33 L2218.19 1269.33 L2218.19 1265.4 Z" fill="#000000" fill-rule="evenodd" fill-opacity="1" /><path clip-path="url(#clip550)" d="M2257.54 1237.85 Q2253.93 1237.85 2252.1 1241.42 Q2250.3 1244.96 2250.3 1252.09 Q2250.3 1259.19 2252.1 1262.76 Q2253.93 1266.3 2257.54 1266.3 Q2261.18 1266.3 2262.98 1262.76 Q2264.81 1259.19 2264.81 1252.09 Q2264.81 1244.96 2262.98 1241.42 Q2261.18 1237.85 2257.54 1237.85 M2257.54 1234.15 Q2263.35 1234.15 2266.41 1238.75 Q2269.49 1243.34 2269.49 1252.09 Q2269.49 1260.81 2266.41 1265.42 Q2263.35 1270 2257.54 1270 Q2251.73 1270 2248.65 1265.42 Q2245.6 1260.81 2245.6 1252.09 Q2245.6 1243.34 2248.65 1238.75 Q2251.73 1234.15 2257.54 1234.15 Z" fill="#000000" fill-rule="evenodd" fill-opacity="1" /><path clip-path="url(#clip550)" d="M2287.7 1237.85 Q2284.09 1237.85 2282.26 1241.42 Q2280.46 1244.96 2280.46 1252.09 Q2280.46 1259.19 2282.26 1262.76 Q2284.09 1266.3 2287.7 1266.3 Q2291.34 1266.3 2293.14 1262.76 Q2294.97 1259.19 2294.97 1252.09 Q2294.97 1244.96 2293.14 1241.42 Q2291.34 1237.85 2287.7 1237.85 M2287.7 1234.15 Q2293.51 1234.15 2296.57 1238.75 Q2299.65 1243.34 2299.65 1252.09 Q2299.65 1260.81 2296.57 1265.42 Q2293.51 1270 2287.7 1270 Q2281.89 1270 2278.81 1265.42 Q2275.76 1260.81 2275.76 1252.09 Q2275.76 1243.34 2278.81 1238.75 Q2281.89 1234.15 2287.7 1234.15 Z" fill="#000000" fill-rule="evenodd" fill-opacity="1" /><path clip-path="url(#clip550)" d="M1905.57 1484.71 Q1903.09 1491.08 1900.73 1493.02 Q1898.38 1494.96 1894.43 1494.96 L1889.75 1494.96 L1889.75 1490.06 L1893.19 1490.06 Q1895.61 1490.06 1896.95 1488.91 Q1898.28 1487.77 1899.91 1483.5 L1900.96 1480.83 L1886.54 1445.75 L1892.74 1445.75 L1903.88 1473.64 L1915.02 1445.75 L1921.23 1445.75 L1905.57 1484.71 Z" fill="#000000" fill-rule="evenodd" fill-opacity="1" /><path clip-path="url(#clip550)" d="M1925.21 1460.94 L1942.36 1460.94 L1942.36 1466.16 L1925.21 1466.16 L1925.21 1460.94 Z" fill="#000000" fill-rule="evenodd" fill-opacity="1" /><path clip-path="url(#clip550)" d="M1977.34 1447.12 L1977.34 1452.6 Q1974.86 1451.23 1972.35 1450.56 Q1969.86 1449.86 1967.32 1449.86 Q1961.62 1449.86 1958.47 1453.49 Q1955.32 1457.09 1955.32 1463.61 Q1955.32 1470.14 1958.47 1473.76 Q1961.62 1477.36 1967.32 1477.36 Q1969.86 1477.36 1972.35 1476.69 Q1974.86 1475.99 1977.34 1474.62 L1977.34 1480.03 Q1974.89 1481.18 1972.25 1481.75 Q1969.64 1482.33 1966.68 1482.33 Q1958.63 1482.33 1953.89 1477.27 Q1949.14 1472.2 1949.14 1463.61 Q1949.14 1454.89 1953.92 1449.89 Q1958.72 1444.9 1967.06 1444.9 Q1969.77 1444.9 1972.35 1445.47 Q1974.93 1446.01 1977.34 1447.12 Z" fill="#000000" fill-rule="evenodd" fill-opacity="1" /><path clip-path="url(#clip550)" d="M2001.34 1449.86 Q1996.63 1449.86 1993.9 1453.55 Q1991.16 1457.21 1991.16 1463.61 Q1991.16 1470.01 1993.86 1473.7 Q1996.6 1477.36 2001.34 1477.36 Q2006.02 1477.36 2008.76 1473.67 Q2011.5 1469.98 2011.5 1463.61 Q2011.5 1457.28 2008.76 1453.58 Q2006.02 1449.86 2001.34 1449.86 M2001.34 1444.9 Q2008.98 1444.9 2013.34 1449.86 Q2017.7 1454.83 2017.7 1463.61 Q2017.7 1472.36 2013.34 1477.36 Q2008.98 1482.33 2001.34 1482.33 Q1993.67 1482.33 1989.31 1477.36 Q1984.98 1472.36 1984.98 1463.61 Q1984.98 1454.83 1989.31 1449.86 Q1993.67 1444.9 2001.34 1444.9 Z" fill="#000000" fill-rule="evenodd" fill-opacity="1" /><path clip-path="url(#clip550)" d="M2041.22 1449.86 Q2036.51 1449.86 2033.78 1453.55 Q2031.04 1457.21 2031.04 1463.61 Q2031.04 1470.01 2033.74 1473.7 Q2036.48 1477.36 2041.22 1477.36 Q2045.9 1477.36 2048.64 1473.67 Q2051.38 1469.98 2051.38 1463.61 Q2051.38 1457.28 2048.64 1453.58 Q2045.9 1449.86 2041.22 1449.86 M2041.22 1444.9 Q2048.86 1444.9 2053.22 1449.86 Q2057.58 1454.83 2057.58 1463.61 Q2057.58 1472.36 2053.22 1477.36 Q2048.86 1482.33 2041.22 1482.33 Q2033.55 1482.33 2029.19 1477.36 Q2024.86 1472.36 2024.86 1463.61 Q2024.86 1454.83 2029.19 1449.86 Q2033.55 1444.9 2041.22 1444.9 Z" fill="#000000" fill-rule="evenodd" fill-opacity="1" /><path clip-path="url(#clip550)" d="M2087.95 1451.23 Q2086.96 1450.66 2085.78 1450.4 Q2084.64 1450.12 2083.24 1450.12 Q2078.27 1450.12 2075.6 1453.36 Q2072.96 1456.58 2072.96 1462.62 L2072.96 1481.4 L2067.07 1481.4 L2067.07 1445.75 L2072.96 1445.75 L2072.96 1451.29 Q2074.8 1448.05 2077.76 1446.49 Q2080.72 1444.9 2084.96 1444.9 Q2085.56 1444.9 2086.29 1444.99 Q2087.03 1445.05 2087.92 1445.21 L2087.95 1451.23 Z" fill="#000000" fill-rule="evenodd" fill-opacity="1" /><path clip-path="url(#clip550)" d="M2116.4 1451.17 L2116.4 1431.88 L2122.26 1431.88 L2122.26 1481.4 L2116.4 1481.4 L2116.4 1476.06 Q2114.56 1479.24 2111.72 1480.8 Q2108.92 1482.33 2104.98 1482.33 Q2098.52 1482.33 2094.44 1477.17 Q2090.4 1472.01 2090.4 1463.61 Q2090.4 1455.21 2094.44 1450.05 Q2098.52 1444.9 2104.98 1444.9 Q2108.92 1444.9 2111.72 1446.46 Q2114.56 1447.98 2116.4 1451.17 M2096.45 1463.61 Q2096.45 1470.07 2099.09 1473.76 Q2101.76 1477.42 2106.41 1477.42 Q2111.06 1477.42 2113.73 1473.76 Q2116.4 1470.07 2116.4 1463.61 Q2116.4 1457.15 2113.73 1453.49 Q2111.06 1449.8 2106.41 1449.8 Q2101.76 1449.8 2099.09 1453.49 Q2096.45 1457.15 2096.45 1463.61 Z" fill="#000000" fill-rule="evenodd" fill-opacity="1" /><path clip-path="url(#clip550)" d="M2134.32 1445.75 L2140.18 1445.75 L2140.18 1481.4 L2134.32 1481.4 L2134.32 1445.75 M2134.32 1431.88 L2140.18 1431.88 L2140.18 1439.29 L2134.32 1439.29 L2134.32 1431.88 Z" fill="#000000" fill-rule="evenodd" fill-opacity="1" /><path clip-path="url(#clip550)" d="M2182.07 1459.89 L2182.07 1481.4 L2176.21 1481.4 L2176.21 1460.08 Q2176.21 1455.02 2174.24 1452.5 Q2172.26 1449.99 2168.32 1449.99 Q2163.57 1449.99 2160.84 1453.01 Q2158.1 1456.04 2158.1 1461.26 L2158.1 1481.4 L2152.21 1481.4 L2152.21 1445.75 L2158.1 1445.75 L2158.1 1451.29 Q2160.2 1448.08 2163.03 1446.49 Q2165.9 1444.9 2169.62 1444.9 Q2175.76 1444.9 2178.91 1448.71 Q2182.07 1452.5 2182.07 1459.89 Z" fill="#000000" fill-rule="evenodd" fill-opacity="1" /><path clip-path="url(#clip550)" d="M2209.95 1463.48 Q2202.85 1463.48 2200.11 1465.11 Q2197.38 1466.73 2197.38 1470.64 Q2197.38 1473.76 2199.41 1475.61 Q2201.48 1477.42 2205.01 1477.42 Q2209.88 1477.42 2212.81 1473.99 Q2215.77 1470.52 2215.77 1464.79 L2215.77 1463.48 L2209.95 1463.48 M2221.63 1461.06 L2221.63 1481.4 L2215.77 1481.4 L2215.77 1475.99 Q2213.77 1479.24 2210.77 1480.8 Q2207.78 1482.33 2203.45 1482.33 Q2197.98 1482.33 2194.73 1479.27 Q2191.52 1476.18 2191.52 1471.03 Q2191.52 1465.01 2195.53 1461.96 Q2199.57 1458.9 2207.56 1458.9 L2215.77 1458.9 L2215.77 1458.33 Q2215.77 1454.28 2213.1 1452.09 Q2210.46 1449.86 2205.65 1449.86 Q2202.6 1449.86 2199.7 1450.59 Q2196.8 1451.32 2194.13 1452.79 L2194.13 1447.38 Q2197.34 1446.14 2200.37 1445.53 Q2203.39 1444.9 2206.26 1444.9 Q2213.99 1444.9 2217.81 1448.91 Q2221.63 1452.92 2221.63 1461.06 Z" fill="#000000" fill-rule="evenodd" fill-opacity="1" /><path clip-path="url(#clip550)" d="M2239.48 1435.63 L2239.48 1445.75 L2251.55 1445.75 L2251.55 1450.31 L2239.48 1450.31 L2239.48 1469.66 Q2239.48 1474.02 2240.66 1475.26 Q2241.87 1476.5 2245.53 1476.5 L2251.55 1476.5 L2251.55 1481.4 L2245.53 1481.4 Q2238.75 1481.4 2236.17 1478.89 Q2233.6 1476.34 2233.6 1469.66 L2233.6 1450.31 L2229.3 1450.31 L2229.3 1445.75 L2233.6 1445.75 L2233.6 1435.63 L2239.48 1435.63 Z" fill="#000000" fill-rule="evenodd" fill-opacity="1" /><path clip-path="url(#clip550)" d="M2289.74 1462.11 L2289.74 1464.98 L2262.81 1464.98 Q2263.2 1471.03 2266.44 1474.21 Q2269.72 1477.36 2275.55 1477.36 Q2278.92 1477.36 2282.07 1476.53 Q2285.25 1475.71 2288.37 1474.05 L2288.37 1479.59 Q2285.22 1480.93 2281.91 1481.63 Q2278.6 1482.33 2275.2 1482.33 Q2266.67 1482.33 2261.67 1477.36 Q2256.7 1472.4 2256.7 1463.93 Q2256.7 1455.18 2261.41 1450.05 Q2266.16 1444.9 2274.18 1444.9 Q2281.37 1444.9 2285.54 1449.54 Q2289.74 1454.16 2289.74 1462.11 M2283.89 1460.4 Q2283.82 1455.59 2281.18 1452.73 Q2278.57 1449.86 2274.24 1449.86 Q2269.34 1449.86 2266.38 1452.63 Q2263.45 1455.4 2263.01 1460.43 L2283.89 1460.4 Z" fill="#000000" fill-rule="evenodd" fill-opacity="1" /><polyline clip-path="url(#clip552)" style="stroke:#000000; stroke-linecap:butt; stroke-linejoin:round; stroke-width:2; stroke-opacity:0.1; fill:none" points="
  234.125,1312.16 1009.6,1068.32 
  "/>
<polyline clip-path="url(#clip552)" style="stroke:#000000; stroke-linecap:butt; stroke-linejoin:round; stroke-width:2; stroke-opacity:0.1; fill:none" points="
  1009.6,1068.32 2352.76,1149.6 
  "/>
<polyline clip-path="url(#clip552)" style="stroke:#000000; stroke-linecap:butt; stroke-linejoin:round; stroke-width:2; stroke-opacity:0.1; fill:none" points="
  234.125,1105.63 1009.6,861.789 
  "/>
<polyline clip-path="url(#clip552)" style="stroke:#000000; stroke-linecap:butt; stroke-linejoin:round; stroke-width:2; stroke-opacity:0.1; fill:none" points="
  1009.6,861.789 2352.76,943.07 
  "/>
<polyline clip-path="url(#clip552)" style="stroke:#000000; stroke-linecap:butt; stroke-linejoin:round; stroke-width:2; stroke-opacity:0.1; fill:none" points="
  234.125,899.104 1009.6,655.262 
  "/>
<polyline clip-path="url(#clip552)" style="stroke:#000000; stroke-linecap:butt; stroke-linejoin:round; stroke-width:2; stroke-opacity:0.1; fill:none" points="
  1009.6,655.262 2352.76,736.542 
  "/>
<polyline clip-path="url(#clip552)" style="stroke:#000000; stroke-linecap:butt; stroke-linejoin:round; stroke-width:2; stroke-opacity:0.1; fill:none" points="
  234.125,692.576 1009.6,448.734 
  "/>
<polyline clip-path="url(#clip552)" style="stroke:#000000; stroke-linecap:butt; stroke-linejoin:round; stroke-width:2; stroke-opacity:0.1; fill:none" points="
  1009.6,448.734 2352.76,530.015 
  "/>
<polyline clip-path="url(#clip552)" style="stroke:#000000; stroke-linecap:butt; stroke-linejoin:round; stroke-width:2; stroke-opacity:0.1; fill:none" points="
  234.125,486.048 1009.6,242.206 
  "/>
<polyline clip-path="url(#clip552)" style="stroke:#000000; stroke-linecap:butt; stroke-linejoin:round; stroke-width:2; stroke-opacity:0.1; fill:none" points="
  1009.6,242.206 2352.76,323.487 
  "/>
<polyline clip-path="url(#clip550)" style="stroke:#000000; stroke-linecap:butt; stroke-linejoin:round; stroke-width:4; stroke-opacity:1; fill:none" points="
  234.125,1341.9 234.125,291.086 
  "/>
<polyline clip-path="url(#clip550)" style="stroke:#000000; stroke-linecap:butt; stroke-linejoin:round; stroke-width:4; stroke-opacity:1; fill:none" points="
  234.125,1312.16 243.431,1309.23 
  "/>
<polyline clip-path="url(#clip550)" style="stroke:#000000; stroke-linecap:butt; stroke-linejoin:round; stroke-width:4; stroke-opacity:1; fill:none" points="
  234.125,1105.63 243.431,1102.71 
  "/>
<polyline clip-path="url(#clip550)" style="stroke:#000000; stroke-linecap:butt; stroke-linejoin:round; stroke-width:4; stroke-opacity:1; fill:none" points="
  234.125,899.104 243.431,896.178 
  "/>
<polyline clip-path="url(#clip550)" style="stroke:#000000; stroke-linecap:butt; stroke-linejoin:round; stroke-width:4; stroke-opacity:1; fill:none" points="
  234.125,692.576 243.431,689.65 
  "/>
<polyline clip-path="url(#clip550)" style="stroke:#000000; stroke-linecap:butt; stroke-linejoin:round; stroke-width:4; stroke-opacity:1; fill:none" points="
  234.125,486.048 243.431,483.122 
  "/>
<path clip-path="url(#clip550)" d="M193.381 1297.96 Q189.77 1297.96 187.941 1301.52 Q186.136 1305.06 186.136 1312.19 Q186.136 1319.3 187.941 1322.87 Q189.77 1326.41 193.381 1326.41 Q197.015 1326.41 198.821 1322.87 Q200.65 1319.3 200.65 1312.19 Q200.65 1305.06 198.821 1301.52 Q197.015 1297.96 193.381 1297.96 M193.381 1294.25 Q199.191 1294.25 202.247 1298.86 Q205.325 1303.44 205.325 1312.19 Q205.325 1320.92 202.247 1325.53 Q199.191 1330.11 193.381 1330.11 Q187.571 1330.11 184.492 1325.53 Q181.437 1320.92 181.437 1312.19 Q181.437 1303.44 184.492 1298.86 Q187.571 1294.25 193.381 1294.25 Z" fill="#000000" fill-rule="evenodd" fill-opacity="1" /><path clip-path="url(#clip550)" d="M153.266 1088.35 L171.622 1088.35 L171.622 1092.29 L157.548 1092.29 L157.548 1100.76 Q158.566 1100.41 159.585 1100.25 Q160.603 1100.06 161.622 1100.06 Q167.409 1100.06 170.789 1103.24 Q174.168 1106.41 174.168 1111.82 Q174.168 1117.4 170.696 1120.5 Q167.224 1123.58 160.904 1123.58 Q158.728 1123.58 156.46 1123.21 Q154.215 1122.84 151.807 1122.1 L151.807 1117.4 Q153.891 1118.54 156.113 1119.09 Q158.335 1119.65 160.812 1119.65 Q164.816 1119.65 167.154 1117.54 Q169.492 1115.43 169.492 1111.82 Q169.492 1108.21 167.154 1106.11 Q164.816 1104 160.812 1104 Q158.937 1104 157.062 1104.42 Q155.21 1104.83 153.266 1105.71 L153.266 1088.35 Z" fill="#000000" fill-rule="evenodd" fill-opacity="1" /><path clip-path="url(#clip550)" d="M193.381 1091.43 Q189.77 1091.43 187.941 1094.99 Q186.136 1098.54 186.136 1105.67 Q186.136 1112.77 187.941 1116.34 Q189.77 1119.88 193.381 1119.88 Q197.015 1119.88 198.821 1116.34 Q200.65 1112.77 200.65 1105.67 Q200.65 1098.54 198.821 1094.99 Q197.015 1091.43 193.381 1091.43 M193.381 1087.73 Q199.191 1087.73 202.247 1092.33 Q205.325 1096.92 205.325 1105.67 Q205.325 1114.39 202.247 1119 Q199.191 1123.58 193.381 1123.58 Q187.571 1123.58 184.492 1119 Q181.437 1114.39 181.437 1105.67 Q181.437 1096.92 184.492 1092.33 Q187.571 1087.73 193.381 1087.73 Z" fill="#000000" fill-rule="evenodd" fill-opacity="1" /><path clip-path="url(#clip550)" d="M123.868 912.449 L131.506 912.449 L131.506 886.083 L123.196 887.75 L123.196 883.49 L131.46 881.824 L136.136 881.824 L136.136 912.449 L143.775 912.449 L143.775 916.384 L123.868 916.384 L123.868 912.449 Z" fill="#000000" fill-rule="evenodd" fill-opacity="1" /><path clip-path="url(#clip550)" d="M163.219 884.902 Q159.608 884.902 157.779 888.467 Q155.974 892.009 155.974 899.138 Q155.974 906.245 157.779 909.81 Q159.608 913.351 163.219 913.351 Q166.853 913.351 168.659 909.81 Q170.488 906.245 170.488 899.138 Q170.488 892.009 168.659 888.467 Q166.853 884.902 163.219 884.902 M163.219 881.199 Q169.029 881.199 172.085 885.805 Q175.164 890.388 175.164 899.138 Q175.164 907.865 172.085 912.472 Q169.029 917.055 163.219 917.055 Q157.409 917.055 154.33 912.472 Q151.275 907.865 151.275 899.138 Q151.275 890.388 154.33 885.805 Q157.409 881.199 163.219 881.199 Z" fill="#000000" fill-rule="evenodd" fill-opacity="1" /><path clip-path="url(#clip550)" d="M193.381 884.902 Q189.77 884.902 187.941 888.467 Q186.136 892.009 186.136 899.138 Q186.136 906.245 187.941 909.81 Q189.77 913.351 193.381 913.351 Q197.015 913.351 198.821 909.81 Q200.65 906.245 200.65 899.138 Q200.65 892.009 198.821 888.467 Q197.015 884.902 193.381 884.902 M193.381 881.199 Q199.191 881.199 202.247 885.805 Q205.325 890.388 205.325 899.138 Q205.325 907.865 202.247 912.472 Q199.191 917.055 193.381 917.055 Q187.571 917.055 184.492 912.472 Q181.437 907.865 181.437 899.138 Q181.437 890.388 184.492 885.805 Q187.571 881.199 193.381 881.199 Z" fill="#000000" fill-rule="evenodd" fill-opacity="1" /><path clip-path="url(#clip550)" d="M123.868 705.921 L131.506 705.921 L131.506 679.555 L123.196 681.222 L123.196 676.963 L131.46 675.296 L136.136 675.296 L136.136 705.921 L143.775 705.921 L143.775 709.856 L123.868 709.856 L123.868 705.921 Z" fill="#000000" fill-rule="evenodd" fill-opacity="1" /><path clip-path="url(#clip550)" d="M153.266 675.296 L171.622 675.296 L171.622 679.231 L157.548 679.231 L157.548 687.703 Q158.566 687.356 159.585 687.194 Q160.603 687.009 161.622 687.009 Q167.409 687.009 170.789 690.18 Q174.168 693.351 174.168 698.768 Q174.168 704.347 170.696 707.449 Q167.224 710.527 160.904 710.527 Q158.728 710.527 156.46 710.157 Q154.215 709.787 151.807 709.046 L151.807 704.347 Q153.891 705.481 156.113 706.037 Q158.335 706.592 160.812 706.592 Q164.816 706.592 167.154 704.486 Q169.492 702.379 169.492 698.768 Q169.492 695.157 167.154 693.051 Q164.816 690.944 160.812 690.944 Q158.937 690.944 157.062 691.361 Q155.21 691.777 153.266 692.657 L153.266 675.296 Z" fill="#000000" fill-rule="evenodd" fill-opacity="1" /><path clip-path="url(#clip550)" d="M193.381 678.375 Q189.77 678.375 187.941 681.939 Q186.136 685.481 186.136 692.611 Q186.136 699.717 187.941 703.282 Q189.77 706.824 193.381 706.824 Q197.015 706.824 198.821 703.282 Q200.65 699.717 200.65 692.611 Q200.65 685.481 198.821 681.939 Q197.015 678.375 193.381 678.375 M193.381 674.671 Q199.191 674.671 202.247 679.277 Q205.325 683.861 205.325 692.611 Q205.325 701.338 202.247 705.944 Q199.191 710.527 193.381 710.527 Q187.571 710.527 184.492 705.944 Q181.437 701.338 181.437 692.611 Q181.437 683.861 184.492 679.277 Q187.571 674.671 193.381 674.671 Z" fill="#000000" fill-rule="evenodd" fill-opacity="1" /><path clip-path="url(#clip550)" d="M127.085 499.393 L143.404 499.393 L143.404 503.328 L121.46 503.328 L121.46 499.393 Q124.122 496.639 128.705 492.009 Q133.312 487.356 134.492 486.014 Q136.738 483.49 137.617 481.754 Q138.52 479.995 138.52 478.305 Q138.52 475.551 136.576 473.815 Q134.655 472.078 131.553 472.078 Q129.354 472.078 126.9 472.842 Q124.469 473.606 121.692 475.157 L121.692 470.435 Q124.516 469.301 126.969 468.722 Q129.423 468.143 131.46 468.143 Q136.83 468.143 140.025 470.828 Q143.219 473.514 143.219 478.004 Q143.219 480.134 142.409 482.055 Q141.622 483.953 139.516 486.546 Q138.937 487.217 135.835 490.435 Q132.733 493.629 127.085 499.393 Z" fill="#000000" fill-rule="evenodd" fill-opacity="1" /><path clip-path="url(#clip550)" d="M163.219 471.847 Q159.608 471.847 157.779 475.412 Q155.974 478.953 155.974 486.083 Q155.974 493.189 157.779 496.754 Q159.608 500.296 163.219 500.296 Q166.853 500.296 168.659 496.754 Q170.488 493.189 170.488 486.083 Q170.488 478.953 168.659 475.412 Q166.853 471.847 163.219 471.847 M163.219 468.143 Q169.029 468.143 172.085 472.75 Q175.164 477.333 175.164 486.083 Q175.164 494.81 172.085 499.416 Q169.029 504 163.219 504 Q157.409 504 154.33 499.416 Q151.275 494.81 151.275 486.083 Q151.275 477.333 154.33 472.75 Q157.409 468.143 163.219 468.143 Z" fill="#000000" fill-rule="evenodd" fill-opacity="1" /><path clip-path="url(#clip550)" d="M193.381 471.847 Q189.77 471.847 187.941 475.412 Q186.136 478.953 186.136 486.083 Q186.136 493.189 187.941 496.754 Q189.77 500.296 193.381 500.296 Q197.015 500.296 198.821 496.754 Q200.65 493.189 200.65 486.083 Q200.65 478.953 198.821 475.412 Q197.015 471.847 193.381 471.847 M193.381 468.143 Q199.191 468.143 202.247 472.75 Q205.325 477.333 205.325 486.083 Q205.325 494.81 202.247 499.416 Q199.191 504 193.381 504 Q187.571 504 184.492 499.416 Q181.437 494.81 181.437 486.083 Q181.437 477.333 184.492 472.75 Q187.571 468.143 193.381 468.143 Z" fill="#000000" fill-rule="evenodd" fill-opacity="1" /><path clip-path="url(#clip550)" d="M28.3562 1015.26 L28.3562 987.444 L33.7034 987.444 L59.3254 1009.47 L59.3254 987.444 L64.0042 987.444 L64.0042 1016.06 L58.657 1016.06 L33.035 994.032 L33.035 1015.26 L28.3562 1015.26 Z" fill="#000000" fill-rule="evenodd" fill-opacity="1" /><path clip-path="url(#clip550)" d="M43.5384 981.46 L43.5384 964.304 L48.7583 964.304 L48.7583 981.46 L43.5384 981.46 Z" fill="#000000" fill-rule="evenodd" fill-opacity="1" /><path clip-path="url(#clip550)" d="M29.7248 929.325 L35.1993 929.325 Q33.8307 931.807 33.1623 934.322 Q32.4621 936.804 32.4621 939.351 Q32.4621 945.048 36.0905 948.199 Q39.6872 951.35 46.212 951.35 Q52.7369 951.35 56.3653 948.199 Q59.9619 945.048 59.9619 939.351 Q59.9619 936.804 59.2935 934.322 Q58.5933 931.807 57.2247 929.325 L62.6355 929.325 Q63.7814 931.776 64.3543 934.417 Q64.9272 937.027 64.9272 939.987 Q64.9272 948.04 59.8664 952.782 Q54.8057 957.525 46.212 957.525 Q37.491 957.525 32.4939 952.751 Q27.4968 947.944 27.4968 939.605 Q27.4968 936.9 28.0697 934.322 Q28.6108 931.744 29.7248 929.325 Z" fill="#000000" fill-rule="evenodd" fill-opacity="1" /><path clip-path="url(#clip550)" d="M32.4621 905.326 Q32.4621 910.037 36.1542 912.774 Q39.8145 915.511 46.212 915.511 Q52.6095 915.511 56.3017 912.806 Q59.9619 910.069 59.9619 905.326 Q59.9619 900.647 56.2698 897.91 Q52.5777 895.173 46.212 895.173 Q39.8781 895.173 36.186 897.91 Q32.4621 900.647 32.4621 905.326 M27.4968 905.326 Q27.4968 897.687 32.4621 893.327 Q37.4273 888.966 46.212 888.966 Q54.9649 888.966 59.9619 893.327 Q64.9272 897.687 64.9272 905.326 Q64.9272 912.997 59.9619 917.357 Q54.9649 921.686 46.212 921.686 Q37.4273 921.686 32.4621 917.357 Q27.4968 912.997 27.4968 905.326 Z" fill="#000000" fill-rule="evenodd" fill-opacity="1" /><path clip-path="url(#clip550)" d="M32.4621 865.445 Q32.4621 870.156 36.1542 872.893 Q39.8145 875.63 46.212 875.63 Q52.6095 875.63 56.3017 872.925 Q59.9619 870.187 59.9619 865.445 Q59.9619 860.766 56.2698 858.029 Q52.5777 855.292 46.212 855.292 Q39.8781 855.292 36.186 858.029 Q32.4621 860.766 32.4621 865.445 M27.4968 865.445 Q27.4968 857.806 32.4621 853.446 Q37.4273 849.085 46.212 849.085 Q54.9649 849.085 59.9619 853.446 Q64.9272 857.806 64.9272 865.445 Q64.9272 873.116 59.9619 877.476 Q54.9649 881.805 46.212 881.805 Q37.4273 881.805 32.4621 877.476 Q27.4968 873.116 27.4968 865.445 Z" fill="#000000" fill-rule="evenodd" fill-opacity="1" /><path clip-path="url(#clip550)" d="M33.8307 818.721 Q33.2578 819.707 33.0032 820.885 Q32.7167 822.031 32.7167 823.431 Q32.7167 828.397 35.9632 831.07 Q39.1779 833.712 45.2253 833.712 L64.0042 833.712 L64.0042 839.6 L28.3562 839.6 L28.3562 833.712 L33.8944 833.712 Q30.6479 831.866 29.0883 828.906 Q27.4968 825.946 27.4968 821.713 Q27.4968 821.108 27.5923 820.376 Q27.656 819.644 27.8151 818.752 L33.8307 818.721 Z" fill="#000000" fill-rule="evenodd" fill-opacity="1" /><path clip-path="url(#clip550)" d="M33.7671 790.266 L14.479 790.266 L14.479 784.409 L64.0042 784.409 L64.0042 790.266 L58.657 790.266 Q61.8398 792.112 63.3994 794.945 Q64.9272 797.746 64.9272 801.692 Q64.9272 808.154 59.771 812.228 Q54.6147 816.27 46.212 816.27 Q37.8093 816.27 32.6531 812.228 Q27.4968 808.154 27.4968 801.692 Q27.4968 797.746 29.0564 794.945 Q30.5842 792.112 33.7671 790.266 M46.212 810.222 Q52.6732 810.222 56.3653 807.581 Q60.0256 804.907 60.0256 800.26 Q60.0256 795.613 56.3653 792.94 Q52.6732 790.266 46.212 790.266 Q39.7508 790.266 36.0905 792.94 Q32.3984 795.613 32.3984 800.26 Q32.3984 804.907 36.0905 807.581 Q39.7508 810.222 46.212 810.222 Z" fill="#000000" fill-rule="evenodd" fill-opacity="1" /><path clip-path="url(#clip550)" d="M28.3562 772.346 L28.3562 766.49 L64.0042 766.49 L64.0042 772.346 L28.3562 772.346 M14.479 772.346 L14.479 766.49 L21.895 766.49 L21.895 772.346 L14.479 772.346 Z" fill="#000000" fill-rule="evenodd" fill-opacity="1" /><path clip-path="url(#clip550)" d="M42.4881 724.604 L64.0042 724.604 L64.0042 730.46 L42.679 730.46 Q37.6183 730.46 35.1038 732.433 Q32.5894 734.407 32.5894 738.354 Q32.5894 743.096 35.6131 745.833 Q38.6368 748.571 43.8567 748.571 L64.0042 748.571 L64.0042 754.459 L28.3562 754.459 L28.3562 748.571 L33.8944 748.571 Q30.6797 746.47 29.0883 743.637 Q27.4968 740.773 27.4968 737.049 Q27.4968 730.906 31.3163 727.755 Q35.1038 724.604 42.4881 724.604 Z" fill="#000000" fill-rule="evenodd" fill-opacity="1" /><path clip-path="url(#clip550)" d="M46.0847 696.722 Q46.0847 703.82 47.7079 706.557 Q49.3312 709.294 53.2461 709.294 Q56.3653 709.294 58.2114 707.257 Q60.0256 705.188 60.0256 701.655 Q60.0256 696.786 56.5881 693.857 Q53.1188 690.897 47.3897 690.897 L46.0847 690.897 L46.0847 696.722 M43.6657 685.041 L64.0042 685.041 L64.0042 690.897 L58.5933 690.897 Q61.8398 692.902 63.3994 695.894 Q64.9272 698.886 64.9272 703.215 Q64.9272 708.689 61.8716 711.936 Q58.7843 715.151 53.6281 715.151 Q47.6125 715.151 44.5569 711.14 Q41.5014 707.098 41.5014 699.109 L41.5014 690.897 L40.9285 690.897 Q36.8862 690.897 34.6901 693.571 Q32.4621 696.213 32.4621 701.019 Q32.4621 704.074 33.1941 706.971 Q33.9262 709.867 35.3903 712.541 L29.9795 712.541 Q28.7381 709.326 28.1334 706.302 Q27.4968 703.279 27.4968 700.414 Q27.4968 692.68 31.5072 688.86 Q35.5176 685.041 43.6657 685.041 Z" fill="#000000" fill-rule="evenodd" fill-opacity="1" /><path clip-path="url(#clip550)" d="M18.2347 667.185 L28.3562 667.185 L28.3562 655.122 L32.9077 655.122 L32.9077 667.185 L52.2594 667.185 Q56.6199 667.185 57.8613 666.007 Q59.1026 664.798 59.1026 661.138 L59.1026 655.122 L64.0042 655.122 L64.0042 661.138 Q64.0042 667.917 61.4897 670.495 Q58.9434 673.073 52.2594 673.073 L32.9077 673.073 L32.9077 677.37 L28.3562 677.37 L28.3562 673.073 L18.2347 673.073 L18.2347 667.185 Z" fill="#000000" fill-rule="evenodd" fill-opacity="1" /><path clip-path="url(#clip550)" d="M44.7161 616.928 L47.5806 616.928 L47.5806 643.855 Q53.6281 643.473 56.8109 640.226 Q59.9619 636.948 59.9619 631.123 Q59.9619 627.749 59.1344 624.598 Q58.3069 621.416 56.6518 618.296 L62.1899 618.296 Q63.5267 621.447 64.227 624.758 Q64.9272 628.068 64.9272 631.473 Q64.9272 640.003 59.9619 645.001 Q54.9967 649.966 46.5303 649.966 Q37.7774 649.966 32.6531 645.255 Q27.4968 640.513 27.4968 632.492 Q27.4968 625.299 32.1438 621.129 Q36.7589 616.928 44.7161 616.928 M42.9973 622.784 Q38.1912 622.848 35.3266 625.49 Q32.4621 628.1 32.4621 632.428 Q32.4621 637.33 35.2312 640.29 Q38.0002 643.218 43.0292 643.664 L42.9973 622.784 Z" fill="#000000" fill-rule="evenodd" fill-opacity="1" /><polyline clip-path="url(#clip552)" style="stroke:#0000ff; stroke-linecap:butt; stroke-linejoin:round; stroke-width:4; stroke-opacity:1; fill:none" points="
  516.186,1321 516.186,1073.17 
  "/>
<polyline clip-path="url(#clip552)" style="stroke:#0000ff; stroke-linecap:butt; stroke-linejoin:round; stroke-width:4; stroke-opacity:1; fill:none" points="
  1339.12,1370.8 1339.12,1122.96 
  "/>
<polyline clip-path="url(#clip552)" style="stroke:#0000ff; stroke-linecap:butt; stroke-linejoin:round; stroke-width:4; stroke-opacity:1; fill:none" points="
  2070.7,1140.76 2070.7,892.925 
  "/>
<polyline clip-path="url(#clip552)" style="stroke:#0000ff; stroke-linecap:butt; stroke-linejoin:round; stroke-width:4; stroke-opacity:1; fill:none" points="
  1247.76,1090.96 1247.76,843.126 
  "/>
<polyline clip-path="url(#clip552)" style="stroke:#0000ff; stroke-linecap:butt; stroke-linejoin:round; stroke-width:4; stroke-opacity:1; fill:none" points="
  516.186,1321 1339.12,1122.96 
  "/>
<polyline clip-path="url(#clip552)" style="stroke:#0000ff; stroke-linecap:butt; stroke-linejoin:round; stroke-width:4; stroke-opacity:1; fill:none" points="
  1339.12,1370.8 516.186,1073.17 
  "/>
<polyline clip-path="url(#clip552)" style="stroke:#0000ff; stroke-linecap:butt; stroke-linejoin:round; stroke-width:4; stroke-opacity:1; fill:none" points="
  1339.12,1370.8 2070.7,892.925 
  "/>
<polyline clip-path="url(#clip552)" style="stroke:#0000ff; stroke-linecap:butt; stroke-linejoin:round; stroke-width:4; stroke-opacity:1; fill:none" points="
  2070.7,1140.76 1339.12,1122.96 
  "/>
<polyline clip-path="url(#clip552)" style="stroke:#0000ff; stroke-linecap:butt; stroke-linejoin:round; stroke-width:4; stroke-opacity:1; fill:none" points="
  2070.7,1140.76 1247.76,843.126 
  "/>
<polyline clip-path="url(#clip552)" style="stroke:#0000ff; stroke-linecap:butt; stroke-linejoin:round; stroke-width:4; stroke-opacity:1; fill:none" points="
  1247.76,1090.96 2070.7,892.925 
  "/>
<polyline clip-path="url(#clip552)" style="stroke:#0000ff; stroke-linecap:butt; stroke-linejoin:round; stroke-width:4; stroke-opacity:1; fill:none" points="
  1247.76,1090.96 516.186,1073.17 
  "/>
<polyline clip-path="url(#clip552)" style="stroke:#0000ff; stroke-linecap:butt; stroke-linejoin:round; stroke-width:4; stroke-opacity:1; fill:none" points="
  516.186,1321 1247.76,843.126 
  "/>
<polyline clip-path="url(#clip552)" style="stroke:#0000ff; stroke-linecap:butt; stroke-linejoin:round; stroke-width:4; stroke-opacity:1; fill:none" points="
  516.186,1073.17 1339.12,1122.96 
  "/>
<polyline clip-path="url(#clip552)" style="stroke:#0000ff; stroke-linecap:butt; stroke-linejoin:round; stroke-width:4; stroke-opacity:1; fill:none" points="
  1339.12,1122.96 2070.7,892.925 
  "/>
<polyline clip-path="url(#clip552)" style="stroke:#0000ff; stroke-linecap:butt; stroke-linejoin:round; stroke-width:4; stroke-opacity:1; fill:none" points="
  2070.7,892.925 1247.76,843.126 
  "/>
<polyline clip-path="url(#clip552)" style="stroke:#0000ff; stroke-linecap:butt; stroke-linejoin:round; stroke-width:4; stroke-opacity:1; fill:none" points="
  1247.76,843.126 516.186,1073.17 
  "/>
<polyline clip-path="url(#clip552)" style="stroke:#0000ff; stroke-linecap:butt; stroke-linejoin:round; stroke-width:4; stroke-opacity:1; fill:none" points="
  516.186,1073.17 2070.7,892.925 
  "/>
<polyline clip-path="url(#clip552)" style="stroke:#0000ff; stroke-linecap:butt; stroke-linejoin:round; stroke-width:4; stroke-opacity:1; fill:none" points="
  1339.12,1122.96 1247.76,843.126 
  "/>
<polyline clip-path="url(#clip552)" style="stroke:#0000ff; stroke-linecap:butt; stroke-linejoin:round; stroke-width:4; stroke-opacity:1; fill:none" points="
  516.186,1073.17 516.186,825.332 
  "/>
<polyline clip-path="url(#clip552)" style="stroke:#0000ff; stroke-linecap:butt; stroke-linejoin:round; stroke-width:4; stroke-opacity:1; fill:none" points="
  1339.12,1122.96 1339.12,875.132 
  "/>
<polyline clip-path="url(#clip552)" style="stroke:#0000ff; stroke-linecap:butt; stroke-linejoin:round; stroke-width:4; stroke-opacity:1; fill:none" points="
  2070.7,892.925 2070.7,645.092 
  "/>
<polyline clip-path="url(#clip552)" style="stroke:#0000ff; stroke-linecap:butt; stroke-linejoin:round; stroke-width:4; stroke-opacity:1; fill:none" points="
  1247.76,843.126 1247.76,595.292 
  "/>
<polyline clip-path="url(#clip552)" style="stroke:#0000ff; stroke-linecap:butt; stroke-linejoin:round; stroke-width:4; stroke-opacity:1; fill:none" points="
  516.186,1073.17 1339.12,875.132 
  "/>
<polyline clip-path="url(#clip552)" style="stroke:#0000ff; stroke-linecap:butt; stroke-linejoin:round; stroke-width:4; stroke-opacity:1; fill:none" points="
  1339.12,1122.96 516.186,825.332 
  "/>
<polyline clip-path="url(#clip552)" style="stroke:#0000ff; stroke-linecap:butt; stroke-linejoin:round; stroke-width:4; stroke-opacity:1; fill:none" points="
  1339.12,1122.96 2070.7,645.092 
  "/>
<polyline clip-path="url(#clip552)" style="stroke:#0000ff; stroke-linecap:butt; stroke-linejoin:round; stroke-width:4; stroke-opacity:1; fill:none" points="
  2070.7,892.925 1339.12,875.132 
  "/>
<polyline clip-path="url(#clip552)" style="stroke:#0000ff; stroke-linecap:butt; stroke-linejoin:round; stroke-width:4; stroke-opacity:1; fill:none" points="
  2070.7,892.925 1247.76,595.292 
  "/>
<polyline clip-path="url(#clip552)" style="stroke:#0000ff; stroke-linecap:butt; stroke-linejoin:round; stroke-width:4; stroke-opacity:1; fill:none" points="
  1247.76,843.126 2070.7,645.092 
  "/>
<polyline clip-path="url(#clip552)" style="stroke:#0000ff; stroke-linecap:butt; stroke-linejoin:round; stroke-width:4; stroke-opacity:1; fill:none" points="
  1247.76,843.126 516.186,825.332 
  "/>
<polyline clip-path="url(#clip552)" style="stroke:#0000ff; stroke-linecap:butt; stroke-linejoin:round; stroke-width:4; stroke-opacity:1; fill:none" points="
  516.186,1073.17 1247.76,595.292 
  "/>
<polyline clip-path="url(#clip552)" style="stroke:#0000ff; stroke-linecap:butt; stroke-linejoin:round; stroke-width:4; stroke-opacity:1; fill:none" points="
  516.186,825.332 1339.12,875.132 
  "/>
<polyline clip-path="url(#clip552)" style="stroke:#0000ff; stroke-linecap:butt; stroke-linejoin:round; stroke-width:4; stroke-opacity:1; fill:none" points="
  1339.12,875.132 2070.7,645.092 
  "/>
<polyline clip-path="url(#clip552)" style="stroke:#0000ff; stroke-linecap:butt; stroke-linejoin:round; stroke-width:4; stroke-opacity:1; fill:none" points="
  2070.7,645.092 1247.76,595.292 
  "/>
<polyline clip-path="url(#clip552)" style="stroke:#0000ff; stroke-linecap:butt; stroke-linejoin:round; stroke-width:4; stroke-opacity:1; fill:none" points="
  1247.76,595.292 516.186,825.332 
  "/>
<polyline clip-path="url(#clip552)" style="stroke:#0000ff; stroke-linecap:butt; stroke-linejoin:round; stroke-width:4; stroke-opacity:1; fill:none" points="
  516.186,825.332 2070.7,645.092 
  "/>
<polyline clip-path="url(#clip552)" style="stroke:#0000ff; stroke-linecap:butt; stroke-linejoin:round; stroke-width:4; stroke-opacity:1; fill:none" points="
  1339.12,875.132 1247.76,595.292 
  "/>
<polyline clip-path="url(#clip552)" style="stroke:#0000ff; stroke-linecap:butt; stroke-linejoin:round; stroke-width:4; stroke-opacity:1; fill:none" points="
  516.186,825.332 516.186,577.499 
  "/>
<polyline clip-path="url(#clip552)" style="stroke:#0000ff; stroke-linecap:butt; stroke-linejoin:round; stroke-width:4; stroke-opacity:1; fill:none" points="
  1339.12,875.132 1339.12,627.298 
  "/>
<polyline clip-path="url(#clip552)" style="stroke:#0000ff; stroke-linecap:butt; stroke-linejoin:round; stroke-width:4; stroke-opacity:1; fill:none" points="
  2070.7,645.092 2070.7,397.259 
  "/>
<polyline clip-path="url(#clip552)" style="stroke:#0000ff; stroke-linecap:butt; stroke-linejoin:round; stroke-width:4; stroke-opacity:1; fill:none" points="
  1247.76,595.292 1247.76,347.459 
  "/>
<polyline clip-path="url(#clip552)" style="stroke:#0000ff; stroke-linecap:butt; stroke-linejoin:round; stroke-width:4; stroke-opacity:1; fill:none" points="
  516.186,825.332 1339.12,627.298 
  "/>
<polyline clip-path="url(#clip552)" style="stroke:#0000ff; stroke-linecap:butt; stroke-linejoin:round; stroke-width:4; stroke-opacity:1; fill:none" points="
  1339.12,875.132 516.186,577.499 
  "/>
<polyline clip-path="url(#clip552)" style="stroke:#0000ff; stroke-linecap:butt; stroke-linejoin:round; stroke-width:4; stroke-opacity:1; fill:none" points="
  1339.12,875.132 2070.7,397.259 
  "/>
<polyline clip-path="url(#clip552)" style="stroke:#0000ff; stroke-linecap:butt; stroke-linejoin:round; stroke-width:4; stroke-opacity:1; fill:none" points="
  2070.7,645.092 1339.12,627.298 
  "/>
<polyline clip-path="url(#clip552)" style="stroke:#0000ff; stroke-linecap:butt; stroke-linejoin:round; stroke-width:4; stroke-opacity:1; fill:none" points="
  2070.7,645.092 1247.76,347.459 
  "/>
<polyline clip-path="url(#clip552)" style="stroke:#0000ff; stroke-linecap:butt; stroke-linejoin:round; stroke-width:4; stroke-opacity:1; fill:none" points="
  1247.76,595.292 2070.7,397.259 
  "/>
<polyline clip-path="url(#clip552)" style="stroke:#0000ff; stroke-linecap:butt; stroke-linejoin:round; stroke-width:4; stroke-opacity:1; fill:none" points="
  1247.76,595.292 516.186,577.499 
  "/>
<polyline clip-path="url(#clip552)" style="stroke:#0000ff; stroke-linecap:butt; stroke-linejoin:round; stroke-width:4; stroke-opacity:1; fill:none" points="
  516.186,825.332 1247.76,347.459 
  "/>
<polyline clip-path="url(#clip552)" style="stroke:#0000ff; stroke-linecap:butt; stroke-linejoin:round; stroke-width:4; stroke-opacity:1; fill:none" points="
  516.186,577.499 1339.12,627.298 
  "/>
<polyline clip-path="url(#clip552)" style="stroke:#0000ff; stroke-linecap:butt; stroke-linejoin:round; stroke-width:4; stroke-opacity:1; fill:none" points="
  1339.12,627.298 2070.7,397.259 
  "/>
<polyline clip-path="url(#clip552)" style="stroke:#0000ff; stroke-linecap:butt; stroke-linejoin:round; stroke-width:4; stroke-opacity:1; fill:none" points="
  2070.7,397.259 1247.76,347.459 
  "/>
<polyline clip-path="url(#clip552)" style="stroke:#0000ff; stroke-linecap:butt; stroke-linejoin:round; stroke-width:4; stroke-opacity:1; fill:none" points="
  1247.76,347.459 516.186,577.499 
  "/>
<polyline clip-path="url(#clip552)" style="stroke:#0000ff; stroke-linecap:butt; stroke-linejoin:round; stroke-width:4; stroke-opacity:1; fill:none" points="
  516.186,577.499 2070.7,397.259 
  "/>
<polyline clip-path="url(#clip552)" style="stroke:#0000ff; stroke-linecap:butt; stroke-linejoin:round; stroke-width:4; stroke-opacity:1; fill:none" points="
  1339.12,627.298 1247.76,347.459 
  "/>
<polyline clip-path="url(#clip552)" style="stroke:#0000ff; stroke-linecap:butt; stroke-linejoin:round; stroke-width:4; stroke-opacity:1; fill:none" points="
  516.186,577.499 516.186,329.666 
  "/>
<polyline clip-path="url(#clip552)" style="stroke:#0000ff; stroke-linecap:butt; stroke-linejoin:round; stroke-width:4; stroke-opacity:1; fill:none" points="
  1339.12,627.298 1339.12,379.465 
  "/>
<polyline clip-path="url(#clip552)" style="stroke:#0000ff; stroke-linecap:butt; stroke-linejoin:round; stroke-width:4; stroke-opacity:1; fill:none" points="
  2070.7,397.259 2070.7,149.425 
  "/>
<polyline clip-path="url(#clip552)" style="stroke:#0000ff; stroke-linecap:butt; stroke-linejoin:round; stroke-width:4; stroke-opacity:1; fill:none" points="
  1247.76,347.459 1247.76,99.6259 
  "/>
<polyline clip-path="url(#clip552)" style="stroke:#0000ff; stroke-linecap:butt; stroke-linejoin:round; stroke-width:4; stroke-opacity:1; fill:none" points="
  516.186,577.499 1339.12,379.465 
  "/>
<polyline clip-path="url(#clip552)" style="stroke:#0000ff; stroke-linecap:butt; stroke-linejoin:round; stroke-width:4; stroke-opacity:1; fill:none" points="
  1339.12,627.298 516.186,329.666 
  "/>
<polyline clip-path="url(#clip552)" style="stroke:#0000ff; stroke-linecap:butt; stroke-linejoin:round; stroke-width:4; stroke-opacity:1; fill:none" points="
  1339.12,627.298 2070.7,149.425 
  "/>
<polyline clip-path="url(#clip552)" style="stroke:#0000ff; stroke-linecap:butt; stroke-linejoin:round; stroke-width:4; stroke-opacity:1; fill:none" points="
  2070.7,397.259 1339.12,379.465 
  "/>
<polyline clip-path="url(#clip552)" style="stroke:#0000ff; stroke-linecap:butt; stroke-linejoin:round; stroke-width:4; stroke-opacity:1; fill:none" points="
  2070.7,397.259 1247.76,99.6259 
  "/>
<polyline clip-path="url(#clip552)" style="stroke:#0000ff; stroke-linecap:butt; stroke-linejoin:round; stroke-width:4; stroke-opacity:1; fill:none" points="
  1247.76,347.459 2070.7,149.425 
  "/>
<polyline clip-path="url(#clip552)" style="stroke:#0000ff; stroke-linecap:butt; stroke-linejoin:round; stroke-width:4; stroke-opacity:1; fill:none" points="
  1247.76,347.459 516.186,329.666 
  "/>
<polyline clip-path="url(#clip552)" style="stroke:#0000ff; stroke-linecap:butt; stroke-linejoin:round; stroke-width:4; stroke-opacity:1; fill:none" points="
  516.186,577.499 1247.76,99.6259 
  "/>
<polyline clip-path="url(#clip552)" style="stroke:#0000ff; stroke-linecap:butt; stroke-linejoin:round; stroke-width:4; stroke-opacity:1; fill:none" points="
  516.186,329.666 1339.12,379.465 
  "/>
<polyline clip-path="url(#clip552)" style="stroke:#0000ff; stroke-linecap:butt; stroke-linejoin:round; stroke-width:4; stroke-opacity:1; fill:none" points="
  1339.12,379.465 2070.7,149.425 
  "/>
<polyline clip-path="url(#clip552)" style="stroke:#0000ff; stroke-linecap:butt; stroke-linejoin:round; stroke-width:4; stroke-opacity:1; fill:none" points="
  2070.7,149.425 1247.76,99.6259 
  "/>
<polyline clip-path="url(#clip552)" style="stroke:#0000ff; stroke-linecap:butt; stroke-linejoin:round; stroke-width:4; stroke-opacity:1; fill:none" points="
  1247.76,99.6259 516.186,329.666 
  "/>
<polyline clip-path="url(#clip552)" style="stroke:#0000ff; stroke-linecap:butt; stroke-linejoin:round; stroke-width:4; stroke-opacity:1; fill:none" points="
  516.186,329.666 2070.7,149.425 
  "/>
<polyline clip-path="url(#clip552)" style="stroke:#0000ff; stroke-linecap:butt; stroke-linejoin:round; stroke-width:4; stroke-opacity:1; fill:none" points="
  1339.12,379.465 1247.76,99.6259 
  "/>
<circle clip-path="url(#clip552)" cx="516.186" cy="1321" r="14" fill="#ffffff" fill-rule="evenodd" fill-opacity="1" stroke="#000000" stroke-opacity="1" stroke-width="3.2"/>
<circle clip-path="url(#clip552)" cx="1339.12" cy="1370.8" r="14" fill="#ffffff" fill-rule="evenodd" fill-opacity="1" stroke="#000000" stroke-opacity="1" stroke-width="3.2"/>
<circle clip-path="url(#clip552)" cx="2070.7" cy="1140.76" r="14" fill="#ffffff" fill-rule="evenodd" fill-opacity="1" stroke="#000000" stroke-opacity="1" stroke-width="3.2"/>
<circle clip-path="url(#clip552)" cx="1247.76" cy="1090.96" r="14" fill="#ffffff" fill-rule="evenodd" fill-opacity="1" stroke="#000000" stroke-opacity="1" stroke-width="3.2"/>
<circle clip-path="url(#clip552)" cx="516.186" cy="1073.17" r="14" fill="#ffffff" fill-rule="evenodd" fill-opacity="1" stroke="#000000" stroke-opacity="1" stroke-width="3.2"/>
<circle clip-path="url(#clip552)" cx="1339.12" cy="1122.96" r="14" fill="#ffffff" fill-rule="evenodd" fill-opacity="1" stroke="#000000" stroke-opacity="1" stroke-width="3.2"/>
<circle clip-path="url(#clip552)" cx="2070.7" cy="892.925" r="14" fill="#ffffff" fill-rule="evenodd" fill-opacity="1" stroke="#000000" stroke-opacity="1" stroke-width="3.2"/>
<circle clip-path="url(#clip552)" cx="1247.76" cy="843.126" r="14" fill="#ffffff" fill-rule="evenodd" fill-opacity="1" stroke="#000000" stroke-opacity="1" stroke-width="3.2"/>
<circle clip-path="url(#clip552)" cx="516.186" cy="825.332" r="14" fill="#ffffff" fill-rule="evenodd" fill-opacity="1" stroke="#000000" stroke-opacity="1" stroke-width="3.2"/>
<circle clip-path="url(#clip552)" cx="1339.12" cy="875.132" r="14" fill="#ffffff" fill-rule="evenodd" fill-opacity="1" stroke="#000000" stroke-opacity="1" stroke-width="3.2"/>
<circle clip-path="url(#clip552)" cx="2070.7" cy="645.092" r="14" fill="#ffffff" fill-rule="evenodd" fill-opacity="1" stroke="#000000" stroke-opacity="1" stroke-width="3.2"/>
<circle clip-path="url(#clip552)" cx="1247.76" cy="595.292" r="14" fill="#ffffff" fill-rule="evenodd" fill-opacity="1" stroke="#000000" stroke-opacity="1" stroke-width="3.2"/>
<circle clip-path="url(#clip552)" cx="516.186" cy="577.499" r="14" fill="#ffffff" fill-rule="evenodd" fill-opacity="1" stroke="#000000" stroke-opacity="1" stroke-width="3.2"/>
<circle clip-path="url(#clip552)" cx="1339.12" cy="627.298" r="14" fill="#ffffff" fill-rule="evenodd" fill-opacity="1" stroke="#000000" stroke-opacity="1" stroke-width="3.2"/>
<circle clip-path="url(#clip552)" cx="2070.7" cy="397.259" r="14" fill="#ffffff" fill-rule="evenodd" fill-opacity="1" stroke="#000000" stroke-opacity="1" stroke-width="3.2"/>
<circle clip-path="url(#clip552)" cx="1247.76" cy="347.459" r="14" fill="#ffffff" fill-rule="evenodd" fill-opacity="1" stroke="#000000" stroke-opacity="1" stroke-width="3.2"/>
<circle clip-path="url(#clip552)" cx="516.186" cy="329.666" r="14" fill="#ffffff" fill-rule="evenodd" fill-opacity="1" stroke="#000000" stroke-opacity="1" stroke-width="3.2"/>
<circle clip-path="url(#clip552)" cx="1339.12" cy="379.465" r="14" fill="#ffffff" fill-rule="evenodd" fill-opacity="1" stroke="#000000" stroke-opacity="1" stroke-width="3.2"/>
<circle clip-path="url(#clip552)" cx="2070.7" cy="149.425" r="14" fill="#ffffff" fill-rule="evenodd" fill-opacity="1" stroke="#000000" stroke-opacity="1" stroke-width="3.2"/>
<circle clip-path="url(#clip552)" cx="1247.76" cy="99.6259" r="14" fill="#ffffff" fill-rule="evenodd" fill-opacity="1" stroke="#000000" stroke-opacity="1" stroke-width="3.2"/>
</svg>
