<?xml version="1.0" encoding="utf-8"?>
<svg xmlns="http://www.w3.org/2000/svg" xmlns:xlink="http://www.w3.org/1999/xlink" width="600" height="400" viewBox="0 0 2400 1600">
<defs>
  <clipPath id="clip680">
    <rect x="0" y="0" width="2400" height="1600"/>
  </clipPath>
</defs>
<path clip-path="url(#clip680)" d="
M0 1600 L2400 1600 L2400 0 L0 0  Z
  " fill="#ffffff" fill-rule="evenodd" fill-opacity="1"/>
<defs>
  <clipPath id="clip681">
    <rect x="480" y="0" width="1681" height="1600"/>
  </clipPath>
</defs>
<defs>
  <clipPath id="clip682">
    <rect x="234" y="47" width="2120" height="1377"/>
  </clipPath>
</defs>
<path clip-path="url(#clip682)" d="
M234.125 1341.9 L234.125 291.086 L1009.6 47.2441 L2352.76 128.525 L2352.76 1179.34 L1577.28 1423.18 L234.125 1341.9  Z
  " fill="#ffffff" fill-rule="evenodd" fill-opacity="1"/>
<polyline clip-path="url(#clip682)" style="stroke:#000000; stroke-linecap:butt; stroke-linejoin:round; stroke-width:2; stroke-opacity:0.1; fill:none" points="
  288.505,1345.19 1063.98,1101.35 
  "/>
<polyline clip-path="url(#clip682)" style="stroke:#000000; stroke-linecap:butt; stroke-linejoin:round; stroke-width:2; stroke-opacity:0.1; fill:none" points="
  1063.98,1101.35 1063.98,50.5349 
  "/>
<polyline clip-path="url(#clip682)" style="stroke:#000000; stroke-linecap:butt; stroke-linejoin:round; stroke-width:2; stroke-opacity:0.1; fill:none" points="
  494.238,1357.64 1269.71,1113.8 
  "/>
<polyline clip-path="url(#clip682)" style="stroke:#000000; stroke-linecap:butt; stroke-linejoin:round; stroke-width:2; stroke-opacity:0.1; fill:none" points="
  1269.71,1113.8 1269.71,62.9847 
  "/>
<polyline clip-path="url(#clip682)" style="stroke:#000000; stroke-linecap:butt; stroke-linejoin:round; stroke-width:2; stroke-opacity:0.1; fill:none" points="
  699.971,1370.09 1475.44,1126.25 
  "/>
<polyline clip-path="url(#clip682)" style="stroke:#000000; stroke-linecap:butt; stroke-linejoin:round; stroke-width:2; stroke-opacity:0.1; fill:none" points="
  1475.44,1126.25 1475.44,75.4346 
  "/>
<polyline clip-path="url(#clip682)" style="stroke:#000000; stroke-linecap:butt; stroke-linejoin:round; stroke-width:2; stroke-opacity:0.1; fill:none" points="
  905.704,1382.54 1681.18,1138.7 
  "/>
<polyline clip-path="url(#clip682)" style="stroke:#000000; stroke-linecap:butt; stroke-linejoin:round; stroke-width:2; stroke-opacity:0.1; fill:none" points="
  1681.18,1138.7 1681.18,87.8844 
  "/>
<polyline clip-path="url(#clip682)" style="stroke:#000000; stroke-linecap:butt; stroke-linejoin:round; stroke-width:2; stroke-opacity:0.1; fill:none" points="
  1111.44,1394.99 1886.91,1151.15 
  "/>
<polyline clip-path="url(#clip682)" style="stroke:#000000; stroke-linecap:butt; stroke-linejoin:round; stroke-width:2; stroke-opacity:0.1; fill:none" points="
  1886.91,1151.15 1886.91,100.334 
  "/>
<polyline clip-path="url(#clip682)" style="stroke:#000000; stroke-linecap:butt; stroke-linejoin:round; stroke-width:2; stroke-opacity:0.1; fill:none" points="
  1317.17,1407.44 2092.64,1163.6 
  "/>
<polyline clip-path="url(#clip682)" style="stroke:#000000; stroke-linecap:butt; stroke-linejoin:round; stroke-width:2; stroke-opacity:0.1; fill:none" points="
  2092.64,1163.6 2092.64,112.784 
  "/>
<polyline clip-path="url(#clip682)" style="stroke:#000000; stroke-linecap:butt; stroke-linejoin:round; stroke-width:2; stroke-opacity:0.1; fill:none" points="
  1522.9,1419.89 2298.38,1176.05 
  "/>
<polyline clip-path="url(#clip682)" style="stroke:#000000; stroke-linecap:butt; stroke-linejoin:round; stroke-width:2; stroke-opacity:0.1; fill:none" points="
  2298.38,1176.05 2298.38,125.234 
  "/>
<polyline clip-path="url(#clip680)" style="stroke:#000000; stroke-linecap:butt; stroke-linejoin:round; stroke-width:4; stroke-opacity:1; fill:none" points="
  234.125,1341.9 1577.28,1423.18 
  "/>
<polyline clip-path="url(#clip680)" style="stroke:#000000; stroke-linecap:butt; stroke-linejoin:round; stroke-width:4; stroke-opacity:1; fill:none" points="
  288.505,1345.19 297.811,1342.26 
  "/>
<polyline clip-path="url(#clip680)" style="stroke:#000000; stroke-linecap:butt; stroke-linejoin:round; stroke-width:4; stroke-opacity:1; fill:none" points="
  494.238,1357.64 503.544,1354.71 
  "/>
<polyline clip-path="url(#clip680)" style="stroke:#000000; stroke-linecap:butt; stroke-linejoin:round; stroke-width:4; stroke-opacity:1; fill:none" points="
  699.971,1370.09 709.277,1367.16 
  "/>
<polyline clip-path="url(#clip680)" style="stroke:#000000; stroke-linecap:butt; stroke-linejoin:round; stroke-width:4; stroke-opacity:1; fill:none" points="
  905.704,1382.54 915.01,1379.61 
  "/>
<polyline clip-path="url(#clip680)" style="stroke:#000000; stroke-linecap:butt; stroke-linejoin:round; stroke-width:4; stroke-opacity:1; fill:none" points="
  1111.44,1394.99 1120.74,1392.06 
  "/>
<polyline clip-path="url(#clip680)" style="stroke:#000000; stroke-linecap:butt; stroke-linejoin:round; stroke-width:4; stroke-opacity:1; fill:none" points="
  1317.17,1407.44 1326.48,1404.51 
  "/>
<polyline clip-path="url(#clip680)" style="stroke:#000000; stroke-linecap:butt; stroke-linejoin:round; stroke-width:4; stroke-opacity:1; fill:none" points="
  1522.9,1419.89 1532.21,1416.96 
  "/>
<path clip-path="url(#clip680)" d="M164.729 1374.39 L194.405 1374.39 L194.405 1378.32 L164.729 1378.32 L164.729 1374.39 Z" fill="#000000" fill-rule="evenodd" fill-opacity="1" /><path clip-path="url(#clip680)" d="M205.308 1387.28 L212.946 1387.28 L212.946 1360.92 L204.636 1362.58 L204.636 1358.32 L212.9 1356.66 L217.576 1356.66 L217.576 1387.28 L225.215 1387.28 L225.215 1391.22 L205.308 1391.22 L205.308 1387.28 Z" fill="#000000" fill-rule="evenodd" fill-opacity="1" /><path clip-path="url(#clip680)" d="M234.706 1356.66 L253.062 1356.66 L253.062 1360.59 L238.988 1360.59 L238.988 1369.06 Q240.006 1368.72 241.025 1368.56 Q242.043 1368.37 243.062 1368.37 Q248.849 1368.37 252.229 1371.54 Q255.608 1374.71 255.608 1380.13 Q255.608 1385.71 252.136 1388.81 Q248.664 1391.89 242.344 1391.89 Q240.169 1391.89 237.9 1391.52 Q235.655 1391.15 233.247 1390.41 L233.247 1385.71 Q235.331 1386.84 237.553 1387.4 Q239.775 1387.95 242.252 1387.95 Q246.256 1387.95 248.594 1385.85 Q250.932 1383.74 250.932 1380.13 Q250.932 1376.52 248.594 1374.41 Q246.256 1372.31 242.252 1372.31 Q240.377 1372.31 238.502 1372.72 Q236.65 1373.14 234.706 1374.02 L234.706 1356.66 Z" fill="#000000" fill-rule="evenodd" fill-opacity="1" /><path clip-path="url(#clip680)" d="M274.821 1359.74 Q271.21 1359.74 269.381 1363.3 Q267.576 1366.84 267.576 1373.97 Q267.576 1381.08 269.381 1384.64 Q271.21 1388.18 274.821 1388.18 Q278.455 1388.18 280.261 1384.64 Q282.09 1381.08 282.09 1373.97 Q282.09 1366.84 280.261 1363.3 Q278.455 1359.74 274.821 1359.74 M274.821 1356.03 Q280.631 1356.03 283.687 1360.64 Q286.765 1365.22 286.765 1373.97 Q286.765 1382.7 283.687 1387.31 Q280.631 1391.89 274.821 1391.89 Q269.011 1391.89 265.932 1387.31 Q262.877 1382.7 262.877 1373.97 Q262.877 1365.22 265.932 1360.64 Q269.011 1356.03 274.821 1356.03 Z" fill="#000000" fill-rule="evenodd" fill-opacity="1" /><path clip-path="url(#clip680)" d="M370.462 1386.84 L400.138 1386.84 L400.138 1390.77 L370.462 1390.77 L370.462 1386.84 Z" fill="#000000" fill-rule="evenodd" fill-opacity="1" /><path clip-path="url(#clip680)" d="M411.041 1399.73 L418.68 1399.73 L418.68 1373.37 L410.369 1375.03 L410.369 1370.77 L418.633 1369.11 L423.309 1369.11 L423.309 1399.73 L430.948 1399.73 L430.948 1403.67 L411.041 1403.67 L411.041 1399.73 Z" fill="#000000" fill-rule="evenodd" fill-opacity="1" /><path clip-path="url(#clip680)" d="M450.392 1372.19 Q446.781 1372.19 444.953 1375.75 Q443.147 1379.29 443.147 1386.42 Q443.147 1393.53 444.953 1397.09 Q446.781 1400.63 450.392 1400.63 Q454.027 1400.63 455.832 1397.09 Q457.661 1393.53 457.661 1386.42 Q457.661 1379.29 455.832 1375.75 Q454.027 1372.19 450.392 1372.19 M450.392 1368.48 Q456.202 1368.48 459.258 1373.09 Q462.337 1377.67 462.337 1386.42 Q462.337 1395.15 459.258 1399.76 Q456.202 1404.34 450.392 1404.34 Q444.582 1404.34 441.503 1399.76 Q438.448 1395.15 438.448 1386.42 Q438.448 1377.67 441.503 1373.09 Q444.582 1368.48 450.392 1368.48 Z" fill="#000000" fill-rule="evenodd" fill-opacity="1" /><path clip-path="url(#clip680)" d="M480.554 1372.19 Q476.943 1372.19 475.114 1375.75 Q473.309 1379.29 473.309 1386.42 Q473.309 1393.53 475.114 1397.09 Q476.943 1400.63 480.554 1400.63 Q484.188 1400.63 485.994 1397.09 Q487.823 1393.53 487.823 1386.42 Q487.823 1379.29 485.994 1375.75 Q484.188 1372.19 480.554 1372.19 M480.554 1368.48 Q486.364 1368.48 489.42 1373.09 Q492.499 1377.67 492.499 1386.42 Q492.499 1395.15 489.42 1399.76 Q486.364 1404.34 480.554 1404.34 Q474.744 1404.34 471.665 1399.76 Q468.61 1395.15 468.61 1386.42 Q468.61 1377.67 471.665 1373.09 Q474.744 1368.48 480.554 1368.48 Z" fill="#000000" fill-rule="evenodd" fill-opacity="1" /><path clip-path="url(#clip680)" d="M606.357 1399.29 L636.033 1399.29 L636.033 1403.22 L606.357 1403.22 L606.357 1399.29 Z" fill="#000000" fill-rule="evenodd" fill-opacity="1" /><path clip-path="url(#clip680)" d="M646.172 1381.56 L664.528 1381.56 L664.528 1385.49 L650.454 1385.49 L650.454 1393.96 Q651.473 1393.62 652.491 1393.46 Q653.51 1393.27 654.528 1393.27 Q660.315 1393.27 663.695 1396.44 Q667.074 1399.61 667.074 1405.03 Q667.074 1410.61 663.602 1413.71 Q660.13 1416.79 653.811 1416.79 Q651.635 1416.79 649.366 1416.42 Q647.121 1416.05 644.713 1415.31 L644.713 1410.61 Q646.797 1411.74 649.019 1412.3 Q651.241 1412.85 653.718 1412.85 Q657.723 1412.85 660.061 1410.75 Q662.399 1408.64 662.399 1405.03 Q662.399 1401.42 660.061 1399.31 Q657.723 1397.21 653.718 1397.21 Q651.843 1397.21 649.968 1397.62 Q648.116 1398.04 646.172 1398.92 L646.172 1381.56 Z" fill="#000000" fill-rule="evenodd" fill-opacity="1" /><path clip-path="url(#clip680)" d="M686.287 1384.64 Q682.676 1384.64 680.847 1388.2 Q679.042 1391.74 679.042 1398.87 Q679.042 1405.98 680.847 1409.54 Q682.676 1413.08 686.287 1413.08 Q689.922 1413.08 691.727 1409.54 Q693.556 1405.98 693.556 1398.87 Q693.556 1391.74 691.727 1388.2 Q689.922 1384.64 686.287 1384.64 M686.287 1380.93 Q692.097 1380.93 695.153 1385.54 Q698.232 1390.12 698.232 1398.87 Q698.232 1407.6 695.153 1412.21 Q692.097 1416.79 686.287 1416.79 Q680.477 1416.79 677.398 1412.21 Q674.343 1407.6 674.343 1398.87 Q674.343 1390.12 677.398 1385.54 Q680.477 1380.93 686.287 1380.93 Z" fill="#000000" fill-rule="evenodd" fill-opacity="1" /><path clip-path="url(#clip680)" d="M892.02 1397.09 Q888.409 1397.09 886.581 1400.65 Q884.775 1404.19 884.775 1411.32 Q884.775 1418.43 886.581 1421.99 Q888.409 1425.53 892.02 1425.53 Q895.655 1425.53 897.46 1421.99 Q899.289 1418.43 899.289 1411.32 Q899.289 1404.19 897.46 1400.65 Q895.655 1397.09 892.02 1397.09 M892.02 1393.38 Q897.831 1393.38 900.886 1397.99 Q903.965 1402.57 903.965 1411.32 Q903.965 1420.05 900.886 1424.65 Q897.831 1429.24 892.02 1429.24 Q886.21 1429.24 883.132 1424.65 Q880.076 1420.05 880.076 1411.32 Q880.076 1402.57 883.132 1397.99 Q886.21 1393.38 892.02 1393.38 Z" fill="#000000" fill-rule="evenodd" fill-opacity="1" /><path clip-path="url(#clip680)" d="M1057.64 1406.46 L1075.99 1406.46 L1075.99 1410.39 L1061.92 1410.39 L1061.92 1418.86 Q1062.94 1418.52 1063.96 1418.35 Q1064.98 1418.17 1065.99 1418.17 Q1071.78 1418.17 1075.16 1421.34 Q1078.54 1424.51 1078.54 1429.93 Q1078.54 1435.51 1075.07 1438.61 Q1071.6 1441.69 1065.28 1441.69 Q1063.1 1441.69 1060.83 1441.32 Q1058.59 1440.95 1056.18 1440.21 L1056.18 1435.51 Q1058.26 1436.64 1060.49 1437.2 Q1062.71 1437.75 1065.18 1437.75 Q1069.19 1437.75 1071.53 1435.65 Q1073.86 1433.54 1073.86 1429.93 Q1073.86 1426.32 1071.53 1424.21 Q1069.19 1422.1 1065.18 1422.1 Q1063.31 1422.1 1061.43 1422.52 Q1059.58 1422.94 1057.64 1423.82 L1057.64 1406.46 Z" fill="#000000" fill-rule="evenodd" fill-opacity="1" /><path clip-path="url(#clip680)" d="M1097.75 1409.54 Q1094.14 1409.54 1092.31 1413.1 Q1090.51 1416.64 1090.51 1423.77 Q1090.51 1430.88 1092.31 1434.44 Q1094.14 1437.98 1097.75 1437.98 Q1101.39 1437.98 1103.19 1434.44 Q1105.02 1430.88 1105.02 1423.77 Q1105.02 1416.64 1103.19 1413.1 Q1101.39 1409.54 1097.75 1409.54 M1097.75 1405.83 Q1103.56 1405.83 1106.62 1410.44 Q1109.7 1415.02 1109.7 1423.77 Q1109.7 1432.5 1106.62 1437.1 Q1103.56 1441.69 1097.75 1441.69 Q1091.94 1441.69 1088.86 1437.1 Q1085.81 1432.5 1085.81 1423.77 Q1085.81 1415.02 1088.86 1410.44 Q1091.94 1405.83 1097.75 1405.83 Z" fill="#000000" fill-rule="evenodd" fill-opacity="1" /><path clip-path="url(#clip680)" d="M1233.97 1449.53 L1241.61 1449.53 L1241.61 1423.17 L1233.3 1424.83 L1233.3 1420.57 L1241.57 1418.91 L1246.24 1418.91 L1246.24 1449.53 L1253.88 1449.53 L1253.88 1453.47 L1233.97 1453.47 L1233.97 1449.53 Z" fill="#000000" fill-rule="evenodd" fill-opacity="1" /><path clip-path="url(#clip680)" d="M1273.32 1421.99 Q1269.71 1421.99 1267.88 1425.55 Q1266.08 1429.09 1266.08 1436.22 Q1266.08 1443.33 1267.88 1446.89 Q1269.71 1450.43 1273.32 1450.43 Q1276.96 1450.43 1278.76 1446.89 Q1280.59 1443.33 1280.59 1436.22 Q1280.59 1429.09 1278.76 1425.55 Q1276.96 1421.99 1273.32 1421.99 M1273.32 1418.28 Q1279.13 1418.28 1282.19 1422.89 Q1285.27 1427.47 1285.27 1436.22 Q1285.27 1444.95 1282.19 1449.55 Q1279.13 1454.14 1273.32 1454.14 Q1267.51 1454.14 1264.44 1449.55 Q1261.38 1444.95 1261.38 1436.22 Q1261.38 1427.47 1264.44 1422.89 Q1267.51 1418.28 1273.32 1418.28 Z" fill="#000000" fill-rule="evenodd" fill-opacity="1" /><path clip-path="url(#clip680)" d="M1303.49 1421.99 Q1299.88 1421.99 1298.05 1425.55 Q1296.24 1429.09 1296.24 1436.22 Q1296.24 1443.33 1298.05 1446.89 Q1299.88 1450.43 1303.49 1450.43 Q1307.12 1450.43 1308.93 1446.89 Q1310.76 1443.33 1310.76 1436.22 Q1310.76 1429.09 1308.93 1425.55 Q1307.12 1421.99 1303.49 1421.99 M1303.49 1418.28 Q1309.3 1418.28 1312.35 1422.89 Q1315.43 1427.47 1315.43 1436.22 Q1315.43 1444.95 1312.35 1449.55 Q1309.3 1454.14 1303.49 1454.14 Q1297.68 1454.14 1294.6 1449.55 Q1291.54 1444.95 1291.54 1436.22 Q1291.54 1427.47 1294.6 1422.89 Q1297.68 1418.28 1303.49 1418.28 Z" fill="#000000" fill-rule="evenodd" fill-opacity="1" /><path clip-path="url(#clip680)" d="M1439.71 1461.98 L1447.34 1461.98 L1447.34 1435.62 L1439.03 1437.28 L1439.03 1433.02 L1447.3 1431.36 L1451.97 1431.36 L1451.97 1461.98 L1459.61 1461.98 L1459.61 1465.92 L1439.71 1465.92 L1439.71 1461.98 Z" fill="#000000" fill-rule="evenodd" fill-opacity="1" /><path clip-path="url(#clip680)" d="M1469.1 1431.36 L1487.46 1431.36 L1487.46 1435.29 L1473.39 1435.29 L1473.39 1443.76 Q1474.41 1443.42 1475.42 1443.25 Q1476.44 1443.07 1477.46 1443.07 Q1483.25 1443.07 1486.63 1446.24 Q1490.01 1449.41 1490.01 1454.83 Q1490.01 1460.41 1486.53 1463.51 Q1483.06 1466.59 1476.74 1466.59 Q1474.57 1466.59 1472.3 1466.22 Q1470.05 1465.85 1467.65 1465.11 L1467.65 1460.41 Q1469.73 1461.54 1471.95 1462.1 Q1474.17 1462.65 1476.65 1462.65 Q1480.65 1462.65 1482.99 1460.55 Q1485.33 1458.44 1485.33 1454.83 Q1485.33 1451.22 1482.99 1449.11 Q1480.65 1447 1476.65 1447 Q1474.78 1447 1472.9 1447.42 Q1471.05 1447.84 1469.1 1448.72 L1469.1 1431.36 Z" fill="#000000" fill-rule="evenodd" fill-opacity="1" /><path clip-path="url(#clip680)" d="M1509.22 1434.44 Q1505.61 1434.44 1503.78 1438 Q1501.97 1441.54 1501.97 1448.67 Q1501.97 1455.78 1503.78 1459.34 Q1505.61 1462.88 1509.22 1462.88 Q1512.85 1462.88 1514.66 1459.34 Q1516.49 1455.78 1516.49 1448.67 Q1516.49 1441.54 1514.66 1438 Q1512.85 1434.44 1509.22 1434.44 M1509.22 1430.73 Q1515.03 1430.73 1518.09 1435.34 Q1521.16 1439.92 1521.16 1448.67 Q1521.16 1457.4 1518.09 1462 Q1515.03 1466.59 1509.22 1466.59 Q1503.41 1466.59 1500.33 1462 Q1497.28 1457.4 1497.28 1448.67 Q1497.28 1439.92 1500.33 1435.34 Q1503.41 1430.73 1509.22 1430.73 Z" fill="#000000" fill-rule="evenodd" fill-opacity="1" /><path clip-path="url(#clip680)" d="M614.275 1527.04 L601.385 1544.38 L614.944 1562.68 L608.037 1562.68 L597.661 1548.68 L587.285 1562.68 L580.378 1562.68 L594.223 1544.03 L581.555 1527.04 L588.462 1527.04 L597.915 1539.74 L607.368 1527.04 L614.275 1527.04 Z" fill="#000000" fill-rule="evenodd" fill-opacity="1" /><path clip-path="url(#clip680)" d="M620.259 1542.22 L637.414 1542.22 L637.414 1547.44 L620.259 1547.44 L620.259 1542.22 Z" fill="#000000" fill-rule="evenodd" fill-opacity="1" /><path clip-path="url(#clip680)" d="M672.394 1528.4 L672.394 1533.88 Q669.911 1532.51 667.397 1531.84 Q664.914 1531.14 662.368 1531.14 Q656.671 1531.14 653.52 1534.77 Q650.369 1538.37 650.369 1544.89 Q650.369 1551.42 653.52 1555.04 Q656.671 1558.64 662.368 1558.64 Q664.914 1558.64 667.397 1557.97 Q669.911 1557.27 672.394 1555.9 L672.394 1561.31 Q669.943 1562.46 667.301 1563.03 Q664.692 1563.61 661.731 1563.61 Q653.679 1563.61 648.936 1558.55 Q644.194 1553.49 644.194 1544.89 Q644.194 1536.17 648.968 1531.17 Q653.774 1526.18 662.113 1526.18 Q664.819 1526.18 667.397 1526.75 Q669.975 1527.29 672.394 1528.4 Z" fill="#000000" fill-rule="evenodd" fill-opacity="1" /><path clip-path="url(#clip680)" d="M696.393 1531.14 Q691.682 1531.14 688.945 1534.83 Q686.208 1538.49 686.208 1544.89 Q686.208 1551.29 688.913 1554.98 Q691.65 1558.64 696.393 1558.64 Q701.072 1558.64 703.809 1554.95 Q706.546 1551.26 706.546 1544.89 Q706.546 1538.56 703.809 1534.87 Q701.072 1531.14 696.393 1531.14 M696.393 1526.18 Q704.032 1526.18 708.392 1531.14 Q712.753 1536.11 712.753 1544.89 Q712.753 1553.64 708.392 1558.64 Q704.032 1563.61 696.393 1563.61 Q688.722 1563.61 684.362 1558.64 Q680.033 1553.64 680.033 1544.89 Q680.033 1536.11 684.362 1531.14 Q688.722 1526.18 696.393 1526.18 Z" fill="#000000" fill-rule="evenodd" fill-opacity="1" /><path clip-path="url(#clip680)" d="M736.274 1531.14 Q731.563 1531.14 728.826 1534.83 Q726.089 1538.49 726.089 1544.89 Q726.089 1551.29 728.794 1554.98 Q731.531 1558.64 736.274 1558.64 Q740.953 1558.64 743.69 1554.95 Q746.427 1551.26 746.427 1544.89 Q746.427 1538.56 743.69 1534.87 Q740.953 1531.14 736.274 1531.14 M736.274 1526.18 Q743.913 1526.18 748.273 1531.14 Q752.634 1536.11 752.634 1544.89 Q752.634 1553.64 748.273 1558.64 Q743.913 1563.61 736.274 1563.61 Q728.603 1563.61 724.243 1558.64 Q719.914 1553.64 719.914 1544.89 Q719.914 1536.11 724.243 1531.14 Q728.603 1526.18 736.274 1526.18 Z" fill="#000000" fill-rule="evenodd" fill-opacity="1" /><path clip-path="url(#clip680)" d="M782.998 1532.51 Q782.011 1531.94 780.834 1531.68 Q779.688 1531.4 778.288 1531.4 Q773.322 1531.4 770.649 1534.64 Q768.007 1537.86 768.007 1543.9 L768.007 1562.68 L762.119 1562.68 L762.119 1527.04 L768.007 1527.04 L768.007 1532.57 Q769.853 1529.33 772.813 1527.77 Q775.773 1526.18 780.006 1526.18 Q780.611 1526.18 781.343 1526.27 Q782.075 1526.34 782.966 1526.49 L782.998 1532.51 Z" fill="#000000" fill-rule="evenodd" fill-opacity="1" /><path clip-path="url(#clip680)" d="M811.453 1532.45 L811.453 1513.16 L817.309 1513.16 L817.309 1562.68 L811.453 1562.68 L811.453 1557.34 Q809.607 1560.52 806.774 1562.08 Q803.973 1563.61 800.026 1563.61 Q793.565 1563.61 789.491 1558.45 Q785.449 1553.29 785.449 1544.89 Q785.449 1536.49 789.491 1531.33 Q793.565 1526.18 800.026 1526.18 Q803.973 1526.18 806.774 1527.74 Q809.607 1529.26 811.453 1532.45 M791.496 1544.89 Q791.496 1551.35 794.138 1555.04 Q796.812 1558.7 801.459 1558.7 Q806.106 1558.7 808.779 1555.04 Q811.453 1551.35 811.453 1544.89 Q811.453 1538.43 808.779 1534.77 Q806.106 1531.08 801.459 1531.08 Q796.812 1531.08 794.138 1534.77 Q791.496 1538.43 791.496 1544.89 Z" fill="#000000" fill-rule="evenodd" fill-opacity="1" /><path clip-path="url(#clip680)" d="M829.372 1527.04 L835.229 1527.04 L835.229 1562.68 L829.372 1562.68 L829.372 1527.04 M829.372 1513.16 L835.229 1513.16 L835.229 1520.57 L829.372 1520.57 L829.372 1513.16 Z" fill="#000000" fill-rule="evenodd" fill-opacity="1" /><path clip-path="url(#clip680)" d="M877.115 1541.17 L877.115 1562.68 L871.259 1562.68 L871.259 1541.36 Q871.259 1536.3 869.285 1533.78 Q867.312 1531.27 863.365 1531.27 Q858.623 1531.27 855.886 1534.29 Q853.148 1537.32 853.148 1542.54 L853.148 1562.68 L847.26 1562.68 L847.26 1527.04 L853.148 1527.04 L853.148 1532.57 Q855.249 1529.36 858.082 1527.77 Q860.946 1526.18 864.67 1526.18 Q870.813 1526.18 873.964 1530 Q877.115 1533.78 877.115 1541.17 Z" fill="#000000" fill-rule="evenodd" fill-opacity="1" /><path clip-path="url(#clip680)" d="M904.997 1544.76 Q897.899 1544.76 895.162 1546.39 Q892.425 1548.01 892.425 1551.93 Q892.425 1555.04 894.462 1556.89 Q896.531 1558.7 900.064 1558.7 Q904.933 1558.7 907.861 1555.27 Q910.822 1551.8 910.822 1546.07 L910.822 1544.76 L904.997 1544.76 M916.678 1542.35 L916.678 1562.68 L910.822 1562.68 L910.822 1557.27 Q908.816 1560.52 905.824 1562.08 Q902.833 1563.61 898.504 1563.61 Q893.029 1563.61 889.783 1560.55 Q886.568 1557.46 886.568 1552.31 Q886.568 1546.29 890.579 1543.24 Q894.621 1540.18 902.61 1540.18 L910.822 1540.18 L910.822 1539.61 Q910.822 1535.57 908.148 1533.37 Q905.506 1531.14 900.7 1531.14 Q897.645 1531.14 894.748 1531.87 Q891.852 1532.61 889.178 1534.07 L889.178 1528.66 Q892.393 1527.42 895.417 1526.81 Q898.44 1526.18 901.305 1526.18 Q909.039 1526.18 912.859 1530.19 Q916.678 1534.2 916.678 1542.35 Z" fill="#000000" fill-rule="evenodd" fill-opacity="1" /><path clip-path="url(#clip680)" d="M934.534 1516.91 L934.534 1527.04 L946.597 1527.04 L946.597 1531.59 L934.534 1531.59 L934.534 1550.94 Q934.534 1555.3 935.711 1556.54 Q936.921 1557.78 940.581 1557.78 L946.597 1557.78 L946.597 1562.68 L940.581 1562.68 Q933.802 1562.68 931.224 1560.17 Q928.646 1557.62 928.646 1550.94 L928.646 1531.59 L924.349 1531.59 L924.349 1527.04 L928.646 1527.04 L928.646 1516.91 L934.534 1516.91 Z" fill="#000000" fill-rule="evenodd" fill-opacity="1" /><path clip-path="url(#clip680)" d="M984.791 1543.4 L984.791 1546.26 L957.864 1546.26 Q958.246 1552.31 961.493 1555.49 Q964.771 1558.64 970.596 1558.64 Q973.969 1558.64 977.12 1557.81 Q980.303 1556.99 983.422 1555.33 L983.422 1560.87 Q980.271 1562.21 976.961 1562.91 Q973.651 1563.61 970.245 1563.61 Q961.715 1563.61 956.718 1558.64 Q951.753 1553.68 951.753 1545.21 Q951.753 1536.46 956.464 1531.33 Q961.206 1526.18 969.227 1526.18 Q976.42 1526.18 980.59 1530.82 Q984.791 1535.44 984.791 1543.4 M978.935 1541.68 Q978.871 1536.87 976.229 1534.01 Q973.619 1531.14 969.291 1531.14 Q964.389 1531.14 961.429 1533.91 Q958.501 1536.68 958.055 1541.71 L978.935 1541.68 Z" fill="#000000" fill-rule="evenodd" fill-opacity="1" /><polyline clip-path="url(#clip682)" style="stroke:#000000; stroke-linecap:butt; stroke-linejoin:round; stroke-width:2; stroke-opacity:0.1; fill:none" points="
  1599.23,1416.28 256.073,1335 
  "/>
<polyline clip-path="url(#clip682)" style="stroke:#000000; stroke-linecap:butt; stroke-linejoin:round; stroke-width:2; stroke-opacity:0.1; fill:none" points="
  256.073,1335 256.073,284.185 
  "/>
<polyline clip-path="url(#clip682)" style="stroke:#000000; stroke-linecap:butt; stroke-linejoin:round; stroke-width:2; stroke-opacity:0.1; fill:none" points="
  1782.13,1358.77 438.967,1277.49 
  "/>
<polyline clip-path="url(#clip682)" style="stroke:#000000; stroke-linecap:butt; stroke-linejoin:round; stroke-width:2; stroke-opacity:0.1; fill:none" points="
  438.967,1277.49 438.967,226.675 
  "/>
<polyline clip-path="url(#clip682)" style="stroke:#000000; stroke-linecap:butt; stroke-linejoin:round; stroke-width:2; stroke-opacity:0.1; fill:none" points="
  1965.02,1301.26 621.862,1219.98 
  "/>
<polyline clip-path="url(#clip682)" style="stroke:#000000; stroke-linecap:butt; stroke-linejoin:round; stroke-width:2; stroke-opacity:0.1; fill:none" points="
  621.862,1219.98 621.862,169.165 
  "/>
<polyline clip-path="url(#clip682)" style="stroke:#000000; stroke-linecap:butt; stroke-linejoin:round; stroke-width:2; stroke-opacity:0.1; fill:none" points="
  2147.91,1243.75 804.756,1162.47 
  "/>
<polyline clip-path="url(#clip682)" style="stroke:#000000; stroke-linecap:butt; stroke-linejoin:round; stroke-width:2; stroke-opacity:0.1; fill:none" points="
  804.756,1162.47 804.756,111.655 
  "/>
<polyline clip-path="url(#clip682)" style="stroke:#000000; stroke-linecap:butt; stroke-linejoin:round; stroke-width:2; stroke-opacity:0.1; fill:none" points="
  2330.81,1186.24 987.651,1104.96 
  "/>
<polyline clip-path="url(#clip682)" style="stroke:#000000; stroke-linecap:butt; stroke-linejoin:round; stroke-width:2; stroke-opacity:0.1; fill:none" points="
  987.651,1104.96 987.651,54.1453 
  "/>
<polyline clip-path="url(#clip680)" style="stroke:#000000; stroke-linecap:butt; stroke-linejoin:round; stroke-width:4; stroke-opacity:1; fill:none" points="
  1577.28,1423.18 2352.76,1179.34 
  "/>
<polyline clip-path="url(#clip680)" style="stroke:#000000; stroke-linecap:butt; stroke-linejoin:round; stroke-width:4; stroke-opacity:1; fill:none" points="
  1599.23,1416.28 1583.11,1415.3 
  "/>
<polyline clip-path="url(#clip680)" style="stroke:#000000; stroke-linecap:butt; stroke-linejoin:round; stroke-width:4; stroke-opacity:1; fill:none" points="
  1782.13,1358.77 1766.01,1357.79 
  "/>
<polyline clip-path="url(#clip680)" style="stroke:#000000; stroke-linecap:butt; stroke-linejoin:round; stroke-width:4; stroke-opacity:1; fill:none" points="
  1965.02,1301.26 1948.9,1300.28 
  "/>
<polyline clip-path="url(#clip680)" style="stroke:#000000; stroke-linecap:butt; stroke-linejoin:round; stroke-width:4; stroke-opacity:1; fill:none" points="
  2147.91,1243.75 2131.8,1242.77 
  "/>
<polyline clip-path="url(#clip680)" style="stroke:#000000; stroke-linecap:butt; stroke-linejoin:round; stroke-width:4; stroke-opacity:1; fill:none" points="
  2330.81,1186.24 2314.69,1185.26 
  "/>
<path clip-path="url(#clip680)" d="M1607.87 1444.2 L1637.55 1444.2 L1637.55 1448.14 L1607.87 1448.14 L1607.87 1444.2 Z" fill="#000000" fill-rule="evenodd" fill-opacity="1" /><path clip-path="url(#clip680)" d="M1648.45 1457.1 L1656.09 1457.1 L1656.09 1430.73 L1647.78 1432.4 L1647.78 1428.14 L1656.04 1426.47 L1660.72 1426.47 L1660.72 1457.1 L1668.36 1457.1 L1668.36 1461.03 L1648.45 1461.03 L1648.45 1457.1 Z" fill="#000000" fill-rule="evenodd" fill-opacity="1" /><path clip-path="url(#clip680)" d="M1687.8 1429.55 Q1684.19 1429.55 1682.36 1433.12 Q1680.55 1436.66 1680.55 1443.79 Q1680.55 1450.89 1682.36 1454.46 Q1684.19 1458 1687.8 1458 Q1691.43 1458 1693.24 1454.46 Q1695.07 1450.89 1695.07 1443.79 Q1695.07 1436.66 1693.24 1433.12 Q1691.43 1429.55 1687.8 1429.55 M1687.8 1425.85 Q1693.61 1425.85 1696.67 1430.45 Q1699.74 1435.04 1699.74 1443.79 Q1699.74 1452.51 1696.67 1457.12 Q1693.61 1461.7 1687.8 1461.7 Q1681.99 1461.7 1678.91 1457.12 Q1675.86 1452.51 1675.86 1443.79 Q1675.86 1435.04 1678.91 1430.45 Q1681.99 1425.85 1687.8 1425.85 Z" fill="#000000" fill-rule="evenodd" fill-opacity="1" /><path clip-path="url(#clip680)" d="M1717.96 1429.55 Q1714.35 1429.55 1712.52 1433.12 Q1710.72 1436.66 1710.72 1443.79 Q1710.72 1450.89 1712.52 1454.46 Q1714.35 1458 1717.96 1458 Q1721.6 1458 1723.4 1454.46 Q1725.23 1450.89 1725.23 1443.79 Q1725.23 1436.66 1723.4 1433.12 Q1721.6 1429.55 1717.96 1429.55 M1717.96 1425.85 Q1723.77 1425.85 1726.83 1430.45 Q1729.91 1435.04 1729.91 1443.79 Q1729.91 1452.51 1726.83 1457.12 Q1723.77 1461.7 1717.96 1461.7 Q1712.15 1461.7 1709.07 1457.12 Q1706.02 1452.51 1706.02 1443.79 Q1706.02 1435.04 1709.07 1430.45 Q1712.15 1425.85 1717.96 1425.85 Z" fill="#000000" fill-rule="evenodd" fill-opacity="1" /><path clip-path="url(#clip680)" d="M1790.76 1386.69 L1820.44 1386.69 L1820.44 1390.63 L1790.76 1390.63 L1790.76 1386.69 Z" fill="#000000" fill-rule="evenodd" fill-opacity="1" /><path clip-path="url(#clip680)" d="M1830.58 1368.96 L1848.94 1368.96 L1848.94 1372.9 L1834.86 1372.9 L1834.86 1381.37 Q1835.88 1381.02 1836.9 1380.86 Q1837.92 1380.68 1838.94 1380.68 Q1844.72 1380.68 1848.1 1383.85 Q1851.48 1387.02 1851.48 1392.43 Q1851.48 1398.01 1848.01 1401.12 Q1844.54 1404.19 1838.22 1404.19 Q1836.04 1404.19 1833.77 1403.82 Q1831.53 1403.45 1829.12 1402.71 L1829.12 1398.01 Q1831.2 1399.15 1833.43 1399.7 Q1835.65 1400.26 1838.12 1400.26 Q1842.13 1400.26 1844.47 1398.15 Q1846.81 1396.05 1846.81 1392.43 Q1846.81 1388.82 1844.47 1386.72 Q1842.13 1384.61 1838.12 1384.61 Q1836.25 1384.61 1834.37 1385.03 Q1832.52 1385.44 1830.58 1386.32 L1830.58 1368.96 Z" fill="#000000" fill-rule="evenodd" fill-opacity="1" /><path clip-path="url(#clip680)" d="M1870.69 1372.04 Q1867.08 1372.04 1865.25 1375.61 Q1863.45 1379.15 1863.45 1386.28 Q1863.45 1393.38 1865.25 1396.95 Q1867.08 1400.49 1870.69 1400.49 Q1874.33 1400.49 1876.13 1396.95 Q1877.96 1393.38 1877.96 1386.28 Q1877.96 1379.15 1876.13 1375.61 Q1874.33 1372.04 1870.69 1372.04 M1870.69 1368.34 Q1876.5 1368.34 1879.56 1372.94 Q1882.64 1377.53 1882.64 1386.28 Q1882.64 1395 1879.56 1399.61 Q1876.5 1404.19 1870.69 1404.19 Q1864.88 1404.19 1861.81 1399.61 Q1858.75 1395 1858.75 1386.28 Q1858.75 1377.53 1861.81 1372.94 Q1864.88 1368.34 1870.69 1368.34 Z" fill="#000000" fill-rule="evenodd" fill-opacity="1" /><path clip-path="url(#clip680)" d="M1985.6 1314.53 Q1981.99 1314.53 1980.16 1318.1 Q1978.36 1321.64 1978.36 1328.77 Q1978.36 1335.87 1980.16 1339.44 Q1981.99 1342.98 1985.6 1342.98 Q1989.24 1342.98 1991.04 1339.44 Q1992.87 1335.87 1992.87 1328.77 Q1992.87 1321.64 1991.04 1318.1 Q1989.24 1314.53 1985.6 1314.53 M1985.6 1310.83 Q1991.41 1310.83 1994.47 1315.43 Q1997.55 1320.02 1997.55 1328.77 Q1997.55 1337.49 1994.47 1342.1 Q1991.41 1346.68 1985.6 1346.68 Q1979.79 1346.68 1976.71 1342.1 Q1973.66 1337.49 1973.66 1328.77 Q1973.66 1320.02 1976.71 1315.43 Q1979.79 1310.83 1985.6 1310.83 Z" fill="#000000" fill-rule="evenodd" fill-opacity="1" /><path clip-path="url(#clip680)" d="M2158.01 1253.94 L2176.37 1253.94 L2176.37 1257.88 L2162.29 1257.88 L2162.29 1266.35 Q2163.31 1266 2164.33 1265.84 Q2165.35 1265.66 2166.37 1265.66 Q2172.15 1265.66 2175.53 1268.83 Q2178.91 1272 2178.91 1277.41 Q2178.91 1282.99 2175.44 1286.1 Q2171.97 1289.17 2165.65 1289.17 Q2163.47 1289.17 2161.21 1288.8 Q2158.96 1288.43 2156.55 1287.69 L2156.55 1282.99 Q2158.64 1284.13 2160.86 1284.68 Q2163.08 1285.24 2165.56 1285.24 Q2169.56 1285.24 2171.9 1283.13 Q2174.24 1281.03 2174.24 1277.41 Q2174.24 1273.8 2171.9 1271.7 Q2169.56 1269.59 2165.56 1269.59 Q2163.68 1269.59 2161.81 1270.01 Q2159.96 1270.42 2158.01 1271.3 L2158.01 1253.94 Z" fill="#000000" fill-rule="evenodd" fill-opacity="1" /><path clip-path="url(#clip680)" d="M2198.13 1257.02 Q2194.52 1257.02 2192.69 1260.59 Q2190.88 1264.13 2190.88 1271.26 Q2190.88 1278.36 2192.69 1281.93 Q2194.52 1285.47 2198.13 1285.47 Q2201.76 1285.47 2203.57 1281.93 Q2205.4 1278.36 2205.4 1271.26 Q2205.4 1264.13 2203.57 1260.59 Q2201.76 1257.02 2198.13 1257.02 M2198.13 1253.32 Q2203.94 1253.32 2206.99 1257.92 Q2210.07 1262.51 2210.07 1271.26 Q2210.07 1279.98 2206.99 1284.59 Q2203.94 1289.17 2198.13 1289.17 Q2192.32 1289.17 2189.24 1284.59 Q2186.18 1279.98 2186.18 1271.26 Q2186.18 1262.51 2189.24 1257.92 Q2192.32 1253.32 2198.13 1253.32 Z" fill="#000000" fill-rule="evenodd" fill-opacity="1" /><path clip-path="url(#clip680)" d="M2340.12 1227.06 L2347.76 1227.06 L2347.76 1200.69 L2339.45 1202.36 L2339.45 1198.1 L2347.71 1196.43 L2352.39 1196.43 L2352.39 1227.06 L2360.03 1227.06 L2360.03 1230.99 L2340.12 1230.99 L2340.12 1227.06 Z" fill="#000000" fill-rule="evenodd" fill-opacity="1" /><path clip-path="url(#clip680)" d="M2379.47 1199.51 Q2375.86 1199.51 2374.03 1203.08 Q2372.23 1206.62 2372.23 1213.75 Q2372.23 1220.85 2374.03 1224.42 Q2375.86 1227.96 2379.47 1227.96 Q2383.1 1227.96 2384.91 1224.42 Q2386.74 1220.85 2386.74 1213.75 Q2386.74 1206.62 2384.91 1203.08 Q2383.1 1199.51 2379.47 1199.51 M2379.47 1195.81 Q2385.28 1195.81 2388.34 1200.41 Q2391.41 1205 2391.41 1213.75 Q2391.41 1222.47 2388.34 1227.08 Q2385.28 1231.66 2379.47 1231.66 Q2373.66 1231.66 2370.58 1227.08 Q2367.53 1222.47 2367.53 1213.75 Q2367.53 1205 2370.58 1200.41 Q2373.66 1195.81 2379.47 1195.81 Z" fill="#000000" fill-rule="evenodd" fill-opacity="1" /><path clip-path="url(#clip680)" d="M2409.63 1199.51 Q2406.02 1199.51 2404.19 1203.08 Q2402.39 1206.62 2402.39 1213.75 Q2402.39 1220.85 2404.19 1224.42 Q2406.02 1227.96 2409.63 1227.96 Q2413.27 1227.96 2415.07 1224.42 Q2416.9 1220.85 2416.9 1213.75 Q2416.9 1206.62 2415.07 1203.08 Q2413.27 1199.51 2409.63 1199.51 M2409.63 1195.81 Q2415.44 1195.81 2418.5 1200.41 Q2421.58 1205 2421.58 1213.75 Q2421.58 1222.47 2418.5 1227.08 Q2415.44 1231.66 2409.63 1231.66 Q2403.82 1231.66 2400.74 1227.08 Q2397.69 1222.47 2397.69 1213.75 Q2397.69 1205 2400.74 1200.41 Q2403.82 1195.81 2409.63 1195.81 Z" fill="#000000" fill-rule="evenodd" fill-opacity="1" /><path clip-path="url(#clip680)" d="M1905.57 1484.71 Q1903.09 1491.08 1900.73 1493.02 Q1898.38 1494.96 1894.43 1494.96 L1889.75 1494.96 L1889.75 1490.06 L1893.19 1490.06 Q1895.61 1490.06 1896.95 1488.91 Q1898.28 1487.77 1899.91 1483.5 L1900.96 1480.83 L1886.54 1445.75 L1892.74 1445.75 L1903.88 1473.64 L1915.02 1445.75 L1921.23 1445.75 L1905.57 1484.71 Z" fill="#000000" fill-rule="evenodd" fill-opacity="1" /><path clip-path="url(#clip680)" d="M1925.21 1460.94 L1942.36 1460.94 L1942.36 1466.16 L1925.21 1466.16 L1925.21 1460.94 Z" fill="#000000" fill-rule="evenodd" fill-opacity="1" /><path clip-path="url(#clip680)" d="M1977.34 1447.12 L1977.34 1452.6 Q1974.86 1451.23 1972.35 1450.56 Q1969.86 1449.86 1967.32 1449.86 Q1961.62 1449.86 1958.47 1453.49 Q1955.32 1457.09 1955.32 1463.61 Q1955.32 1470.14 1958.47 1473.76 Q1961.62 1477.36 1967.32 1477.36 Q1969.86 1477.36 1972.35 1476.69 Q1974.86 1475.99 1977.34 1474.62 L1977.34 1480.03 Q1974.89 1481.18 1972.25 1481.75 Q1969.64 1482.33 1966.68 1482.33 Q1958.63 1482.33 1953.89 1477.27 Q1949.14 1472.2 1949.14 1463.61 Q1949.14 1454.89 1953.92 1449.89 Q1958.72 1444.9 1967.06 1444.9 Q1969.77 1444.9 1972.35 1445.47 Q1974.93 1446.01 1977.34 1447.12 Z" fill="#000000" fill-rule="evenodd" fill-opacity="1" /><path clip-path="url(#clip680)" d="M2001.34 1449.86 Q1996.63 1449.86 1993.9 1453.55 Q1991.16 1457.21 1991.16 1463.61 Q1991.16 1470.01 1993.86 1473.7 Q1996.6 1477.36 2001.34 1477.36 Q2006.02 1477.36 2008.76 1473.67 Q2011.5 1469.98 2011.5 1463.61 Q2011.5 1457.28 2008.76 1453.58 Q2006.02 1449.86 2001.34 1449.86 M2001.34 1444.9 Q2008.98 1444.9 2013.34 1449.86 Q2017.7 1454.83 2017.7 1463.61 Q2017.7 1472.36 2013.34 1477.36 Q2008.98 1482.33 2001.34 1482.33 Q1993.67 1482.33 1989.31 1477.36 Q1984.98 1472.36 1984.98 1463.61 Q1984.98 1454.83 1989.31 1449.86 Q1993.67 1444.9 2001.34 1444.9 Z" fill="#000000" fill-rule="evenodd" fill-opacity="1" /><path clip-path="url(#clip680)" d="M2041.22 1449.86 Q2036.51 1449.86 2033.78 1453.55 Q2031.04 1457.21 2031.04 1463.61 Q2031.04 1470.01 2033.74 1473.7 Q2036.48 1477.36 2041.22 1477.36 Q2045.9 1477.36 2048.64 1473.67 Q2051.38 1469.98 2051.38 1463.61 Q2051.38 1457.28 2048.64 1453.58 Q2045.9 1449.86 2041.22 1449.86 M2041.22 1444.9 Q2048.86 1444.9 2053.22 1449.86 Q2057.58 1454.83 2057.58 1463.61 Q2057.58 1472.36 2053.22 1477.36 Q2048.86 1482.33 2041.22 1482.33 Q2033.55 1482.33 2029.19 1477.36 Q2024.86 1472.36 2024.86 1463.61 Q2024.86 1454.83 2029.19 1449.86 Q2033.55 1444.9 2041.22 1444.9 Z" fill="#000000" fill-rule="evenodd" fill-opacity="1" /><path clip-path="url(#clip680)" d="M2087.95 1451.23 Q2086.96 1450.66 2085.78 1450.4 Q2084.64 1450.12 2083.24 1450.12 Q2078.27 1450.12 2075.6 1453.36 Q2072.96 1456.58 2072.96 1462.62 L2072.96 1481.4 L2067.07 1481.4 L2067.07 1445.75 L2072.96 1445.75 L2072.96 1451.29 Q2074.8 1448.05 2077.76 1446.49 Q2080.72 1444.9 2084.96 1444.9 Q2085.56 1444.9 2086.29 1444.99 Q2087.03 1445.05 2087.92 1445.21 L2087.95 1451.23 Z" fill="#000000" fill-rule="evenodd" fill-opacity="1" /><path clip-path="url(#clip680)" d="M2116.4 1451.17 L2116.4 1431.88 L2122.26 1431.88 L2122.26 1481.4 L2116.4 1481.4 L2116.4 1476.06 Q2114.56 1479.24 2111.72 1480.8 Q2108.92 1482.33 2104.98 1482.33 Q2098.52 1482.33 2094.44 1477.17 Q2090.4 1472.01 2090.4 1463.61 Q2090.4 1455.21 2094.44 1450.05 Q2098.52 1444.9 2104.98 1444.9 Q2108.92 1444.9 2111.72 1446.46 Q2114.56 1447.98 2116.4 1451.17 M2096.45 1463.61 Q2096.45 1470.07 2099.09 1473.76 Q2101.76 1477.42 2106.41 1477.42 Q2111.06 1477.42 2113.73 1473.76 Q2116.4 1470.07 2116.4 1463.61 Q2116.4 1457.15 2113.73 1453.49 Q2111.06 1449.8 2106.41 1449.8 Q2101.76 1449.8 2099.09 1453.49 Q2096.45 1457.15 2096.45 1463.61 Z" fill="#000000" fill-rule="evenodd" fill-opacity="1" /><path clip-path="url(#clip680)" d="M2134.32 1445.75 L2140.18 1445.75 L2140.18 1481.4 L2134.32 1481.4 L2134.32 1445.75 M2134.32 1431.88 L2140.18 1431.88 L2140.18 1439.29 L2134.32 1439.29 L2134.32 1431.88 Z" fill="#000000" fill-rule="evenodd" fill-opacity="1" /><path clip-path="url(#clip680)" d="M2182.07 1459.89 L2182.07 1481.4 L2176.21 1481.4 L2176.21 1460.08 Q2176.21 1455.02 2174.24 1452.5 Q2172.26 1449.99 2168.32 1449.99 Q2163.57 1449.99 2160.84 1453.01 Q2158.1 1456.04 2158.1 1461.26 L2158.1 1481.4 L2152.21 1481.4 L2152.21 1445.75 L2158.1 1445.75 L2158.1 1451.29 Q2160.2 1448.08 2163.03 1446.49 Q2165.9 1444.9 2169.62 1444.9 Q2175.76 1444.9 2178.91 1448.71 Q2182.07 1452.5 2182.07 1459.89 Z" fill="#000000" fill-rule="evenodd" fill-opacity="1" /><path clip-path="url(#clip680)" d="M2209.95 1463.48 Q2202.85 1463.48 2200.11 1465.11 Q2197.38 1466.73 2197.38 1470.64 Q2197.38 1473.76 2199.41 1475.61 Q2201.48 1477.42 2205.01 1477.42 Q2209.88 1477.42 2212.81 1473.99 Q2215.77 1470.52 2215.77 1464.79 L2215.77 1463.48 L2209.95 1463.48 M2221.63 1461.06 L2221.63 1481.4 L2215.77 1481.4 L2215.77 1475.99 Q2213.77 1479.24 2210.77 1480.8 Q2207.78 1482.33 2203.45 1482.33 Q2197.98 1482.33 2194.73 1479.27 Q2191.52 1476.18 2191.52 1471.03 Q2191.52 1465.01 2195.53 1461.96 Q2199.57 1458.9 2207.56 1458.9 L2215.77 1458.9 L2215.77 1458.33 Q2215.77 1454.28 2213.1 1452.09 Q2210.46 1449.86 2205.65 1449.86 Q2202.6 1449.86 2199.7 1450.59 Q2196.8 1451.32 2194.13 1452.79 L2194.13 1447.38 Q2197.34 1446.14 2200.37 1445.53 Q2203.39 1444.9 2206.26 1444.9 Q2213.99 1444.9 2217.81 1448.91 Q2221.63 1452.92 2221.63 1461.06 Z" fill="#000000" fill-rule="evenodd" fill-opacity="1" /><path clip-path="url(#clip680)" d="M2239.48 1435.63 L2239.48 1445.75 L2251.55 1445.75 L2251.55 1450.31 L2239.48 1450.31 L2239.48 1469.66 Q2239.48 1474.02 2240.66 1475.26 Q2241.87 1476.5 2245.53 1476.5 L2251.55 1476.5 L2251.55 1481.4 L2245.53 1481.4 Q2238.75 1481.4 2236.17 1478.89 Q2233.6 1476.34 2233.6 1469.66 L2233.6 1450.31 L2229.3 1450.31 L2229.3 1445.75 L2233.6 1445.75 L2233.6 1435.63 L2239.48 1435.63 Z" fill="#000000" fill-rule="evenodd" fill-opacity="1" /><path clip-path="url(#clip680)" d="M2289.74 1462.11 L2289.74 1464.98 L2262.81 1464.98 Q2263.2 1471.03 2266.44 1474.21 Q2269.72 1477.36 2275.55 1477.36 Q2278.92 1477.36 2282.07 1476.53 Q2285.25 1475.71 2288.37 1474.05 L2288.37 1479.59 Q2285.22 1480.93 2281.91 1481.63 Q2278.6 1482.33 2275.2 1482.33 Q2266.67 1482.33 2261.67 1477.36 Q2256.7 1472.4 2256.7 1463.93 Q2256.7 1455.18 2261.41 1450.05 Q2266.16 1444.9 2274.18 1444.9 Q2281.37 1444.9 2285.54 1449.54 Q2289.74 1454.16 2289.74 1462.11 M2283.89 1460.4 Q2283.82 1455.59 2281.18 1452.73 Q2278.57 1449.86 2274.24 1449.86 Q2269.34 1449.86 2266.38 1452.63 Q2263.45 1455.4 2263.01 1460.43 L2283.89 1460.4 Z" fill="#000000" fill-rule="evenodd" fill-opacity="1" /><polyline clip-path="url(#clip682)" style="stroke:#000000; stroke-linecap:butt; stroke-linejoin:round; stroke-width:2; stroke-opacity:0.1; fill:none" points="
  234.125,1312.16 1009.6,1068.32 
  "/>
<polyline clip-path="url(#clip682)" style="stroke:#000000; stroke-linecap:butt; stroke-linejoin:round; stroke-width:2; stroke-opacity:0.1; fill:none" points="
  1009.6,1068.32 2352.76,1149.6 
  "/>
<polyline clip-path="url(#clip682)" style="stroke:#000000; stroke-linecap:butt; stroke-linejoin:round; stroke-width:2; stroke-opacity:0.1; fill:none" points="
  234.125,1064.33 1009.6,820.484 
  "/>
<polyline clip-path="url(#clip682)" style="stroke:#000000; stroke-linecap:butt; stroke-linejoin:round; stroke-width:2; stroke-opacity:0.1; fill:none" points="
  1009.6,820.484 2352.76,901.765 
  "/>
<polyline clip-path="url(#clip682)" style="stroke:#000000; stroke-linecap:butt; stroke-linejoin:round; stroke-width:2; stroke-opacity:0.1; fill:none" points="
  234.125,816.493 1009.6,572.651 
  "/>
<polyline clip-path="url(#clip682)" style="stroke:#000000; stroke-linecap:butt; stroke-linejoin:round; stroke-width:2; stroke-opacity:0.1; fill:none" points="
  1009.6,572.651 2352.76,653.931 
  "/>
<polyline clip-path="url(#clip682)" style="stroke:#000000; stroke-linecap:butt; stroke-linejoin:round; stroke-width:2; stroke-opacity:0.1; fill:none" points="
  234.125,568.659 1009.6,324.817 
  "/>
<polyline clip-path="url(#clip682)" style="stroke:#000000; stroke-linecap:butt; stroke-linejoin:round; stroke-width:2; stroke-opacity:0.1; fill:none" points="
  1009.6,324.817 2352.76,406.098 
  "/>
<polyline clip-path="url(#clip682)" style="stroke:#000000; stroke-linecap:butt; stroke-linejoin:round; stroke-width:2; stroke-opacity:0.1; fill:none" points="
  234.125,320.826 1009.6,76.9841 
  "/>
<polyline clip-path="url(#clip682)" style="stroke:#000000; stroke-linecap:butt; stroke-linejoin:round; stroke-width:2; stroke-opacity:0.1; fill:none" points="
  1009.6,76.9841 2352.76,158.265 
  "/>
<polyline clip-path="url(#clip680)" style="stroke:#000000; stroke-linecap:butt; stroke-linejoin:round; stroke-width:4; stroke-opacity:1; fill:none" points="
  234.125,1341.9 234.125,291.086 
  "/>
<polyline clip-path="url(#clip680)" style="stroke:#000000; stroke-linecap:butt; stroke-linejoin:round; stroke-width:4; stroke-opacity:1; fill:none" points="
  234.125,1312.16 243.431,1309.23 
  "/>
<polyline clip-path="url(#clip680)" style="stroke:#000000; stroke-linecap:butt; stroke-linejoin:round; stroke-width:4; stroke-opacity:1; fill:none" points="
  234.125,1064.33 243.431,1061.4 
  "/>
<polyline clip-path="url(#clip680)" style="stroke:#000000; stroke-linecap:butt; stroke-linejoin:round; stroke-width:4; stroke-opacity:1; fill:none" points="
  234.125,816.493 243.431,813.567 
  "/>
<polyline clip-path="url(#clip680)" style="stroke:#000000; stroke-linecap:butt; stroke-linejoin:round; stroke-width:4; stroke-opacity:1; fill:none" points="
  234.125,568.659 243.431,565.733 
  "/>
<polyline clip-path="url(#clip680)" style="stroke:#000000; stroke-linecap:butt; stroke-linejoin:round; stroke-width:4; stroke-opacity:1; fill:none" points="
  234.125,320.826 243.431,317.9 
  "/>
<path clip-path="url(#clip680)" d="M193.381 1297.96 Q189.77 1297.96 187.941 1301.52 Q186.136 1305.06 186.136 1312.19 Q186.136 1319.3 187.941 1322.87 Q189.77 1326.41 193.381 1326.41 Q197.015 1326.41 198.821 1322.87 Q200.65 1319.3 200.65 1312.19 Q200.65 1305.06 198.821 1301.52 Q197.015 1297.96 193.381 1297.96 M193.381 1294.25 Q199.191 1294.25 202.247 1298.86 Q205.325 1303.44 205.325 1312.19 Q205.325 1320.92 202.247 1325.53 Q199.191 1330.11 193.381 1330.11 Q187.571 1330.11 184.492 1325.53 Q181.437 1320.92 181.437 1312.19 Q181.437 1303.44 184.492 1298.86 Q187.571 1294.25 193.381 1294.25 Z" fill="#000000" fill-rule="evenodd" fill-opacity="1" /><path clip-path="url(#clip680)" d="M153.266 1047.05 L171.622 1047.05 L171.622 1050.98 L157.548 1050.98 L157.548 1059.45 Q158.566 1059.11 159.585 1058.94 Q160.603 1058.76 161.622 1058.76 Q167.409 1058.76 170.789 1061.93 Q174.168 1065.1 174.168 1070.52 Q174.168 1076.1 170.696 1079.2 Q167.224 1082.28 160.904 1082.28 Q158.728 1082.28 156.46 1081.91 Q154.215 1081.54 151.807 1080.8 L151.807 1076.1 Q153.891 1077.23 156.113 1077.79 Q158.335 1078.34 160.812 1078.34 Q164.816 1078.34 167.154 1076.24 Q169.492 1074.13 169.492 1070.52 Q169.492 1066.91 167.154 1064.8 Q164.816 1062.69 160.812 1062.69 Q158.937 1062.69 157.062 1063.11 Q155.21 1063.53 153.266 1064.41 L153.266 1047.05 Z" fill="#000000" fill-rule="evenodd" fill-opacity="1" /><path clip-path="url(#clip680)" d="M193.381 1050.12 Q189.77 1050.12 187.941 1053.69 Q186.136 1057.23 186.136 1064.36 Q186.136 1071.47 187.941 1075.03 Q189.77 1078.57 193.381 1078.57 Q197.015 1078.57 198.821 1075.03 Q200.65 1071.47 200.65 1064.36 Q200.65 1057.23 198.821 1053.69 Q197.015 1050.12 193.381 1050.12 M193.381 1046.42 Q199.191 1046.42 202.247 1051.03 Q205.325 1055.61 205.325 1064.36 Q205.325 1073.09 202.247 1077.69 Q199.191 1082.28 193.381 1082.28 Q187.571 1082.28 184.492 1077.69 Q181.437 1073.09 181.437 1064.36 Q181.437 1055.61 184.492 1051.03 Q187.571 1046.42 193.381 1046.42 Z" fill="#000000" fill-rule="evenodd" fill-opacity="1" /><path clip-path="url(#clip680)" d="M123.868 829.837 L131.506 829.837 L131.506 803.472 L123.196 805.139 L123.196 800.879 L131.46 799.213 L136.136 799.213 L136.136 829.837 L143.775 829.837 L143.775 833.773 L123.868 833.773 L123.868 829.837 Z" fill="#000000" fill-rule="evenodd" fill-opacity="1" /><path clip-path="url(#clip680)" d="M163.219 802.291 Q159.608 802.291 157.779 805.856 Q155.974 809.398 155.974 816.527 Q155.974 823.634 157.779 827.199 Q159.608 830.74 163.219 830.74 Q166.853 830.74 168.659 827.199 Q170.488 823.634 170.488 816.527 Q170.488 809.398 168.659 805.856 Q166.853 802.291 163.219 802.291 M163.219 798.588 Q169.029 798.588 172.085 803.194 Q175.164 807.777 175.164 816.527 Q175.164 825.254 172.085 829.861 Q169.029 834.444 163.219 834.444 Q157.409 834.444 154.33 829.861 Q151.275 825.254 151.275 816.527 Q151.275 807.777 154.33 803.194 Q157.409 798.588 163.219 798.588 Z" fill="#000000" fill-rule="evenodd" fill-opacity="1" /><path clip-path="url(#clip680)" d="M193.381 802.291 Q189.77 802.291 187.941 805.856 Q186.136 809.398 186.136 816.527 Q186.136 823.634 187.941 827.199 Q189.77 830.74 193.381 830.74 Q197.015 830.74 198.821 827.199 Q200.65 823.634 200.65 816.527 Q200.65 809.398 198.821 805.856 Q197.015 802.291 193.381 802.291 M193.381 798.588 Q199.191 798.588 202.247 803.194 Q205.325 807.777 205.325 816.527 Q205.325 825.254 202.247 829.861 Q199.191 834.444 193.381 834.444 Q187.571 834.444 184.492 829.861 Q181.437 825.254 181.437 816.527 Q181.437 807.777 184.492 803.194 Q187.571 798.588 193.381 798.588 Z" fill="#000000" fill-rule="evenodd" fill-opacity="1" /><path clip-path="url(#clip680)" d="M123.868 582.004 L131.506 582.004 L131.506 555.639 L123.196 557.305 L123.196 553.046 L131.46 551.379 L136.136 551.379 L136.136 582.004 L143.775 582.004 L143.775 585.939 L123.868 585.939 L123.868 582.004 Z" fill="#000000" fill-rule="evenodd" fill-opacity="1" /><path clip-path="url(#clip680)" d="M153.266 551.379 L171.622 551.379 L171.622 555.315 L157.548 555.315 L157.548 563.787 Q158.566 563.439 159.585 563.277 Q160.603 563.092 161.622 563.092 Q167.409 563.092 170.789 566.264 Q174.168 569.435 174.168 574.851 Q174.168 580.43 170.696 583.532 Q167.224 586.611 160.904 586.611 Q158.728 586.611 156.46 586.24 Q154.215 585.87 151.807 585.129 L151.807 580.43 Q153.891 581.564 156.113 582.12 Q158.335 582.676 160.812 582.676 Q164.816 582.676 167.154 580.569 Q169.492 578.463 169.492 574.851 Q169.492 571.24 167.154 569.134 Q164.816 567.027 160.812 567.027 Q158.937 567.027 157.062 567.444 Q155.21 567.861 153.266 568.74 L153.266 551.379 Z" fill="#000000" fill-rule="evenodd" fill-opacity="1" /><path clip-path="url(#clip680)" d="M193.381 554.458 Q189.77 554.458 187.941 558.023 Q186.136 561.565 186.136 568.694 Q186.136 575.801 187.941 579.365 Q189.77 582.907 193.381 582.907 Q197.015 582.907 198.821 579.365 Q200.65 575.801 200.65 568.694 Q200.65 561.565 198.821 558.023 Q197.015 554.458 193.381 554.458 M193.381 550.754 Q199.191 550.754 202.247 555.361 Q205.325 559.944 205.325 568.694 Q205.325 577.421 202.247 582.027 Q199.191 586.611 193.381 586.611 Q187.571 586.611 184.492 582.027 Q181.437 577.421 181.437 568.694 Q181.437 559.944 184.492 555.361 Q187.571 550.754 193.381 550.754 Z" fill="#000000" fill-rule="evenodd" fill-opacity="1" /><path clip-path="url(#clip680)" d="M127.085 334.171 L143.404 334.171 L143.404 338.106 L121.46 338.106 L121.46 334.171 Q124.122 331.416 128.705 326.787 Q133.312 322.134 134.492 320.791 Q136.738 318.268 137.617 316.532 Q138.52 314.773 138.52 313.083 Q138.52 310.328 136.576 308.592 Q134.655 306.856 131.553 306.856 Q129.354 306.856 126.9 307.62 Q124.469 308.384 121.692 309.935 L121.692 305.213 Q124.516 304.079 126.969 303.5 Q129.423 302.921 131.46 302.921 Q136.83 302.921 140.025 305.606 Q143.219 308.291 143.219 312.782 Q143.219 314.912 142.409 316.833 Q141.622 318.731 139.516 321.324 Q138.937 321.995 135.835 325.213 Q132.733 328.407 127.085 334.171 Z" fill="#000000" fill-rule="evenodd" fill-opacity="1" /><path clip-path="url(#clip680)" d="M163.219 306.625 Q159.608 306.625 157.779 310.19 Q155.974 313.731 155.974 320.861 Q155.974 327.967 157.779 331.532 Q159.608 335.074 163.219 335.074 Q166.853 335.074 168.659 331.532 Q170.488 327.967 170.488 320.861 Q170.488 313.731 168.659 310.19 Q166.853 306.625 163.219 306.625 M163.219 302.921 Q169.029 302.921 172.085 307.528 Q175.164 312.111 175.164 320.861 Q175.164 329.588 172.085 334.194 Q169.029 338.777 163.219 338.777 Q157.409 338.777 154.33 334.194 Q151.275 329.588 151.275 320.861 Q151.275 312.111 154.33 307.528 Q157.409 302.921 163.219 302.921 Z" fill="#000000" fill-rule="evenodd" fill-opacity="1" /><path clip-path="url(#clip680)" d="M193.381 306.625 Q189.77 306.625 187.941 310.19 Q186.136 313.731 186.136 320.861 Q186.136 327.967 187.941 331.532 Q189.77 335.074 193.381 335.074 Q197.015 335.074 198.821 331.532 Q200.65 327.967 200.65 320.861 Q200.65 313.731 198.821 310.19 Q197.015 306.625 193.381 306.625 M193.381 302.921 Q199.191 302.921 202.247 307.528 Q205.325 312.111 205.325 320.861 Q205.325 329.588 202.247 334.194 Q199.191 338.777 193.381 338.777 Q187.571 338.777 184.492 334.194 Q181.437 329.588 181.437 320.861 Q181.437 312.111 184.492 307.528 Q187.571 302.921 193.381 302.921 Z" fill="#000000" fill-rule="evenodd" fill-opacity="1" /><path clip-path="url(#clip680)" d="M28.3562 1015.26 L28.3562 987.444 L33.7034 987.444 L59.3254 1009.47 L59.3254 987.444 L64.0042 987.444 L64.0042 1016.06 L58.657 1016.06 L33.035 994.032 L33.035 1015.26 L28.3562 1015.26 Z" fill="#000000" fill-rule="evenodd" fill-opacity="1" /><path clip-path="url(#clip680)" d="M43.5384 981.46 L43.5384 964.304 L48.7583 964.304 L48.7583 981.46 L43.5384 981.46 Z" fill="#000000" fill-rule="evenodd" fill-opacity="1" /><path clip-path="url(#clip680)" d="M29.7248 929.325 L35.1993 929.325 Q33.8307 931.807 33.1623 934.322 Q32.4621 936.804 32.4621 939.351 Q32.4621 945.048 36.0905 948.199 Q39.6872 951.35 46.212 951.35 Q52.7369 951.35 56.3653 948.199 Q59.9619 945.048 59.9619 939.351 Q59.9619 936.804 59.2935 934.322 Q58.5933 931.807 57.2247 929.325 L62.6355 929.325 Q63.7814 931.776 64.3543 934.417 Q64.9272 937.027 64.9272 939.987 Q64.9272 948.04 59.8664 952.782 Q54.8057 957.525 46.212 957.525 Q37.491 957.525 32.4939 952.751 Q27.4968 947.944 27.4968 939.605 Q27.4968 936.9 28.0697 934.322 Q28.6108 931.744 29.7248 929.325 Z" fill="#000000" fill-rule="evenodd" fill-opacity="1" /><path clip-path="url(#clip680)" d="M32.4621 905.326 Q32.4621 910.037 36.1542 912.774 Q39.8145 915.511 46.212 915.511 Q52.6095 915.511 56.3017 912.806 Q59.9619 910.069 59.9619 905.326 Q59.9619 900.647 56.2698 897.91 Q52.5777 895.173 46.212 895.173 Q39.8781 895.173 36.186 897.91 Q32.4621 900.647 32.4621 905.326 M27.4968 905.326 Q27.4968 897.687 32.4621 893.327 Q37.4273 888.966 46.212 888.966 Q54.9649 888.966 59.9619 893.327 Q64.9272 897.687 64.9272 905.326 Q64.9272 912.997 59.9619 917.357 Q54.9649 921.686 46.212 921.686 Q37.4273 921.686 32.4621 917.357 Q27.4968 912.997 27.4968 905.326 Z" fill="#000000" fill-rule="evenodd" fill-opacity="1" /><path clip-path="url(#clip680)" d="M32.4621 865.445 Q32.4621 870.156 36.1542 872.893 Q39.8145 875.63 46.212 875.63 Q52.6095 875.63 56.3017 872.925 Q59.9619 870.187 59.9619 865.445 Q59.9619 860.766 56.2698 858.029 Q52.5777 855.292 46.212 855.292 Q39.8781 855.292 36.186 858.029 Q32.4621 860.766 32.4621 865.445 M27.4968 865.445 Q27.4968 857.806 32.4621 853.446 Q37.4273 849.085 46.212 849.085 Q54.9649 849.085 59.9619 853.446 Q64.9272 857.806 64.9272 865.445 Q64.9272 873.116 59.9619 877.476 Q54.9649 881.805 46.212 881.805 Q37.4273 881.805 32.4621 877.476 Q27.4968 873.116 27.4968 865.445 Z" fill="#000000" fill-rule="evenodd" fill-opacity="1" /><path clip-path="url(#clip680)" d="M33.8307 818.721 Q33.2578 819.707 33.0032 820.885 Q32.7167 822.031 32.7167 823.431 Q32.7167 828.397 35.9632 831.07 Q39.1779 833.712 45.2253 833.712 L64.0042 833.712 L64.0042 839.6 L28.3562 839.6 L28.3562 833.712 L33.8944 833.712 Q30.6479 831.866 29.0883 828.906 Q27.4968 825.946 27.4968 821.713 Q27.4968 821.108 27.5923 820.376 Q27.656 819.644 27.8151 818.752 L33.8307 818.721 Z" fill="#000000" fill-rule="evenodd" fill-opacity="1" /><path clip-path="url(#clip680)" d="M33.7671 790.266 L14.479 790.266 L14.479 784.409 L64.0042 784.409 L64.0042 790.266 L58.657 790.266 Q61.8398 792.112 63.3994 794.945 Q64.9272 797.746 64.9272 801.692 Q64.9272 808.154 59.771 812.228 Q54.6147 816.27 46.212 816.27 Q37.8093 816.27 32.6531 812.228 Q27.4968 808.154 27.4968 801.692 Q27.4968 797.746 29.0564 794.945 Q30.5842 792.112 33.7671 790.266 M46.212 810.222 Q52.6732 810.222 56.3653 807.581 Q60.0256 804.907 60.0256 800.26 Q60.0256 795.613 56.3653 792.94 Q52.6732 790.266 46.212 790.266 Q39.7508 790.266 36.0905 792.94 Q32.3984 795.613 32.3984 800.26 Q32.3984 804.907 36.0905 807.581 Q39.7508 810.222 46.212 810.222 Z" fill="#000000" fill-rule="evenodd" fill-opacity="1" /><path clip-path="url(#clip680)" d="M28.3562 772.346 L28.3562 766.49 L64.0042 766.49 L64.0042 772.346 L28.3562 772.346 M14.479 772.346 L14.479 766.49 L21.895 766.49 L21.895 772.346 L14.479 772.346 Z" fill="#000000" fill-rule="evenodd" fill-opacity="1" /><path clip-path="url(#clip680)" d="M42.4881 724.604 L64.0042 724.604 L64.0042 730.46 L42.679 730.46 Q37.6183 730.46 35.1038 732.433 Q32.5894 734.407 32.5894 738.354 Q32.5894 743.096 35.6131 745.833 Q38.6368 748.571 43.8567 748.571 L64.0042 748.571 L64.0042 754.459 L28.3562 754.459 L28.3562 748.571 L33.8944 748.571 Q30.6797 746.47 29.0883 743.637 Q27.4968 740.773 27.4968 737.049 Q27.4968 730.906 31.3163 727.755 Q35.1038 724.604 42.4881 724.604 Z" fill="#000000" fill-rule="evenodd" fill-opacity="1" /><path clip-path="url(#clip680)" d="M46.0847 696.722 Q46.0847 703.82 47.7079 706.557 Q49.3312 709.294 53.2461 709.294 Q56.3653 709.294 58.2114 707.257 Q60.0256 705.188 60.0256 701.655 Q60.0256 696.786 56.5881 693.857 Q53.1188 690.897 47.3897 690.897 L46.0847 690.897 L46.0847 696.722 M43.6657 685.041 L64.0042 685.041 L64.0042 690.897 L58.5933 690.897 Q61.8398 692.902 63.3994 695.894 Q64.9272 698.886 64.9272 703.215 Q64.9272 708.689 61.8716 711.936 Q58.7843 715.151 53.6281 715.151 Q47.6125 715.151 44.5569 711.14 Q41.5014 707.098 41.5014 699.109 L41.5014 690.897 L40.9285 690.897 Q36.8862 690.897 34.6901 693.571 Q32.4621 696.213 32.4621 701.019 Q32.4621 704.074 33.1941 706.971 Q33.9262 709.867 35.3903 712.541 L29.9795 712.541 Q28.7381 709.326 28.1334 706.302 Q27.4968 703.279 27.4968 700.414 Q27.4968 692.68 31.5072 688.86 Q35.5176 685.041 43.6657 685.041 Z" fill="#000000" fill-rule="evenodd" fill-opacity="1" /><path clip-path="url(#clip680)" d="M18.2347 667.185 L28.3562 667.185 L28.3562 655.122 L32.9077 655.122 L32.9077 667.185 L52.2594 667.185 Q56.6199 667.185 57.8613 666.007 Q59.1026 664.798 59.1026 661.138 L59.1026 655.122 L64.0042 655.122 L64.0042 661.138 Q64.0042 667.917 61.4897 670.495 Q58.9434 673.073 52.2594 673.073 L32.9077 673.073 L32.9077 677.37 L28.3562 677.37 L28.3562 673.073 L18.2347 673.073 L18.2347 667.185 Z" fill="#000000" fill-rule="evenodd" fill-opacity="1" /><path clip-path="url(#clip680)" d="M44.7161 616.928 L47.5806 616.928 L47.5806 643.855 Q53.6281 643.473 56.8109 640.226 Q59.9619 636.948 59.9619 631.123 Q59.9619 627.749 59.1344 624.598 Q58.3069 621.416 56.6518 618.296 L62.1899 618.296 Q63.5267 621.447 64.227 624.758 Q64.9272 628.068 64.9272 631.473 Q64.9272 640.003 59.9619 645.001 Q54.9967 649.966 46.5303 649.966 Q37.7774 649.966 32.6531 645.255 Q27.4968 640.513 27.4968 632.492 Q27.4968 625.299 32.1438 621.129 Q36.7589 616.928 44.7161 616.928 M42.9973 622.784 Q38.1912 622.848 35.3266 625.49 Q32.4621 628.1 32.4621 632.428 Q32.4621 637.33 35.2312 640.29 Q38.0002 643.218 43.0292 643.664 L42.9973 622.784 Z" fill="#000000" fill-rule="evenodd" fill-opacity="1" /><polyline clip-path="url(#clip682)" style="stroke:#0000ff; stroke-linecap:butt; stroke-linejoin:round; stroke-width:4; stroke-opacity:1; fill:none" points="
  1139.14,230.208 1447.74,248.883 
  "/>
<polyline clip-path="url(#clip682)" style="stroke:#0000ff; stroke-linecap:butt; stroke-linejoin:round; stroke-width:4; stroke-opacity:1; fill:none" points="
  1139.14,230.208 1584.91,701.417 
  "/>
<polyline clip-path="url(#clip682)" style="stroke:#0000ff; stroke-linecap:butt; stroke-linejoin:round; stroke-width:4; stroke-opacity:1; fill:none" points="
  1447.74,248.883 1276.31,682.742 
  "/>
<polyline clip-path="url(#clip682)" style="stroke:#0000ff; stroke-linecap:butt; stroke-linejoin:round; stroke-width:4; stroke-opacity:1; fill:none" points="
  1139.14,230.208 1310.57,787.682 
  "/>
<polyline clip-path="url(#clip682)" style="stroke:#0000ff; stroke-linecap:butt; stroke-linejoin:round; stroke-width:4; stroke-opacity:1; fill:none" points="
  1447.74,248.883 1001.97,769.007 
  "/>
<polyline clip-path="url(#clip682)" style="stroke:#0000ff; stroke-linecap:butt; stroke-linejoin:round; stroke-width:4; stroke-opacity:1; fill:none" points="
  1447.74,248.883 1584.91,701.417 
  "/>
<polyline clip-path="url(#clip682)" style="stroke:#0000ff; stroke-linecap:butt; stroke-linejoin:round; stroke-width:4; stroke-opacity:1; fill:none" points="
  1447.74,248.883 1310.57,787.682 
  "/>
<polyline clip-path="url(#clip682)" style="stroke:#0000ff; stroke-linecap:butt; stroke-linejoin:round; stroke-width:4; stroke-opacity:1; fill:none" points="
  1139.14,230.208 1276.31,682.742 
  "/>
<polyline clip-path="url(#clip682)" style="stroke:#0000ff; stroke-linecap:butt; stroke-linejoin:round; stroke-width:4; stroke-opacity:1; fill:none" points="
  1139.14,230.208 1001.97,769.007 
  "/>
<polyline clip-path="url(#clip682)" style="stroke:#0000ff; stroke-linecap:butt; stroke-linejoin:round; stroke-width:4; stroke-opacity:1; fill:none" points="
  1276.31,682.742 1001.97,769.007 
  "/>
<polyline clip-path="url(#clip682)" style="stroke:#0000ff; stroke-linecap:butt; stroke-linejoin:round; stroke-width:4; stroke-opacity:1; fill:none" points="
  1584.91,701.417 1310.57,787.682 
  "/>
<polyline clip-path="url(#clip682)" style="stroke:#0000ff; stroke-linecap:butt; stroke-linejoin:round; stroke-width:4; stroke-opacity:1; fill:none" points="
  1276.31,682.742 1584.91,701.417 
  "/>
<polyline clip-path="url(#clip682)" style="stroke:#0000ff; stroke-linecap:butt; stroke-linejoin:round; stroke-width:4; stroke-opacity:1; fill:none" points="
  1310.57,787.682 1001.97,769.007 
  "/>
<polyline clip-path="url(#clip682)" style="stroke:#0000ff; stroke-linecap:butt; stroke-linejoin:round; stroke-width:4; stroke-opacity:1; fill:none" points="
  1276.31,682.742 516.186,1321 
  "/>
<polyline clip-path="url(#clip682)" style="stroke:#0000ff; stroke-linecap:butt; stroke-linejoin:round; stroke-width:4; stroke-opacity:1; fill:none" points="
  1001.97,769.007 1247.76,1090.96 
  "/>
<polyline clip-path="url(#clip682)" style="stroke:#0000ff; stroke-linecap:butt; stroke-linejoin:round; stroke-width:4; stroke-opacity:1; fill:none" points="
  1584.91,701.417 1339.12,1370.8 
  "/>
<polyline clip-path="url(#clip682)" style="stroke:#0000ff; stroke-linecap:butt; stroke-linejoin:round; stroke-width:4; stroke-opacity:1; fill:none" points="
  1310.57,787.682 2070.7,1140.76 
  "/>
<polyline clip-path="url(#clip682)" style="stroke:#0000ff; stroke-linecap:butt; stroke-linejoin:round; stroke-width:4; stroke-opacity:1; fill:none" points="
  1584.91,701.417 1247.76,1090.96 
  "/>
<polyline clip-path="url(#clip682)" style="stroke:#0000ff; stroke-linecap:butt; stroke-linejoin:round; stroke-width:4; stroke-opacity:1; fill:none" points="
  1276.31,682.742 2070.7,1140.76 
  "/>
<polyline clip-path="url(#clip682)" style="stroke:#0000ff; stroke-linecap:butt; stroke-linejoin:round; stroke-width:4; stroke-opacity:1; fill:none" points="
  1310.57,787.682 516.186,1321 
  "/>
<polyline clip-path="url(#clip682)" style="stroke:#0000ff; stroke-linecap:butt; stroke-linejoin:round; stroke-width:4; stroke-opacity:1; fill:none" points="
  1001.97,769.007 1339.12,1370.8 
  "/>
<polyline clip-path="url(#clip682)" style="stroke:#0000ff; stroke-linecap:butt; stroke-linejoin:round; stroke-width:4; stroke-opacity:1; fill:none" points="
  1001.97,769.007 516.186,1321 
  "/>
<polyline clip-path="url(#clip682)" style="stroke:#0000ff; stroke-linecap:butt; stroke-linejoin:round; stroke-width:4; stroke-opacity:1; fill:none" points="
  1276.31,682.742 1247.76,1090.96 
  "/>
<polyline clip-path="url(#clip682)" style="stroke:#0000ff; stroke-linecap:butt; stroke-linejoin:round; stroke-width:4; stroke-opacity:1; fill:none" points="
  1584.91,701.417 2070.7,1140.76 
  "/>
<polyline clip-path="url(#clip682)" style="stroke:#0000ff; stroke-linecap:butt; stroke-linejoin:round; stroke-width:4; stroke-opacity:1; fill:none" points="
  1310.57,787.682 1339.12,1370.8 
  "/>
<circle clip-path="url(#clip682)" cx="1139.14" cy="230.208" r="14" fill="#ffffff" fill-rule="evenodd" fill-opacity="1" stroke="#000000" stroke-opacity="1" stroke-width="3.2"/>
<circle clip-path="url(#clip682)" cx="1447.74" cy="248.883" r="14" fill="#ffffff" fill-rule="evenodd" fill-opacity="1" stroke="#000000" stroke-opacity="1" stroke-width="3.2"/>
<circle clip-path="url(#clip682)" cx="1276.31" cy="682.742" r="14" fill="#ffffff" fill-rule="evenodd" fill-opacity="1" stroke="#000000" stroke-opacity="1" stroke-width="3.2"/>
<circle clip-path="url(#clip682)" cx="1584.91" cy="701.417" r="14" fill="#ffffff" fill-rule="evenodd" fill-opacity="1" stroke="#000000" stroke-opacity="1" stroke-width="3.2"/>
<circle clip-path="url(#clip682)" cx="1310.57" cy="787.682" r="14" fill="#ffffff" fill-rule="evenodd" fill-opacity="1" stroke="#000000" stroke-opacity="1" stroke-width="3.2"/>
<circle clip-path="url(#clip682)" cx="1001.97" cy="769.007" r="14" fill="#ffffff" fill-rule="evenodd" fill-opacity="1" stroke="#000000" stroke-opacity="1" stroke-width="3.2"/>
<circle clip-path="url(#clip682)" cx="1247.76" cy="1090.96" r="14" fill="#ffffff" fill-rule="evenodd" fill-opacity="1" stroke="#000000" stroke-opacity="1" stroke-width="3.2"/>
<circle clip-path="url(#clip682)" cx="2070.7" cy="1140.76" r="14" fill="#ffffff" fill-rule="evenodd" fill-opacity="1" stroke="#000000" stroke-opacity="1" stroke-width="3.2"/>
<circle clip-path="url(#clip682)" cx="1339.12" cy="1370.8" r="14" fill="#ffffff" fill-rule="evenodd" fill-opacity="1" stroke="#000000" stroke-opacity="1" stroke-width="3.2"/>
<circle clip-path="url(#clip682)" cx="516.186" cy="1321" r="14" fill="#ffffff" fill-rule="evenodd" fill-opacity="1" stroke="#000000" stroke-opacity="1" stroke-width="3.2"/>
</svg>
