<?xml version="1.0" encoding="utf-8"?>
<svg xmlns="http://www.w3.org/2000/svg" xmlns:xlink="http://www.w3.org/1999/xlink" width="600" height="400" viewBox="0 0 2400 1600">
<defs>
  <clipPath id="clip350">
    <rect x="0" y="0" width="2400" height="1600"/>
  </clipPath>
</defs>
<path clip-path="url(#clip350)" d="
M0 1600 L2400 1600 L2400 0 L0 0  Z
  " fill="#ffffff" fill-rule="evenodd" fill-opacity="1"/>
<defs>
  <clipPath id="clip351">
    <rect x="480" y="0" width="1681" height="1600"/>
  </clipPath>
</defs>
<defs>
  <clipPath id="clip352">
    <rect x="219" y="47" width="2134" height="1377"/>
  </clipPath>
</defs>
<path clip-path="url(#clip352)" d="
M219.866 1341.9 L219.866 291.086 L1000.56 47.2441 L2352.76 128.525 L2352.76 1179.34 L1572.06 1423.18 L219.866 1341.9  Z
  " fill="#ffffff" fill-rule="evenodd" fill-opacity="1"/>
<polyline clip-path="url(#clip352)" style="stroke:#000000; stroke-linecap:butt; stroke-linejoin:round; stroke-width:2; stroke-opacity:0.1; fill:none" points="
  402.206,1352.86 1182.9,1109.02 
  "/>
<polyline clip-path="url(#clip352)" style="stroke:#000000; stroke-linecap:butt; stroke-linejoin:round; stroke-width:2; stroke-opacity:0.1; fill:none" points="
  1182.9,1109.02 1182.9,58.2045 
  "/>
<polyline clip-path="url(#clip352)" style="stroke:#000000; stroke-linecap:butt; stroke-linejoin:round; stroke-width:2; stroke-opacity:0.1; fill:none" points="
  649.085,1367.7 1429.78,1123.86 
  "/>
<polyline clip-path="url(#clip352)" style="stroke:#000000; stroke-linecap:butt; stroke-linejoin:round; stroke-width:2; stroke-opacity:0.1; fill:none" points="
  1429.78,1123.86 1429.78,73.0445 
  "/>
<polyline clip-path="url(#clip352)" style="stroke:#000000; stroke-linecap:butt; stroke-linejoin:round; stroke-width:2; stroke-opacity:0.1; fill:none" points="
  895.965,1382.54 1676.66,1138.7 
  "/>
<polyline clip-path="url(#clip352)" style="stroke:#000000; stroke-linecap:butt; stroke-linejoin:round; stroke-width:2; stroke-opacity:0.1; fill:none" points="
  1676.66,1138.7 1676.66,87.8844 
  "/>
<polyline clip-path="url(#clip352)" style="stroke:#000000; stroke-linecap:butt; stroke-linejoin:round; stroke-width:2; stroke-opacity:0.1; fill:none" points="
  1142.84,1397.38 1923.54,1153.54 
  "/>
<polyline clip-path="url(#clip352)" style="stroke:#000000; stroke-linecap:butt; stroke-linejoin:round; stroke-width:2; stroke-opacity:0.1; fill:none" points="
  1923.54,1153.54 1923.54,102.724 
  "/>
<polyline clip-path="url(#clip352)" style="stroke:#000000; stroke-linecap:butt; stroke-linejoin:round; stroke-width:2; stroke-opacity:0.1; fill:none" points="
  1389.72,1412.22 2170.42,1168.38 
  "/>
<polyline clip-path="url(#clip352)" style="stroke:#000000; stroke-linecap:butt; stroke-linejoin:round; stroke-width:2; stroke-opacity:0.1; fill:none" points="
  2170.42,1168.38 2170.42,117.564 
  "/>
<polyline clip-path="url(#clip350)" style="stroke:#000000; stroke-linecap:butt; stroke-linejoin:round; stroke-width:4; stroke-opacity:1; fill:none" points="
  219.866,1341.9 1572.06,1423.18 
  "/>
<polyline clip-path="url(#clip350)" style="stroke:#000000; stroke-linecap:butt; stroke-linejoin:round; stroke-width:4; stroke-opacity:1; fill:none" points="
  402.206,1352.86 411.574,1349.93 
  "/>
<polyline clip-path="url(#clip350)" style="stroke:#000000; stroke-linecap:butt; stroke-linejoin:round; stroke-width:4; stroke-opacity:1; fill:none" points="
  649.085,1367.7 658.454,1364.77 
  "/>
<polyline clip-path="url(#clip350)" style="stroke:#000000; stroke-linecap:butt; stroke-linejoin:round; stroke-width:4; stroke-opacity:1; fill:none" points="
  895.965,1382.54 905.333,1379.61 
  "/>
<polyline clip-path="url(#clip350)" style="stroke:#000000; stroke-linecap:butt; stroke-linejoin:round; stroke-width:4; stroke-opacity:1; fill:none" points="
  1142.84,1397.38 1152.21,1394.45 
  "/>
<polyline clip-path="url(#clip350)" style="stroke:#000000; stroke-linecap:butt; stroke-linejoin:round; stroke-width:4; stroke-opacity:1; fill:none" points="
  1389.72,1412.22 1399.09,1409.29 
  "/>
<path clip-path="url(#clip350)" d="M338.603 1382.06 L368.279 1382.06 L368.279 1385.99 L338.603 1385.99 L338.603 1382.06 Z" fill="#000000" fill-rule="evenodd" fill-opacity="1" /><path clip-path="url(#clip350)" d="M388.95 1379.74 Q385.802 1379.74 383.95 1381.9 Q382.121 1384.05 382.121 1387.8 Q382.121 1391.53 383.95 1393.7 Q385.802 1395.86 388.95 1395.86 Q392.098 1395.86 393.927 1393.7 Q395.779 1391.53 395.779 1387.8 Q395.779 1384.05 393.927 1381.9 Q392.098 1379.74 388.95 1379.74 M398.232 1365.09 L398.232 1369.35 Q396.473 1368.52 394.668 1368.08 Q392.885 1367.64 391.126 1367.64 Q386.496 1367.64 384.043 1370.76 Q381.612 1373.89 381.265 1380.21 Q382.631 1378.19 384.691 1377.13 Q386.751 1376.04 389.228 1376.04 Q394.436 1376.04 397.445 1379.21 Q400.478 1382.36 400.478 1387.8 Q400.478 1393.12 397.33 1396.34 Q394.181 1399.56 388.95 1399.56 Q382.955 1399.56 379.783 1394.98 Q376.612 1390.37 376.612 1381.64 Q376.612 1373.45 380.501 1368.59 Q384.39 1363.7 390.941 1363.7 Q392.7 1363.7 394.482 1364.05 Q396.288 1364.4 398.232 1365.09 Z" fill="#000000" fill-rule="evenodd" fill-opacity="1" /><path clip-path="url(#clip350)" d="M586.293 1396.9 L615.969 1396.9 L615.969 1400.83 L586.293 1400.83 L586.293 1396.9 Z" fill="#000000" fill-rule="evenodd" fill-opacity="1" /><path clip-path="url(#clip350)" d="M640.228 1395.09 Q643.584 1395.81 645.459 1398.08 Q647.357 1400.35 647.357 1403.68 Q647.357 1408.8 643.839 1411.6 Q640.32 1414.4 633.839 1414.4 Q631.663 1414.4 629.348 1413.96 Q627.057 1413.54 624.603 1412.69 L624.603 1408.17 Q626.547 1409.31 628.862 1409.89 Q631.177 1410.46 633.7 1410.46 Q638.098 1410.46 640.39 1408.73 Q642.705 1406.99 642.705 1403.68 Q642.705 1400.63 640.552 1398.91 Q638.422 1397.18 634.603 1397.18 L630.575 1397.18 L630.575 1393.33 L634.788 1393.33 Q638.237 1393.33 640.066 1391.97 Q641.894 1390.58 641.894 1387.99 Q641.894 1385.33 639.996 1383.91 Q638.121 1382.48 634.603 1382.48 Q632.682 1382.48 630.483 1382.89 Q628.283 1383.31 625.645 1384.19 L625.645 1380.02 Q628.307 1379.28 630.621 1378.91 Q632.959 1378.54 635.02 1378.54 Q640.344 1378.54 643.445 1380.97 Q646.547 1383.38 646.547 1387.5 Q646.547 1390.37 644.904 1392.36 Q643.26 1394.33 640.228 1395.09 Z" fill="#000000" fill-rule="evenodd" fill-opacity="1" /><path clip-path="url(#clip350)" d="M882.293 1397.09 Q878.682 1397.09 876.853 1400.65 Q875.047 1404.19 875.047 1411.32 Q875.047 1418.43 876.853 1421.99 Q878.682 1425.54 882.293 1425.54 Q885.927 1425.54 887.733 1421.99 Q889.561 1418.43 889.561 1411.32 Q889.561 1404.19 887.733 1400.65 Q885.927 1397.09 882.293 1397.09 M882.293 1393.38 Q888.103 1393.38 891.158 1397.99 Q894.237 1402.57 894.237 1411.32 Q894.237 1420.05 891.158 1424.66 Q888.103 1429.24 882.293 1429.24 Q876.483 1429.24 873.404 1424.66 Q870.348 1420.05 870.348 1411.32 Q870.348 1402.57 873.404 1397.99 Q876.483 1393.38 882.293 1393.38 Z" fill="#000000" fill-rule="evenodd" fill-opacity="1" /><path clip-path="url(#clip350)" d="M1133.99 1424.77 Q1137.34 1425.49 1139.22 1427.76 Q1141.12 1430.03 1141.12 1433.36 Q1141.12 1438.48 1137.6 1441.28 Q1134.08 1444.08 1127.6 1444.08 Q1125.42 1444.08 1123.11 1443.64 Q1120.82 1443.22 1118.36 1442.37 L1118.36 1437.85 Q1120.31 1438.99 1122.62 1439.56 Q1124.94 1440.14 1127.46 1440.14 Q1131.86 1440.14 1134.15 1438.41 Q1136.46 1436.67 1136.46 1433.36 Q1136.46 1430.31 1134.31 1428.59 Q1132.18 1426.86 1128.36 1426.86 L1124.33 1426.86 L1124.33 1423.01 L1128.55 1423.01 Q1132 1423.01 1133.83 1421.65 Q1135.65 1420.26 1135.65 1417.67 Q1135.65 1415 1133.76 1413.59 Q1131.88 1412.16 1128.36 1412.16 Q1126.44 1412.16 1124.24 1412.57 Q1122.04 1412.99 1119.4 1413.87 L1119.4 1409.7 Q1122.07 1408.96 1124.38 1408.59 Q1126.72 1408.22 1128.78 1408.22 Q1134.1 1408.22 1137.2 1410.65 Q1140.31 1413.06 1140.31 1417.18 Q1140.31 1420.05 1138.66 1422.04 Q1137.02 1424.01 1133.99 1424.77 Z" fill="#000000" fill-rule="evenodd" fill-opacity="1" /><path clip-path="url(#clip350)" d="M1376.47 1439.1 Q1373.32 1439.1 1371.47 1441.26 Q1369.64 1443.41 1369.64 1447.16 Q1369.64 1450.89 1371.47 1453.06 Q1373.32 1455.22 1376.47 1455.22 Q1379.62 1455.22 1381.45 1453.06 Q1383.3 1450.89 1383.3 1447.16 Q1383.3 1443.41 1381.45 1441.26 Q1379.62 1439.1 1376.47 1439.1 M1385.75 1424.45 L1385.75 1428.71 Q1383.99 1427.88 1382.19 1427.44 Q1380.4 1427 1378.64 1427 Q1374.02 1427 1371.56 1430.12 Q1369.13 1433.25 1368.78 1439.57 Q1370.15 1437.55 1372.21 1436.49 Q1374.27 1435.4 1376.75 1435.4 Q1381.95 1435.4 1384.96 1438.57 Q1388 1441.72 1388 1447.16 Q1388 1452.48 1384.85 1455.7 Q1381.7 1458.92 1376.47 1458.92 Q1370.47 1458.92 1367.3 1454.34 Q1364.13 1449.73 1364.13 1441 Q1364.13 1432.81 1368.02 1427.95 Q1371.91 1423.06 1378.46 1423.06 Q1380.22 1423.06 1382 1423.41 Q1383.81 1423.76 1385.75 1424.45 Z" fill="#000000" fill-rule="evenodd" fill-opacity="1" /><path clip-path="url(#clip350)" d="M604.536 1527.04 L591.645 1544.38 L605.204 1562.68 L598.298 1562.68 L587.921 1548.68 L577.545 1562.68 L570.639 1562.68 L584.484 1544.03 L571.816 1527.04 L578.723 1527.04 L588.176 1539.74 L597.629 1527.04 L604.536 1527.04 Z" fill="#000000" fill-rule="evenodd" fill-opacity="1" /><path clip-path="url(#clip350)" d="M610.52 1542.22 L627.675 1542.22 L627.675 1547.44 L610.52 1547.44 L610.52 1542.22 Z" fill="#000000" fill-rule="evenodd" fill-opacity="1" /><path clip-path="url(#clip350)" d="M662.655 1528.4 L662.655 1533.88 Q660.172 1532.51 657.658 1531.84 Q655.175 1531.14 652.629 1531.14 Q646.932 1531.14 643.78 1534.77 Q640.629 1538.37 640.629 1544.89 Q640.629 1551.42 643.78 1555.04 Q646.932 1558.64 652.629 1558.64 Q655.175 1558.64 657.658 1557.97 Q660.172 1557.27 662.655 1555.9 L662.655 1561.31 Q660.204 1562.46 657.562 1563.03 Q654.952 1563.61 651.992 1563.61 Q643.94 1563.61 639.197 1558.55 Q634.455 1553.49 634.455 1544.89 Q634.455 1536.17 639.229 1531.17 Q644.035 1526.18 652.374 1526.18 Q655.08 1526.18 657.658 1526.75 Q660.236 1527.29 662.655 1528.4 Z" fill="#000000" fill-rule="evenodd" fill-opacity="1" /><path clip-path="url(#clip350)" d="M686.654 1531.14 Q681.943 1531.14 679.206 1534.83 Q676.468 1538.49 676.468 1544.89 Q676.468 1551.29 679.174 1554.98 Q681.911 1558.64 686.654 1558.64 Q691.332 1558.64 694.07 1554.95 Q696.807 1551.26 696.807 1544.89 Q696.807 1538.56 694.07 1534.87 Q691.332 1531.14 686.654 1531.14 M686.654 1526.18 Q694.292 1526.18 698.653 1531.14 Q703.013 1536.11 703.013 1544.89 Q703.013 1553.64 698.653 1558.64 Q694.292 1563.61 686.654 1563.61 Q678.983 1563.61 674.622 1558.64 Q670.294 1553.64 670.294 1544.89 Q670.294 1536.11 674.622 1531.14 Q678.983 1526.18 686.654 1526.18 Z" fill="#000000" fill-rule="evenodd" fill-opacity="1" /><path clip-path="url(#clip350)" d="M726.535 1531.14 Q721.824 1531.14 719.087 1534.83 Q716.35 1538.49 716.35 1544.89 Q716.35 1551.29 719.055 1554.98 Q721.792 1558.64 726.535 1558.64 Q731.213 1558.64 733.951 1554.95 Q736.688 1551.26 736.688 1544.89 Q736.688 1538.56 733.951 1534.87 Q731.213 1531.14 726.535 1531.14 M726.535 1526.18 Q734.174 1526.18 738.534 1531.14 Q742.895 1536.11 742.895 1544.89 Q742.895 1553.64 738.534 1558.64 Q734.174 1563.61 726.535 1563.61 Q718.864 1563.61 714.503 1558.64 Q710.175 1553.64 710.175 1544.89 Q710.175 1536.11 714.503 1531.14 Q718.864 1526.18 726.535 1526.18 Z" fill="#000000" fill-rule="evenodd" fill-opacity="1" /><path clip-path="url(#clip350)" d="M773.259 1532.51 Q772.272 1531.94 771.095 1531.68 Q769.949 1531.4 768.548 1531.4 Q763.583 1531.4 760.909 1534.64 Q758.268 1537.86 758.268 1543.9 L758.268 1562.68 L752.379 1562.68 L752.379 1527.04 L758.268 1527.04 L758.268 1532.57 Q760.114 1529.33 763.074 1527.77 Q766.034 1526.18 770.267 1526.18 Q770.872 1526.18 771.604 1526.27 Q772.336 1526.34 773.227 1526.49 L773.259 1532.51 Z" fill="#000000" fill-rule="evenodd" fill-opacity="1" /><path clip-path="url(#clip350)" d="M801.714 1532.45 L801.714 1513.16 L807.57 1513.16 L807.57 1562.68 L801.714 1562.68 L801.714 1557.34 Q799.868 1560.52 797.035 1562.08 Q794.234 1563.61 790.287 1563.61 Q783.826 1563.61 779.752 1558.45 Q775.71 1553.29 775.71 1544.89 Q775.71 1536.49 779.752 1531.33 Q783.826 1526.18 790.287 1526.18 Q794.234 1526.18 797.035 1527.74 Q799.868 1529.26 801.714 1532.45 M781.757 1544.89 Q781.757 1551.35 784.399 1555.04 Q787.073 1558.7 791.72 1558.7 Q796.366 1558.7 799.04 1555.04 Q801.714 1551.35 801.714 1544.89 Q801.714 1538.43 799.04 1534.77 Q796.366 1531.08 791.72 1531.08 Q787.073 1531.08 784.399 1534.77 Q781.757 1538.43 781.757 1544.89 Z" fill="#000000" fill-rule="evenodd" fill-opacity="1" /><path clip-path="url(#clip350)" d="M819.633 1527.04 L825.49 1527.04 L825.49 1562.68 L819.633 1562.68 L819.633 1527.04 M819.633 1513.16 L825.49 1513.16 L825.49 1520.57 L819.633 1520.57 L819.633 1513.16 Z" fill="#000000" fill-rule="evenodd" fill-opacity="1" /><path clip-path="url(#clip350)" d="M867.376 1541.17 L867.376 1562.68 L861.519 1562.68 L861.519 1541.36 Q861.519 1536.3 859.546 1533.78 Q857.573 1531.27 853.626 1531.27 Q848.884 1531.27 846.146 1534.29 Q843.409 1537.32 843.409 1542.54 L843.409 1562.68 L837.521 1562.68 L837.521 1527.04 L843.409 1527.04 L843.409 1532.57 Q845.51 1529.36 848.342 1527.77 Q851.207 1526.18 854.931 1526.18 Q861.074 1526.18 864.225 1530 Q867.376 1533.78 867.376 1541.17 Z" fill="#000000" fill-rule="evenodd" fill-opacity="1" /><path clip-path="url(#clip350)" d="M895.258 1544.76 Q888.16 1544.76 885.423 1546.39 Q882.685 1548.01 882.685 1551.93 Q882.685 1555.04 884.722 1556.89 Q886.791 1558.7 890.324 1558.7 Q895.194 1558.7 898.122 1555.27 Q901.082 1551.8 901.082 1546.07 L901.082 1544.76 L895.258 1544.76 M906.939 1542.35 L906.939 1562.68 L901.082 1562.68 L901.082 1557.27 Q899.077 1560.52 896.085 1562.08 Q893.093 1563.61 888.765 1563.61 Q883.29 1563.61 880.044 1560.55 Q876.829 1557.46 876.829 1552.31 Q876.829 1546.29 880.839 1543.24 Q884.882 1540.18 892.871 1540.18 L901.082 1540.18 L901.082 1539.61 Q901.082 1535.57 898.409 1533.37 Q895.767 1531.14 890.961 1531.14 Q887.905 1531.14 885.009 1531.87 Q882.113 1532.61 879.439 1534.07 L879.439 1528.66 Q882.654 1527.42 885.677 1526.81 Q888.701 1526.18 891.566 1526.18 Q899.3 1526.18 903.119 1530.19 Q906.939 1534.2 906.939 1542.35 Z" fill="#000000" fill-rule="evenodd" fill-opacity="1" /><path clip-path="url(#clip350)" d="M924.795 1516.91 L924.795 1527.04 L936.858 1527.04 L936.858 1531.59 L924.795 1531.59 L924.795 1550.94 Q924.795 1555.3 925.972 1556.54 Q927.182 1557.78 930.842 1557.78 L936.858 1557.78 L936.858 1562.68 L930.842 1562.68 Q924.063 1562.68 921.484 1560.17 Q918.906 1557.62 918.906 1550.94 L918.906 1531.59 L914.609 1531.59 L914.609 1527.04 L918.906 1527.04 L918.906 1516.91 L924.795 1516.91 Z" fill="#000000" fill-rule="evenodd" fill-opacity="1" /><path clip-path="url(#clip350)" d="M975.052 1543.4 L975.052 1546.26 L948.125 1546.26 Q948.507 1552.31 951.753 1555.49 Q955.032 1558.64 960.856 1558.64 Q964.23 1558.64 967.381 1557.81 Q970.564 1556.99 973.683 1555.33 L973.683 1560.87 Q970.532 1562.21 967.222 1562.91 Q963.912 1563.61 960.506 1563.61 Q951.976 1563.61 946.979 1558.64 Q942.014 1553.68 942.014 1545.21 Q942.014 1536.46 946.724 1531.33 Q951.467 1526.18 959.488 1526.18 Q966.681 1526.18 970.85 1530.82 Q975.052 1535.44 975.052 1543.4 M969.195 1541.68 Q969.132 1536.87 966.49 1534.01 Q963.88 1531.14 959.551 1531.14 Q954.65 1531.14 951.69 1533.91 Q948.761 1536.68 948.316 1541.71 L969.195 1541.68 Z" fill="#000000" fill-rule="evenodd" fill-opacity="1" /><polyline clip-path="url(#clip352)" style="stroke:#000000; stroke-linecap:butt; stroke-linejoin:round; stroke-width:2; stroke-opacity:0.1; fill:none" points="
  1667.81,1393.27 315.611,1311.99 
  "/>
<polyline clip-path="url(#clip352)" style="stroke:#000000; stroke-linecap:butt; stroke-linejoin:round; stroke-width:2; stroke-opacity:0.1; fill:none" points="
  315.611,1311.99 315.611,261.181 
  "/>
<polyline clip-path="url(#clip352)" style="stroke:#000000; stroke-linecap:butt; stroke-linejoin:round; stroke-width:2; stroke-opacity:0.1; fill:none" points="
  1815.11,1347.27 462.912,1265.99 
  "/>
<polyline clip-path="url(#clip352)" style="stroke:#000000; stroke-linecap:butt; stroke-linejoin:round; stroke-width:2; stroke-opacity:0.1; fill:none" points="
  462.912,1265.99 462.912,215.173 
  "/>
<polyline clip-path="url(#clip352)" style="stroke:#000000; stroke-linecap:butt; stroke-linejoin:round; stroke-width:2; stroke-opacity:0.1; fill:none" points="
  1962.41,1301.26 610.212,1219.98 
  "/>
<polyline clip-path="url(#clip352)" style="stroke:#000000; stroke-linecap:butt; stroke-linejoin:round; stroke-width:2; stroke-opacity:0.1; fill:none" points="
  610.212,1219.98 610.212,169.165 
  "/>
<polyline clip-path="url(#clip352)" style="stroke:#000000; stroke-linecap:butt; stroke-linejoin:round; stroke-width:2; stroke-opacity:0.1; fill:none" points="
  2109.71,1255.25 757.512,1173.97 
  "/>
<polyline clip-path="url(#clip352)" style="stroke:#000000; stroke-linecap:butt; stroke-linejoin:round; stroke-width:2; stroke-opacity:0.1; fill:none" points="
  757.512,1173.97 757.512,123.157 
  "/>
<polyline clip-path="url(#clip352)" style="stroke:#000000; stroke-linecap:butt; stroke-linejoin:round; stroke-width:2; stroke-opacity:0.1; fill:none" points="
  2257.01,1209.24 904.813,1127.96 
  "/>
<polyline clip-path="url(#clip352)" style="stroke:#000000; stroke-linecap:butt; stroke-linejoin:round; stroke-width:2; stroke-opacity:0.1; fill:none" points="
  904.813,1127.96 904.813,77.1492 
  "/>
<polyline clip-path="url(#clip350)" style="stroke:#000000; stroke-linecap:butt; stroke-linejoin:round; stroke-width:4; stroke-opacity:1; fill:none" points="
  1572.06,1423.18 2352.76,1179.34 
  "/>
<polyline clip-path="url(#clip350)" style="stroke:#000000; stroke-linecap:butt; stroke-linejoin:round; stroke-width:4; stroke-opacity:1; fill:none" points="
  1667.81,1393.27 1651.58,1392.3 
  "/>
<polyline clip-path="url(#clip350)" style="stroke:#000000; stroke-linecap:butt; stroke-linejoin:round; stroke-width:4; stroke-opacity:1; fill:none" points="
  1815.11,1347.27 1798.88,1346.29 
  "/>
<polyline clip-path="url(#clip350)" style="stroke:#000000; stroke-linecap:butt; stroke-linejoin:round; stroke-width:4; stroke-opacity:1; fill:none" points="
  1962.41,1301.26 1946.18,1300.28 
  "/>
<polyline clip-path="url(#clip350)" style="stroke:#000000; stroke-linecap:butt; stroke-linejoin:round; stroke-width:4; stroke-opacity:1; fill:none" points="
  2109.71,1255.25 2093.48,1254.28 
  "/>
<polyline clip-path="url(#clip350)" style="stroke:#000000; stroke-linecap:butt; stroke-linejoin:round; stroke-width:4; stroke-opacity:1; fill:none" points="
  2257.01,1209.24 2240.78,1208.27 
  "/>
<path clip-path="url(#clip350)" d="M1676.4 1421.22 L1706.07 1421.22 L1706.07 1425.15 L1676.4 1425.15 L1676.4 1421.22 Z" fill="#000000" fill-rule="evenodd" fill-opacity="1" /><path clip-path="url(#clip350)" d="M1729.01 1407.56 L1717.21 1426.01 L1729.01 1426.01 L1729.01 1407.56 M1727.78 1403.48 L1733.66 1403.48 L1733.66 1426.01 L1738.59 1426.01 L1738.59 1429.9 L1733.66 1429.9 L1733.66 1438.04 L1729.01 1438.04 L1729.01 1429.9 L1713.41 1429.9 L1713.41 1425.38 L1727.78 1403.48 Z" fill="#000000" fill-rule="evenodd" fill-opacity="1" /><path clip-path="url(#clip350)" d="M1823.7 1375.21 L1853.37 1375.21 L1853.37 1379.14 L1823.7 1379.14 L1823.7 1375.21 Z" fill="#000000" fill-rule="evenodd" fill-opacity="1" /><path clip-path="url(#clip350)" d="M1867.49 1388.1 L1883.81 1388.1 L1883.81 1392.04 L1861.87 1392.04 L1861.87 1388.1 Q1864.53 1385.35 1869.11 1380.72 Q1873.72 1376.06 1874.9 1374.72 Q1877.14 1372.2 1878.02 1370.46 Q1878.93 1368.7 1878.93 1367.01 Q1878.93 1364.26 1876.98 1362.52 Q1875.06 1360.79 1871.96 1360.79 Q1869.76 1360.79 1867.31 1361.55 Q1864.88 1362.31 1862.1 1363.87 L1862.1 1359.14 Q1864.92 1358.01 1867.38 1357.43 Q1869.83 1356.85 1871.87 1356.85 Q1877.24 1356.85 1880.43 1359.54 Q1883.63 1362.22 1883.63 1366.71 Q1883.63 1368.84 1882.82 1370.76 Q1882.03 1372.66 1879.92 1375.25 Q1879.34 1375.93 1876.24 1379.14 Q1873.14 1382.34 1867.49 1388.1 Z" fill="#000000" fill-rule="evenodd" fill-opacity="1" /><path clip-path="url(#clip350)" d="M1982.94 1314.55 Q1979.33 1314.55 1977.5 1318.11 Q1975.7 1321.65 1975.7 1328.78 Q1975.7 1335.89 1977.5 1339.46 Q1979.33 1343 1982.94 1343 Q1986.57 1343 1988.38 1339.46 Q1990.21 1335.89 1990.21 1328.78 Q1990.21 1321.65 1988.38 1318.11 Q1986.57 1314.55 1982.94 1314.55 M1982.94 1310.84 Q1988.75 1310.84 1991.81 1315.45 Q1994.89 1320.03 1994.89 1328.78 Q1994.89 1337.51 1991.81 1342.12 Q1988.75 1346.7 1982.94 1346.7 Q1977.13 1346.7 1974.05 1342.12 Q1971 1337.51 1971 1328.78 Q1971 1320.03 1974.05 1315.45 Q1977.13 1310.84 1982.94 1310.84 Z" fill="#000000" fill-rule="evenodd" fill-opacity="1" /><path clip-path="url(#clip350)" d="M2123.92 1296.09 L2140.24 1296.09 L2140.24 1300.02 L2118.3 1300.02 L2118.3 1296.09 Q2120.96 1293.33 2125.54 1288.7 Q2130.15 1284.05 2131.33 1282.71 Q2133.57 1280.18 2134.45 1278.45 Q2135.36 1276.69 2135.36 1275 Q2135.36 1272.24 2133.41 1270.51 Q2131.49 1268.77 2128.39 1268.77 Q2126.19 1268.77 2123.74 1269.54 Q2121.31 1270.3 2118.53 1271.85 L2118.53 1267.13 Q2121.35 1265.99 2123.81 1265.41 Q2126.26 1264.84 2128.3 1264.84 Q2133.67 1264.84 2136.86 1267.52 Q2140.06 1270.21 2140.06 1274.7 Q2140.06 1276.83 2139.25 1278.75 Q2138.46 1280.65 2136.35 1283.24 Q2135.77 1283.91 2132.67 1287.13 Q2129.57 1290.32 2123.92 1296.09 Z" fill="#000000" fill-rule="evenodd" fill-opacity="1" /><path clip-path="url(#clip350)" d="M2281.2 1223.53 L2269.39 1241.98 L2281.2 1241.98 L2281.2 1223.53 M2279.97 1219.45 L2285.85 1219.45 L2285.85 1241.98 L2290.78 1241.98 L2290.78 1245.87 L2285.85 1245.87 L2285.85 1254.01 L2281.2 1254.01 L2281.2 1245.87 L2265.6 1245.87 L2265.6 1241.35 L2279.97 1219.45 Z" fill="#000000" fill-rule="evenodd" fill-opacity="1" /><path clip-path="url(#clip350)" d="M1902.96 1484.71 Q1900.48 1491.08 1898.12 1493.02 Q1895.77 1494.96 1891.82 1494.96 L1887.14 1494.96 L1887.14 1490.06 L1890.58 1490.06 Q1893 1490.06 1894.34 1488.91 Q1895.67 1487.77 1897.3 1483.5 L1898.35 1480.83 L1883.93 1445.75 L1890.13 1445.75 L1901.27 1473.64 L1912.41 1445.75 L1918.62 1445.75 L1902.96 1484.71 Z" fill="#000000" fill-rule="evenodd" fill-opacity="1" /><path clip-path="url(#clip350)" d="M1922.6 1460.94 L1939.76 1460.94 L1939.76 1466.16 L1922.6 1466.16 L1922.6 1460.94 Z" fill="#000000" fill-rule="evenodd" fill-opacity="1" /><path clip-path="url(#clip350)" d="M1974.73 1447.12 L1974.73 1452.6 Q1972.25 1451.23 1969.74 1450.56 Q1967.26 1449.86 1964.71 1449.86 Q1959.01 1449.86 1955.86 1453.49 Q1952.71 1457.09 1952.71 1463.61 Q1952.71 1470.14 1955.86 1473.76 Q1959.01 1477.36 1964.71 1477.36 Q1967.26 1477.36 1969.74 1476.69 Q1972.25 1475.99 1974.73 1474.62 L1974.73 1480.03 Q1972.28 1481.18 1969.64 1481.75 Q1967.03 1482.33 1964.07 1482.33 Q1956.02 1482.33 1951.28 1477.27 Q1946.53 1472.2 1946.53 1463.61 Q1946.53 1454.89 1951.31 1449.89 Q1956.12 1444.9 1964.45 1444.9 Q1967.16 1444.9 1969.74 1445.47 Q1972.32 1446.01 1974.73 1447.12 Z" fill="#000000" fill-rule="evenodd" fill-opacity="1" /><path clip-path="url(#clip350)" d="M1998.73 1449.86 Q1994.02 1449.86 1991.29 1453.55 Q1988.55 1457.21 1988.55 1463.61 Q1988.55 1470.01 1991.25 1473.7 Q1993.99 1477.36 1998.73 1477.36 Q2003.41 1477.36 2006.15 1473.67 Q2008.89 1469.98 2008.89 1463.61 Q2008.89 1457.28 2006.15 1453.58 Q2003.41 1449.86 1998.73 1449.86 M1998.73 1444.9 Q2006.37 1444.9 2010.73 1449.86 Q2015.09 1454.83 2015.09 1463.61 Q2015.09 1472.36 2010.73 1477.36 Q2006.37 1482.33 1998.73 1482.33 Q1991.06 1482.33 1986.7 1477.36 Q1982.37 1472.36 1982.37 1463.61 Q1982.37 1454.83 1986.7 1449.86 Q1991.06 1444.9 1998.73 1444.9 Z" fill="#000000" fill-rule="evenodd" fill-opacity="1" /><path clip-path="url(#clip350)" d="M2038.61 1449.86 Q2033.9 1449.86 2031.17 1453.55 Q2028.43 1457.21 2028.43 1463.61 Q2028.43 1470.01 2031.14 1473.7 Q2033.87 1477.36 2038.61 1477.36 Q2043.29 1477.36 2046.03 1473.67 Q2048.77 1469.98 2048.77 1463.61 Q2048.77 1457.28 2046.03 1453.58 Q2043.29 1449.86 2038.61 1449.86 M2038.61 1444.9 Q2046.25 1444.9 2050.61 1449.86 Q2054.97 1454.83 2054.97 1463.61 Q2054.97 1472.36 2050.61 1477.36 Q2046.25 1482.33 2038.61 1482.33 Q2030.94 1482.33 2026.58 1477.36 Q2022.25 1472.36 2022.25 1463.61 Q2022.25 1454.83 2026.58 1449.86 Q2030.94 1444.9 2038.61 1444.9 Z" fill="#000000" fill-rule="evenodd" fill-opacity="1" /><path clip-path="url(#clip350)" d="M2085.34 1451.23 Q2084.35 1450.66 2083.17 1450.4 Q2082.03 1450.12 2080.63 1450.12 Q2075.66 1450.12 2072.99 1453.36 Q2070.35 1456.58 2070.35 1462.62 L2070.35 1481.4 L2064.46 1481.4 L2064.46 1445.75 L2070.35 1445.75 L2070.35 1451.29 Q2072.19 1448.05 2075.15 1446.49 Q2078.11 1444.9 2082.35 1444.9 Q2082.95 1444.9 2083.68 1444.99 Q2084.42 1445.05 2085.31 1445.21 L2085.34 1451.23 Z" fill="#000000" fill-rule="evenodd" fill-opacity="1" /><path clip-path="url(#clip350)" d="M2113.79 1451.17 L2113.79 1431.88 L2119.65 1431.88 L2119.65 1481.4 L2113.79 1481.4 L2113.79 1476.06 Q2111.95 1479.24 2109.11 1480.8 Q2106.31 1482.33 2102.37 1482.33 Q2095.91 1482.33 2091.83 1477.17 Q2087.79 1472.01 2087.79 1463.61 Q2087.79 1455.21 2091.83 1450.05 Q2095.91 1444.9 2102.37 1444.9 Q2106.31 1444.9 2109.11 1446.46 Q2111.95 1447.98 2113.79 1451.17 M2093.84 1463.61 Q2093.84 1470.07 2096.48 1473.76 Q2099.15 1477.42 2103.8 1477.42 Q2108.45 1477.42 2111.12 1473.76 Q2113.79 1470.07 2113.79 1463.61 Q2113.79 1457.15 2111.12 1453.49 Q2108.45 1449.8 2103.8 1449.8 Q2099.15 1449.8 2096.48 1453.49 Q2093.84 1457.15 2093.84 1463.61 Z" fill="#000000" fill-rule="evenodd" fill-opacity="1" /><path clip-path="url(#clip350)" d="M2131.71 1445.75 L2137.57 1445.75 L2137.57 1481.4 L2131.71 1481.4 L2131.71 1445.75 M2131.71 1431.88 L2137.57 1431.88 L2137.57 1439.29 L2131.71 1439.29 L2131.71 1431.88 Z" fill="#000000" fill-rule="evenodd" fill-opacity="1" /><path clip-path="url(#clip350)" d="M2179.46 1459.89 L2179.46 1481.4 L2173.6 1481.4 L2173.6 1460.08 Q2173.6 1455.02 2171.63 1452.5 Q2169.65 1449.99 2165.71 1449.99 Q2160.96 1449.99 2158.23 1453.01 Q2155.49 1456.04 2155.49 1461.26 L2155.49 1481.4 L2149.6 1481.4 L2149.6 1445.75 L2155.49 1445.75 L2155.49 1451.29 Q2157.59 1448.08 2160.42 1446.49 Q2163.29 1444.9 2167.01 1444.9 Q2173.15 1444.9 2176.3 1448.71 Q2179.46 1452.5 2179.46 1459.89 Z" fill="#000000" fill-rule="evenodd" fill-opacity="1" /><path clip-path="url(#clip350)" d="M2207.34 1463.48 Q2200.24 1463.48 2197.5 1465.11 Q2194.77 1466.73 2194.77 1470.64 Q2194.77 1473.76 2196.8 1475.61 Q2198.87 1477.42 2202.4 1477.42 Q2207.27 1477.42 2210.2 1473.99 Q2213.16 1470.52 2213.16 1464.79 L2213.16 1463.48 L2207.34 1463.48 M2219.02 1461.06 L2219.02 1481.4 L2213.16 1481.4 L2213.16 1475.99 Q2211.16 1479.24 2208.17 1480.8 Q2205.17 1482.33 2200.84 1482.33 Q2195.37 1482.33 2192.12 1479.27 Q2188.91 1476.18 2188.91 1471.03 Q2188.91 1465.01 2192.92 1461.96 Q2196.96 1458.9 2204.95 1458.9 L2213.16 1458.9 L2213.16 1458.33 Q2213.16 1454.28 2210.49 1452.09 Q2207.85 1449.86 2203.04 1449.86 Q2199.99 1449.86 2197.09 1450.59 Q2194.19 1451.32 2191.52 1452.79 L2191.52 1447.38 Q2194.73 1446.14 2197.76 1445.53 Q2200.78 1444.9 2203.65 1444.9 Q2211.38 1444.9 2215.2 1448.91 Q2219.02 1452.92 2219.02 1461.06 Z" fill="#000000" fill-rule="evenodd" fill-opacity="1" /><path clip-path="url(#clip350)" d="M2236.87 1435.63 L2236.87 1445.75 L2248.94 1445.75 L2248.94 1450.31 L2236.87 1450.31 L2236.87 1469.66 Q2236.87 1474.02 2238.05 1475.26 Q2239.26 1476.5 2242.92 1476.5 L2248.94 1476.5 L2248.94 1481.4 L2242.92 1481.4 Q2236.14 1481.4 2233.56 1478.89 Q2230.99 1476.34 2230.99 1469.66 L2230.99 1450.31 L2226.69 1450.31 L2226.69 1445.75 L2230.99 1445.75 L2230.99 1435.63 L2236.87 1435.63 Z" fill="#000000" fill-rule="evenodd" fill-opacity="1" /><path clip-path="url(#clip350)" d="M2287.13 1462.11 L2287.13 1464.98 L2260.2 1464.98 Q2260.59 1471.03 2263.83 1474.21 Q2267.11 1477.36 2272.94 1477.36 Q2276.31 1477.36 2279.46 1476.53 Q2282.64 1475.71 2285.76 1474.05 L2285.76 1479.59 Q2282.61 1480.93 2279.3 1481.63 Q2275.99 1482.33 2272.59 1482.33 Q2264.06 1482.33 2259.06 1477.36 Q2254.09 1472.4 2254.09 1463.93 Q2254.09 1455.18 2258.8 1450.05 Q2263.55 1444.9 2271.57 1444.9 Q2278.76 1444.9 2282.93 1449.54 Q2287.13 1454.16 2287.13 1462.11 M2281.28 1460.4 Q2281.21 1455.59 2278.57 1452.73 Q2275.96 1449.86 2271.63 1449.86 Q2266.73 1449.86 2263.77 1452.63 Q2260.84 1455.4 2260.4 1460.43 L2281.28 1460.4 Z" fill="#000000" fill-rule="evenodd" fill-opacity="1" /><polyline clip-path="url(#clip352)" style="stroke:#000000; stroke-linecap:butt; stroke-linejoin:round; stroke-width:2; stroke-opacity:0.1; fill:none" points="
  219.866,1312.16 1000.56,1068.32 
  "/>
<polyline clip-path="url(#clip352)" style="stroke:#000000; stroke-linecap:butt; stroke-linejoin:round; stroke-width:2; stroke-opacity:0.1; fill:none" points="
  1000.56,1068.32 2352.76,1149.6 
  "/>
<polyline clip-path="url(#clip352)" style="stroke:#000000; stroke-linecap:butt; stroke-linejoin:round; stroke-width:2; stroke-opacity:0.1; fill:none" points="
  219.866,1070.84 1000.56,826.999 
  "/>
<polyline clip-path="url(#clip352)" style="stroke:#000000; stroke-linecap:butt; stroke-linejoin:round; stroke-width:2; stroke-opacity:0.1; fill:none" points="
  1000.56,826.999 2352.76,908.28 
  "/>
<polyline clip-path="url(#clip352)" style="stroke:#000000; stroke-linecap:butt; stroke-linejoin:round; stroke-width:2; stroke-opacity:0.1; fill:none" points="
  219.866,829.524 1000.56,585.682 
  "/>
<polyline clip-path="url(#clip352)" style="stroke:#000000; stroke-linecap:butt; stroke-linejoin:round; stroke-width:2; stroke-opacity:0.1; fill:none" points="
  1000.56,585.682 2352.76,666.962 
  "/>
<polyline clip-path="url(#clip352)" style="stroke:#000000; stroke-linecap:butt; stroke-linejoin:round; stroke-width:2; stroke-opacity:0.1; fill:none" points="
  219.866,588.206 1000.56,344.364 
  "/>
<polyline clip-path="url(#clip352)" style="stroke:#000000; stroke-linecap:butt; stroke-linejoin:round; stroke-width:2; stroke-opacity:0.1; fill:none" points="
  1000.56,344.364 2352.76,425.645 
  "/>
<polyline clip-path="url(#clip352)" style="stroke:#000000; stroke-linecap:butt; stroke-linejoin:round; stroke-width:2; stroke-opacity:0.1; fill:none" points="
  219.866,346.888 1000.56,103.046 
  "/>
<polyline clip-path="url(#clip352)" style="stroke:#000000; stroke-linecap:butt; stroke-linejoin:round; stroke-width:2; stroke-opacity:0.1; fill:none" points="
  1000.56,103.046 2352.76,184.327 
  "/>
<polyline clip-path="url(#clip350)" style="stroke:#000000; stroke-linecap:butt; stroke-linejoin:round; stroke-width:4; stroke-opacity:1; fill:none" points="
  219.866,1341.9 219.866,291.086 
  "/>
<polyline clip-path="url(#clip350)" style="stroke:#000000; stroke-linecap:butt; stroke-linejoin:round; stroke-width:4; stroke-opacity:1; fill:none" points="
  219.866,1312.16 229.235,1309.23 
  "/>
<polyline clip-path="url(#clip350)" style="stroke:#000000; stroke-linecap:butt; stroke-linejoin:round; stroke-width:4; stroke-opacity:1; fill:none" points="
  219.866,1070.84 229.235,1067.92 
  "/>
<polyline clip-path="url(#clip350)" style="stroke:#000000; stroke-linecap:butt; stroke-linejoin:round; stroke-width:4; stroke-opacity:1; fill:none" points="
  219.866,829.524 229.235,826.598 
  "/>
<polyline clip-path="url(#clip350)" style="stroke:#000000; stroke-linecap:butt; stroke-linejoin:round; stroke-width:4; stroke-opacity:1; fill:none" points="
  219.866,588.206 229.235,585.28 
  "/>
<polyline clip-path="url(#clip350)" style="stroke:#000000; stroke-linecap:butt; stroke-linejoin:round; stroke-width:4; stroke-opacity:1; fill:none" points="
  219.866,346.888 229.235,343.962 
  "/>
<path clip-path="url(#clip350)" d="M133.891 1297.96 Q130.28 1297.96 128.451 1301.52 Q126.645 1305.06 126.645 1312.19 Q126.645 1319.3 128.451 1322.87 Q130.28 1326.41 133.891 1326.41 Q137.525 1326.41 139.33 1322.87 Q141.159 1319.3 141.159 1312.19 Q141.159 1305.06 139.33 1301.52 Q137.525 1297.96 133.891 1297.96 M133.891 1294.25 Q139.701 1294.25 142.756 1298.86 Q145.835 1303.44 145.835 1312.19 Q145.835 1320.92 142.756 1325.53 Q139.701 1330.11 133.891 1330.11 Q128.08 1330.11 125.002 1325.53 Q121.946 1320.92 121.946 1312.19 Q121.946 1303.44 125.002 1298.86 Q128.08 1294.25 133.891 1294.25 Z" fill="#000000" fill-rule="evenodd" fill-opacity="1" /><path clip-path="url(#clip350)" d="M154.053 1323.56 L158.937 1323.56 L158.937 1329.44 L154.053 1329.44 L154.053 1323.56 Z" fill="#000000" fill-rule="evenodd" fill-opacity="1" /><path clip-path="url(#clip350)" d="M179.122 1297.96 Q175.511 1297.96 173.682 1301.52 Q171.877 1305.06 171.877 1312.19 Q171.877 1319.3 173.682 1322.87 Q175.511 1326.41 179.122 1326.41 Q182.756 1326.41 184.562 1322.87 Q186.39 1319.3 186.39 1312.19 Q186.39 1305.06 184.562 1301.52 Q182.756 1297.96 179.122 1297.96 M179.122 1294.25 Q184.932 1294.25 187.988 1298.86 Q191.066 1303.44 191.066 1312.19 Q191.066 1320.92 187.988 1325.53 Q184.932 1330.11 179.122 1330.11 Q173.312 1330.11 170.233 1325.53 Q167.178 1320.92 167.178 1312.19 Q167.178 1303.44 170.233 1298.86 Q173.312 1294.25 179.122 1294.25 Z" fill="#000000" fill-rule="evenodd" fill-opacity="1" /><path clip-path="url(#clip350)" d="M135.488 1056.64 Q131.877 1056.64 130.048 1060.2 Q128.243 1063.75 128.243 1070.88 Q128.243 1077.98 130.048 1081.55 Q131.877 1085.09 135.488 1085.09 Q139.122 1085.09 140.928 1081.55 Q142.756 1077.98 142.756 1070.88 Q142.756 1063.75 140.928 1060.2 Q139.122 1056.64 135.488 1056.64 M135.488 1052.94 Q141.298 1052.94 144.354 1057.54 Q147.432 1062.13 147.432 1070.88 Q147.432 1079.6 144.354 1084.21 Q141.298 1088.79 135.488 1088.79 Q129.678 1088.79 126.599 1084.21 Q123.543 1079.6 123.543 1070.88 Q123.543 1062.13 126.599 1057.54 Q129.678 1052.94 135.488 1052.94 Z" fill="#000000" fill-rule="evenodd" fill-opacity="1" /><path clip-path="url(#clip350)" d="M155.65 1082.24 L160.534 1082.24 L160.534 1088.12 L155.65 1088.12 L155.65 1082.24 Z" fill="#000000" fill-rule="evenodd" fill-opacity="1" /><path clip-path="url(#clip350)" d="M174.747 1084.19 L191.066 1084.19 L191.066 1088.12 L169.122 1088.12 L169.122 1084.19 Q171.784 1081.43 176.367 1076.8 Q180.974 1072.15 182.154 1070.81 Q184.4 1068.28 185.279 1066.55 Q186.182 1064.79 186.182 1063.1 Q186.182 1060.34 184.238 1058.61 Q182.316 1056.87 179.214 1056.87 Q177.015 1056.87 174.562 1057.64 Q172.131 1058.4 169.353 1059.95 L169.353 1055.23 Q172.177 1054.09 174.631 1053.52 Q177.085 1052.94 179.122 1052.94 Q184.492 1052.94 187.687 1055.62 Q190.881 1058.31 190.881 1062.8 Q190.881 1064.93 190.071 1066.85 Q189.284 1068.75 187.177 1071.34 Q186.599 1072.01 183.497 1075.23 Q180.395 1078.42 174.747 1084.19 Z" fill="#000000" fill-rule="evenodd" fill-opacity="1" /><path clip-path="url(#clip350)" d="M133.405 815.322 Q129.793 815.322 127.965 818.887 Q126.159 822.429 126.159 829.559 Q126.159 836.665 127.965 840.23 Q129.793 843.771 133.405 843.771 Q137.039 843.771 138.844 840.23 Q140.673 836.665 140.673 829.559 Q140.673 822.429 138.844 818.887 Q137.039 815.322 133.405 815.322 M133.405 811.619 Q139.215 811.619 142.27 816.225 Q145.349 820.809 145.349 829.559 Q145.349 838.285 142.27 842.892 Q139.215 847.475 133.405 847.475 Q127.594 847.475 124.516 842.892 Q121.46 838.285 121.46 829.559 Q121.46 820.809 124.516 816.225 Q127.594 811.619 133.405 811.619 Z" fill="#000000" fill-rule="evenodd" fill-opacity="1" /><path clip-path="url(#clip350)" d="M153.566 840.924 L158.451 840.924 L158.451 846.804 L153.566 846.804 L153.566 840.924 Z" fill="#000000" fill-rule="evenodd" fill-opacity="1" /><path clip-path="url(#clip350)" d="M181.483 816.318 L169.677 834.767 L181.483 834.767 L181.483 816.318 M180.256 812.244 L186.136 812.244 L186.136 834.767 L191.066 834.767 L191.066 838.656 L186.136 838.656 L186.136 846.804 L181.483 846.804 L181.483 838.656 L165.881 838.656 L165.881 834.142 L180.256 812.244 Z" fill="#000000" fill-rule="evenodd" fill-opacity="1" /><path clip-path="url(#clip350)" d="M133.729 574.005 Q130.118 574.005 128.289 577.57 Q126.483 581.111 126.483 588.241 Q126.483 595.347 128.289 598.912 Q130.118 602.454 133.729 602.454 Q137.363 602.454 139.168 598.912 Q140.997 595.347 140.997 588.241 Q140.997 581.111 139.168 577.57 Q137.363 574.005 133.729 574.005 M133.729 570.301 Q139.539 570.301 142.594 574.908 Q145.673 579.491 145.673 588.241 Q145.673 596.968 142.594 601.574 Q139.539 606.157 133.729 606.157 Q127.918 606.157 124.84 601.574 Q121.784 596.968 121.784 588.241 Q121.784 579.491 124.84 574.908 Q127.918 570.301 133.729 570.301 Z" fill="#000000" fill-rule="evenodd" fill-opacity="1" /><path clip-path="url(#clip350)" d="M153.891 599.607 L158.775 599.607 L158.775 605.486 L153.891 605.486 L153.891 599.607 Z" fill="#000000" fill-rule="evenodd" fill-opacity="1" /><path clip-path="url(#clip350)" d="M179.539 586.343 Q176.39 586.343 174.539 588.495 Q172.71 590.648 172.71 594.398 Q172.71 598.125 174.539 600.301 Q176.39 602.454 179.539 602.454 Q182.687 602.454 184.515 600.301 Q186.367 598.125 186.367 594.398 Q186.367 590.648 184.515 588.495 Q182.687 586.343 179.539 586.343 M188.821 571.69 L188.821 575.949 Q187.062 575.116 185.256 574.676 Q183.474 574.236 181.714 574.236 Q177.085 574.236 174.631 577.361 Q172.201 580.486 171.853 586.806 Q173.219 584.792 175.279 583.727 Q177.339 582.639 179.816 582.639 Q185.025 582.639 188.034 585.81 Q191.066 588.958 191.066 594.398 Q191.066 599.722 187.918 602.94 Q184.77 606.157 179.539 606.157 Q173.543 606.157 170.372 601.574 Q167.201 596.968 167.201 588.241 Q167.201 580.046 171.09 575.185 Q174.978 570.301 181.529 570.301 Q183.289 570.301 185.071 570.648 Q186.876 570.996 188.821 571.69 Z" fill="#000000" fill-rule="evenodd" fill-opacity="1" /><path clip-path="url(#clip350)" d="M133.983 332.687 Q130.372 332.687 128.543 336.252 Q126.738 339.794 126.738 346.923 Q126.738 354.03 128.543 357.594 Q130.372 361.136 133.983 361.136 Q137.617 361.136 139.423 357.594 Q141.252 354.03 141.252 346.923 Q141.252 339.794 139.423 336.252 Q137.617 332.687 133.983 332.687 M133.983 328.983 Q139.793 328.983 142.849 333.59 Q145.928 338.173 145.928 346.923 Q145.928 355.65 142.849 360.256 Q139.793 364.84 133.983 364.84 Q128.173 364.84 125.094 360.256 Q122.039 355.65 122.039 346.923 Q122.039 338.173 125.094 333.59 Q128.173 328.983 133.983 328.983 Z" fill="#000000" fill-rule="evenodd" fill-opacity="1" /><path clip-path="url(#clip350)" d="M154.145 358.289 L159.029 358.289 L159.029 364.168 L154.145 364.168 L154.145 358.289 Z" fill="#000000" fill-rule="evenodd" fill-opacity="1" /><path clip-path="url(#clip350)" d="M179.214 347.756 Q175.881 347.756 173.96 349.539 Q172.062 351.321 172.062 354.446 Q172.062 357.571 173.96 359.354 Q175.881 361.136 179.214 361.136 Q182.548 361.136 184.469 359.354 Q186.39 357.548 186.39 354.446 Q186.39 351.321 184.469 349.539 Q182.571 347.756 179.214 347.756 M174.539 345.766 Q171.529 345.025 169.84 342.965 Q168.173 340.905 168.173 337.942 Q168.173 333.798 171.113 331.391 Q174.076 328.983 179.214 328.983 Q184.376 328.983 187.316 331.391 Q190.256 333.798 190.256 337.942 Q190.256 340.905 188.566 342.965 Q186.9 345.025 183.914 345.766 Q187.293 346.553 189.168 348.844 Q191.066 351.136 191.066 354.446 Q191.066 359.469 187.988 362.155 Q184.932 364.84 179.214 364.84 Q173.497 364.84 170.418 362.155 Q167.363 359.469 167.363 354.446 Q167.363 351.136 169.261 348.844 Q171.159 346.553 174.539 345.766 M172.826 338.382 Q172.826 341.067 174.492 342.571 Q176.182 344.076 179.214 344.076 Q182.224 344.076 183.914 342.571 Q185.626 341.067 185.626 338.382 Q185.626 335.696 183.914 334.192 Q182.224 332.687 179.214 332.687 Q176.182 332.687 174.492 334.192 Q172.826 335.696 172.826 338.382 Z" fill="#000000" fill-rule="evenodd" fill-opacity="1" /><path clip-path="url(#clip350)" d="M28.3562 1015.26 L28.3562 987.444 L33.7034 987.444 L59.3254 1009.47 L59.3254 987.444 L64.0042 987.444 L64.0042 1016.06 L58.657 1016.06 L33.035 994.032 L33.035 1015.26 L28.3562 1015.26 Z" fill="#000000" fill-rule="evenodd" fill-opacity="1" /><path clip-path="url(#clip350)" d="M43.5384 981.46 L43.5384 964.304 L48.7583 964.304 L48.7583 981.46 L43.5384 981.46 Z" fill="#000000" fill-rule="evenodd" fill-opacity="1" /><path clip-path="url(#clip350)" d="M29.7248 929.325 L35.1993 929.325 Q33.8307 931.807 33.1623 934.322 Q32.4621 936.804 32.4621 939.351 Q32.4621 945.048 36.0905 948.199 Q39.6872 951.35 46.212 951.35 Q52.7369 951.35 56.3653 948.199 Q59.9619 945.048 59.9619 939.351 Q59.9619 936.804 59.2935 934.322 Q58.5933 931.807 57.2247 929.325 L62.6355 929.325 Q63.7814 931.776 64.3543 934.417 Q64.9272 937.027 64.9272 939.987 Q64.9272 948.04 59.8664 952.782 Q54.8057 957.525 46.212 957.525 Q37.491 957.525 32.4939 952.751 Q27.4968 947.944 27.4968 939.605 Q27.4968 936.9 28.0697 934.322 Q28.6108 931.744 29.7248 929.325 Z" fill="#000000" fill-rule="evenodd" fill-opacity="1" /><path clip-path="url(#clip350)" d="M32.4621 905.326 Q32.4621 910.037 36.1542 912.774 Q39.8145 915.511 46.212 915.511 Q52.6095 915.511 56.3017 912.806 Q59.9619 910.069 59.9619 905.326 Q59.9619 900.647 56.2698 897.91 Q52.5777 895.173 46.212 895.173 Q39.8781 895.173 36.186 897.91 Q32.4621 900.647 32.4621 905.326 M27.4968 905.326 Q27.4968 897.687 32.4621 893.327 Q37.4273 888.966 46.212 888.966 Q54.9649 888.966 59.9619 893.327 Q64.9272 897.687 64.9272 905.326 Q64.9272 912.997 59.9619 917.357 Q54.9649 921.686 46.212 921.686 Q37.4273 921.686 32.4621 917.357 Q27.4968 912.997 27.4968 905.326 Z" fill="#000000" fill-rule="evenodd" fill-opacity="1" /><path clip-path="url(#clip350)" d="M32.4621 865.445 Q32.4621 870.156 36.1542 872.893 Q39.8145 875.63 46.212 875.63 Q52.6095 875.63 56.3017 872.925 Q59.9619 870.187 59.9619 865.445 Q59.9619 860.766 56.2698 858.029 Q52.5777 855.292 46.212 855.292 Q39.8781 855.292 36.186 858.029 Q32.4621 860.766 32.4621 865.445 M27.4968 865.445 Q27.4968 857.806 32.4621 853.446 Q37.4273 849.085 46.212 849.085 Q54.9649 849.085 59.9619 853.446 Q64.9272 857.806 64.9272 865.445 Q64.9272 873.116 59.9619 877.476 Q54.9649 881.805 46.212 881.805 Q37.4273 881.805 32.4621 877.476 Q27.4968 873.116 27.4968 865.445 Z" fill="#000000" fill-rule="evenodd" fill-opacity="1" /><path clip-path="url(#clip350)" d="M33.8307 818.721 Q33.2578 819.707 33.0032 820.885 Q32.7167 822.031 32.7167 823.431 Q32.7167 828.397 35.9632 831.07 Q39.1779 833.712 45.2253 833.712 L64.0042 833.712 L64.0042 839.6 L28.3562 839.6 L28.3562 833.712 L33.8944 833.712 Q30.6479 831.866 29.0883 828.906 Q27.4968 825.946 27.4968 821.713 Q27.4968 821.108 27.5923 820.376 Q27.656 819.644 27.8151 818.752 L33.8307 818.721 Z" fill="#000000" fill-rule="evenodd" fill-opacity="1" /><path clip-path="url(#clip350)" d="M33.7671 790.266 L14.479 790.266 L14.479 784.409 L64.0042 784.409 L64.0042 790.266 L58.657 790.266 Q61.8398 792.112 63.3994 794.945 Q64.9272 797.746 64.9272 801.692 Q64.9272 808.154 59.771 812.228 Q54.6147 816.27 46.212 816.27 Q37.8093 816.27 32.6531 812.228 Q27.4968 808.154 27.4968 801.692 Q27.4968 797.746 29.0564 794.945 Q30.5842 792.112 33.7671 790.266 M46.212 810.222 Q52.6732 810.222 56.3653 807.581 Q60.0256 804.907 60.0256 800.26 Q60.0256 795.613 56.3653 792.94 Q52.6732 790.266 46.212 790.266 Q39.7508 790.266 36.0905 792.94 Q32.3984 795.613 32.3984 800.26 Q32.3984 804.907 36.0905 807.581 Q39.7508 810.222 46.212 810.222 Z" fill="#000000" fill-rule="evenodd" fill-opacity="1" /><path clip-path="url(#clip350)" d="M28.3562 772.346 L28.3562 766.49 L64.0042 766.49 L64.0042 772.346 L28.3562 772.346 M14.479 772.346 L14.479 766.49 L21.895 766.49 L21.895 772.346 L14.479 772.346 Z" fill="#000000" fill-rule="evenodd" fill-opacity="1" /><path clip-path="url(#clip350)" d="M42.4881 724.604 L64.0042 724.604 L64.0042 730.46 L42.679 730.46 Q37.6183 730.46 35.1038 732.433 Q32.5894 734.407 32.5894 738.354 Q32.5894 743.096 35.6131 745.833 Q38.6368 748.571 43.8567 748.571 L64.0042 748.571 L64.0042 754.459 L28.3562 754.459 L28.3562 748.571 L33.8944 748.571 Q30.6797 746.47 29.0883 743.637 Q27.4968 740.773 27.4968 737.049 Q27.4968 730.906 31.3163 727.755 Q35.1038 724.604 42.4881 724.604 Z" fill="#000000" fill-rule="evenodd" fill-opacity="1" /><path clip-path="url(#clip350)" d="M46.0847 696.722 Q46.0847 703.82 47.7079 706.557 Q49.3312 709.294 53.2461 709.294 Q56.3653 709.294 58.2114 707.257 Q60.0256 705.188 60.0256 701.655 Q60.0256 696.786 56.5881 693.857 Q53.1188 690.897 47.3897 690.897 L46.0847 690.897 L46.0847 696.722 M43.6657 685.041 L64.0042 685.041 L64.0042 690.897 L58.5933 690.897 Q61.8398 692.902 63.3994 695.894 Q64.9272 698.886 64.9272 703.215 Q64.9272 708.689 61.8716 711.936 Q58.7843 715.151 53.6281 715.151 Q47.6125 715.151 44.5569 711.14 Q41.5014 707.098 41.5014 699.109 L41.5014 690.897 L40.9285 690.897 Q36.8862 690.897 34.6901 693.571 Q32.4621 696.213 32.4621 701.019 Q32.4621 704.074 33.1941 706.971 Q33.9262 709.867 35.3903 712.541 L29.9795 712.541 Q28.7381 709.326 28.1334 706.302 Q27.4968 703.279 27.4968 700.414 Q27.4968 692.68 31.5072 688.86 Q35.5176 685.041 43.6657 685.041 Z" fill="#000000" fill-rule="evenodd" fill-opacity="1" /><path clip-path="url(#clip350)" d="M18.2347 667.185 L28.3562 667.185 L28.3562 655.122 L32.9077 655.122 L32.9077 667.185 L52.2594 667.185 Q56.6199 667.185 57.8613 666.007 Q59.1026 664.798 59.1026 661.138 L59.1026 655.122 L64.0042 655.122 L64.0042 661.138 Q64.0042 667.917 61.4897 670.495 Q58.9434 673.073 52.2594 673.073 L32.9077 673.073 L32.9077 677.37 L28.3562 677.37 L28.3562 673.073 L18.2347 673.073 L18.2347 667.185 Z" fill="#000000" fill-rule="evenodd" fill-opacity="1" /><path clip-path="url(#clip350)" d="M44.7161 616.928 L47.5806 616.928 L47.5806 643.855 Q53.6281 643.473 56.8109 640.226 Q59.9619 636.948 59.9619 631.123 Q59.9619 627.749 59.1344 624.598 Q58.3069 621.416 56.6518 618.296 L62.1899 618.296 Q63.5267 621.447 64.227 624.758 Q64.9272 628.068 64.9272 631.473 Q64.9272 640.003 59.9619 645.001 Q54.9967 649.966 46.5303 649.966 Q37.7774 649.966 32.6531 645.255 Q27.4968 640.513 27.4968 632.492 Q27.4968 625.299 32.1438 621.129 Q36.7589 616.928 44.7161 616.928 M42.9973 622.784 Q38.1912 622.848 35.3266 625.49 Q32.4621 628.1 32.4621 632.428 Q32.4621 637.33 35.2312 640.29 Q38.0002 643.218 43.0292 643.664 L42.9973 622.784 Z" fill="#000000" fill-rule="evenodd" fill-opacity="1" /><polyline clip-path="url(#clip352)" style="stroke:#0000ff; stroke-linecap:butt; stroke-linejoin:round; stroke-width:4; stroke-opacity:1; fill:none" points="
  1286.31,239.545 1080.58,468.496 
  "/>
<polyline clip-path="url(#clip352)" style="stroke:#0000ff; stroke-linecap:butt; stroke-linejoin:round; stroke-width:4; stroke-opacity:1; fill:none" points="
  1286.31,239.545 1023.99,524.483 
  "/>
<polyline clip-path="url(#clip352)" style="stroke:#0000ff; stroke-linecap:butt; stroke-linejoin:round; stroke-width:4; stroke-opacity:1; fill:none" points="
  1286.31,239.545 1229.73,536.85 
  "/>
<polyline clip-path="url(#clip352)" style="stroke:#0000ff; stroke-linecap:butt; stroke-linejoin:round; stroke-width:4; stroke-opacity:1; fill:none" points="
  1286.31,239.545 1492.04,493.23 
  "/>
<polyline clip-path="url(#clip352)" style="stroke:#0000ff; stroke-linecap:butt; stroke-linejoin:round; stroke-width:4; stroke-opacity:1; fill:none" points="
  1286.31,239.545 1548.63,437.243 
  "/>
<polyline clip-path="url(#clip352)" style="stroke:#0000ff; stroke-linecap:butt; stroke-linejoin:round; stroke-width:4; stroke-opacity:1; fill:none" points="
  1286.31,239.545 1342.9,424.876 
  "/>
<polyline clip-path="url(#clip352)" style="stroke:#0000ff; stroke-linecap:butt; stroke-linejoin:round; stroke-width:4; stroke-opacity:1; fill:none" points="
  1080.58,468.496 1023.99,524.483 
  "/>
<polyline clip-path="url(#clip352)" style="stroke:#0000ff; stroke-linecap:butt; stroke-linejoin:round; stroke-width:4; stroke-opacity:1; fill:none" points="
  1023.99,524.483 1229.73,536.85 
  "/>
<polyline clip-path="url(#clip352)" style="stroke:#0000ff; stroke-linecap:butt; stroke-linejoin:round; stroke-width:4; stroke-opacity:1; fill:none" points="
  1229.73,536.85 1492.04,493.23 
  "/>
<polyline clip-path="url(#clip352)" style="stroke:#0000ff; stroke-linecap:butt; stroke-linejoin:round; stroke-width:4; stroke-opacity:1; fill:none" points="
  1492.04,493.23 1548.63,437.243 
  "/>
<polyline clip-path="url(#clip352)" style="stroke:#0000ff; stroke-linecap:butt; stroke-linejoin:round; stroke-width:4; stroke-opacity:1; fill:none" points="
  1548.63,437.243 1342.9,424.876 
  "/>
<polyline clip-path="url(#clip352)" style="stroke:#0000ff; stroke-linecap:butt; stroke-linejoin:round; stroke-width:4; stroke-opacity:1; fill:none" points="
  1080.58,468.496 1342.9,424.876 
  "/>
<polyline clip-path="url(#clip352)" style="stroke:#0000ff; stroke-linecap:butt; stroke-linejoin:round; stroke-width:4; stroke-opacity:1; fill:none" points="
  1080.58,468.496 745.856,1266.97 
  "/>
<polyline clip-path="url(#clip352)" style="stroke:#0000ff; stroke-linecap:butt; stroke-linejoin:round; stroke-width:4; stroke-opacity:1; fill:none" points="
  1023.99,524.483 745.856,1266.97 
  "/>
<polyline clip-path="url(#clip352)" style="stroke:#0000ff; stroke-linecap:butt; stroke-linejoin:round; stroke-width:4; stroke-opacity:1; fill:none" points="
  1023.99,524.483 918.06,1345.9 
  "/>
<polyline clip-path="url(#clip352)" style="stroke:#0000ff; stroke-linecap:butt; stroke-linejoin:round; stroke-width:4; stroke-opacity:1; fill:none" points="
  1229.73,536.85 918.06,1345.9 
  "/>
<polyline clip-path="url(#clip352)" style="stroke:#0000ff; stroke-linecap:butt; stroke-linejoin:round; stroke-width:4; stroke-opacity:1; fill:none" points="
  1229.73,536.85 1458.52,1309.81 
  "/>
<polyline clip-path="url(#clip352)" style="stroke:#0000ff; stroke-linecap:butt; stroke-linejoin:round; stroke-width:4; stroke-opacity:1; fill:none" points="
  1492.04,493.23 1458.52,1309.81 
  "/>
<polyline clip-path="url(#clip352)" style="stroke:#0000ff; stroke-linecap:butt; stroke-linejoin:round; stroke-width:4; stroke-opacity:1; fill:none" points="
  1492.04,493.23 1826.77,1194.79 
  "/>
<polyline clip-path="url(#clip352)" style="stroke:#0000ff; stroke-linecap:butt; stroke-linejoin:round; stroke-width:4; stroke-opacity:1; fill:none" points="
  1548.63,437.243 1826.77,1194.79 
  "/>
<polyline clip-path="url(#clip352)" style="stroke:#0000ff; stroke-linecap:butt; stroke-linejoin:round; stroke-width:4; stroke-opacity:1; fill:none" points="
  1548.63,437.243 1654.56,1115.86 
  "/>
<polyline clip-path="url(#clip352)" style="stroke:#0000ff; stroke-linecap:butt; stroke-linejoin:round; stroke-width:4; stroke-opacity:1; fill:none" points="
  1342.9,424.876 1654.56,1115.86 
  "/>
<polyline clip-path="url(#clip352)" style="stroke:#0000ff; stroke-linecap:butt; stroke-linejoin:round; stroke-width:4; stroke-opacity:1; fill:none" points="
  1342.9,424.876 1114.11,1151.95 
  "/>
<polyline clip-path="url(#clip352)" style="stroke:#0000ff; stroke-linecap:butt; stroke-linejoin:round; stroke-width:4; stroke-opacity:1; fill:none" points="
  1080.58,468.496 1114.11,1151.95 
  "/>
<circle clip-path="url(#clip352)" cx="1286.31" cy="239.545" r="14" fill="#ffffff" fill-rule="evenodd" fill-opacity="1" stroke="#000000" stroke-opacity="1" stroke-width="3.2"/>
<circle clip-path="url(#clip352)" cx="1080.58" cy="468.496" r="14" fill="#ffffff" fill-rule="evenodd" fill-opacity="1" stroke="#000000" stroke-opacity="1" stroke-width="3.2"/>
<circle clip-path="url(#clip352)" cx="1023.99" cy="524.483" r="14" fill="#ffffff" fill-rule="evenodd" fill-opacity="1" stroke="#000000" stroke-opacity="1" stroke-width="3.2"/>
<circle clip-path="url(#clip352)" cx="1229.73" cy="536.85" r="14" fill="#ffffff" fill-rule="evenodd" fill-opacity="1" stroke="#000000" stroke-opacity="1" stroke-width="3.2"/>
<circle clip-path="url(#clip352)" cx="1492.04" cy="493.23" r="14" fill="#ffffff" fill-rule="evenodd" fill-opacity="1" stroke="#000000" stroke-opacity="1" stroke-width="3.2"/>
<circle clip-path="url(#clip352)" cx="1548.63" cy="437.243" r="14" fill="#ffffff" fill-rule="evenodd" fill-opacity="1" stroke="#000000" stroke-opacity="1" stroke-width="3.2"/>
<circle clip-path="url(#clip352)" cx="1342.9" cy="424.876" r="14" fill="#ffffff" fill-rule="evenodd" fill-opacity="1" stroke="#000000" stroke-opacity="1" stroke-width="3.2"/>
<circle clip-path="url(#clip352)" cx="745.856" cy="1266.97" r="14" fill="#ffffff" fill-rule="evenodd" fill-opacity="1" stroke="#000000" stroke-opacity="1" stroke-width="3.2"/>
<circle clip-path="url(#clip352)" cx="918.06" cy="1345.9" r="14" fill="#ffffff" fill-rule="evenodd" fill-opacity="1" stroke="#000000" stroke-opacity="1" stroke-width="3.2"/>
<circle clip-path="url(#clip352)" cx="1458.52" cy="1309.81" r="14" fill="#ffffff" fill-rule="evenodd" fill-opacity="1" stroke="#000000" stroke-opacity="1" stroke-width="3.2"/>
<circle clip-path="url(#clip352)" cx="1826.77" cy="1194.79" r="14" fill="#ffffff" fill-rule="evenodd" fill-opacity="1" stroke="#000000" stroke-opacity="1" stroke-width="3.2"/>
<circle clip-path="url(#clip352)" cx="1654.56" cy="1115.86" r="14" fill="#ffffff" fill-rule="evenodd" fill-opacity="1" stroke="#000000" stroke-opacity="1" stroke-width="3.2"/>
<circle clip-path="url(#clip352)" cx="1114.11" cy="1151.95" r="14" fill="#ffffff" fill-rule="evenodd" fill-opacity="1" stroke="#000000" stroke-opacity="1" stroke-width="3.2"/>
</svg>
